<svg width="457" height="424" viewBox="0 0 457 424" fill="none" xmlns="http://www.w3.org/2000/svg">
<path d="M234.706 2.52656C229.27 -0.0403603 223.226 -0.330081 219.384 0.255153C215.784 0.802723 210.574 2.17599 206.192 5.60917C203.47 7.74151 201.443 10.3973 200.168 13.5031C198.658 17.1815 198.198 21.5187 198.8 26.3946C198.891 27.1257 199.265 27.7747 199.853 28.2208C200.445 28.6689 201.174 28.8544 201.908 28.7433L211.345 27.3073C212.677 27.1044 213.669 25.9369 213.656 24.5916C213.624 21.5689 214.623 16.3191 221.666 15.1226C227.034 14.2139 229.843 17.7687 230.804 19.3409C232.367 21.8982 232.569 25.1826 231.344 28.1262C229.463 32.6487 224.939 33.9853 222.411 34.3793C219.503 34.8322 217.496 37.5546 217.936 40.447L219.481 50.6017C219.707 52.0851 221.097 53.1078 222.579 52.8818L231.774 51.4824C233.257 51.2565 234.28 49.8668 234.054 48.3844L233.73 46.2511C233.722 46.1999 233.747 46.1506 233.793 46.1265C235.765 45.0787 239.534 42.6991 242.62 38.53C246.56 33.2088 248.008 26.893 246.922 19.7601C245.371 9.5513 239.423 4.75354 234.706 2.52656Z" fill="#EBEBEB"/>
<path d="M228.024 54.6688L227.22 54.7915C223.374 55.3767 220.722 58.9808 221.307 62.8264C221.893 66.6719 225.497 69.3238 229.342 68.7386L230.147 68.6159C233.992 68.0307 236.644 64.4266 236.059 60.581C235.474 56.7355 231.87 54.0836 228.024 54.6688Z" fill="#EBEBEB"/>
<path d="M45.3099 166.452C42.5788 163.037 38.7226 160.915 36.0244 160.068C33.498 159.275 29.6544 158.506 25.693 159.348C23.2323 159.872 21.0594 160.959 19.2332 162.581C17.0699 164.502 15.3828 167.188 14.2172 170.566C14.0424 171.073 14.0791 171.616 14.3215 172.096C14.5648 172.578 14.982 172.932 15.4977 173.095L22.1226 175.175C23.0575 175.468 24.0802 175.023 24.5012 174.14C25.4467 172.154 27.778 169.043 32.7631 170.514C36.5613 171.637 37.2605 174.859 37.3851 176.193C37.5879 178.364 36.6695 180.574 34.9283 182.106C32.2532 184.459 28.8702 183.886 27.0913 183.335C25.0459 182.702 22.8643 183.838 22.2269 185.869L19.9893 192.998C19.6629 194.04 20.2433 195.152 21.2844 195.479L27.7394 197.506C28.7804 197.832 29.8929 197.252 30.2203 196.21L30.6906 194.713C30.7022 194.677 30.7341 194.653 30.7727 194.652C32.3961 194.598 35.6197 194.247 38.9699 192.511C43.2461 190.293 46.2109 186.629 47.7831 181.622C50.0314 174.453 47.6788 169.416 45.3099 166.452Z" fill="#EBEBEB"/>
<path d="M24.2697 198.387L23.7047 198.209C21.0045 197.361 18.1189 198.868 17.272 201.568C16.425 204.268 17.9316 207.153 20.6308 208L21.1958 208.178C23.895 209.025 26.7815 207.519 27.6285 204.819C28.4764 202.12 26.9689 199.234 24.2697 198.387Z" fill="#EBEBEB"/>
<path d="M331.53 397.841C355.034 396.82 384.851 389.314 403.085 373.977C377.917 374.628 352.466 383.116 331.53 397.841Z" fill="#EBEBEB"/>
<path d="M347.884 370.043C371.388 369.022 401.204 361.516 419.439 346.18C394.272 346.831 368.82 355.318 347.884 370.043Z" fill="#EBEBEB"/>
<path d="M365.462 343.564C388.966 342.544 418.782 335.038 437.017 319.701C411.85 320.352 386.398 328.84 365.462 343.564Z" fill="#EBEBEB"/>
<path d="M385.077 316.251C408.459 312.354 437.28 301.309 453.453 283.992C428.357 287.73 404.036 299.203 385.077 316.251Z" fill="#EBEBEB"/>
<path d="M402.322 296.098C423.083 284.216 446.22 263.946 454.833 242.549C432.375 254.901 413.698 273.947 402.322 296.098Z" fill="#EBEBEB"/>
<path d="M393.962 305.625C400.355 282.307 402.341 250.961 392.959 228.729C385.677 253.571 386.033 280.922 393.962 305.625Z" fill="#EBEBEB"/>
<path d="M377.329 327.905C381.861 303.173 381.054 270.44 369.218 248.066C363.9 274.452 366.784 302.85 377.329 327.905Z" fill="#EBEBEB"/>
<path d="M357.507 355.232C362.038 330.499 361.232 297.766 349.396 275.393C344.078 301.779 346.962 330.177 357.507 355.232Z" fill="#EBEBEB"/>
<path d="M336.379 389.853C340.91 365.12 340.104 332.387 328.268 310.014C322.95 336.4 325.834 364.798 336.379 389.853Z" fill="#EBEBEB"/>
<path d="M328.329 402.639C324.924 408.926 322.257 414.06 320.492 417.647C319.637 419.388 318.96 420.767 318.463 421.779C318.259 422.215 318.092 422.571 317.956 422.864C317.846 423.11 317.796 423.24 317.81 423.247C317.823 423.254 317.901 423.138 318.037 422.905C318.195 422.624 318.387 422.28 318.623 421.861C319.156 420.868 319.882 419.515 320.8 417.807C322.659 414.271 325.409 409.186 328.881 402.943C332.334 396.691 336.603 389.334 341.461 381.237C346.361 373.164 351.889 364.373 357.917 355.293C370 337.156 381.822 321.342 390.649 310.112C395.062 304.497 398.681 299.987 401.218 296.9C402.437 295.391 403.402 294.196 404.11 293.319C404.405 292.939 404.647 292.629 404.845 292.374C405.006 292.157 405.083 292.042 405.071 292.032C405.06 292.022 404.959 292.118 404.775 292.315C404.559 292.554 404.295 292.846 403.972 293.204C403.233 294.055 402.225 295.214 400.953 296.679C398.332 299.698 394.636 304.15 390.156 309.721C381.195 320.861 369.275 336.638 357.175 354.801" fill="#E0E0E0"/>
<path d="M287.765 240.048C296.344 218.87 301.739 189.499 295.544 167.201C285.967 189.7 283.2 215.61 287.765 240.048Z" fill="#EBEBEB"/>
<path d="M269.8 214.388C278.379 193.21 283.774 163.839 277.579 141.541C268.002 164.041 265.235 189.951 269.8 214.388Z" fill="#EBEBEB"/>
<path d="M253.495 188.175C262.074 166.997 267.47 137.626 261.274 115.328C251.697 137.828 248.93 163.738 253.495 188.175Z" fill="#EBEBEB"/>
<path d="M237.276 159.827C243.265 137.598 245.132 107.677 236.356 86.4023C229.535 110.084 229.862 136.199 237.276 159.827Z" fill="#EBEBEB"/>
<path d="M226.426 136.464C224.303 113.329 215.724 84.7104 200.295 68.4688C202.148 93.2948 211.442 117.48 226.426 136.464Z" fill="#EBEBEB"/>
<path d="M231.473 147.691C213.45 132.638 186.555 118.238 163.128 117.561C182.139 134.015 206.449 144.732 231.473 147.691Z" fill="#EBEBEB"/>
<path d="M244.45 171.375C224.426 157.395 195.179 144.905 170.638 146.337C191.805 161.679 218.059 170.585 244.45 171.375Z" fill="#EBEBEB"/>
<path d="M260.594 199.909C240.571 185.929 211.323 173.438 186.782 174.87C207.95 190.214 234.204 199.12 260.594 199.909Z" fill="#EBEBEB"/>
<path d="M282.661 232.541C262.636 218.561 233.39 206.071 208.849 207.503C230.016 222.846 256.27 231.752 282.661 232.541Z" fill="#EBEBEB"/>
<path d="M290.713 244.814C294.893 250.357 298.353 254.785 300.811 257.791C302.005 259.249 302.95 260.404 303.644 261.25C303.947 261.607 304.194 261.898 304.397 262.136C304.571 262.333 304.666 262.429 304.677 262.419C304.689 262.409 304.617 262.295 304.467 262.081C304.282 261.828 304.056 261.519 303.781 261.141C303.119 260.27 302.216 259.082 301.077 257.583C298.703 254.514 295.319 250.033 291.204 244.448C287.074 238.874 282.295 232.136 277.1 224.577C271.944 216.991 266.406 208.562 260.815 199.572C249.664 181.58 240.461 164.755 234.099 152.427C230.917 146.263 228.393 141.247 226.689 137.759C225.847 136.074 225.181 134.739 224.692 133.76C224.476 133.346 224.298 133.007 224.153 132.73C224.028 132.5 223.956 132.385 223.943 132.391C223.929 132.398 223.974 132.524 224.073 132.767C224.198 133.055 224.349 133.406 224.535 133.835C224.988 134.831 225.606 136.189 226.386 137.904C227.997 141.438 230.439 146.498 233.554 152.704C239.781 165.115 248.913 182.01 260.08 200.027" fill="#E0E0E0"/>
<path d="M451.386 157.137C447.431 152.434 441.939 149.588 438.12 148.493C434.543 147.468 429.117 146.522 423.582 147.843C420.144 148.664 417.129 150.267 414.621 152.609C411.649 155.383 409.373 159.216 407.854 164.002C407.626 164.719 407.696 165.481 408.054 166.147C408.412 166.816 409.011 167.299 409.741 167.508L419.12 170.198C420.443 170.578 421.864 169.916 422.425 168.661C423.684 165.839 426.85 161.387 433.904 163.279C439.279 164.723 440.373 169.224 440.595 171.093C440.956 174.135 439.743 177.273 437.351 179.485C433.676 182.885 428.904 182.198 426.386 181.486C423.491 180.668 420.465 182.341 419.642 185.216L416.747 195.309C416.324 196.783 417.18 198.326 418.654 198.749L427.791 201.369C429.265 201.792 430.808 200.936 431.23 199.463L431.839 197.342C431.853 197.291 431.898 197.256 431.952 197.253C434.23 197.12 438.746 196.516 443.391 193.959C449.32 190.695 453.357 185.445 455.39 178.356C458.299 168.209 454.818 161.216 451.386 157.137Z" fill="#EBEBEB"/>
<path d="M422.95 202.728L422.15 202.499C418.329 201.403 414.327 203.62 413.231 207.443C412.135 211.264 414.353 215.265 418.175 216.361L418.975 216.59C422.796 217.686 426.797 215.469 427.893 211.646C428.989 207.825 426.771 203.824 422.95 202.728Z" fill="#EBEBEB"/>
<path d="M141.892 239.718C137.336 236.31 131.788 234.898 128.115 234.713C124.674 234.54 119.583 234.828 114.871 237.183C111.944 238.645 109.562 240.724 107.793 243.362C105.697 246.487 104.449 250.422 104.085 255.056C104.03 255.752 104.254 256.424 104.716 256.948C105.18 257.475 105.822 257.785 106.523 257.821L115.544 258.275C116.817 258.339 117.959 257.445 118.2 256.194C118.743 253.385 120.661 248.707 127.418 248.93C132.568 249.103 134.5 252.93 135.093 254.57C136.058 257.237 135.624 260.32 133.932 262.818C131.333 266.655 126.886 267.039 124.467 266.926C121.685 266.797 119.309 268.941 119.17 271.706L118.681 281.413C118.61 282.831 119.705 284.042 121.123 284.113L129.913 284.556C131.331 284.627 132.542 283.532 132.613 282.114L132.715 280.075C132.717 280.025 132.75 279.985 132.798 279.97C134.825 279.372 138.769 277.879 142.419 274.597C147.079 270.409 149.616 264.827 149.959 258.008C150.45 248.248 145.843 242.675 141.892 239.718Z" fill="#EBEBEB"/>
<path d="M125.833 286.799L125.064 286.76C121.388 286.576 118.247 289.415 118.062 293.092C117.877 296.767 120.717 299.909 124.394 300.094L125.162 300.133C128.838 300.317 131.979 297.478 132.165 293.802C132.349 290.125 129.509 286.984 125.833 286.799Z" fill="#EBEBEB"/>
<path d="M94.9873 411.648H103.332C108.243 394.149 110.606 374.676 107.39 358.396C99.8575 374.716 95.6372 393.1 94.9873 411.648Z" fill="#EBEBEB"/>
<path d="M93.4062 330.443C83.1462 352.671 79.01 378.723 81.7169 403.812C81.8097 404.009 81.9043 404.207 81.998 404.404C91.2758 383.2 97.9789 353.594 93.4062 330.443Z" fill="#EBEBEB"/>
<path d="M71.3897 299.164C63.8695 322.081 62.4779 347.7 67.3771 371.574C67.6793 372.298 67.9893 373.039 68.3042 373.785C75.0942 351.399 78.4106 321.28 71.3897 299.164Z" fill="#EBEBEB"/>
<path d="M57.043 346.048C56.9619 345.792 56.9272 345.659 56.9407 345.653C56.9542 345.647 57.015 345.77 57.1213 346.014C57.2429 346.309 57.3926 346.668 57.5742 347.107C57.721 347.479 57.8929 347.917 58.0773 348.385C58.4096 348.92 58.7282 349.465 59.0682 349.993C58.3835 326.084 51.8802 296.138 38.1523 278.486C38.471 303.094 45.3577 327.51 57.5404 347.514C57.5008 347.403 57.4564 347.278 57.4197 347.175C57.269 346.722 57.1454 346.352 57.043 346.048Z" fill="#EBEBEB"/>
<path d="M62.7997 361.755C62.7292 361.575 62.6606 361.397 62.592 361.218C46.3272 344.839 21.9453 328.751 0 326.621C17.0191 344.609 39.341 357.088 62.7997 361.755Z" fill="#EBEBEB"/>
<path d="M74.1844 386.994C74.0946 386.916 74 386.839 73.9092 386.762C73.9401 386.831 73.972 386.902 74.0029 386.971C74.0637 386.978 74.1245 386.988 74.1844 386.994Z" fill="#EBEBEB"/>
<path d="M5.47754 356.662C24.4407 373.509 48.4652 384.217 73.132 386.868C72.9552 386.464 72.7862 386.071 72.6124 385.67C54.4257 370.56 28.2205 356.717 5.47754 356.662Z" fill="#EBEBEB"/>
<path d="M19.1816 386.994C31.6019 398.029 46.198 406.416 61.7183 411.649H80.805C63.0752 398.336 39.717 387.044 19.1816 386.994Z" fill="#EBEBEB"/>
<path d="M64.9047 367.129C67.0583 372.569 69.6465 378.838 72.6122 385.671C72.7861 386.071 72.9551 386.464 73.1318 386.869C76.4848 394.551 80.3159 402.929 84.5526 411.65H85.4806C84.288 409.205 83.1262 406.787 81.9963 404.405C81.9026 404.208 81.8089 404.01 81.7152 403.813C78.9397 397.944 76.3612 392.294 74.0019 386.973C73.971 386.904 73.9392 386.832 73.9083 386.764C71.8696 382.161 69.999 377.816 68.3031 373.786C67.9883 373.039 67.6783 372.299 67.376 371.575C66.6991 369.952 66.0511 368.381 65.4378 366.879C62.7685 360.346 60.6594 355.033 59.2407 351.344C58.7897 350.199 58.4063 349.225 58.076 348.387C57.8916 347.918 57.7197 347.481 57.5729 347.109C57.3904 346.669 57.2416 346.311 57.12 346.016C57.0137 345.771 56.9529 345.649 56.9394 345.654C56.9258 345.66 56.9606 345.794 57.0417 346.049C57.1431 346.354 57.2677 346.723 57.4193 347.176C57.456 347.279 57.5005 347.403 57.5401 347.514C57.9003 348.531 58.3658 349.841 58.9452 351.473C59.8472 354.009 61.0814 357.311 62.5918 361.219C62.6604 361.398 62.7289 361.576 62.7994 361.756C63.4532 363.443 64.1524 365.229 64.9047 367.129Z" fill="#E0E0E0"/>
<path d="M438.088 411.27C438.088 411.415 342.791 411.533 225.265 411.533C107.697 411.533 12.4209 411.415 12.4209 411.27C12.4209 411.124 107.697 411.006 225.265 411.006C342.791 411.006 438.088 411.124 438.088 411.27Z" fill="#263238"/>
<path d="M62.6071 102.129C78.625 95.9247 86.5803 77.9099 80.3759 61.892C74.1714 45.8741 56.1566 37.9188 40.1387 44.1232C24.1208 50.3277 16.1655 68.3425 22.3699 84.3604C28.5744 100.378 46.5892 108.334 62.6071 102.129Z" fill="white"/>
<path d="M82.4731 73.1277C82.4731 73.1277 82.4509 72.9568 82.4277 72.6246C82.4055 72.2789 82.3746 71.7873 82.334 71.148C82.3147 70.8225 82.2935 70.4594 82.2693 70.0606C82.2278 69.6627 82.1428 69.231 82.0723 68.7617C81.998 68.2923 81.9178 67.7872 81.8319 67.2484C81.7671 66.7046 81.5653 66.1523 81.4262 65.5525C80.8787 63.1498 79.7555 60.3105 77.9824 57.3013C76.1949 54.3046 73.6164 51.1737 70.105 48.516C69.6636 48.1877 69.2175 47.8555 68.7665 47.5184C68.2961 47.2104 67.8007 46.9274 67.3111 46.6261C66.8108 46.3422 66.3376 45.9965 65.8017 45.7531C65.2715 45.4991 64.7355 45.2422 64.1947 44.9824C63.9233 44.854 63.651 44.7246 63.3777 44.5952C63.0928 44.4918 62.8069 44.3875 62.5191 44.2823C61.9445 44.0727 61.3631 43.8612 60.7779 43.6478C60.1859 43.4527 59.5669 43.3262 58.9546 43.1601C58.3356 43.0201 57.7272 42.8018 57.0821 42.7361C55.8025 42.5546 54.5103 42.2909 53.1708 42.2832C52.5035 42.26 51.8314 42.1953 51.1544 42.2059C50.4774 42.2407 49.7946 42.2764 49.107 42.3112C48.7642 42.3354 48.4175 42.3325 48.0737 42.3778L47.0423 42.5362C46.3537 42.6502 45.6536 42.7313 44.9621 42.8742C43.5975 43.2451 42.1837 43.5222 40.8394 44.0843C39.4526 44.5285 38.1479 45.2132 36.8065 45.8564C36.1537 46.2108 35.5279 46.6232 34.8808 47.0066C34.565 47.2094 34.227 47.3813 33.9257 47.6102L33.016 48.292C31.7596 49.1544 30.6606 50.2331 29.5094 51.2722C28.9879 51.8459 28.4645 52.4234 27.9382 53.0028L27.5432 53.4384L27.1878 53.9087L26.4799 54.8561L25.7691 55.8073L25.1462 56.8242L24.5243 57.8479L24.2124 58.3617L23.9478 58.9025C23.5991 59.6258 23.2495 60.353 22.898 61.0822C22.6199 61.8422 22.3398 62.6051 22.0598 63.3709C21.0515 66.4738 20.5088 69.7689 20.4644 73.1219C20.5088 76.4769 21.0496 79.7729 22.0578 82.8768C22.3389 83.6426 22.618 84.4065 22.8961 85.1666C23.2476 85.8966 23.5972 86.6229 23.9458 87.3472L24.2095 87.888L24.5214 88.4018L25.1433 89.4254L25.7653 90.4433L26.4761 91.3946L27.1839 92.342L27.5384 92.8123L27.9334 93.2478C28.4597 93.8273 28.9841 94.4048 29.5046 94.9794C30.6558 96.0185 31.7548 97.0982 33.0121 97.9606L33.9228 98.6424C34.2241 98.8713 34.5621 99.0441 34.8789 99.246C35.525 99.6294 36.1517 100.042 36.8046 100.396C38.146 101.039 39.4497 101.725 40.8375 102.168C42.1818 102.73 43.5956 103.007 44.9611 103.378C45.6536 103.521 46.3537 103.602 47.0423 103.716L48.0737 103.875C48.4175 103.92 48.7642 103.918 49.107 103.941C49.7946 103.977 50.4764 104.012 51.1544 104.048C51.8314 104.058 52.5035 103.993 53.1708 103.97C54.5113 103.963 55.8034 103.699 57.083 103.517C57.7281 103.452 58.3365 103.233 58.9556 103.093C59.5679 102.926 60.1869 102.801 60.7789 102.606C61.3651 102.392 61.9455 102.181 62.5201 101.971C62.8079 101.866 63.0937 101.763 63.3786 101.658C63.6519 101.529 63.9252 101.4 64.1956 101.271C64.7365 101.011 65.2724 100.754 65.8026 100.5C66.3386 100.257 66.8128 99.9114 67.3121 99.6274C67.8017 99.3252 68.2981 99.0432 68.7674 98.7351C69.2184 98.399 69.6646 98.0659 70.1059 97.7375C73.6183 95.0798 76.1958 91.9489 77.9834 88.9513C79.7555 85.942 80.8796 83.1028 81.4262 80.7C81.5663 80.1003 81.7681 79.5489 81.8319 79.0042C81.9178 78.4644 81.998 77.9603 82.0723 77.4909C82.1418 77.0216 82.2268 76.5899 82.2693 76.192C82.2925 75.7932 82.3147 75.431 82.334 75.1056C82.3746 74.4662 82.4065 73.9757 82.4277 73.629C82.4509 73.2987 82.4731 73.1277 82.4731 73.1277C82.4731 73.1277 82.4779 73.2987 82.4683 73.6319C82.4557 73.9785 82.4374 74.4711 82.4132 75.1123C82.3997 75.4397 82.3842 75.8028 82.3678 76.2036C82.3321 76.6034 82.2529 77.037 82.1892 77.5093C82.1196 77.9815 82.0453 78.4895 81.9661 79.0322C81.9072 79.5798 81.7102 80.1361 81.5759 80.7396C81.0486 83.1598 79.94 86.0241 78.1737 89.0652C76.3919 92.0938 73.8085 95.2633 70.2759 97.9596C69.8317 98.2928 69.3836 98.6298 68.9287 98.9707C68.4555 99.2836 67.9562 99.5705 67.4637 99.8776C66.9605 100.166 66.4825 100.517 65.9426 100.764C65.4086 101.023 64.8688 101.284 64.3231 101.548C64.0498 101.679 63.7755 101.81 63.4993 101.942C63.2125 102.049 62.9238 102.155 62.6331 102.261C62.0527 102.474 61.4675 102.69 60.8755 102.907C60.2786 103.107 59.6538 103.236 59.0348 103.406C58.4099 103.549 57.7957 103.771 57.1439 103.84C55.8517 104.027 54.5451 104.297 53.1911 104.307C52.517 104.332 51.8372 104.399 51.1525 104.39C50.4678 104.357 49.7773 104.323 49.0829 104.288C48.7362 104.265 48.3847 104.268 48.038 104.222L46.995 104.064C46.2987 103.95 45.5898 103.87 44.8897 103.726C43.5077 103.354 42.0765 103.075 40.7158 102.509C39.3116 102.062 37.9895 101.372 36.6327 100.722C35.9711 100.364 35.3367 99.9481 34.6819 99.5608C34.3613 99.3561 34.0194 99.1813 33.7142 98.9505L32.792 98.2619C31.5191 97.3898 30.4047 96.2995 29.239 95.2478C28.7108 94.6674 28.1796 94.0832 27.6465 93.497L27.2458 93.0566L26.8855 92.5815L26.168 91.6234L25.4476 90.6606L24.8169 89.6311L24.1873 88.5949L23.8715 88.0753L23.604 87.5278C23.2505 86.7948 22.8961 86.0589 22.5397 85.3201C22.2577 84.5504 21.9738 83.7769 21.6889 83.0014C20.6672 79.8589 20.1177 76.5194 20.0742 73.1229C20.1186 69.7274 20.6691 66.3898 21.6909 63.2483C21.9757 62.4728 22.2587 61.7002 22.5417 60.9305C22.898 60.1917 23.2524 59.4568 23.6059 58.7238L23.8744 58.1772L24.1902 57.6577L24.8198 56.6214L25.4514 55.592L26.1719 54.6291L26.8894 53.6711L27.2496 53.196L27.6494 52.7556C28.1825 52.1694 28.7137 51.5861 29.2419 51.0057C30.4076 49.954 31.522 48.8647 32.7948 47.9926L33.7171 47.304C34.0223 47.0732 34.3642 46.8984 34.6848 46.6937C35.3396 46.3064 35.974 45.8902 36.6346 45.5329C37.9924 44.883 39.3135 44.1934 40.7177 43.7453C42.0794 43.1804 43.5097 42.9013 44.8916 42.5295C45.5918 42.3856 46.3006 42.3054 46.9969 42.1915L48.0399 42.034C48.3876 41.9887 48.7381 41.9916 49.0848 41.9684C49.7802 41.9346 50.4697 41.8998 51.1544 41.866C51.8391 41.8573 52.518 41.924 53.1921 41.9491C54.546 41.9607 55.8527 42.2291 57.1439 42.4165C57.7957 42.485 58.4099 42.7062 59.0348 42.8501C59.6528 43.0201 60.2777 43.1495 60.8755 43.3484C61.4665 43.5657 62.0527 43.7811 62.6331 43.9945C62.9228 44.1017 63.2116 44.2079 63.4993 44.3132C63.7755 44.4455 64.0498 44.5759 64.3241 44.7072C64.8697 44.9708 65.4096 45.2326 65.9436 45.4914C66.4844 45.7386 66.9615 46.0892 67.4646 46.3779C67.9581 46.684 68.4565 46.9709 68.9297 47.2838C69.3836 47.6247 69.8336 47.9617 70.2769 48.2949C73.8095 50.9902 76.3928 54.1598 78.1746 57.1893C79.9419 60.2313 81.0506 63.0957 81.5779 65.5158C81.7121 66.1194 81.9091 66.6757 81.968 67.2232C82.0472 67.766 82.1216 68.274 82.1911 68.7462C82.2548 69.2185 82.334 69.6521 82.3698 70.0519C82.3862 70.4527 82.4016 70.8167 82.4151 71.1441C82.4393 71.7854 82.4576 72.2779 82.4702 72.6246C82.4779 72.9568 82.4731 73.1277 82.4731 73.1277Z" fill="#263238"/>
<path d="M40.3058 67.7961H46.2151C46.2151 67.7961 46.2151 62.8342 51.3711 62.7454C54.0491 62.699 55.4369 64.4537 56.0018 65.7971C56.6566 67.3577 56.4586 69.1356 55.5808 70.5832C54.5783 72.2356 52.3823 73.7373 48.3996 73.0362V81.7075H54.2423V78.5554C54.2423 78.5554 62.4365 76.4365 62.4365 67.406C62.4365 58.7656 54.6875 56.7578 51.3711 56.7578C48.8351 56.7578 40.1937 57.3711 40.3058 67.7961Z" fill="#3551B6"/>
<path d="M54.3134 83.957H48.3838V89.4955H54.3134V83.957Z" fill="#3551B6"/>
<path d="M83.8808 102.229C83.8808 104.851 81.7552 106.977 79.1323 106.977C76.5094 106.977 74.3838 104.852 74.3838 102.229C74.3838 99.607 76.5094 97.4805 79.1323 97.4805C81.7552 97.4805 83.8808 99.607 83.8808 102.229Z" fill="white"/>
<path d="M83.8806 102.228C83.839 102.23 83.8535 101.805 83.6584 101.087C83.4643 100.383 82.9824 99.3538 81.9211 98.5639C80.8955 97.771 79.2083 97.3296 77.5763 97.9381C76.7728 98.2297 76.0069 98.7782 75.4632 99.5344C74.9041 100.281 74.5902 101.239 74.5806 102.227C74.5902 103.215 74.9041 104.173 75.4632 104.92C76.0069 105.677 76.7728 106.226 77.5763 106.518C79.2083 107.126 80.8955 106.684 81.9211 105.892C82.9824 105.102 83.4643 104.072 83.6575 103.368C83.8535 102.651 83.839 102.226 83.8806 102.228C83.8941 102.228 83.9018 102.332 83.9047 102.533C83.9115 102.733 83.8883 103.031 83.8062 103.406C83.6517 104.144 83.192 105.245 82.0901 106.113C81.0259 106.982 79.2238 107.496 77.4536 106.859C76.5825 106.553 75.7481 105.966 75.1532 105.149C74.5429 104.343 74.1962 103.301 74.1875 102.228C74.1962 101.156 74.5429 100.114 75.1532 99.3084C75.7472 98.4914 76.5816 97.9042 77.4526 97.5991C79.2219 96.9617 81.0239 97.4755 82.0891 98.3437C83.192 99.2109 83.6517 100.313 83.8062 101.051C83.8883 101.424 83.9115 101.723 83.9047 101.924C83.9018 102.124 83.8941 102.228 83.8806 102.228Z" fill="#263238"/>
<path d="M420.195 76.9242C432.96 64.16 432.96 43.465 420.195 30.7008C407.431 17.9365 386.736 17.9365 373.972 30.7008C361.208 43.4651 361.208 64.16 373.972 76.9242C386.736 89.6885 407.431 89.6885 420.195 76.9242Z" fill="white"/>
<path d="M429.773 53.8112C429.773 53.8112 429.75 53.6315 429.726 53.282C429.703 52.9188 429.67 52.4022 429.628 51.73C429.607 51.3881 429.585 51.0067 429.56 50.5876C429.516 50.1694 429.427 49.7155 429.353 49.222C429.275 48.7285 429.191 48.1983 429.1 47.6315C429.033 47.0597 428.82 46.4793 428.673 45.8497C428.099 43.3252 426.918 40.3411 425.055 37.1784C423.176 34.0291 420.467 30.7389 416.776 27.946C416.312 27.6012 415.844 27.2516 415.369 26.8981C414.874 26.5746 414.354 26.2772 413.839 25.9604C413.313 25.662 412.816 25.2979 412.252 25.043C411.695 24.7755 411.132 24.506 410.563 24.2327C410.278 24.0975 409.992 23.9623 409.705 23.8252C409.405 23.716 409.105 23.6069 408.803 23.4968C408.198 23.2766 407.589 23.0545 406.972 22.8305C406.351 22.6248 405.701 22.4925 405.056 22.3177C404.406 22.1699 403.766 21.941 403.088 21.8725C401.744 21.6822 400.385 21.405 398.977 21.3973C398.276 21.3732 397.57 21.3046 396.858 21.3162C396.147 21.3529 395.43 21.3896 394.708 21.4273C394.347 21.4524 393.982 21.4495 393.622 21.4978L392.539 21.6648C391.815 21.7846 391.079 21.8696 390.352 22.0202C388.918 22.4104 387.432 22.702 386.019 23.2921C384.561 23.7585 383.19 24.479 381.781 25.155C381.095 25.5268 380.437 25.9604 379.758 26.3631C379.426 26.5756 379.071 26.7571 378.754 26.9976L377.798 27.7142C376.477 28.621 375.322 29.7548 374.112 30.846C373.565 31.4496 373.014 32.0561 372.461 32.6645L372.046 33.1213L371.673 33.6148L370.929 34.6105L370.182 35.61L369.528 36.6791L368.875 37.7549L368.548 38.2947L368.271 38.8626C367.905 39.6236 367.537 40.3865 367.168 41.1533C366.875 41.952 366.582 42.7545 366.286 43.559C365.227 46.8193 364.657 50.2824 364.61 53.8063C364.656 57.3313 365.225 60.7963 366.283 64.0576C366.578 64.863 366.871 65.6646 367.164 66.4642C367.533 67.231 367.901 67.9949 368.267 68.7559L368.544 69.3247L368.872 69.8645L369.525 70.9404L370.179 72.0094L370.926 73.009L371.67 74.0046L372.043 74.4991L372.458 74.9569C373.011 75.5662 373.562 76.1727 374.11 76.7763C375.32 77.8685 376.475 79.0023 377.795 79.9091L378.752 80.6257C379.069 80.8662 379.423 81.0477 379.756 81.2602C380.436 81.6629 381.094 82.0965 381.779 82.4693C383.188 83.1453 384.56 83.8657 386.018 84.3322C387.431 84.9222 388.917 85.2139 390.351 85.6041C391.078 85.7547 391.814 85.8397 392.538 85.9594L393.621 86.1265C393.982 86.1738 394.346 86.1719 394.708 86.197C395.43 86.2347 396.148 86.2714 396.859 86.3081C397.571 86.3187 398.278 86.2501 398.978 86.226C400.386 86.2183 401.745 85.9411 403.089 85.7499C403.767 85.6804 404.406 85.4515 405.057 85.3037C405.701 85.1289 406.351 84.9966 406.973 84.7909C407.59 84.5669 408.2 84.3447 408.803 84.1246C409.106 84.0145 409.406 83.9053 409.705 83.7962C409.993 83.66 410.279 83.5239 410.564 83.3887C411.133 83.1154 411.696 82.8459 412.253 82.5784C412.816 82.3225 413.314 81.9594 413.84 81.661C414.355 81.3442 414.875 81.0477 415.37 80.7232C415.844 80.3698 416.313 80.0202 416.777 79.6754C420.468 76.8825 423.176 73.5913 425.055 70.443C426.918 67.2802 428.098 64.2971 428.673 61.7727C428.82 61.143 429.033 60.5626 429.1 59.9909C429.19 59.424 429.274 58.8938 429.352 58.4003C429.426 57.9068 429.516 57.4539 429.559 57.0358C429.584 56.6166 429.606 56.2352 429.627 55.8933C429.669 55.2211 429.702 54.7054 429.725 54.3423C429.75 53.9908 429.773 53.8112 429.773 53.8112C429.773 53.8112 429.778 53.9908 429.768 54.3404C429.754 54.7045 429.735 55.2221 429.71 55.8962C429.695 56.24 429.68 56.6224 429.661 57.0435C429.624 57.4636 429.541 57.9194 429.474 58.4158C429.402 58.9122 429.323 59.4453 429.239 60.016C429.178 60.5916 428.971 61.1758 428.829 61.8103C428.275 64.3531 427.11 67.3633 425.253 70.5599C423.38 73.7429 420.666 77.0737 416.953 79.9072C416.487 80.2568 416.015 80.6112 415.538 80.9695C415.04 81.2988 414.516 81.6001 413.997 81.9217C413.468 82.225 412.967 82.5929 412.399 82.8536C411.837 83.125 411.27 83.4003 410.696 83.6774C410.409 83.8146 410.121 83.9526 409.83 84.0917C409.528 84.2028 409.225 84.3148 408.92 84.4268C408.31 84.6509 407.695 84.8769 407.074 85.1057C406.446 85.3153 405.789 85.4515 405.139 85.6301C404.483 85.7808 403.837 86.0135 403.152 86.086C401.794 86.283 400.421 86.5659 398.998 86.5775C398.29 86.6036 397.576 86.6741 396.856 86.6644C396.137 86.6287 395.412 86.593 394.682 86.5572C394.318 86.5331 393.949 86.535 393.584 86.4877L392.487 86.3216C391.755 86.2018 391.011 86.1169 390.275 85.9662C388.822 85.5751 387.319 85.2815 385.889 84.6876C384.413 84.2173 383.024 83.492 381.597 82.8092C380.902 82.4336 380.235 81.9961 379.548 81.5895C379.211 81.3742 378.851 81.1907 378.531 80.9483L377.561 80.2249C376.224 79.3084 375.052 78.1631 373.828 77.0573C373.272 76.447 372.714 75.8337 372.154 75.2176L371.733 74.755L371.354 74.2548L370.6 73.2475L369.843 72.2354L369.179 71.1538L368.517 70.0645L368.185 69.5178L367.904 68.9423C367.533 68.1716 367.16 67.399 366.785 66.6226C366.489 65.8133 366.191 65.0011 365.892 64.186C364.818 60.8832 364.241 57.3747 364.195 53.8054C364.242 50.238 364.82 46.7295 365.895 43.4286C366.194 42.6135 366.492 41.8013 366.789 40.993C367.163 40.2166 367.536 39.444 367.908 38.6733L368.19 38.0987L368.522 37.5531L369.183 36.4637L369.847 35.3821L370.604 34.37L371.358 33.3627L371.737 32.8635L372.157 32.4009C372.717 31.7847 373.275 31.1715 373.83 30.5612C375.055 29.4564 376.226 28.311 377.564 27.3945L378.533 26.6712C378.853 26.4288 379.212 26.2453 379.55 26.0299C380.237 25.6224 380.903 25.1859 381.599 24.8102C383.025 24.1274 384.414 23.4022 385.89 22.9319C387.32 22.3379 388.823 22.0444 390.276 21.6532C391.012 21.5026 391.756 21.4176 392.487 21.2978L393.584 21.1317C393.949 21.0844 394.318 21.0873 394.682 21.0632C395.412 21.0274 396.137 20.9917 396.856 20.956C397.576 20.9463 398.29 21.0168 398.998 21.0429C400.421 21.0545 401.794 21.3374 403.152 21.5345C403.837 21.6069 404.483 21.8387 405.139 21.9903C405.789 22.1689 406.446 22.3051 407.073 22.5147C407.695 22.7435 408.31 22.9695 408.919 23.1936C409.225 23.3056 409.528 23.4176 409.829 23.5287C410.12 23.6678 410.408 23.8049 410.695 23.942C411.269 24.2192 411.836 24.4944 412.398 24.7658C412.966 25.0256 413.467 25.3935 413.996 25.6977C414.515 26.0193 415.039 26.3216 415.537 26.6499C416.014 27.0082 416.486 27.3627 416.952 27.7132C420.665 30.5467 423.38 33.8765 425.253 37.0596C427.11 40.2561 428.276 43.2663 428.829 45.8101C428.971 46.4446 429.178 47.0288 429.239 47.6044C429.323 48.1742 429.402 48.7082 429.474 49.2046C429.542 49.701 429.624 50.1568 429.661 50.5769C429.679 50.998 429.695 51.3804 429.71 51.7242C429.735 52.3983 429.754 52.9159 429.768 53.28C429.778 53.6325 429.773 53.8112 429.773 53.8112Z" fill="#263238"/>
<path d="M385.459 48.2098H391.669C391.669 48.2098 391.669 42.9958 397.088 42.9021C399.902 42.8538 401.361 44.6974 401.954 46.1093C402.642 47.7491 402.434 49.6178 401.512 51.1388C400.458 52.8752 398.15 54.4542 393.965 53.7164V62.829H400.105V59.5166C400.105 59.5166 408.717 57.2906 408.717 47.8003C408.717 38.7195 400.574 36.6113 397.088 36.6113C394.422 36.6104 385.341 37.2545 385.459 48.2098Z" fill="#3551B6"/>
<path d="M400.179 65.1953H393.947V71.0158H400.179V65.1953Z" fill="#3551B6"/>
<path d="M366.673 81.9763C366.673 84.7325 364.439 86.9662 361.683 86.9662C358.927 86.9662 356.693 84.7325 356.693 81.9763C356.693 79.2201 358.927 76.9863 361.683 76.9863C364.439 76.9863 366.673 79.2201 366.673 81.9763Z" fill="white"/>
<path d="M366.674 81.9762C366.629 81.9782 366.646 81.532 366.44 80.7778C366.236 80.038 365.73 78.9564 364.615 78.1259C363.537 77.2934 361.764 76.8289 360.05 77.4682C359.206 77.7743 358.4 78.3509 357.83 79.1467C357.242 79.9318 356.911 80.9381 356.902 81.9753C356.911 83.0135 357.242 84.0197 357.83 84.8049C358.401 85.6006 359.206 86.1772 360.051 86.4833C361.765 87.1236 363.539 86.6581 364.617 85.8257C365.732 84.9951 366.238 83.9145 366.442 83.1738C366.646 82.4205 366.629 81.9743 366.674 81.9762C366.688 81.9762 366.696 82.0854 366.699 82.2969C366.706 82.5074 366.682 82.8213 366.596 83.2143C366.433 83.9898 365.951 85.1468 364.792 86.0584C363.672 86.971 361.78 87.5118 359.92 86.8416C359.004 86.521 358.127 85.9039 357.502 85.0453C356.861 84.1974 356.497 83.1023 356.487 81.9762C356.497 80.8502 356.861 79.7551 357.502 78.9081C358.127 78.0496 359.003 77.4325 359.919 77.1119C361.779 76.4416 363.671 76.9815 364.791 77.8951C365.95 78.8067 366.433 79.9646 366.595 80.7391C366.681 81.1322 366.705 81.4461 366.698 81.6566C366.696 81.8671 366.688 81.9762 366.674 81.9762Z" fill="#263238"/>
<path d="M184.997 322.018C174.574 295.906 166.753 277.77 166.753 277.77L71.4408 292.256C71.4408 292.256 54.3097 336.173 55.7921 356.101C57.2745 376.029 64.25 411.12 64.25 411.12H179.586C179.586 411.12 195.421 348.131 184.997 322.018Z" fill="#263238"/>
<path d="M150.599 104.225C151.347 96.6911 152.477 89.1159 155.234 82.0651C157.991 75.0143 162.508 68.4637 168.888 64.3874L170.527 65.9113C171.658 62.6732 174.669 60.171 178.06 59.6514C181.45 59.1319 185.072 60.6181 187.121 63.3685C190.777 62.3835 194.97 63.8765 197.18 66.9504C199.391 70.0244 199.471 74.4745 197.373 77.6266C200.798 78.0612 203.823 80.7566 204.645 84.1096C205.468 87.4626 204.037 91.2521 201.203 93.2232C204.978 96.4855 206.481 102.134 204.829 106.842C203.176 111.55 198.47 115.018 193.484 115.203C194.597 119.537 192.339 124.498 188.34 126.506C184.341 128.514 179.014 127.361 176.203 123.878C176.552 128.387 172.946 132.656 168.553 133.729C164.16 134.802 159.373 133.027 156.168 129.837C152.961 126.647 151.202 122.224 150.52 117.754C149.836 113.284 150.152 108.725 150.599 104.225Z" fill="#263238"/>
<path d="M170.881 70.8457C175.265 72.2653 176.162 75.8154 177.073 78.7734C179.033 85.1405 176.828 94.5641 173.265 100.192C169.701 105.822 165.794 108.683 159.2 109.635C158.985 99.527 158.771 89.4196 158.557 79.3113L170.881 70.8457Z" fill="#FF725E"/>
<path d="M173.356 88.2543C176.35 84.3663 175.926 78.26 172.424 74.8229C174.343 72.4115 173.654 68.6924 171.704 66.3071C169.753 63.9217 166.856 62.5523 164.058 61.2592C162.522 54.2045 154.602 49.2426 147.585 50.9374C143.929 45.5631 136.139 44.7191 129.9 46.5385C128.375 46.9828 126.853 47.5564 125.264 47.5506C124.1 47.5458 122.962 47.2271 121.807 47.0716C115.458 46.2179 109.157 50.6873 106.681 56.5957C106.285 57.5402 105.96 58.5358 105.333 59.3451C104.509 60.4074 103.26 61.0313 102.196 61.8522C99.8946 63.6262 98.4334 66.4461 98.3117 69.3491C98.2084 71.8147 98.9935 74.4318 97.9544 76.6704C97.4339 77.7925 96.4932 78.6994 96.0886 79.8679C94.9143 83.2547 98.669 86.7178 97.9737 90.235C97.8317 90.9526 97.5082 91.6209 97.3093 92.3249C96.9027 93.7638 97.0408 95.3505 97.6908 96.6977C98.192 97.7378 99.0003 98.69 99.0679 99.8422C99.12 100.717 98.7308 101.55 98.5551 102.407C98.1263 104.507 102.657 112.602 104.469 113.743L158.679 114.228C162.781 113.392 166.123 109.674 166.518 105.506C166.583 104.813 166.594 104.06 167.023 103.513C167.389 103.045 167.98 102.832 168.502 102.551C171.992 100.677 172.414 95.8846 172.046 91.9395C171.994 91.3871 171.937 90.8212 172.076 90.2843C172.279 89.504 172.864 88.8927 173.356 88.2543Z" fill="#263238"/>
<path d="M157.826 88.3316C157.987 78.738 151.97 67.7132 142.439 63.0217C136.432 60.0637 131.745 60.0453 128.587 59.6764C121.511 58.8517 115.802 62.3573 115.802 62.3573C112.814 63.0594 101.864 73.0856 101.295 83.9646C100.664 96.0507 100.369 110.832 101.897 119.829C104.969 137.919 118.882 140.078 118.882 140.078C118.884 140.05 117.587 170.149 117.587 170.149L144.327 192.065L152.498 156.084L157.826 88.3316Z" fill="#FFBF9D"/>
<path d="M118.879 140.076C118.879 140.076 131.159 140.735 143.159 133.346C143.159 133.346 136.835 146.188 118.68 144.686L118.879 140.076Z" fill="#FF9A6C"/>
<path d="M155.088 105.536C155.077 104.186 156.602 100.988 157.933 100.766C161.486 100.173 167.904 100.39 168.061 109.427C168.274 121.782 156.147 119.023 155.799 119.094C153.829 119.498 155.127 110.196 155.088 105.536Z" fill="#FFBF9D"/>
<path d="M159.137 114.523C159.191 114.482 159.355 114.669 159.721 114.83C160.079 114.985 160.691 115.088 161.331 114.836C162.628 114.334 163.691 112.243 163.712 110.015C163.724 108.89 163.471 107.822 163.057 106.943C162.663 106.045 162.069 105.424 161.409 105.319C160.753 105.179 160.295 105.581 160.149 105.931C159.989 106.279 160.072 106.525 160.007 106.547C159.973 106.579 159.738 106.345 159.829 105.833C159.875 105.587 160.015 105.292 160.302 105.05C160.594 104.804 161.028 104.673 161.486 104.715C162.44 104.765 163.312 105.626 163.767 106.591C164.274 107.561 164.586 108.758 164.573 110.022C164.537 112.513 163.303 114.865 161.525 115.412C160.661 115.654 159.93 115.404 159.551 115.119C159.164 114.821 159.095 114.546 159.137 114.523Z" fill="#FF9A6C"/>
<path d="M98.6445 82.133C99.0376 77.6452 100.825 73.3902 102.99 69.4404C104.489 66.7064 106.213 64.0381 108.571 61.9994C110.542 60.2959 112.889 59.0916 115.244 57.9752C121.433 55.0394 128.337 52.5487 135.02 54.0543C138.607 54.8626 141.837 56.769 144.979 58.6802C147.387 60.1452 149.805 61.645 151.823 63.6141C153.592 65.3418 155.014 67.394 156.27 69.5244C159.262 74.6032 161.374 80.2807 161.778 86.162C162.183 92.0424 166.632 97.2419 163.183 102.023C162.917 102.393 156.776 103.665 156.352 103.834C155.354 104.231 154.256 103.148 154.264 102.074C154.272 101.001 155.011 100.074 155.807 99.353C154.278 99.3018 153.23 97.5992 153.326 96.0724C153.423 94.5456 154.326 93.2013 155.234 91.97C155.351 91.8087 155.475 91.6387 155.499 91.4407C155.563 90.9192 154.973 90.5986 154.522 90.3321C152.321 89.0293 152.076 85.4068 154.081 83.8201C151.134 83.1374 149.225 79.5931 150.275 76.7558C150.441 76.3077 150.667 75.8046 150.452 75.3767C150.246 74.9663 149.736 74.8379 149.295 74.7065C146.035 73.7398 143.843 70.0555 144.551 66.7286C142.835 66.8184 141.092 66.9063 139.424 66.5007C137.755 66.096 136.141 65.1197 135.378 63.5813C134.284 65.5514 132.136 66.8947 129.886 67.0145C127.636 67.1352 125.357 66.0294 124.059 64.1878C121.181 64.463 118.237 64.0072 115.578 62.8753C114.925 65.5562 112.81 67.8334 110.184 68.6823C109.674 68.8474 109.088 69.0077 108.843 69.4838C108.686 69.7871 108.711 70.1473 108.73 70.4882C108.82 72.213 107.645 72.9479 106.694 74.3898C105.743 75.8316 104.084 77.9794 102.423 77.5033C102.608 80.441 101.037 82.5801 98.5557 84.1659L98.6445 82.133Z" fill="#263238"/>
<path d="M96.0879 79.8671C96.0879 79.8671 96.2067 79.3562 96.7417 78.5354C96.9995 78.122 97.3656 77.6401 97.7094 77.024C98.0454 76.4069 98.312 75.6246 98.3815 74.7091C98.4723 73.7965 98.3883 72.7728 98.3004 71.6536C98.2125 70.5381 98.1179 69.2933 98.3651 67.9847C98.5998 66.682 99.1145 65.328 99.9547 64.0784C100.375 63.4545 100.876 62.8577 101.459 62.3159C102.039 61.7683 102.719 61.3067 103.398 60.847C104.074 60.3815 104.757 59.8842 105.261 59.2111C105.768 58.5379 106.077 57.7122 106.412 56.875C107.083 55.1869 108.062 53.5326 109.371 52.0724C110.67 50.6122 112.254 49.2872 114.126 48.3475C115.045 47.8444 116.058 47.5045 117.091 47.2031C118.139 46.9665 119.225 46.7801 120.335 46.8072C120.888 46.7995 121.444 46.8719 122 46.925C122.554 47.0061 123.099 47.1182 123.647 47.2099C124.74 47.4175 125.846 47.4397 126.949 47.1848C128.053 46.9569 129.134 46.5493 130.274 46.2548C131.406 45.9322 132.581 45.741 133.771 45.6058C134.962 45.4735 136.175 45.4725 137.391 45.5411C138.608 45.6319 139.825 45.8463 141.021 46.1775C143.39 46.8787 145.7 48.1853 147.277 50.2288C147.432 50.4316 147.587 50.6334 147.74 50.8333L147.542 50.757C151.273 49.8637 155.18 50.8382 158.199 52.816C161.238 54.787 163.5 57.8445 164.233 61.2217L164.133 61.0991C165.633 61.7934 167.117 62.4916 168.484 63.3492C169.849 64.2029 171.102 65.2256 172.047 66.4821C172.982 67.7443 173.555 69.2305 173.69 70.7332C173.832 72.2301 173.463 73.7791 172.545 74.9206L172.532 74.714C174.311 76.4677 175.221 78.8106 175.431 81.0337C175.642 83.2675 175.192 85.4471 174.197 87.1845C173.971 87.6316 173.663 88.0198 173.387 88.4138C173.089 88.7915 172.784 89.1439 172.546 89.5235C172.305 89.903 172.148 90.3105 172.116 90.7384C172.078 91.1662 172.127 91.595 172.162 92.0209C172.305 93.7244 172.282 95.3063 172.07 96.7114C171.854 98.1137 171.459 99.344 170.884 100.29C170.322 101.246 169.614 101.9 168.978 102.312C168.344 102.738 167.781 102.906 167.47 103.137C167.146 103.35 167.034 103.525 167.023 103.514C167.023 103.514 167.121 103.329 167.443 103.099C167.753 102.85 168.315 102.665 168.927 102.234C169.543 101.817 170.226 101.165 170.765 100.222C171.317 99.287 171.694 98.0721 171.893 96.6863C172.09 95.2966 172.102 93.7302 171.946 92.0402C171.909 91.6182 171.853 91.1778 171.891 90.719C171.921 90.2584 172.096 89.7977 172.346 89.3999C172.596 88.9981 172.904 88.6369 173.195 88.2642C173.462 87.8769 173.76 87.4983 173.976 87.0618C174.935 85.367 175.364 83.2375 175.149 81.0608C174.935 78.8937 174.038 76.6213 172.315 74.9342L172.216 74.8366L172.303 74.7275C173.159 73.6536 173.507 72.1944 173.368 70.7612C173.234 69.3242 172.678 67.8911 171.777 66.682C170.865 65.4738 169.643 64.4762 168.3 63.6418C166.953 62.8026 165.484 62.1121 163.984 61.4207L163.904 61.384L163.884 61.297C163.17 58.0242 160.966 55.0459 157.997 53.1231C155.05 51.1945 151.24 50.252 147.629 51.1182L147.511 51.1462L147.431 51.0419C147.283 50.8497 147.134 50.6547 146.983 50.4586C145.462 48.4876 143.229 47.2186 140.916 46.5329C139.748 46.2084 138.557 45.9979 137.363 45.9081C136.17 45.8395 134.978 45.8395 133.806 45.9689C132.636 46.1003 131.479 46.2876 130.366 46.6034C129.246 46.8893 128.157 47.2997 127.019 47.5334C126.451 47.6522 125.873 47.7266 125.292 47.7275C124.71 47.7275 124.14 47.6503 123.586 47.5556C123.031 47.461 122.488 47.349 121.947 47.2688C121.406 47.2167 120.868 47.1442 120.33 47.151C119.252 47.122 118.195 47.3016 117.172 47.5286C116.165 47.8202 115.174 48.1486 114.274 48.6392C112.44 49.5528 110.882 50.8488 109.6 52.2771C108.31 53.7083 107.344 55.324 106.677 56.9831C106.34 57.8127 106.021 58.6635 105.481 59.3772C104.939 60.0918 104.227 60.6007 103.546 61.0653C102.858 61.5259 102.195 61.9711 101.628 62.5003C101.058 63.0247 100.564 63.6042 100.151 64.2116C99.3212 65.4275 98.8084 66.7496 98.5698 68.0234C98.3187 69.301 98.3989 70.5237 98.4771 71.642C98.5544 72.7613 98.6287 73.7965 98.5254 74.7246C98.4443 75.6536 98.1584 76.4561 97.8059 77.079C97.4457 77.7 97.071 78.1723 96.8045 78.5779C96.5302 78.9786 96.3535 79.3031 96.2463 79.5272C96.1381 79.7483 96.0975 79.87 96.0879 79.8671Z" fill="#455A64"/>
<path d="M141.763 48.2688C141.745 48.2968 141.436 48.0843 140.833 47.7946C140.231 47.5097 139.316 47.1553 138.132 47.0307C136.958 46.8994 135.503 47.0095 134.076 47.6546C132.66 48.2949 131.284 49.4566 130.406 51.0317C130.154 51.4837 129.939 51.9646 129.804 52.435C129.674 52.9024 129.658 53.3988 129.904 53.7358L130.209 54.154L129.709 54.0168C128.336 53.6402 126.928 53.9125 125.893 54.5016C124.839 55.0888 124.177 55.9946 123.815 56.8049C123.449 57.6238 123.366 58.353 123.349 58.8445C123.335 59.3399 123.377 59.6113 123.349 59.6152C123.338 59.6171 123.319 59.5514 123.291 59.422C123.262 59.2936 123.235 59.0995 123.223 58.8455C123.201 58.3423 123.249 57.5823 123.602 56.7141C123.948 55.8565 124.625 54.8763 125.736 54.2303C126.826 53.5851 128.321 53.2722 129.807 53.6682L129.612 53.9492C129.265 53.4683 129.309 52.8483 129.448 52.3393C129.598 51.8179 129.817 51.3311 130.083 50.8512C131.003 49.1997 132.449 47.9945 133.938 47.3426C135.441 46.685 136.959 46.6019 138.166 46.7709C139.385 46.9341 140.309 47.3378 140.901 47.6671C141.198 47.8342 141.419 47.9791 141.56 48.0901C141.701 48.1973 141.771 48.2582 141.763 48.2688Z" fill="#455A64"/>
<path d="M161.923 62.2943C161.938 62.3107 161.793 62.4749 161.495 62.7395C161.196 63.0012 160.741 63.3673 160.105 63.7217C159.471 64.0693 158.641 64.4151 157.646 64.4808C156.669 64.5474 155.504 64.333 154.571 63.5768L154.844 63.5334C154.727 63.6995 154.608 63.8704 154.486 64.0433C154.356 64.2094 154.209 64.3678 154.068 64.5329C153.166 65.4803 152.066 66.1322 150.996 66.4779C149.927 66.8362 148.9 66.9308 148.054 66.8709C147.205 66.812 146.544 66.6092 146.103 66.4431C145.671 66.2548 145.446 66.1235 145.456 66.1032C145.482 66.0259 146.417 66.5493 148.067 66.6083C148.884 66.6324 149.866 66.5146 150.883 66.1544C151.902 65.8057 152.942 65.1751 153.796 64.2789C153.928 64.1225 154.067 63.9728 154.191 63.8163C154.306 63.6531 154.42 63.4928 154.53 63.3364L154.651 63.1664L154.805 63.2919C155.638 63.9757 156.708 64.1959 157.628 64.1524C158.558 64.1118 159.362 63.8115 159.991 63.5025C161.245 62.8564 161.883 62.2403 161.923 62.2943Z" fill="#455A64"/>
<path d="M168.543 73.7012C168.556 73.7041 168.546 73.7813 168.515 73.9291C168.473 74.072 168.404 74.2874 168.245 74.5288C167.944 75.0156 167.274 75.6095 166.264 75.8683C165.249 76.1416 163.989 75.9465 162.731 75.5129C162.101 75.2927 161.446 75.0725 160.775 74.7596C160.123 74.4458 159.411 73.9919 159.056 73.2183C159.029 73.1507 159.002 73.0822 158.977 73.0204L159.269 73.1063C158.087 74.046 156.866 74.8649 155.621 75.3362C154.384 75.8258 153.139 75.9108 152.154 75.7215C151.163 75.5428 150.431 75.1276 150.009 74.7664C149.793 74.5887 149.646 74.4284 149.558 74.3125C149.469 74.1966 149.427 74.1329 149.437 74.1242C149.463 74.101 149.658 74.3376 150.097 74.6524C150.529 74.9673 151.245 75.3256 152.197 75.4637C153.146 75.6104 154.315 75.5052 155.498 75.0175C156.687 74.5472 157.868 73.7456 159.038 72.8137L159.233 72.6582L159.33 72.9006C159.35 72.9528 159.372 73.0088 159.396 73.0657C159.685 73.707 160.309 74.128 160.933 74.4313C161.565 74.7326 162.226 74.9644 162.841 75.1894C164.068 75.6317 165.255 75.8345 166.201 75.6133C167.153 75.4028 167.805 74.8813 168.124 74.4467C168.456 74.0093 168.505 73.6886 168.543 73.7012Z" fill="#455A64"/>
<path d="M128.648 98.7905C128.567 99.9958 129.52 101.058 130.777 101.166C132.031 101.274 133.117 100.388 133.199 99.1826C133.28 97.9774 132.327 96.9141 131.072 96.8059C129.815 96.6968 128.729 97.5863 128.648 98.7905Z" fill="#263238"/>
<path d="M106.505 98.1859C106.423 99.3911 107.377 100.453 108.633 100.562C109.888 100.67 110.973 99.7832 111.054 98.577C111.136 97.3718 110.182 96.3075 108.928 96.2003C107.672 96.0922 106.586 96.9806 106.505 98.1859Z" fill="#263238"/>
<path d="M105.602 90.6038C105.876 90.9109 107.648 89.6854 110.107 89.7714C112.563 89.8216 114.328 91.1446 114.603 90.852C114.739 90.7226 114.467 90.176 113.7 89.5782C112.945 88.9843 111.643 88.3875 110.111 88.344C108.58 88.3035 107.273 88.8259 106.514 89.3793C105.741 89.9346 105.467 90.4648 105.602 90.6038Z" fill="#263238"/>
<path d="M130.051 91.8292C130.356 92.1064 131.995 90.7061 134.447 90.539C136.896 90.3362 138.787 91.471 139.032 91.1523C139.153 91.0093 138.83 90.4936 138.002 89.9779C137.19 89.4632 135.835 89.0045 134.306 89.1194C132.779 89.2362 131.533 89.89 130.835 90.5187C130.123 91.1503 129.904 91.7066 130.051 91.8292Z" fill="#263238"/>
<path d="M120.885 110.287C120.902 110.148 119.382 109.835 116.915 109.438C116.289 109.353 115.699 109.209 115.608 108.778C115.474 108.319 115.758 107.651 116.087 106.93C116.726 105.43 117.394 103.857 118.097 102.21C120.894 95.4862 122.94 89.9497 122.669 89.8396C122.398 89.7295 119.909 95.0893 117.112 101.813C116.438 103.471 115.793 105.052 115.18 106.564C114.919 107.27 114.484 108.067 114.775 109.018C114.93 109.493 115.379 109.848 115.778 109.969C116.176 110.104 116.529 110.123 116.839 110.152C119.326 110.366 120.872 110.427 120.885 110.287Z" fill="#263238"/>
<path d="M124.693 113.941C125.614 114.07 126.534 114.547 127.072 115.317C127.609 116.088 127.998 117.892 127.464 118.593C127.009 119.192 124.979 119.189 123.582 119.013C122.935 118.932 122.395 118.483 122.181 117.868L121.629 116.281C121.316 115.378 121.785 114.364 122.699 114.077C123.318 113.883 124.009 113.845 124.693 113.941Z" fill="#FF9A6C"/>
<path d="M128.932 82.8525C129.298 83.4628 131.649 82.6816 134.547 82.471C137.443 82.2026 139.889 82.586 140.149 81.9244C140.262 81.6096 139.744 81.0697 138.696 80.6139C137.657 80.1581 136.079 79.8394 134.341 79.9814C132.604 80.1262 131.1 80.6999 130.15 81.3208C129.193 81.9428 128.77 82.5608 128.932 82.8525Z" fill="#263238"/>
<path d="M106.209 86.5669C106.724 87.1115 108.67 86.48 111.029 86.3882C113.383 86.226 115.396 86.646 115.839 86.0492C116.033 85.7605 115.703 85.209 114.816 84.704C113.941 84.2008 112.491 83.8087 110.871 83.8947C109.252 83.9826 107.861 84.5272 107.056 85.1212C106.239 85.718 105.98 86.3003 106.209 86.5669Z" fill="#263238"/>
<path d="M191.026 188.576L167.828 272.718L175.966 296.836C145.333 310.337 101.052 314.629 66.1465 297.714C66.1465 297.714 78.0028 262.923 78.4065 256.151C78.8101 249.378 75.8956 209.818 79.1221 196.551C82.3486 183.283 91.5858 154.847 91.5858 154.847L118.757 150.533C131.215 157.225 139.192 158.221 152.589 150.467L177.899 155.987L191.026 188.576Z" fill="#3551B6"/>
<path d="M91.9968 154.803C91.9968 154.803 77.4056 156.348 71.5301 168.349C65.726 180.206 49.6147 232.679 48.7378 241.444C47.8609 250.21 54.9726 262.009 61.1726 263.64L79.9725 244.898L95.57 246.287L116.106 150.467L91.9968 154.803Z" fill="#3551B6"/>
<g opacity="0.3">
<path d="M80.8896 187.129C76.3526 198.898 75.0701 211.903 77.2208 224.331C73.7963 223.052 70.3728 221.773 66.9483 220.494C69.747 224.36 73.4236 227.585 77.6216 229.857C74.8519 229.056 72.0136 228.247 69.1357 228.435C66.2588 228.624 63.2853 230.009 61.9912 232.586C65.3491 231.973 68.7668 231.357 72.1575 231.753C75.5482 232.148 78.9688 233.714 80.794 236.599C78.2619 225.668 77.2875 214.38 77.9084 203.177" fill="black"/>
</g>
<g opacity="0.3">
<path d="M76.6301 259.295L153.202 266.882C147.683 266.765 143.436 271.436 138.657 274.2C129.809 279.317 118.79 277.886 108.692 276.299C100.326 274.982 91.9602 273.667 83.594 272.352C81.4829 272.019 79.2338 271.623 77.678 270.157C74.8889 267.532 75.6518 262.998 76.6301 259.295Z" fill="black"/>
</g>
<path d="M135.108 253L147.93 240.62C149.175 239.419 150.877 238.82 152.599 238.983C156.259 239.329 162.461 239.973 163.736 240.47C165.57 241.182 167.301 242.201 167.811 243.119C168.321 244.035 170.053 249.537 170.154 250.352C170.203 250.748 170.085 251.89 169.949 252.96C169.789 254.225 168.398 254.971 167.289 254.343C166.791 254.061 166.337 253.69 166.079 253.205C165.264 251.676 165.366 251.065 165.366 251.065C165.366 251.065 165.774 256.567 161.291 256.668C161.291 256.668 163.355 261.355 157.585 263.291C157.585 263.291 157.799 266.347 152.973 266.755C148.147 267.163 143.766 266.755 143.766 266.755C143.766 266.755 134.945 273.091 128.73 273.499C122.516 273.906 108.6 271.19 108.6 271.19L106.921 245.56L135.108 253Z" fill="#FFBF9D"/>
<path d="M152.48 245.146C152.464 245.189 153.247 245.521 154.534 246.006C155.821 246.487 157.614 247.13 159.647 247.67C160.654 247.957 161.67 248.118 162.514 248.349C163.371 248.579 163.888 249.221 164.261 249.782C164.633 250.35 164.929 250.833 165.186 251.127C165.438 251.425 165.617 251.551 165.629 251.536C165.648 251.516 165.505 251.359 165.292 251.046C165.073 250.735 164.819 250.248 164.464 249.651C164.283 249.356 164.067 249.032 163.765 248.735C163.469 248.432 163.056 248.19 162.609 248.048C161.706 247.782 160.744 247.625 159.733 247.338C157.716 246.802 155.919 246.199 154.612 245.777C153.309 245.351 152.496 245.101 152.48 245.146Z" fill="#FF9A6C"/>
<path d="M150.831 253.001C150.815 253.045 151.36 253.299 152.259 253.66C153.158 254.022 154.413 254.488 155.816 254.957C157.219 255.426 158.501 255.809 159.437 256.062C160.373 256.314 160.96 256.439 160.974 256.394C160.987 256.348 160.424 256.14 159.509 255.829C158.468 255.481 157.26 255.078 155.925 254.63C154.59 254.183 153.382 253.779 152.343 253.431C151.422 253.13 150.849 252.956 150.831 253.001Z" fill="#FF9A6C"/>
<path d="M147.663 260.309C147.653 260.414 149.896 260.643 152.564 261.37C155.237 262.083 157.291 263.013 157.335 262.916C157.353 262.877 156.863 262.593 156.026 262.221C155.191 261.849 154.003 261.403 152.653 261.038C151.303 260.675 150.052 260.463 149.143 260.365C148.233 260.266 147.666 260.265 147.663 260.309Z" fill="#FF9A6C"/>
<path d="M118.055 272.72L61.1729 263.64C61.1729 263.64 68.0083 235.109 77.9805 235.109C79.4416 235.109 129.967 251.524 129.967 251.524L118.055 272.72Z" fill="#3551B6"/>
<path d="M127.917 260.391C127.953 260.424 128.451 259.947 129.251 259.171C130.129 258.308 131.188 257.267 132.358 256.118C133.565 254.917 134.642 253.813 135.398 252.99C136.156 252.168 136.592 251.631 136.558 251.599C136.523 251.566 136.024 252.043 135.225 252.82C134.346 253.683 133.287 254.723 132.116 255.874C130.909 257.074 129.832 258.178 129.077 259.001C128.321 259.822 127.883 260.36 127.917 260.391Z" fill="#FF9A6C"/>
<path d="M129.877 251.618C129.869 251.645 129.62 251.598 129.154 251.483C128.597 251.335 127.929 251.157 127.127 250.943C125.249 250.403 122.748 249.684 119.715 248.811C113.466 246.977 104.852 244.389 95.3521 241.482C90.0917 239.858 85.1085 238.319 80.6845 236.954L80.5696 236.918L80.4836 236.802C78.7405 234.457 76.1716 233.029 73.8539 232.322C71.4975 231.602 69.2927 231.516 67.5129 231.677C65.7234 231.823 64.3443 232.216 63.4153 232.496C62.4891 232.793 62.0092 233.007 61.9899 232.969C61.9705 232.934 62.4215 232.647 63.3361 232.275C64.2535 231.92 65.6374 231.451 67.4665 231.237C69.284 231.009 71.5632 231.036 74.0277 231.735C76.471 232.445 79.1432 233.826 81.1017 236.399L80.9008 236.249C85.3316 237.592 90.3225 239.105 95.5906 240.703C105.09 243.609 113.678 246.284 119.883 248.26C122.884 249.235 125.36 250.037 127.218 250.641C128.003 250.913 128.657 251.139 129.201 251.328C129.653 251.491 129.886 251.591 129.877 251.618Z" fill="#263238"/>
<path d="M114.809 160.423C115.284 158.841 117.956 144.225 119.043 140.825C120.575 136.03 133.034 127.456 133.034 127.456C133.034 127.456 131.08 122.954 125.776 125.294C119.496 128.064 116.391 132.727 114.809 131.777C113.227 130.828 103.362 120.786 100.671 121.103C97.9819 121.42 97.3909 124.179 98.3402 125.287C99.2895 126.394 100.355 128.222 100.355 128.222C100.355 128.222 94.6588 126.508 95.7665 132.745C95.7665 132.745 89.2797 128.698 89.9123 137.24C89.9123 137.24 85.6408 135.5 84.6915 138.507C83.7422 141.513 86.5573 144.993 87.9818 147.367C89.4062 149.74 94.0263 163.505 94.0263 163.505L94.0804 175.642L116.763 170.98L114.809 160.423Z" fill="#FFBF9D"/>
<path d="M114.808 160.422C114.825 160.423 114.885 160.66 114.987 161.119C115.093 161.626 115.234 162.299 115.413 163.154C115.775 164.993 116.29 167.608 116.948 170.944L116.984 171.126L116.799 171.164C111.198 172.347 103.452 173.983 94.1424 175.949L93.7667 176.028L93.7638 175.641C93.7358 171.904 93.7049 167.816 93.672 163.505L93.6904 163.615C92.0718 158.947 90.3895 153.926 88.2765 148.853C87.2432 146.41 85.0905 144.28 84.3141 141.315C84.1238 140.581 84.036 139.79 84.1634 138.998C84.2822 138.239 84.6415 137.362 85.3919 136.884C86.121 136.401 86.9853 136.296 87.7656 136.351C88.5614 136.409 89.3079 136.581 90.0631 136.865L89.5078 137.269C89.4759 136.435 89.4431 135.587 89.5629 134.712C89.7183 133.859 89.9105 132.908 90.6474 132.187C91.361 131.435 92.4842 131.274 93.3891 131.435C94.323 131.589 95.167 131.921 95.9811 132.396L95.363 132.813C95.2114 131.667 95.0154 130.269 95.787 129.013C96.2679 128.223 97.1661 127.771 98.0005 127.654C98.8532 127.532 99.6577 127.618 100.47 127.829L99.9995 128.425C99.4307 127.474 98.8204 126.523 98.1424 125.685C97.704 125.247 97.4732 124.488 97.5099 123.871C97.5427 123.231 97.759 122.614 98.127 122.097C98.492 121.58 99.0183 121.18 99.5968 120.954C99.8875 120.849 100.183 120.763 100.484 120.722C100.775 120.682 101.184 120.727 101.466 120.806C102.631 121.184 103.522 121.835 104.425 122.463C107.964 125.048 110.996 128.014 114.055 130.691C114.42 130.99 114.87 131.412 115.136 131.487C115.411 131.577 115.866 131.365 116.259 131.13C117.067 130.628 117.838 129.982 118.616 129.379C120.165 128.15 121.763 126.999 123.441 126.057C125.109 125.177 126.867 124.201 128.849 124.283C130.837 124.324 132.545 125.647 133.338 127.318L133.453 127.561L133.221 127.727C128.366 131.177 124.002 134.575 120.914 138.23C120.146 139.15 119.547 140.119 119.205 141.151C118.887 142.216 118.641 143.277 118.404 144.29C117.958 146.321 117.548 148.188 117.177 149.877C116.466 153.208 115.905 155.836 115.509 157.69C115.309 158.589 115.148 159.273 115.025 159.732C114.91 160.196 114.808 160.422 114.808 160.422C114.787 160.423 114.843 160.181 114.929 159.714C115.025 159.2 115.154 158.518 115.316 157.655C115.67 155.792 116.171 153.151 116.805 149.804C117.153 148.107 117.536 146.232 117.953 144.191C118.179 143.17 118.411 142.109 118.726 141.009C119.078 139.893 119.723 138.837 120.495 137.896C123.628 134.117 127.966 130.695 132.844 127.179L132.727 127.588C132.029 126.161 130.53 124.996 128.824 124.985C127.111 124.908 125.436 125.813 123.8 126.693C122.171 127.618 120.619 128.744 119.083 129.972C118.305 130.577 117.55 131.224 116.653 131.787C116.198 132.03 115.687 132.388 114.946 132.233C114.249 131.976 113.988 131.601 113.555 131.281C110.461 128.588 107.43 125.643 103.963 123.12C103.101 122.514 102.183 121.88 101.249 121.586C101.014 121.534 100.853 121.503 100.608 121.526C100.362 121.558 100.13 121.629 99.901 121.709C99.452 121.886 99.0637 122.186 98.7895 122.575C98.2438 123.341 98.1067 124.495 98.774 125.171C99.506 126.076 100.115 127.028 100.708 128.017L101.224 128.877L100.238 128.613C98.9169 128.26 97.1777 128.298 96.4785 129.456C95.9019 130.347 96.0149 131.615 96.1694 132.674L96.294 133.528L95.5514 133.092C94.857 132.685 94.0496 132.368 93.2722 132.245C92.49 132.115 91.7116 132.249 91.221 132.77C90.2176 133.854 90.2456 135.681 90.3161 137.212L90.3441 137.829L89.7608 137.617C88.4822 137.15 86.8849 136.875 85.8458 137.549C85.3291 137.875 85.0645 138.474 84.9524 139.132C84.8462 139.784 84.9148 140.464 85.0848 141.123C85.4286 142.449 86.1268 143.686 86.8607 144.872C87.5821 146.049 88.4561 147.221 88.9844 148.548C91.11 153.698 92.7604 158.7 94.3616 163.395L94.3799 163.448V163.505C94.3857 167.816 94.3915 171.904 94.3963 175.641L94.0178 175.334C103.348 173.47 111.111 171.918 116.725 170.795L116.576 171.016C115.993 167.65 115.536 165.013 115.216 163.157C115.078 162.301 114.969 161.626 114.887 161.118C114.818 160.655 114.792 160.421 114.808 160.422Z" fill="#FF9A6C"/>
<path d="M100.373 128.381C100.312 128.458 101.593 129.552 103.126 130.95C104.663 132.344 105.873 133.515 105.944 133.447C106.012 133.384 104.904 132.1 103.357 130.696C101.814 129.288 100.429 128.307 100.373 128.381Z" fill="#FF9A6C"/>
<path d="M95.3027 132.404C95.2216 132.437 95.7073 133.665 96.7001 134.938C97.6861 136.216 98.7542 136.993 98.8073 136.922C98.874 136.845 97.9314 135.972 96.9724 134.727C96.0048 133.488 95.3935 132.358 95.3027 132.404Z" fill="#FF9A6C"/>
<path d="M90.0006 136.929C89.9233 136.984 90.4574 137.856 91.1923 138.875C91.9282 139.893 92.5859 140.675 92.6631 140.619C92.7404 140.564 92.2063 139.693 91.4714 138.673C90.7355 137.654 90.0779 136.873 90.0006 136.929Z" fill="#FF9A6C"/>
<path d="M177.807 156.082L153.412 180.422L128.385 211.865L118.433 169.963L93.001 175.19C93.001 175.19 94.7953 222.522 102.622 243.973C104.111 248.056 108.517 251.092 110.483 252.026C122.777 257.864 134.781 248.83 134.781 248.83C134.781 248.83 186.073 214.405 191.633 191.358C194.259 180.475 193.206 167.537 188.733 162.211C184.801 157.527 177.807 156.082 177.807 156.082Z" fill="#3551B6"/>
<path d="M191.724 191.265C191.724 191.265 191.666 191.519 191.529 192.01C191.368 192.493 191.239 193.251 190.842 194.166C190.197 196.052 188.868 198.693 186.815 201.866C184.749 205.031 181.902 208.694 178.281 212.658C174.648 216.609 170.295 220.909 165.234 225.383C160.193 229.879 154.461 234.564 148.152 239.386C144.995 241.795 141.69 244.233 138.236 246.676C137.368 247.28 136.494 247.89 135.613 248.503C134.742 249.104 133.831 249.738 132.881 250.273C130.975 251.351 128.937 252.258 126.791 252.929C122.524 254.31 117.697 254.589 113.164 253.186C112.586 253.052 112.058 252.769 111.501 252.566C110.952 252.341 110.388 252.143 109.866 251.837C108.814 251.256 107.837 250.556 106.905 249.792C105.072 248.246 103.397 246.356 102.501 244.014C100.876 239.411 99.7149 234.591 98.6854 229.676C97.7516 224.743 96.8843 219.721 96.2373 214.609C94.4439 200.971 93.4231 187.688 92.8495 175.106L92.8398 174.901L93.0426 174.859C101.919 173.041 110.422 171.298 118.477 169.648L118.693 169.604L118.743 169.817C122.503 185.736 125.849 199.9 128.643 211.73L128.35 211.652C136.94 202.412 143.834 194.996 148.594 189.876C150.969 187.336 152.809 185.369 154.067 184.024C154.688 183.368 155.163 182.866 155.494 182.516C155.817 182.179 155.991 182.015 155.991 182.015C155.991 182.015 155.841 182.202 155.529 182.55C155.207 182.907 154.743 183.42 154.138 184.09C152.895 185.449 151.077 187.438 148.731 190.005C143.999 195.149 137.143 202.602 128.601 211.886L128.383 212.124L128.307 211.81C125.484 199.987 122.103 185.832 118.301 169.922L118.566 170.091C110.513 171.751 102.012 173.505 93.1383 175.334L93.3314 175.088C93.9157 187.648 94.9432 200.928 96.7337 214.542C97.3807 219.647 98.2441 224.657 99.1741 229.577C100.198 234.477 101.354 239.281 102.961 243.843C103.807 246.064 105.425 247.908 107.215 249.418C108.123 250.165 109.083 250.853 110.097 251.414C110.595 251.707 111.145 251.9 111.682 252.121C112.226 252.319 112.743 252.597 113.306 252.728C117.728 254.101 122.448 253.841 126.651 252.488C128.763 251.83 130.775 250.938 132.654 249.88C133.601 249.348 134.464 248.749 135.358 248.134C136.238 247.524 137.112 246.917 137.979 246.315C141.433 243.882 144.739 241.453 147.897 239.055C154.209 234.254 159.947 229.589 164.996 225.118C170.064 220.668 174.426 216.392 178.071 212.469C181.703 208.532 184.564 204.897 186.648 201.759C188.719 198.613 190.071 195.997 190.744 194.13C191.155 193.224 191.299 192.474 191.476 191.997C191.633 191.511 191.724 191.265 191.724 191.265Z" fill="#3551B6"/>
<path d="M133.014 231.107C132.924 231.087 133.222 229.876 133.378 227.891C133.474 226.899 133.459 225.712 133.389 224.401C133.283 223.093 133.063 221.663 132.689 220.195C131.939 217.251 130.674 214.777 129.652 213.07C128.615 211.367 127.846 210.389 127.916 210.334C127.943 210.311 128.157 210.537 128.523 210.966C128.898 211.388 129.385 212.044 129.952 212.88C131.064 214.559 132.408 217.06 133.176 220.068C133.559 221.568 133.77 223.033 133.852 224.371C133.897 225.711 133.875 226.921 133.732 227.923C133.611 228.927 133.451 229.732 133.295 230.274C133.145 230.821 133.047 231.116 133.014 231.107Z" fill="#263238"/>
<path d="M129.541 117.129C129.496 117.263 128.972 117.204 128.17 117.041C127.368 116.882 126.292 116.637 125.094 116.544C123.896 116.444 122.825 116.531 122.088 116.724C121.335 116.9 121.018 117.205 120.895 117.155C120.836 117.127 120.835 116.961 120.988 116.735C121.138 116.512 121.432 116.263 121.832 116.061C122.631 115.645 123.866 115.429 125.174 115.541C126.49 115.643 127.622 116.025 128.385 116.362C129.153 116.706 129.586 116.999 129.541 117.129Z" fill="#263238"/>
<g opacity="0.3">
<path d="M168.292 272.279C168.292 272.279 157.126 270.909 151.119 269.98C147.835 269.472 142.837 268.945 141.891 268.027C140.716 266.888 140.724 264.99 140.599 263.357C138.47 235.5 148.047 205.363 177.65 187.391L185.201 189.376L184.713 207.524L168.292 272.279Z" fill="black"/>
</g>
<path d="M342.814 55.1609C346.603 55.4999 350.411 52.6307 351.128 48.8953C351.847 45.1598 349.375 41.0834 345.731 39.9931C348.023 37.5286 348.514 33.5652 346.897 30.6139C345.279 27.6627 341.673 25.9475 338.362 26.554C338.143 23.2386 336.082 20.1048 333.124 18.5896C330.167 17.0744 326.419 17.2337 323.6 18.9942C319.855 15.9377 313.937 15.9638 310.219 19.0522C306.979 18.5346 303.503 20.3376 302.06 23.285C300.616 26.2314 301.324 30.0838 303.719 32.3262" fill="#263238"/>
<path d="M308.746 26.7499L310.451 26.7103C327.609 26.3104 342.2 39.1508 343.977 56.2221C345.63 72.0997 347.253 89.6625 347.347 98.1986C347.54 115.874 329.931 119.034 329.931 119.034L331.92 140.229L289.004 139.901L283.416 62.9957C281.406 44.6835 290.386 28.2525 308.746 26.7499Z" fill="#FFBF9D"/>
<path d="M329.947 119.028C329.947 119.028 317.626 119.946 305.583 112.768C305.583 112.768 312.763 125.649 330.358 123.647L329.947 119.028Z" fill="#FF9A6C"/>
<path d="M338.575 75.3981C338.654 76.7299 337.59 77.8936 336.201 78.0008C334.815 78.107 333.625 77.1181 333.547 75.7863C333.469 74.4546 334.531 73.2899 335.918 73.1818C337.307 73.0746 338.496 74.0664 338.575 75.3981Z" fill="#263238"/>
<path d="M340.383 64.956C340.078 65.2931 338.133 63.9217 335.418 63.9922C332.704 64.0231 330.744 65.4669 330.442 65.1414C330.294 64.9975 330.599 64.3959 331.452 63.744C332.291 63.0951 333.734 62.449 335.426 62.4171C337.118 62.3872 338.555 62.9763 339.387 63.5943C340.237 64.2163 340.533 64.8044 340.383 64.956Z" fill="#263238"/>
<path d="M315.195 75.4002C315.273 76.7319 314.21 77.8957 312.821 78.0019C311.435 78.1091 310.245 77.1192 310.167 75.7875C310.089 74.4567 311.152 73.291 312.539 73.1838C313.927 73.0757 315.117 74.0685 315.195 75.4002Z" fill="#263238"/>
<path d="M313.699 66.0821C313.394 66.4182 311.446 65.0487 308.733 65.1192C306.02 65.1511 304.06 66.5939 303.758 66.2685C303.61 66.1246 303.911 65.5229 304.768 64.871C305.607 64.2221 307.049 63.577 308.741 63.5441C310.432 63.5132 311.87 64.1033 312.703 64.7214C313.55 65.3433 313.849 65.9314 313.699 66.0821Z" fill="#263238"/>
<path d="M324.014 85.9925C323.997 85.838 325.678 85.5067 328.405 85.0934C329.096 85.0065 329.75 84.8529 329.855 84.3768C330.007 83.8717 329.699 83.131 329.344 82.3324C328.654 80.6703 327.931 78.9272 327.172 77.1C324.148 69.6484 321.943 63.516 322.244 63.3963C322.546 63.2775 325.24 69.2206 328.263 76.6712C328.992 78.509 329.688 80.2609 330.351 81.9364C330.632 82.7187 331.104 83.6023 330.774 84.6492C330.599 85.1716 330.099 85.5598 329.657 85.6902C329.216 85.836 328.826 85.8525 328.484 85.8805C325.735 86.0939 324.028 86.146 324.014 85.9925Z" fill="#263238"/>
<path d="M314.266 60.4764C313.925 61.1737 311.58 60.4812 308.712 60.4552C305.846 60.3644 303.444 60.9612 303.166 60.2514C303.046 59.9134 303.54 59.2828 304.56 58.7072C305.571 58.1326 307.119 57.67 308.838 57.7028C310.556 57.7395 312.06 58.2629 313.017 58.8791C313.981 59.4942 314.418 60.1442 314.266 60.4764Z" fill="#263238"/>
<path d="M340.245 53.7551C339.686 54.3848 337.431 53.7966 334.735 53.8304C332.039 53.7841 329.767 54.3606 329.227 53.7281C328.99 53.42 329.335 52.7942 330.318 52.1868C331.286 51.5822 332.919 51.0675 334.773 51.0723C336.625 51.0781 338.244 51.5996 339.196 52.209C340.162 52.8212 340.49 53.449 340.245 53.7551Z" fill="#263238"/>
<path d="M342.091 48.1576C342.091 48.1576 337.172 37.2004 331.776 34.7417C325.243 31.7663 322.627 38.9214 316.432 37.3443C310.236 35.7673 303.999 32.9116 297.819 37.8166C291.054 43.186 294.365 46.765 294.123 54.6145C293.139 86.4412 287.544 95.5654 285.543 80.6323C285.324 78.9964 280.742 77.7979 279.905 70.8832C278.821 61.9164 278.221 51.0133 280.078 44.5892C281.644 39.1744 284.622 35.3887 290.022 31.1656C298.548 24.5001 310.461 24.0829 318.573 24.7087C326.684 25.3354 342.504 34.2839 342.091 48.1576Z" fill="#263238"/>
<path d="M286.651 80.1257C286.477 77.4004 284.077 75.3028 281.365 75.6244C278.077 76.0146 274.453 77.9711 274.83 84.7757C275.497 96.8473 287.479 93.6865 287.481 93.3398C287.482 93.1042 286.976 85.1755 286.651 80.1257Z" fill="#FFBF9D"/>
<path d="M284.614 88.9432C284.559 88.9075 284.411 89.1026 284.065 89.2851C283.728 89.4628 283.138 89.6048 282.495 89.4039C281.193 89.007 280.007 87.0417 279.829 84.8688C279.738 83.7727 279.91 82.7133 280.252 81.8258C280.572 80.9219 281.108 80.2738 281.744 80.1242C282.375 79.9407 282.851 80.2999 283.017 80.6312C283.198 80.9595 283.135 81.2048 283.2 81.2222C283.235 81.2512 283.448 81.0049 283.323 80.5124C283.261 80.2758 283.103 79.9986 282.807 79.7823C282.504 79.5631 282.071 79.4665 281.627 79.5399C280.699 79.6558 279.909 80.5587 279.534 81.5322C279.108 82.5134 278.888 83.7051 278.991 84.9364C279.203 87.3643 280.574 89.5729 282.347 89.9795C283.208 90.1543 283.903 89.8587 284.253 89.5545C284.608 89.2358 284.656 88.9625 284.614 88.9432Z" fill="#FF9A6C"/>
<path d="M286.351 56.7143C287.945 57.7486 289.628 58.8138 291.523 58.9577C293.418 59.1006 295.554 57.9649 295.829 56.0846C295.953 55.2396 295.725 54.269 296.262 53.6066C296.903 52.8156 298.127 53.03 299.141 53.114C302.662 53.4047 306.675 49.4298 307.489 45.9917C308.417 47.3119 310.389 47.6721 311.723 46.7663C313.059 45.8614 313.541 45.3505 314.574 44.1105C315.606 42.8715 317.07 41.7503 318.673 41.9395C319.569 42.0458 320.417 42.5576 321.314 42.4572C322.898 42.2795 323.629 40.404 323.832 38.8231C324.035 37.2432 324.179 35.4015 325.502 34.514C326.729 33.6912 328.353 34.1132 329.819 34.2938C331.284 34.4744 333.161 34.0881 333.502 32.6511C333.681 31.8979 333.341 31.1166 332.911 30.4724C330.962 27.5549 326.828 26.3352 323.607 27.7259C322.332 23.7616 318.526 20.7417 314.375 20.4018C310.224 20.0609 305.978 22.4201 304.075 26.1247C301.467 23.8678 297.735 22.9822 294.391 23.8272C291.048 24.6722 288.184 27.2247 286.962 30.4502C284.006 29.7462 280.683 30.9601 278.877 33.4054C277.072 35.8506 276.888 39.3832 278.432 42.0023C276.289 43.2935 274.48 45.4944 274.493 47.9966C274.507 50.4979 277 52.9325 279.398 52.2188C278.468 54.1879 279.324 56.8118 281.235 57.8558C283.147 58.8997 285.816 58.2005 286.971 56.3531" fill="#263238"/>
<path d="M324.588 31.2602C324.598 31.2611 324.599 31.3355 324.591 31.4813C324.579 31.6262 324.575 31.8464 324.53 32.1284C324.432 32.6885 324.226 33.52 323.707 34.476C323.183 35.4186 322.362 36.5118 321.094 37.3945C319.852 38.2868 318.136 38.9831 316.179 38.9203L316.377 38.648C316.776 39.6727 316.702 40.9146 316.213 41.9885C315.75 43.0807 315.005 44.0561 314.215 45.0074C313.809 45.4651 313.46 46.0001 312.894 46.4251C312.345 46.8336 311.68 47.0779 310.997 47.1803C309.639 47.386 308.091 47.0006 307.076 45.8775L307.524 45.7384C307.273 48.147 305.962 50.5816 303.827 52.0968C302.698 52.9534 301.289 53.4942 299.89 53.4894C298.49 53.5087 297.182 53.1282 295.96 52.7226L296.28 52.5729C295.666 54.0901 294.698 55.3938 293.507 56.3682C292.34 57.3407 290.768 57.9308 289.326 57.6131C286.46 57.0761 284.513 54.7487 284.08 52.5246L284.357 52.6453C282.961 53.4498 281.443 53.5589 280.22 53.3523C278.98 53.1552 277.998 52.6415 277.296 52.1287C276.59 51.6052 276.167 51.0615 275.911 50.6839C275.675 50.2909 275.577 50.0726 275.59 50.0659C275.65 50.0147 276.012 50.9746 277.413 51.9626C278.113 52.4338 279.072 52.9013 280.264 53.0625C281.441 53.2354 282.877 53.0973 284.167 52.3286L284.39 52.1953L284.444 52.4503C284.876 54.5247 286.748 56.6947 289.405 57.1621C290.712 57.4363 292.093 56.9091 293.2 55.9887C294.312 55.0703 295.234 53.8139 295.805 52.3885L295.895 52.1625L296.124 52.2378C297.327 52.6338 298.59 52.9891 299.883 52.9679C301.177 52.965 302.441 52.4841 303.518 51.6728C305.536 50.2387 306.765 47.9606 307.015 45.6805L307.078 45.1068L307.464 45.5404C308.321 46.5014 309.706 46.8722 310.927 46.6897C311.539 46.6018 312.13 46.3864 312.61 46.0349C313.078 45.6969 313.442 45.1677 313.853 44.7061C314.643 43.7703 315.369 42.8316 315.809 41.8156C316.275 40.8113 316.344 39.719 316.001 38.7909L315.896 38.5051L316.2 38.5186C318.045 38.5997 319.698 37.9672 320.912 37.1299C322.152 36.3042 322.973 35.2651 323.512 34.365C324.567 32.5127 324.502 31.2341 324.588 31.2602Z" fill="#455A64"/>
<path d="M237.684 138.334C237.684 138.334 192.273 154.327 179.138 160.934C168.876 166.095 162.373 184.82 178.165 192.624C189.94 198.443 253.684 187.322 253.684 187.322L237.684 138.334Z" fill="#FFBF9D"/>
<path d="M376.313 297.325L260.934 292.959L256.756 332.235L252.134 411.02L311.031 411.268C311.055 410.934 318.376 366.981 318.376 366.981L321.704 366.11L321.395 411.268H376.597C379.496 373.899 381.152 342.513 381.253 339.559C382.057 316.215 376.313 297.325 376.313 297.325Z" fill="#263238"/>
<path d="M314.212 342.502C314.191 342.556 314.808 342.883 315.965 343.395C317.126 343.882 318.832 344.63 321.121 344.957C322.264 345.116 323.556 345.121 324.902 344.824C326.239 344.529 327.654 343.894 328.774 342.759C329.894 341.623 330.581 340.069 330.992 338.469C331.407 336.854 331.614 335.185 331.881 333.486C332.903 326.675 333.527 320.467 333.853 315.968C334.018 313.719 334.111 311.895 334.152 310.634C334.19 309.373 334.179 308.674 334.12 308.67C334.059 308.666 333.957 309.358 333.814 310.609C333.658 312.044 333.467 313.816 333.24 315.912C332.757 320.388 332.039 326.565 331.02 333.358C330.5 336.716 330.192 340.127 328.195 342.202C326.2 344.24 323.316 344.567 321.191 344.346C318.996 344.112 317.275 343.468 316.086 343.079C314.9 342.667 314.237 342.444 314.212 342.502Z" fill="#455A64"/>
<path d="M325.222 310.228C325.234 310.191 324.947 310.025 324.369 310.015C323.796 309.996 322.935 310.207 322.105 310.85C321.31 311.488 320.484 312.611 320.511 314.092C320.508 315.594 321.74 317.019 323.288 317.503C324.823 318.029 326.66 317.609 327.546 316.396C328.444 315.218 328.442 313.825 328.177 312.84C327.889 311.83 327.319 311.151 326.847 310.828C326.372 310.495 326.045 310.458 326.031 310.496C325.924 310.613 327.216 311.136 327.58 312.981C327.742 313.852 327.648 315.021 326.922 315.894C326.227 316.786 324.83 317.098 323.558 316.678C322.284 316.264 321.344 315.186 321.31 314.056C321.241 312.924 321.858 311.926 322.503 311.319C323.889 310.045 325.239 310.387 325.222 310.228Z" fill="#455A64"/>
<path d="M260.933 329.873C260.931 329.933 261.43 329.986 262.339 330.032C263.247 330.093 264.567 330.06 266.188 329.913C269.429 329.631 273.897 328.653 278.419 326.528C282.935 324.386 286.531 321.558 288.808 319.236C289.953 318.077 290.816 317.078 291.346 316.339C291.889 315.608 292.164 315.189 292.117 315.153C291.997 315.056 290.744 316.621 288.384 318.792C286.033 320.965 282.465 323.646 278.048 325.742C273.625 327.819 269.288 328.87 266.116 329.304C262.938 329.746 260.934 329.718 260.933 329.873Z" fill="#455A64"/>
<path d="M378.729 290.828C376.466 285.675 376.886 285.201 376.886 285.201L370.47 229.065L364.309 174.456L359.312 134.035L330.449 127.854C330.449 127.854 327.126 137.061 313.174 137.34C297.101 137.661 287.89 123.289 287.89 123.289L241.738 133.197L259.094 252.236L261.176 284.299C261.176 284.299 257.73 289.487 257.73 295.052C257.73 300.618 257.504 304.327 257.504 304.327C300.342 316.096 342.852 326.287 381.967 314.894C381.967 314.896 380.992 295.981 378.729 290.828Z" fill="#3551B6"/>
<path d="M348.691 132.021C348.691 132.021 365.327 133.88 371.23 140.145C377.132 146.411 396.001 177.411 396.001 177.411L368.595 214.905L355.899 197.579L348.691 132.021Z" fill="#3551B6"/>
<path d="M361.374 151.424C361.605 151.402 364.226 172.007 367.227 197.443C370.23 222.887 372.478 243.526 372.247 243.548C372.017 243.57 369.396 222.968 366.393 197.524C363.39 172.089 361.143 151.446 361.374 151.424Z" fill="#263238"/>
<path d="M241.739 133.197L204.786 149.599L218.157 187.006L253.775 192.651L241.739 133.197Z" fill="#3551B6"/>
<path d="M246.736 158.088C246.982 158.062 248.744 172.656 250.673 190.681C252.602 208.713 253.965 223.346 253.719 223.373C253.473 223.399 251.71 208.808 249.782 190.777C247.853 172.752 246.49 158.114 246.736 158.088Z" fill="#263238"/>
<g opacity="0.3">
<path d="M255.845 347.753C275.908 340.538 287.024 326.325 295.998 311.249C304.971 296.174 306.254 274.944 300.51 258.367C300.51 258.367 259.046 298.478 258.752 299.362C258.457 300.246 255.845 347.753 255.845 347.753Z" fill="black"/>
</g>
<g opacity="0.3">
<path d="M312.283 136.915C311.787 140.987 314.062 144.914 316.853 147.921C319.645 150.929 323.024 153.379 325.568 156.598C328.472 160.273 330.134 164.75 331.75 169.145C335.127 178.324 338.503 187.501 341.879 196.679C344.787 204.584 347.733 212.565 352.344 219.613C356.954 226.661 363.446 232.796 371.464 235.373L365.376 183.666L333.262 132.02L312.283 136.915Z" fill="black"/>
</g>
<path d="M345.558 137.365C345.558 136.715 346.074 112.765 344.468 110.163C342.862 107.563 341.576 105.123 341.256 102.685C341.256 102.685 342.132 101.262 340.535 100.371C338.939 99.4795 336.407 101.652 336.352 105.496C336.297 109.34 336.737 115.914 336.737 115.914C336.737 115.914 319.069 105.886 314.225 105.607C309.381 105.329 302.116 104.438 301.73 106.778C301.345 109.118 301.675 109.675 304.207 110.566C306.74 111.457 310.757 112.071 314.72 113.407C318.684 114.745 320.499 115.653 320.499 115.653C320.499 115.653 311.473 112.995 309.491 115.653C307.509 118.309 307.784 120.705 309.051 121.987C309.051 121.987 306.353 123.101 306.628 126.054C306.904 129.007 308.225 129.731 308.225 129.731C308.225 129.731 305.583 131.737 306.849 134.3C308.115 136.863 311.087 135.247 313.894 138.145C316.701 141.042 323.691 147.839 326.388 149.343C329.086 150.848 335.25 151.46 335.25 151.46L345.558 137.365Z" fill="#FFBF9D"/>
<path d="M345.558 137.366C345.563 137.368 345.51 137.45 345.4 137.61C345.278 137.783 345.114 138.018 344.9 138.322C344.441 138.962 343.778 139.888 342.92 141.087C341.16 143.518 338.599 147.056 335.356 151.538L335.312 151.599L335.238 151.591C334.018 151.462 332.747 151.283 331.427 151.035C330.109 150.784 328.735 150.477 327.361 149.958C326.67 149.711 326 149.327 325.389 148.883C324.766 148.448 324.169 147.966 323.563 147.472C322.361 146.475 321.159 145.402 319.94 144.279C318.72 143.154 317.484 141.977 316.231 140.751C315.609 140.132 314.98 139.507 314.341 138.873C313.712 138.217 313.094 137.591 312.305 137.158C311.531 136.707 310.64 136.488 309.725 136.285C308.835 136.081 307.76 135.869 307.089 135.026C306.432 134.242 306.148 133.135 306.398 132.114C306.657 131.095 307.293 130.239 308.1 129.568L308.126 129.916C307.427 129.43 307.087 128.725 306.816 127.999C306.569 127.261 306.432 126.503 306.405 125.701C306.377 124.894 306.617 124.065 307.081 123.377C307.557 122.694 308.194 122.151 308.969 121.788L308.897 122.142C307.767 121.012 307.597 119.209 308.117 117.764C308.36 117.025 308.736 116.338 309.185 115.706C309.392 115.385 309.72 115.052 310.078 114.868C310.438 114.669 310.822 114.542 311.209 114.447C312.77 114.119 314.353 114.254 315.91 114.454C317.471 114.672 319.018 115.003 320.564 115.436L320.398 115.859C318.078 114.793 315.567 113.894 313.014 113.116C310.446 112.349 307.765 111.848 305.09 111.092C304.132 110.789 303.177 110.513 302.285 109.942C301.84 109.654 301.473 109.139 301.405 108.592C301.323 108.056 301.39 107.55 301.455 107.058C301.492 106.833 301.514 106.532 301.679 106.27C301.835 106.019 302.056 105.836 302.283 105.694C302.749 105.426 303.244 105.294 303.733 105.198C304.715 105.017 305.694 104.985 306.663 104.98C308.601 104.982 310.507 105.129 312.391 105.26C313.335 105.337 314.258 105.347 315.225 105.533C315.69 105.637 316.14 105.779 316.596 105.9L317.92 106.361C321.397 107.682 324.65 109.283 327.794 110.876C330.933 112.48 333.949 114.105 336.841 115.735L336.531 115.929C336.315 112.135 336.09 108.504 336.187 104.989C336.319 103.239 336.985 101.436 338.448 100.421C338.816 100.183 339.245 100.017 339.696 100C340.146 99.9744 340.607 100.16 340.938 100.421C341.284 100.677 341.575 101.067 341.647 101.514C341.722 101.962 341.617 102.392 341.406 102.778L341.43 102.663C341.812 105.338 343.147 107.643 344.394 109.739C344.547 109.987 344.732 110.283 344.815 110.59C344.918 110.89 344.972 111.189 345.034 111.487C345.142 112.083 345.22 112.671 345.278 113.25C345.4 114.41 345.471 115.535 345.529 116.624C345.738 120.976 345.735 124.734 345.734 127.807C345.725 130.88 345.682 133.27 345.645 134.891C345.623 135.688 345.606 136.303 345.593 136.737C345.578 137.151 345.558 137.366 345.558 137.366C345.558 137.366 345.542 137.154 345.541 136.736C345.541 136.302 345.542 135.687 345.543 134.89C345.542 133.251 345.54 130.866 345.537 127.808C345.508 124.737 345.482 120.981 345.248 116.64C345.184 115.556 345.107 114.434 344.98 113.284C344.918 112.71 344.839 112.127 344.73 111.546C344.606 110.95 344.489 110.415 344.122 109.905C342.861 107.804 341.49 105.484 341.08 102.71L341.073 102.655L341.106 102.595C341.268 102.299 341.36 101.916 341.296 101.577C341.237 101.233 341.018 100.931 340.72 100.71C340.129 100.214 339.298 100.293 338.649 100.732C337.34 101.638 336.686 103.347 336.571 105.018C336.486 108.467 336.718 112.128 336.944 115.903L336.966 116.284L336.634 116.097C333.747 114.479 330.729 112.86 327.595 111.265C324.458 109.681 321.205 108.088 317.764 106.785L316.46 106.333C316.018 106.217 315.576 106.077 315.131 105.978C314.258 105.806 313.296 105.79 312.359 105.716C310.474 105.587 308.574 105.44 306.663 105.44C305.71 105.445 304.748 105.481 303.819 105.652C302.925 105.834 301.885 106.151 301.911 107.125C301.847 107.598 301.791 108.08 301.86 108.518C301.923 108.959 302.169 109.306 302.548 109.563C303.319 110.062 304.292 110.359 305.219 110.649C307.852 111.394 310.554 111.901 313.143 112.674C315.733 113.466 318.22 114.355 320.601 115.451L320.435 115.874C318.922 115.449 317.379 115.118 315.847 114.903C314.319 114.702 312.759 114.577 311.309 114.883C310.595 115.055 309.917 115.347 309.547 115.964C309.118 116.566 308.763 117.217 308.536 117.902C308.05 119.252 308.221 120.85 309.205 121.837L309.424 122.055L309.134 122.19C308.467 122.501 307.853 123.014 307.436 123.619C307.022 124.235 306.807 124.964 306.83 125.696C306.851 126.428 306.985 127.182 307.213 127.861C307.443 128.526 307.823 129.202 308.325 129.551L308.568 129.72L308.35 129.9C307.624 130.498 307.016 131.316 306.795 132.21C306.57 133.097 306.824 134.082 307.396 134.768C307.953 135.486 308.907 135.694 309.81 135.9C310.726 136.105 311.67 136.338 312.494 136.82C313.327 137.278 314.001 137.969 314.61 138.608C315.244 139.242 315.87 139.869 316.489 140.488C317.735 141.716 318.964 142.895 320.176 144.022C321.389 145.148 322.583 146.222 323.773 147.218C324.978 148.186 326.126 149.185 327.472 149.671C328.81 150.185 330.172 150.498 331.479 150.755C332.788 151.009 334.056 151.196 335.263 151.331L335.146 151.383C338.425 146.945 341.013 143.441 342.793 141.033C343.677 139.848 344.36 138.932 344.833 138.299C345.061 137.999 345.236 137.768 345.365 137.598C345.487 137.443 345.558 137.366 345.558 137.366Z" fill="#FF9A6C"/>
<path d="M402.822 193.281C401.056 189.907 397.069 182.884 395.147 178.585L382.517 183.175C382.517 183.175 346.74 134.846 345.597 134.846C344.455 134.846 328.916 149.253 328.916 149.253C329.602 149.938 361.815 223.767 374.154 231.764C386.493 239.761 395.689 244.84 402.315 233.415C408.94 221.991 410.59 208.133 402.822 193.281Z" fill="#FFBF9D"/>
<path d="M398.692 204.866C398.663 204.881 398.453 204.545 398.099 203.929C397.749 203.31 397.228 202.423 396.568 201.338C395.254 199.165 393.308 196.243 390.947 193.17C388.584 190.096 386.292 187.435 384.624 185.514C383.839 184.609 383.177 183.847 382.648 183.238C382.185 182.698 381.94 182.389 381.963 182.366C381.987 182.345 382.276 182.613 382.78 183.117C383.286 183.619 383.999 184.363 384.867 185.296C386.6 187.164 388.94 189.802 391.314 192.89C393.686 195.977 395.602 198.948 396.85 201.173C397.477 202.285 397.956 203.199 398.257 203.846C398.564 204.489 398.72 204.852 398.692 204.866Z" fill="#FF9A6C"/>
<path d="M325.914 97.2433C325.594 97.4799 324.262 96.1076 322.147 95.3688C320.052 94.5759 318.15 94.771 318.056 94.3838C318.015 94.208 318.471 93.9028 319.316 93.7416C320.153 93.5774 321.379 93.615 322.622 94.0651C323.863 94.518 324.826 95.278 325.363 95.9415C325.906 96.6088 326.058 97.1351 325.914 97.2433Z" fill="#263238"/>
<path d="M358.21 290.59C358.218 290.605 358.066 290.693 357.769 290.849C357.468 290.995 357.039 291.253 356.447 291.491C355.274 291.992 353.5 292.576 351.23 292.895C348.964 293.211 346.214 293.245 343.216 292.855C340.217 292.475 336.974 291.719 333.645 290.717C326.994 288.684 321.107 286.455 316.894 284.731C314.788 283.869 313.1 283.131 311.941 282.605C311.402 282.354 310.963 282.148 310.613 281.985C310.312 281.838 310.157 281.754 310.163 281.739C310.17 281.724 310.337 281.78 310.65 281.899C311.008 282.041 311.459 282.22 312.012 282.439C313.252 282.931 314.947 283.604 317.015 284.426C321.252 286.069 327.149 288.246 333.778 290.272C337.093 291.27 340.306 292.031 343.272 292.431C346.237 292.84 348.948 292.839 351.189 292.569C353.434 292.296 355.198 291.769 356.382 291.323C357.555 290.857 358.191 290.552 358.21 290.59Z" fill="#263238"/>
<path d="M270.826 198.451C254.697 187.587 235.514 183.707 222.94 183.699C211.164 183.692 193.833 185.537 178.141 194.374C168.396 199.863 160.618 207.365 155.025 216.672C148.399 227.697 144.807 241.341 144.35 257.225C144.282 259.609 145.161 261.865 146.825 263.579C148.497 265.302 150.741 266.251 153.141 266.253L184.019 266.273C188.375 266.276 192.122 263.028 192.736 258.717C194.111 249.036 199.868 232.736 222.976 232.353C240.586 232.07 247.833 244.811 250.136 250.306C253.883 259.248 252.924 269.848 247.57 278.663C239.345 292.204 224.228 294.268 215.95 294.292C206.43 294.321 198.68 302.044 198.673 311.508L198.651 344.734C198.648 349.587 202.593 353.537 207.445 353.54L237.529 353.56C242.381 353.563 246.332 349.618 246.335 344.766L246.34 337.785C246.34 337.618 246.444 337.473 246.606 337.416C253.422 335.03 266.636 329.26 278.542 317.439C293.741 302.347 301.456 282.861 301.471 259.522C301.493 226.122 284.818 207.875 270.826 198.451Z" fill="#FF9900"/>
<path d="M223.98 361.916L221.348 361.914C208.767 361.905 198.524 372.134 198.516 384.717C198.507 397.299 208.736 407.541 221.319 407.55L223.95 407.552C236.532 407.56 246.774 397.331 246.783 384.749C246.791 372.167 236.562 361.925 223.98 361.916Z" fill="#FF9900"/>
<g opacity="0.3">
<path d="M300.312 238.184C299.908 234.782 299.02 231.526 297.767 228.399C291.744 213.37 277.609 203.129 261.522 201.299L183.891 192.471C192.332 201.099 203.354 202.817 215.038 205.845C226.723 208.874 239.302 213.415 251.108 215.927C254.896 216.734 258.81 217.74 261.757 220.254C264.632 222.706 266.236 226.292 267.75 229.753C269.994 234.884 272.24 240.014 274.484 245.145C277.047 251.003 280.456 257.618 287.356 257.996C290.141 258.148 292.873 257.105 294.989 255.291C299.985 251.006 301.041 244.332 300.312 238.184Z" fill="black"/>
</g>
<path d="M299.205 217.389C298.604 216.332 286.806 201.905 280.94 196.312C277.153 192.701 271.445 190.21 267.867 188.893C267.867 188.893 208.795 167.561 204.695 165.479L178.165 192.623C187.401 195.192 250.109 210.289 265.579 213.685C268.285 216.841 271.008 219.429 271.008 219.429L275.504 229.993C275.504 229.993 276.023 233.839 275.698 237.964C275.375 242.087 278.719 240.479 278.719 240.479C278.719 240.479 278.562 243.042 278.779 246.736C278.781 246.773 278.784 246.81 278.787 246.846C279.006 249.608 282.975 249.95 283.819 247.311L286.867 237.787C286.867 237.787 286.468 246.454 286.306 251.278C286.276 252.153 286.429 252.872 286.699 253.464C287.865 256.022 291.672 255.546 292.32 252.81L295.891 237.742L294.736 228.515L297.73 236.947C297.73 236.947 298.558 241.454 298.391 247.785C298.324 250.317 299.178 251.395 300.227 251.776C301.983 252.415 303.838 251.016 303.99 249.153L305.132 235.192C305.132 235.192 299.806 218.446 299.205 217.389Z" fill="#FFBF9D"/>
<path d="M200.883 164.424C200.908 164.315 202.587 164.583 205.228 165.316C207.871 166.04 211.453 167.274 215.328 168.812C219.204 170.352 222.666 171.839 225.175 172.904C227.682 173.975 229.231 174.646 229.188 174.767C229.147 174.879 227.517 174.416 224.944 173.494C222.368 172.577 218.862 171.181 214.997 169.646C211.134 168.112 207.615 166.795 205.039 165.921C202.468 165.039 200.852 164.555 200.883 164.424Z" fill="#FF9A6C"/>
</svg>
