<svg width="31" height="26" viewBox="0 0 31 26" fill="none" xmlns="http://www.w3.org/2000/svg">
<path d="M24.5417 5.16667H16.7917C15.6121 5.17099 14.4564 5.4991 13.4506 6.11522C12.4448 6.73134 11.6274 7.61182 11.0877 8.66063C10.3132 8.07264 9.36822 7.75297 8.39583 7.75C7.19683 7.75 6.04694 8.2263 5.19912 9.07412C4.3513 9.92194 3.875 11.0718 3.875 12.2708C3.87878 12.9425 4.03374 13.6047 4.32837 14.2083H2.58333V1.29167C2.58333 0.949095 2.44725 0.620555 2.20501 0.37832C1.96278 0.136086 1.63424 0 1.29167 0C0.949095 0 0.620555 0.136086 0.37832 0.37832C0.136086 0.620555 0 0.949095 0 1.29167L0 24.5417C0 24.8842 0.136086 25.2128 0.37832 25.455C0.620555 25.6973 0.949095 25.8333 1.29167 25.8333C1.63424 25.8333 1.96278 25.6973 2.20501 25.455C2.44725 25.2128 2.58333 24.8842 2.58333 24.5417V21.9583H28.4167V24.5417C28.4167 24.8842 28.5528 25.2128 28.795 25.455C29.0372 25.6973 29.3658 25.8333 29.7083 25.8333C30.0509 25.8333 30.3794 25.6973 30.6217 25.455C30.8639 25.2128 31 24.8842 31 24.5417V11.625C30.9979 9.91277 30.3169 8.27126 29.1061 7.06053C27.8954 5.84981 26.2539 5.16872 24.5417 5.16667ZM12.9167 11.625C12.9167 10.5973 13.3249 9.61167 14.0516 8.88496C14.7783 8.15826 15.764 7.75 16.7917 7.75H24.5417C25.5694 7.75 26.555 8.15826 27.2817 8.88496C28.0084 9.61167 28.4167 10.5973 28.4167 11.625V14.2083H12.9167V11.625ZM6.45833 12.2708C6.45833 11.8876 6.57197 11.513 6.78486 11.1944C6.99776 10.8758 7.30035 10.6275 7.65438 10.4808C8.00842 10.3342 8.39798 10.2958 8.77382 10.3706C9.14966 10.4453 9.49489 10.6299 9.76585 10.9008C10.0368 11.1718 10.2213 11.517 10.2961 11.8928C10.3709 12.2687 10.3325 12.6583 10.1859 13.0123C10.0392 13.3663 9.79087 13.6689 9.47225 13.8818C9.15363 14.0947 8.77903 14.2083 8.39583 14.2083C7.88198 14.2083 7.38917 14.0042 7.02581 13.6409C6.66246 13.2775 6.45833 12.7847 6.45833 12.2708ZM2.58333 19.375V16.7917H28.4167V19.375H2.58333Z" fill="#3551B6"/>
</svg>
