<svg width="23" height="22" viewBox="0 0 23 22" fill="none" xmlns="http://www.w3.org/2000/svg">
<path d="M20.0292 3.14791C19.6916 2.22604 19.0787 1.42981 18.2732 0.866833C17.4676 0.303861 16.5084 0.00128551 15.525 0H7.475C6.49164 0.00128551 5.53237 0.303861 4.72685 0.866833C3.92132 1.42981 3.30837 2.22604 2.97084 3.14791L0.383338 10.252C0.128852 10.9517 -0.000886201 11.6904 4.55579e-06 12.4348V13.3913C0.00171453 14.1305 0.175794 14.8592 0.508462 15.5196C0.841131 16.18 1.32326 16.7541 1.91667 17.1963C1.91667 17.204 1.91667 17.2097 1.91667 17.2174V19.1304C1.91667 19.8915 2.21957 20.6214 2.75874 21.1595C3.29791 21.6977 4.02917 22 4.79167 22C5.55417 22 6.28543 21.6977 6.8246 21.1595C7.36377 20.6214 7.66667 19.8915 7.66667 19.1304V18.1739H15.3333V19.1304C15.3333 19.8915 15.6362 20.6214 16.1754 21.1595C16.7146 21.6977 17.4458 22 18.2083 22C18.9708 22 19.7021 21.6977 20.2413 21.1595C20.7804 20.6214 21.0833 19.8915 21.0833 19.1304V17.2174C21.0833 17.2097 21.0833 17.204 21.0833 17.1963C21.6767 16.7541 22.1589 16.18 22.4915 15.5196C22.8242 14.8592 22.9983 14.1305 23 13.3913V12.4348C23.001 11.6907 22.8712 10.9523 22.6167 10.253L20.0292 3.14791ZM4.77442 3.80217C4.97705 3.24947 5.34457 2.77204 5.82744 2.43426C6.31032 2.09647 6.88534 1.91456 7.475 1.91304H15.525C16.115 1.91417 16.6904 2.0959 17.1737 2.43371C17.6569 2.77152 18.0248 3.24916 18.2275 3.80217L20.3243 9.56522H2.67471L4.77442 3.80217ZM5.75 19.1304C5.75 19.3841 5.64903 19.6274 5.46931 19.8068C5.28959 19.9862 5.04584 20.087 4.79167 20.087C4.5375 20.087 4.29375 19.9862 4.11403 19.8068C3.9343 19.6274 3.83334 19.3841 3.83334 19.1304V18.0783C4.14875 18.1422 4.46982 18.1742 4.79167 18.1739H5.75V19.1304ZM19.1667 19.1304C19.1667 19.3841 19.0657 19.6274 18.886 19.8068C18.7063 19.9862 18.4625 20.087 18.2083 20.087C17.9542 20.087 17.7104 19.9862 17.5307 19.8068C17.351 19.6274 17.25 19.3841 17.25 19.1304V18.1739H18.2083C18.5302 18.1742 18.8512 18.1422 19.1667 18.0783V19.1304ZM21.0833 13.3913C21.0833 14.1524 20.7804 14.8822 20.2413 15.4204C19.7021 15.9585 18.9708 16.2609 18.2083 16.2609H4.79167C4.02917 16.2609 3.29791 15.9585 2.75874 15.4204C2.21957 14.8822 1.91667 14.1524 1.91667 13.3913V12.4348C1.92058 12.1127 1.95946 11.792 2.03263 11.4783H3.83334V12.4348C3.83334 12.6885 3.9343 12.9318 4.11403 13.1111C4.29375 13.2905 4.5375 13.3913 4.79167 13.3913C5.04584 13.3913 5.28959 13.2905 5.46931 13.1111C5.64903 12.9318 5.75 12.6885 5.75 12.4348V11.4783H17.25V12.4348C17.25 12.6885 17.351 12.9318 17.5307 13.1111C17.7104 13.2905 17.9542 13.3913 18.2083 13.3913C18.4625 13.3913 18.7063 13.2905 18.886 13.1111C19.0657 12.9318 19.1667 12.6885 19.1667 12.4348V11.4783H20.9674C21.0406 11.792 21.0795 12.1127 21.0833 12.4348V13.3913Z" fill="#3551B6"/>
</svg>
