<svg width="24" height="24" viewBox="0 0 24 24" fill="none" xmlns="http://www.w3.org/2000/svg">
<path d="M23.249 13.0152C22.68 12.3702 21.86 12.0002 21 12.0002H2V4.48221C2 3.64121 2.38 2.80921 3.093 2.36221C4.182 1.67921 5.512 2.01521 6.2 2.93321L6.459 3.27821L5.976 6.04921C5.918 6.38321 5.987 6.72721 6.17 7.01221C6.595 7.67421 7.493 7.83621 8.122 7.36421L11.728 4.66021C12.295 4.23521 12.438 3.44321 12.055 2.84621L12.042 2.82521C11.805 2.45521 11.402 2.22321 10.963 2.20321L8.057 2.07421L7.883 1.84221C7.225 0.96521 6.29 0.30021 5.214 0.0872097C2.44 -0.46179 0 1.65621 0 4.33321C0 4.33321 0.004 10.0432 0.006 12.2562C0.006 12.8322 0.043 13.4012 0.114 13.9732C0.215 14.7822 0.351 15.8732 0.351 15.8732C0.602 17.8782 1.574 19.6402 2.986 20.9102L2.529 22.7602C2.396 23.2962 2.723 23.8382 3.259 23.9712C3.34 23.9912 3.42 24.0002 3.5 24.0002C3.949 24.0002 4.357 23.6952 4.47 23.2402L4.747 22.1192C5.856 22.6832 7.107 23.0002 8.423 23.0002H15.84C17.063 23.0002 18.23 22.7272 19.28 22.2352L19.529 23.2402C19.641 23.6952 20.05 24.0002 20.499 24.0002C20.579 24.0002 20.659 23.9902 20.74 23.9712C21.276 23.8382 21.603 23.2962 21.47 22.7602L21.06 21.1002C22.59 19.8182 23.651 17.9802 23.914 15.8742L23.976 15.3732C24.082 14.5192 23.818 13.6612 23.248 13.0162L23.249 13.0152ZM21.992 15.1242L21.93 15.6252C21.547 18.6892 18.929 21.0002 15.841 21.0002H8.424C5.336 21.0002 2.719 18.6892 2.336 15.6252L2.133 14.0002H21C21.291 14.0002 21.558 14.1202 21.75 14.3382C21.942 14.5572 22.028 14.8352 21.992 15.1242Z" fill="#3551B6"/>
</svg>
