<svg width="25" height="22" viewBox="0 0 25 22" fill="none" xmlns="http://www.w3.org/2000/svg">
<path d="M22.857 6.44766C22.6745 6.37589 22.4801 6.33931 22.284 6.33985H22.2635C21.228 6.35525 20.0667 7.32505 19.4573 8.79182C18.7267 10.5466 19.063 12.3419 20.214 12.8035C20.3963 12.8753 20.5906 12.9118 20.7865 12.9113C21.8271 12.9113 23.0043 11.9358 23.6189 10.4593C24.3443 8.70454 24.0029 6.9092 22.857 6.44766V6.44766Z" stroke="#3551B6" stroke-width="1.875" stroke-miterlimit="10"/>
<path d="M16.1759 13.2942C14.7487 10.9259 14.1326 10.0352 12.5 10.0352C10.8674 10.0352 10.2462 10.9315 8.81896 13.2942C7.59708 15.3149 5.12765 15.4833 4.51158 17.1996C4.3866 17.5139 4.32383 17.8496 4.32676 18.1879C4.32676 19.5838 5.39462 20.7138 6.70891 20.7138C8.3415 20.7138 10.5645 19.4102 12.5051 19.4102C14.4458 19.4102 16.6585 20.7138 18.2911 20.7138C19.6054 20.7138 20.6681 19.5843 20.6681 18.1879C20.6693 17.8492 20.6048 17.5136 20.4781 17.1996C19.8621 15.4771 17.3978 15.3149 16.1759 13.2942Z" stroke="#3551B6" stroke-width="1.875" stroke-miterlimit="10"/>
<path d="M9.24046 7.7768C9.30921 7.77686 9.37785 7.77171 9.44582 7.7614C10.6374 7.58839 11.3813 5.93731 11.1113 4.07266C10.8571 2.3148 9.79031 1 8.6747 1C8.60596 0.999945 8.53731 1.00509 8.46935 1.0154C7.27776 1.18842 6.53385 2.83949 6.80389 4.70414C7.05802 6.45687 8.12486 7.7768 9.24046 7.7768Z" stroke="#3551B6" stroke-width="1.875" stroke-miterlimit="10"/>
<path d="M18.1947 4.70414C18.4647 2.83949 17.7208 1.18842 16.5292 1.0154C16.4613 1.00509 16.3926 0.999945 16.3239 1C15.2083 1 14.1435 2.3148 13.8889 4.07266C13.6188 5.93731 14.3627 7.58839 15.5543 7.7614C15.6223 7.77171 15.6909 7.77686 15.7597 7.7768C16.8753 7.7768 17.9421 6.45687 18.1947 4.70414V4.70414Z" stroke="#3551B6" stroke-width="1.875" stroke-miterlimit="10"/>
<path d="M4.78722 12.8035C5.93671 12.3414 6.27247 10.5445 5.54293 8.79182C4.92891 7.3153 3.75273 6.33985 2.71362 6.33985C2.51771 6.33931 2.32347 6.37589 2.14118 6.44766C0.991692 6.90972 0.655932 8.7066 1.38547 10.4593C1.99948 11.9358 3.17567 12.9113 4.21478 12.9113C4.41069 12.9118 4.60493 12.8753 4.78722 12.8035V12.8035Z" stroke="#3551B6" stroke-width="1.875" stroke-miterlimit="10"/>
</svg>
