<svg width="26" height="26" viewBox="0 0 26 26" fill="none" xmlns="http://www.w3.org/2000/svg">
<path d="M24.9258 19.7933L6.2068 1.07462C5.14634 0.0163351 3.62876 -0.289126 2.24441 0.287134C0.86007 0.860143 0 2.14589 0 3.64504V20.9848C0 23.7502 2.24983 26 5.01527 26H22.3553C23.8534 26 25.1413 25.1399 25.7143 23.7567C26.2874 22.3724 25.9851 20.8527 24.9258 19.7933ZM24.7135 23.3408C24.3972 24.1022 23.6129 24.9157 22.3553 24.9157H5.01527C2.84776 24.9157 1.08321 23.1523 1.08321 20.9837V3.64504C1.08321 2.38745 1.8967 1.60213 2.65928 1.28692C2.95067 1.16669 3.29621 1.08761 3.66125 1.08761C4.25052 1.08761 4.89178 1.29125 5.44205 1.83935L8.25948 4.65674L5.91975 6.99644C5.70852 7.20766 5.70852 7.55103 5.91975 7.76226C6.0259 7.86841 6.16455 7.9204 6.30321 7.9204C6.44186 7.9204 6.58051 7.86733 6.68666 7.76226L9.0264 5.42256L11.3802 7.77634L9.04048 10.116C8.82925 10.3273 8.82925 10.6706 9.04048 10.8819C9.14663 10.988 9.28528 11.04 9.42394 11.04C9.56259 11.04 9.70124 10.9869 9.80739 10.8819L12.1471 8.54216L14.4457 10.8407L12.106 13.1804C11.8947 13.3916 11.8947 13.735 12.106 13.9462C12.2121 14.0524 12.3508 14.1044 12.4894 14.1044C12.6281 14.1044 12.7667 14.0513 12.8729 13.9462L15.2126 11.6065L17.5101 13.904L15.1704 16.2437C14.9591 16.4549 14.9591 16.7983 15.1704 17.0095C15.2765 17.1156 15.4152 17.1676 15.5538 17.1676C15.6925 17.1676 15.8311 17.1146 15.9373 17.0095L18.277 14.6698L20.5745 16.9672L18.2348 19.3069C18.0235 19.5182 18.0235 19.8615 18.2348 20.0728C18.3409 20.1789 18.4796 20.2309 18.6182 20.2309C18.7569 20.2309 18.8955 20.1778 19.0017 20.0728L21.3414 17.7331L24.1664 20.558C25.0558 21.4473 25.0352 22.5782 24.72 23.3397L24.7135 23.3408ZM7.42433 13.1522C7.26943 12.9973 7.03762 12.9529 6.83398 13.0352C6.63142 13.1187 6.49927 13.3169 6.49927 13.5357V18.9517C6.49927 19.2506 6.7419 19.4933 7.04087 19.4933H12.4569C12.6757 19.4933 12.874 19.3611 12.9574 19.1585C13.0419 18.956 12.9953 18.7231 12.8404 18.5682L7.42433 13.1522ZM7.58248 18.4101V14.8431L11.1495 18.4101H7.58248Z" fill="#3551B6"/>
</svg>
