<svg width="11" height="20" viewBox="0 0 11 20" fill="none" xmlns="http://www.w3.org/2000/svg">
<path d="M10.3093 19.4144C10.4951 19.2287 10.6426 19.0082 10.7431 18.7654C10.8437 18.5227 10.8955 18.2626 10.8955 17.9998C10.8955 17.7371 10.8437 17.4769 10.7431 17.2342C10.6426 16.9914 10.4951 16.7709 10.3093 16.5852L4.19607 10.4706C4.07109 10.3456 4.00088 10.1761 4.00088 9.9993C4.00088 9.82253 4.07109 9.65299 4.19607 9.52797L10.3093 3.41477C10.6845 3.03976 10.8953 2.53107 10.8954 2.0006C10.8956 1.47013 10.685 0.961342 10.3099 0.586157C9.93494 0.210972 9.42625 0.000125017 8.89578 -3.17772e-08C8.36531 -0.000125081 7.85652 0.210482 7.48134 0.585491L1.3668 6.70003C0.933414 7.13337 0.589634 7.64783 0.355087 8.21403C0.12054 8.78024 -0.000180655 9.3871 -0.000180682 9.99997C-0.000180708 10.6128 0.12054 11.2197 0.355087 11.7859C0.589633 12.3521 0.933414 12.8666 1.3668 13.2999L7.48134 19.4144C7.85638 19.7894 8.36499 20 8.89531 20C9.42563 20 9.93423 19.7894 10.3093 19.4144Z" fill="black"/>
</svg>
