<svg width="36" height="32" viewBox="0 0 36 32" fill="none" xmlns="http://www.w3.org/2000/svg">
<path d="M34.0237 12.3351L28.9311 3.60744C27.6322 1.38188 25.2262 0 22.6501 0H12.3631C9.78699 0 7.37961 1.38334 6.08064 3.60744L0.9895 12.3351C-0.329833 14.5956 -0.329833 17.4044 0.9895 19.6649L6.08064 28.3926C7.37961 30.6181 9.78554 32 12.3631 32H22.6501C25.2262 32 27.6336 30.6167 28.9326 28.3926L34.0237 19.6649C35.3416 17.4044 35.3416 14.5956 34.0237 12.3351ZM26.5238 13.8348L20.0856 20.1551C18.9467 21.2722 17.4804 21.8294 16.0142 21.8294C14.5625 21.8294 13.1093 21.2824 11.9747 20.1871L9.21242 17.4699C8.6393 16.9069 8.63203 15.9862 9.19496 15.4131C9.7579 14.8385 10.6772 14.8312 11.2518 15.3956L14.0054 18.1026C15.1371 19.1936 16.9175 19.1878 18.0506 18.0765L24.4873 11.7576C25.059 11.1932 25.9768 11.2034 26.5441 11.7765C27.1071 12.3497 27.0983 13.2719 26.5238 13.8348Z" fill="#3551B6"/>
</svg>
