<svg width="42" height="40" viewBox="0 0 42 40" fill="none" xmlns="http://www.w3.org/2000/svg">
<path d="M30.8551 23.7572C30.372 22.9588 29.3027 22.6854 28.4644 23.1455L26.7545 24.084C25.6956 22.9971 24.3165 22.207 22.7484 21.8652V19.9966C22.7484 19.0748 21.9643 18.3296 20.9983 18.3296C20.0322 18.3296 19.2481 19.0748 19.2481 19.9966V21.8652C17.68 22.207 16.2991 22.9954 15.242 24.084L13.5321 23.1455C12.6956 22.687 11.6245 22.9604 11.1414 23.7572C10.6601 24.5557 10.9472 25.5742 11.7855 26.0326L13.5059 26.9761C13.2801 27.6729 13.1243 28.398 13.1243 29.1648C13.1243 29.9316 13.2801 30.6567 13.5059 31.3535L11.7855 32.297C10.9472 32.7554 10.6601 33.7756 11.1414 34.5724C11.4652 35.1075 12.0533 35.4076 12.6606 35.4076C12.9563 35.4076 13.2574 35.3359 13.5321 35.1842L15.242 34.2457C16.3009 35.3325 17.68 36.1227 19.2481 36.4644V38.333C19.2481 39.2549 20.0322 40 20.9983 40C21.9643 40 22.7484 39.2549 22.7484 38.333V36.4644C24.3165 36.1227 25.6974 35.3342 26.7545 34.2457L28.4644 35.1842C28.7391 35.3359 29.0402 35.4076 29.3359 35.4076C29.9415 35.4076 30.5313 35.1075 30.8551 34.5724C31.3364 33.7739 31.0493 32.7554 30.211 32.297L28.4906 31.3535C28.7164 30.6567 28.8722 29.9316 28.8722 29.1648C28.8722 28.398 28.7164 27.6729 28.4906 26.9761L30.211 26.0326C31.0493 25.5742 31.3364 24.554 30.8551 23.7572ZM20.9983 33.3322C18.5865 33.3322 16.6229 31.4635 16.6229 29.1648C16.6229 26.8661 18.5865 24.9974 20.9983 24.9974C23.41 24.9974 25.3736 26.8661 25.3736 29.1648C25.3736 31.4635 23.41 33.3322 20.9983 33.3322ZM42 20.8301C42 24.9824 39.6531 28.8548 35.8745 30.9351C35.0379 31.3985 33.9686 31.1235 33.4838 30.3284C33.0008 29.5299 33.286 28.5114 34.1226 28.0513C36.8213 26.5627 38.498 23.7972 38.498 20.8301C38.498 16.471 35.2462 12.6903 30.7676 11.8385C29.0909 11.5201 27.7136 10.5033 26.9907 9.04972C24.9221 4.89235 20.3104 2.6703 15.4975 3.50044C11.2849 4.23557 7.85115 7.5678 7.1476 11.6052C6.93408 12.8304 6.94808 14.0539 7.1896 15.2408C7.52563 16.8894 6.87982 18.6547 5.50421 19.8466C4.22835 20.9501 3.49854 22.5237 3.49854 24.164C3.49854 26.4477 5.11743 28.438 7.43637 29.0065C8.3727 29.2365 8.93449 30.1467 8.69473 31.0368C8.49171 31.7886 7.78115 32.2887 7.00058 32.2887C6.85532 32.2887 6.71006 32.272 6.56305 32.237C2.69872 31.2885 0 27.9679 0 24.164C0 21.5869 1.1481 19.1148 3.15201 17.3795C3.6298 16.9661 3.86082 16.391 3.75756 15.8776C3.43554 14.3006 3.41628 12.6787 3.69981 11.0601C4.65189 5.57746 9.14101 1.22172 14.8675 0.223217C21.1575 -0.87697 27.4405 2.16855 30.155 7.62115C30.4 8.11456 30.8726 8.45962 31.4536 8.56964C37.5651 9.72984 42 14.8857 42 20.8284V20.8301Z" fill="#3551B6"/>
</svg>
