<svg width="21" height="32" viewBox="0 0 21 32" fill="none" xmlns="http://www.w3.org/2000/svg">
<path d="M9.41759 31.4594C9.18697 31.4594 8.99094 31.3787 8.8295 31.2172C8.66806 31.0558 8.58734 30.8598 8.58734 30.6291V28.2076C6.88072 28.0461 5.43931 27.6425 4.26313 26.9968C3.08694 26.328 2.19903 25.5323 1.59941 24.6098C0.999782 23.6642 0.676907 22.6841 0.630782 21.6693C0.630782 21.4618 0.699969 21.2888 0.838344 21.1504C0.999782 21.0121 1.18428 20.9429 1.39184 20.9429H4.47069C4.74744 20.9429 4.96653 21.0121 5.12797 21.1504C5.28941 21.2657 5.41625 21.4157 5.5085 21.6002C5.66994 22.0383 5.93516 22.4765 6.30416 22.9147C6.69622 23.3298 7.23819 23.6758 7.93006 23.9525C8.62194 24.2293 9.48678 24.3677 10.5246 24.3677C12.1851 24.3677 13.4189 24.0909 14.2261 23.5374C15.0333 22.9839 15.4369 22.2344 15.4369 21.2888C15.4369 20.62 15.2178 20.0896 14.7796 19.6975C14.3645 19.2824 13.6957 18.9134 12.7732 18.5905C11.8507 18.2446 10.6399 17.8871 9.14084 17.5181C7.43422 17.103 5.99281 16.6071 4.81663 16.0306C3.64044 15.4309 2.75253 14.6814 2.15291 13.782C1.57634 12.8825 1.28806 11.7409 1.28806 10.3572C1.28806 8.58137 1.93381 7.07078 3.22531 5.82541C4.51681 4.58003 6.30416 3.81897 8.58734 3.54222V1.15525C8.58734 0.924624 8.66806 0.728593 8.8295 0.567155C8.99094 0.405718 9.18697 0.325 9.41759 0.325H11.5278C11.7584 0.325 11.9545 0.405718 12.1159 0.567155C12.2773 0.728593 12.3581 0.924624 12.3581 1.15525V3.6114C13.9263 3.84203 15.2409 4.30328 16.3018 4.99516C17.3626 5.68703 18.1698 6.48269 18.7233 7.38212C19.2768 8.2585 19.5651 9.11181 19.5882 9.94206C19.5882 10.1266 19.519 10.2995 19.3806 10.461C19.2653 10.5993 19.0923 10.6685 18.8617 10.6685H15.6445C15.4369 10.6685 15.2409 10.6224 15.0564 10.5302C14.8719 10.4379 14.722 10.2649 14.6067 10.0112C14.4913 9.29631 14.0532 8.68516 13.2921 8.17778C12.531 7.67041 11.5393 7.41672 10.317 7.41672C9.07166 7.41672 8.06844 7.64734 7.30738 8.10859C6.56938 8.56984 6.20038 9.28478 6.20038 10.2534C6.20038 10.8992 6.38488 11.4411 6.75388 11.8793C7.12288 12.2944 7.7225 12.6634 8.55275 12.9863C9.40606 13.3092 10.5361 13.6551 11.9429 14.0241C13.9033 14.4623 15.4946 14.9697 16.7169 15.5462C17.9623 16.1228 18.8732 16.8608 19.4498 17.7602C20.0494 18.6366 20.3492 19.7552 20.3492 21.1158C20.3492 22.4535 20.0148 23.6297 19.346 24.6444C18.7003 25.6361 17.7778 26.4433 16.5785 27.066C15.3793 27.6656 13.9724 28.0577 12.3581 28.2422V30.6291C12.3581 30.8598 12.2773 31.0558 12.1159 31.2172C11.9545 31.3787 11.7584 31.4594 11.5278 31.4594H9.41759Z" fill="#3551B6"/>
</svg>
