<svg width="48" height="48" viewBox="0 0 48 48" fill="none" xmlns="http://www.w3.org/2000/svg">
<path d="M42 24H36C33.794 24 32 25.794 32 28C32 30.206 30.206 32 28 32H20C17.794 32 16 30.206 16 28C16 25.794 14.206 24 12 24H6C2.692 24 0 26.692 0 30V38C0 43.514 4.486 48 10 48H38C43.514 48 48 43.514 48 38V30C48 26.692 45.308 24 42 24ZM44 38C44 41.308 41.308 44 38 44H10C6.692 44 4 41.308 4 38V30C4 28.896 4.896 28 6 28L12 27.996V28C12 32.412 15.588 36 20 36H28C32.412 36 36 32.412 36 28H42C43.104 28 44 28.896 44 30V38ZM14.586 14.242C13.804 13.46 13.804 12.196 14.586 11.414C15.368 10.632 16.632 10.632 17.414 11.414L22 16V2C22 0.894 22.894 0 24 0C25.106 0 26 0.894 26 2V16L30.586 11.414C31.368 10.632 32.632 10.632 33.414 11.414C34.196 12.196 34.196 13.46 33.414 14.242L26.828 20.828C26.054 21.602 25.036 21.992 24.018 21.996L24 22L23.982 21.996C22.964 21.992 21.946 21.602 21.172 20.828L14.586 14.242Z" fill="white"/>
</svg>
