<svg width="48" height="48" viewBox="0 0 48 48" fill="none" xmlns="http://www.w3.org/2000/svg">
<path d="M39 29.9949H34V22.993C34 21.3345 32.656 19.9921 31 19.9921C29.344 19.9921 28 21.3345 28 22.993V29.9949H9C4.038 29.9949 0 34.0341 0 38.9975C0 43.9609 4.038 48 9 48H39C43.962 48 48 43.9609 48 38.9975C48 34.0341 43.962 29.9949 39 29.9949ZM39 41.9983H9C7.346 41.9983 6 40.6519 6 38.9975C6 37.343 7.346 35.9966 9 35.9966H39C40.654 35.9966 42 37.343 42 38.9975C42 40.6519 40.654 41.9983 39 41.9983ZM40.364 13.8684C41.536 15.0387 41.536 16.9413 40.364 18.1116C39.778 18.6978 39.01 18.9898 38.242 18.9898C37.474 18.9898 36.706 18.6978 36.12 18.1116C33.296 15.2888 28.702 15.2888 25.878 18.1116C24.706 19.2839 22.808 19.2839 21.636 18.1116C20.464 16.9413 20.464 15.0387 21.636 13.8684C26.798 8.70295 35.2 8.70295 40.364 13.8684ZM14.812 10.5715C13.678 9.36313 13.74 7.4626 14.948 6.33028C23.95 -2.11009 38.05 -2.11009 47.05 6.33028C48.258 7.4626 48.322 9.36313 47.188 10.5715C46.596 11.2016 45.798 11.5197 44.998 11.5197C44.262 11.5197 43.526 11.2517 42.948 10.7075C36.244 4.42574 25.75 4.42574 19.05 10.7075C17.84 11.8418 15.942 11.7798 14.812 10.5715Z" fill="white"/>
</svg>
