<svg width="48" height="48" viewBox="0 0 48 48" fill="none" xmlns="http://www.w3.org/2000/svg">
<path d="M33 36H32V9C32 4.038 27.962 0 23 0H9C4.038 0 0 4.038 0 9V41C0 44.86 3.138 47.998 6.996 48H32C35.308 48 38 45.308 38 42V41C38 38.242 35.758 36 33 36ZM10 41C10 42.654 8.654 44 7 44C5.346 44 4 42.654 4 41V9C4 6.242 6.242 4 9 4H23C25.758 4 28 6.242 28 9V36H15C12.242 36 10 38.242 10 41ZM34 42C34 43.104 33.104 44 32 44H13.324C13.758 43.09 14 42.072 14 41C14 40.45 14.45 40 15 40H33C33.55 40 34 40.45 34 41V42ZM42 0C38.692 0 36 2.692 36 6V26.686C36 29.358 37.042 31.87 38.93 33.758L40.586 35.414C40.976 35.804 41.488 36 42 36C42.512 36 43.024 35.804 43.414 35.414L45.07 33.758C46.958 31.87 48 29.358 48 26.686V6C48 2.692 45.308 0 42 0ZM44 26.686C44 28.29 43.374 29.798 42.242 30.93L42 31.172L41.758 30.93C40.626 29.798 40 28.29 40 26.686V6C40 4.896 40.896 4 42 4C43.104 4 44 4.896 44 6V26.686ZM6.586 14.194C5.804 13.412 5.804 12.146 6.586 11.366C7.368 10.584 8.632 10.584 9.414 11.366L11.99 13.944C12.056 14.01 12.2 14.01 12.268 13.944L16.626 9.586C17.408 8.804 18.672 8.804 19.454 9.586C20.236 10.368 20.236 11.632 19.454 12.414L15.096 16.772C14.278 17.59 13.204 17.998 12.13 17.998C11.056 17.998 9.982 17.59 9.164 16.772L6.586 14.194ZM15.096 28.772C14.278 29.59 13.204 29.998 12.13 29.998C11.056 29.998 9.982 29.59 9.164 28.772L6.588 26.194C5.806 25.412 5.806 24.146 6.588 23.366C7.37 22.584 8.634 22.584 9.416 23.366L11.992 25.944C12.058 26.01 12.202 26.01 12.27 25.944L16.628 21.586C17.41 20.804 18.674 20.804 19.456 21.586C20.238 22.368 20.238 23.632 19.456 24.414L15.096 28.772Z" fill="white"/>
</svg>
