<svg width="48" height="48" viewBox="0 0 48 48" fill="none" xmlns="http://www.w3.org/2000/svg">
<path d="M4 5C4 2.238 6.238 0 9 0C11.762 0 14 2.238 14 5C14 7.762 11.762 10 9 10C6.238 10 4 7.762 4 5ZM14 20C12.896 20 12 20.894 12 22V30H8C5.794 30 4 28.206 4 26V20C4 17.794 5.794 16 8 16H28C29.104 16 30 15.106 30 14C30 12.894 29.104 12 28 12H8C3.588 12 0 15.588 0 20V26C0 28.948 1.62 31.5 4 32.888V46C4 47.106 4.896 48 6 48C7.104 48 8 47.106 8 46V34H12V46C12 47.106 12.896 48 14 48C15.104 48 16 47.106 16 46V22C16 20.894 15.104 20 14 20ZM48 38V42C48 45.308 45.308 48 42 48H38C36.458 48 35.064 47.398 34 46.44C32.936 47.4 31.542 48 30 48H26C22.692 48 20 45.308 20 42V38C20 34.692 22.692 32 26 32H26.368C26.144 31.372 26 30.704 26 30V26C26 22.692 28.692 20 32 20H36C39.308 20 42 22.692 42 26V30C42 30.704 41.856 31.372 41.632 32H42C45.308 32 48 34.692 48 38ZM30 30C30 31.104 30.898 32 32 32H36C37.102 32 38 31.104 38 30V26C38 24.896 37.102 24 36 24H32C30.898 24 30 24.896 30 26V30ZM32 42V38C32 36.896 31.102 36 30 36H26C24.898 36 24 36.896 24 38V42C24 43.104 24.898 44 26 44H30C31.102 44 32 43.104 32 42ZM44 38C44 36.896 43.102 36 42 36H38C36.898 36 36 36.896 36 38V42C36 43.104 36.898 44 38 44H42C43.102 44 44 43.104 44 42V38Z" fill="white"/>
</svg>
