<svg width="48" height="48" viewBox="0 0 48 48" fill="none" xmlns="http://www.w3.org/2000/svg">
<path d="M46.0426 17.572C44.8524 16.486 43.2982 15.948 41.704 16.008C40.0958 16.084 38.6156 16.782 37.5334 17.97L31.0985 25.038C29.9963 23.22 27.998 22 25.7197 22H8.00115C3.58852 22 0 25.588 0 30V40C0 44.412 3.58852 48 8.00115 48H17.9326C23.6314 48 29.0742 45.56 32.8687 41.304L46.4787 26.03C48.667 23.576 48.471 19.784 46.0426 17.572ZM43.4923 23.37L29.8823 38.646C26.8459 42.048 22.4932 44.002 17.9326 44.002H8.00115C5.79483 44.002 4.00058 42.208 4.00058 40.002V30.002C4.00058 27.796 5.79483 26.002 8.00115 26.002H25.7177C26.9779 26.002 28.004 27.028 28.004 28.288C28.004 29.416 27.1619 30.39 26.0437 30.548L15.7203 32.022C14.6261 32.178 13.866 33.192 14.022 34.286C14.178 35.38 15.1902 36.132 16.2863 35.984L26.6098 34.51C28.9602 34.174 30.8684 32.536 31.6385 30.394L40.4918 20.664C40.8559 20.266 41.3539 20.032 41.892 20.006C42.4301 19.966 42.9482 20.168 43.3482 20.532C44.1643 21.274 44.2284 22.55 43.4923 23.374V23.37ZM18.0046 20V18.716C19.4288 18.346 20.709 17.614 21.7091 16.594L23.0053 17.342C23.3214 17.524 23.6634 17.61 24.0035 17.61C24.6955 17.61 25.3676 17.25 25.7377 16.61C26.2898 15.652 25.9597 14.428 25.0056 13.878L23.6854 13.116C23.8734 12.438 24.0055 11.738 24.0055 11C24.0055 10.262 23.8734 9.562 23.6854 8.884L25.0056 8.122C25.9617 7.572 26.2918 6.346 25.7377 5.39C25.1836 4.434 23.9614 4.106 23.0053 4.658L21.7091 5.406C20.709 4.386 19.4288 3.654 18.0046 3.284V2C18.0046 0.894 17.1105 0 16.0043 0C14.8981 0 14.004 0.894 14.004 2V3.284C12.5798 3.654 11.2996 4.386 10.2995 5.406L9.00329 4.658C8.04316 4.108 6.82298 4.436 6.2709 5.39C5.71882 6.348 6.04887 7.572 7.00301 8.122L8.3232 8.884C8.13517 9.562 8.00315 10.262 8.00315 11C8.00315 11.738 8.13517 12.438 8.3232 13.116L7.00301 13.878C6.04687 14.428 5.71682 15.654 6.2709 16.61C6.64295 17.25 7.31305 17.61 8.00515 17.61C8.3452 17.61 8.68725 17.524 9.00329 17.342L10.2995 16.594C11.2996 17.614 12.5798 18.346 14.004 18.716V20C14.004 21.106 14.8981 22 16.0043 22C17.1105 22 18.0046 21.106 18.0046 20ZM12.0037 11C12.0037 8.794 13.798 7 16.0043 7C18.2106 7 20.0049 8.794 20.0049 11C20.0049 13.206 18.2106 15 16.0043 15C13.798 15 12.0037 13.206 12.0037 11Z" fill="white"/>
</svg>
