<svg width="34" height="43" viewBox="0 0 34 43" fill="none" xmlns="http://www.w3.org/2000/svg">
<path d="M29.5263 32.25H28.6316V8.0625C28.6316 3.61738 25.0186 0 20.5789 0H8.05263C3.61295 0 0 3.61738 0 8.0625V36.7292C0 40.1871 2.80768 42.9982 6.25958 43H28.6316C31.5914 43 34 40.5884 34 37.625V36.7292C34 34.2585 31.994 32.25 29.5263 32.25ZM8.94737 36.7292C8.94737 38.2109 7.74305 39.4167 6.26316 39.4167C4.78326 39.4167 3.57895 38.2109 3.57895 36.7292V8.0625C3.57895 5.59179 5.58495 3.58333 8.05263 3.58333H20.5789C23.0466 3.58333 25.0526 5.59179 25.0526 8.0625V32.25H13.4211C10.9534 32.25 8.94737 34.2585 8.94737 36.7292ZM30.4211 37.625C30.4211 38.614 29.6194 39.4167 28.6316 39.4167H11.9215C12.3098 38.6015 12.5263 37.6895 12.5263 36.7292C12.5263 36.2365 12.9289 35.8333 13.4211 35.8333H29.5263C30.0184 35.8333 30.4211 36.2365 30.4211 36.7292V37.625ZM5.89274 12.7155C5.19305 12.0149 5.19305 10.8808 5.89274 10.182C6.59242 9.4815 7.72337 9.4815 8.42305 10.182L10.7279 12.4915C10.7869 12.5506 10.9158 12.5506 10.9766 12.4915L14.8759 8.58746C15.5756 7.88692 16.7065 7.88692 17.4062 8.58746C18.1059 9.288 18.1059 10.4203 17.4062 11.1209L13.5069 15.0249C12.7751 15.7577 11.8141 16.1232 10.8532 16.1232C9.89221 16.1232 8.93126 15.7577 8.19937 15.0249L5.89274 12.7155ZM13.5069 25.7749C12.7751 26.5077 11.8141 26.8732 10.8532 26.8732C9.89221 26.8732 8.93126 26.5077 8.19937 25.7749L5.89453 23.4655C5.19484 22.7649 5.19484 21.6308 5.89453 20.932C6.59421 20.2315 7.72516 20.2315 8.42484 20.932L10.7297 23.2415C10.7887 23.3006 10.9176 23.3006 10.9784 23.2415L14.8777 19.3375C15.5774 18.6369 16.7083 18.6369 17.408 19.3375C18.1077 20.038 18.1077 21.1703 17.408 21.8709L13.5069 25.7749Z" fill="white"/>
</svg>
