<svg width="46" height="46" viewBox="0 0 46 46" fill="none" xmlns="http://www.w3.org/2000/svg">
<path d="M33.7936 27.3208C33.2646 26.4026 32.0934 26.0882 31.1753 26.6173L29.3025 27.6965C28.1428 26.4467 26.6324 25.538 24.9149 25.145V22.9961C24.9149 21.936 24.0562 21.0791 22.9981 21.0791C21.94 21.0791 21.0813 21.936 21.0813 22.9961V25.145C19.3638 25.538 17.8514 26.4447 16.6936 27.6965L14.8209 26.6173C13.9047 26.0901 12.7316 26.4045 12.2025 27.3208C11.6754 28.2391 11.9897 29.4103 12.9079 29.9375L14.7921 31.0225C14.5449 31.8238 14.3743 32.6577 14.3743 33.5395C14.3743 34.4214 14.5449 35.2552 14.7921 36.0566L12.9079 37.1416C11.9897 37.6687 11.6754 38.8419 12.2025 39.7583C12.5571 40.3736 13.2012 40.7187 13.8663 40.7187C14.1903 40.7187 14.52 40.6363 14.8209 40.4618L16.6936 39.3825C17.8533 40.6324 19.3638 41.5411 21.0813 41.9341V44.083C21.0813 45.1431 21.94 46 22.9981 46C24.0562 46 24.9149 45.1431 24.9149 44.083V41.9341C26.6324 41.5411 28.1448 40.6343 29.3025 39.3825L31.1753 40.4618C31.4762 40.6363 31.8059 40.7187 32.1298 40.7187C32.7931 40.7187 33.439 40.3736 33.7936 39.7583C34.3208 38.84 34.0064 37.6687 33.0883 37.1416L31.204 36.0566C31.4513 35.2552 31.6219 34.4214 31.6219 33.5395C31.6219 32.6577 31.4513 31.8238 31.204 31.0225L33.0883 29.9375C34.0064 29.4103 34.3208 28.2371 33.7936 27.3208ZM22.9981 38.332C20.3567 38.332 18.206 36.1831 18.206 33.5395C18.206 30.896 20.3567 28.7471 22.9981 28.7471C25.6395 28.7471 27.7902 30.896 27.7902 33.5395C27.7902 36.1831 25.6395 38.332 22.9981 38.332ZM46 23.9546C46 28.7298 43.4295 33.183 39.2911 35.5754C38.3749 36.1083 37.2037 35.792 36.6727 34.8776C36.1437 33.9594 36.4561 32.7881 37.3724 32.259C40.3281 30.5471 42.1644 27.3668 42.1644 23.9546C42.1644 18.9416 38.603 14.5939 33.6978 13.6143C31.8615 13.2482 30.3529 12.0788 29.5613 10.4072C27.2956 5.6262 22.2448 3.07085 16.9735 4.02551C12.3597 4.8709 8.59888 8.70297 7.82832 13.3459C7.59447 14.7549 7.6098 16.162 7.87432 17.5269C8.24235 19.4228 7.53504 21.4529 6.02842 22.8235C4.63105 24.0926 3.83174 25.9022 3.83174 27.7886C3.83174 30.4148 5.6048 32.7037 8.1446 33.3574C9.1701 33.622 9.7854 34.6686 9.52279 35.6923C9.30044 36.5569 8.52221 37.132 7.66731 37.132C7.50821 37.132 7.34911 37.1128 7.1881 37.0726C2.95575 35.9818 0 32.1631 0 27.7886C0 24.8249 1.25744 21.982 3.4522 19.9864C3.9755 19.511 4.22852 18.8496 4.11543 18.2592C3.76273 16.4457 3.74165 14.5805 4.05217 12.7191C5.09492 6.41408 10.0116 1.40498 16.2834 0.2567C23.1725 -1.00852 30.0539 2.49383 33.0269 8.76432C33.2953 9.33175 33.8128 9.72857 34.4492 9.85509C41.1428 11.1893 46 17.1186 46 23.9527V23.9546Z" fill="white"/>
</svg>
