<svg width="48" height="48" viewBox="0 0 48 48" fill="none" xmlns="http://www.w3.org/2000/svg">
<path d="M46.8257 32.1787C46.8257 32.1787 29.3586 24.239 29.2966 24.219C27.8406 23.723 26.2607 24.089 25.1728 25.177C24.0848 26.2649 23.7188 27.8448 24.2888 29.4788L32.1764 46.8281C32.4944 47.53 33.1884 47.986 33.9604 48H33.9983C34.7543 48 35.4483 47.572 35.7883 46.894L39.4901 39.4904L46.8937 35.7885C47.5837 35.4425 48.0137 34.7346 47.9997 33.9626C47.9857 33.1926 47.5297 32.4986 46.8277 32.1787H46.8257ZM37.1042 36.2105C36.7182 36.4045 36.4022 36.7185 36.2102 37.1045L34.0823 41.3603L27.9946 28.0088L41.356 34.0846L37.1062 36.2085L37.1042 36.2105ZM25.8227 43.9182C25.4788 43.9482 25.1328 43.9702 24.7828 43.9842C23.4469 42.6622 19.963 38.9484 17.5351 34.0006H18.9991C20.103 34.0006 20.999 33.1066 20.999 32.0007C20.999 30.8947 20.103 30.0008 18.9991 30.0008H15.9392C15.3573 28.0968 14.9993 26.0809 14.9993 24.001C14.9993 21.9211 15.3593 19.9072 15.9432 18.0013H32.0564C32.2924 18.7752 32.4924 19.5672 32.6464 20.3752C32.8544 21.4611 33.9044 22.1771 34.9843 21.9651C36.0682 21.7591 36.7802 20.7111 36.5742 19.6272C36.4702 19.0772 36.3462 18.5352 36.2082 18.0013H42.9939C43.0199 18.0013 43.0479 18.0013 43.0739 18.0013C43.6719 19.8972 43.9939 21.9131 43.9939 24.003C43.9939 24.617 43.9659 25.2229 43.9119 25.8229C43.8139 26.9229 44.6238 27.8948 45.7238 27.9948C46.8277 28.1028 47.7977 27.2829 47.8957 26.1829C47.9597 25.4649 47.9937 24.737 47.9937 24.003C47.9977 10.7656 37.2322 0 23.9988 0C10.7655 0 0 10.7656 0 23.999C0 37.2324 10.7655 47.998 23.9968 47.998C24.7308 47.998 25.4568 47.964 26.1727 47.9C27.2727 47.802 28.0866 46.832 27.9886 45.7301C27.8906 44.6321 26.9227 43.8202 25.8207 43.9162L25.8227 43.9182ZM11.7834 30.0008H4.99976C4.97376 30.0008 4.94776 30.0008 4.91976 30.0008C4.32179 28.1048 3.99981 26.0889 3.99981 23.999C3.99981 21.9091 4.32179 19.8932 4.91976 17.9972C4.94576 17.9972 4.97176 17.9972 4.99976 17.9972H11.7834C11.2935 19.9072 10.9995 21.9151 10.9995 23.997C10.9995 26.0789 11.2915 28.0868 11.7834 29.9967V30.0008ZM17.5451 14.0014C19.587 9.84759 22.3749 6.55373 24.0028 4.8258C25.6328 6.55173 28.4206 9.83959 30.4625 14.0014H17.5451ZM41.314 14.0014H34.8583C33.2764 10.2296 31.0825 7.02571 29.1946 4.6878C34.3523 6.07775 38.6921 9.4816 41.314 14.0014ZM18.7991 4.6878C16.9112 7.02571 14.7153 10.2296 13.1354 13.9994H6.68368C9.30355 9.4796 13.6413 6.07575 18.7991 4.6878ZM6.68368 33.9986H13.1354C14.7153 37.7704 16.9112 40.9723 18.7991 43.3102C13.6433 41.9203 9.30555 38.5164 6.68368 33.9986Z" fill="white"/>
</svg>
