<svg width="419" height="426" viewBox="0 0 419 426" fill="none" xmlns="http://www.w3.org/2000/svg">
<path d="M407.035 256.038H12.1286C5.53424 256.038 0.1875 250.693 0.1875 244.097C0.1875 237.502 5.53424 232.156 12.1286 232.156H407.035C413.631 232.156 418.976 237.503 418.976 244.097C418.976 250.692 413.629 256.038 407.035 256.038Z" fill="#87AC43"/>
<path d="M399.332 108.223H227.822V239.714H399.332V108.223Z" fill="#FFE6AD"/>
<path d="M171.796 159.531H14.3887V242H171.796V159.531Z" fill="#FFE6AD"/>
<path d="M163.055 191.977H25.6562V242.001H163.055V191.977Z" fill="#79CAE5"/>
<path d="M25.6562 224.589L43.0674 242H46.0195L25.6562 221.637V224.589Z" fill="#81D8F5"/>
<path d="M25.6562 197.862L69.7948 242.001H72.7469L25.6562 194.91V197.862Z" fill="#81D8F5"/>
<path d="M25.6562 209.665L57.9926 242.002H64.0056L25.6562 203.652V209.665Z" fill="#81D8F5"/>
<path d="M56.2158 191.977L106.24 242.001H112.253L62.2288 191.977H56.2158Z" fill="#81D8F5"/>
<path d="M93.2695 191.977L143.294 242.001H146.246L96.2216 191.977H93.2695Z" fill="#81D8F5"/>
<path d="M122.949 191.977H119.997L163.055 235.034V232.082L122.949 191.977Z" fill="#81D8F5"/>
<path d="M108.194 191.977L158.218 242.001H163.054V240.824L114.207 191.977H108.194Z" fill="#81D8F5"/>
<path d="M41.0986 191.977L91.1217 242.001H101.994L51.9703 191.977H41.0986Z" fill="#81D8F5"/>
<path d="M163.055 183.398H25.6562V193.118H163.055V183.398Z" fill="#242833"/>
<path d="M163.055 215.844H25.6562V220.703H163.055V215.844Z" fill="#242833"/>
<path d="M163.055 241.762H25.6562V246.621H163.055V241.762Z" fill="#242833"/>
<path d="M59.7559 242.049L59.7559 193.121H56.554L56.554 242.049H59.7559Z" fill="#242833"/>
<path d="M29.3242 242.049L29.3242 193.121H25.6561L25.6561 242.049H29.3242Z" fill="#242833"/>
<path d="M108.911 242.049L108.911 193.121H105.709L105.709 242.049H108.911Z" fill="#242833"/>
<path d="M163.054 242.045V193.117H159.852V242.045H163.054Z" fill="#242833"/>
<path d="M265.841 127.09H250.977V225.422H265.841V127.09Z" fill="#79CAE5"/>
<path d="M250.977 127.09V130.806H262.983V225.422H265.841V127.09H250.977Z" fill="#45241F"/>
<path d="M386.187 185.688H283.853V239.713H386.187V185.688Z" fill="#79CAE5"/>
<path d="M283.853 185.688V187.395L336.171 239.713H339.123L285.097 185.688H283.853Z" fill="#81D8F5"/>
<path d="M308.872 185.688L362.898 239.713H365.85L311.824 185.688H308.872Z" fill="#81D8F5"/>
<path d="M297.07 185.688L351.096 239.713H357.109L303.083 185.688H297.07Z" fill="#81D8F5"/>
<path d="M386.187 220.545L351.33 185.688H345.317L386.187 226.557V220.545Z" fill="#81D8F5"/>
<path d="M283.853 212.915L310.652 239.714H316.665L283.853 206.902V212.915Z" fill="#81D8F5"/>
<path d="M330.199 185.688L384.225 239.713H384.395L386.187 237.921V230.803L341.072 185.688H330.199Z" fill="#81D8F5"/>
<path d="M386.187 185.688H283.853V191.976H386.187V185.688Z" fill="#242833"/>
<path d="M386.187 236.094H283.853V240.12H386.187V236.094Z" fill="#242833"/>
<path d="M386.187 198.98H283.853V201.41H386.187V198.98Z" fill="#242833"/>
<path d="M316.869 191.977H315.154V239.714H316.869V191.977Z" fill="#242833"/>
<path d="M285.567 191.977H283.853V239.714H285.567V191.977Z" fill="#242833"/>
<path d="M349.455 191.977H347.74V239.714H349.455V191.977Z" fill="#242833"/>
<path d="M386.188 191.977H384.473V239.714H386.188V191.977Z" fill="#242833"/>
<path d="M227.823 117.941H171.796V230.281H227.823V117.941Z" fill="#F7C276"/>
<path d="M219.819 142.238H181.516V230.28H219.819V142.238Z" fill="#E8DBC2"/>
<path d="M218.56 144.293H182.774V230.494H218.56V144.293Z" fill="#F3E5CB"/>
<path d="M215.32 180.195H186.444C185.933 180.195 185.518 179.781 185.518 179.269V149.606C185.518 149.095 185.932 148.68 186.444 148.68H215.32C215.832 148.68 216.247 149.094 216.247 149.606V179.269C216.247 179.781 215.832 180.195 215.32 180.195Z" fill="#D6A866"/>
<path d="M216.246 149.48H185.517V150.352H216.246V149.48Z" fill="#9C5245"/>
<path d="M216.246 151.098H185.517V151.969H216.246V151.098Z" fill="#9C5245"/>
<path d="M216.246 152.711H185.517V153.582H216.246V152.711Z" fill="#9C5245"/>
<path d="M216.246 154.328H185.517V155.2H216.246V154.328Z" fill="#9C5245"/>
<path d="M216.246 155.941H185.517V156.813H216.246V155.941Z" fill="#9C5245"/>
<path d="M216.246 157.559H185.517V158.43H216.246V157.559Z" fill="#9C5245"/>
<path d="M216.246 159.172H185.517V160.043H216.246V159.172Z" fill="#9C5245"/>
<path d="M216.246 160.789H185.517V161.661H216.246V160.789Z" fill="#9C5245"/>
<path d="M216.246 162.402H185.517V163.274H216.246V162.402Z" fill="#9C5245"/>
<path d="M216.246 164.02H185.517V164.891H216.246V164.02Z" fill="#9C5245"/>
<path d="M216.246 165.633H185.517V166.503H216.246V165.633Z" fill="#9C5245"/>
<path d="M216.246 167.25H185.517V168.121H216.246V167.25Z" fill="#9C5245"/>
<path d="M216.246 168.867H185.517V169.739H216.246V168.867Z" fill="#9C5245"/>
<path d="M216.246 170.48H185.517V171.352H216.246V170.48Z" fill="#9C5245"/>
<path d="M216.246 172.098H185.517V172.969H216.246V172.098Z" fill="#9C5245"/>
<path d="M216.246 173.711H185.517V174.582H216.246V173.711Z" fill="#9C5245"/>
<path d="M216.246 175.328H185.517V176.199H216.246V175.328Z" fill="#9C5245"/>
<path d="M216.246 176.941H185.517V177.813H216.246V176.941Z" fill="#9C5245"/>
<path d="M216.246 178.559H185.517V179.43H216.246V178.559Z" fill="#9C5245"/>
<path d="M215.532 185.258H185.518V230.279H215.532V185.258Z" fill="#9C5245"/>
<path d="M212.584 187.395H185.518V230.28H212.584V187.395Z" fill="#87473C"/>
<path d="M188.591 212.416C187.999 212.416 187.519 211.936 187.519 211.344V207.342C187.519 206.75 187.998 206.27 188.591 206.27C189.183 206.27 189.663 206.749 189.663 207.342V211.344C189.662 211.935 189.183 212.416 188.591 212.416Z" fill="#FFE0CC"/>
<path d="M197.617 185.258H194.188V230.279H197.617V185.258Z" fill="#BA6252"/>
<path d="M215.532 215.797H185.518V219.322H215.532V215.797Z" fill="#BA6252"/>
<path d="M134.35 74.7773H33.4443V173.682H134.35V74.7773Z" fill="#3551B6"/>
<path d="M115.437 97.0742H53.4551V159.056H115.437V97.0742Z" fill="#79CAE5"/>
<path d="M82.1441 159.056H85.0962L53.4551 127.414V130.366L82.1441 159.056Z" fill="#81D8F5"/>
<path d="M111.824 159.057L53.4551 100.688V103.64L108.872 159.057H111.824Z" fill="#81D8F5"/>
<path d="M103.082 159.054L53.4551 109.426V115.439L97.0694 159.054H103.082Z" fill="#81D8F5"/>
<path d="M115.437 123.162L89.348 97.0742H83.335L115.437 129.175V123.162Z" fill="#81D8F5"/>
<path d="M115.437 133.422L79.0895 97.0742H68.2168L115.437 144.293V133.422Z" fill="#81D8F5"/>
<path d="M75.9409 97.0742H73.8447V159.533H75.9409V97.0742Z" fill="#253C8E"/>
<path d="M115.437 136.426H53.4551V139.285H115.437V136.426Z" fill="#253C8E"/>
<path d="M56.0791 159.296L56.0791 96.0195H53.2203L53.2203 159.296H56.0791Z" fill="#253C8E"/>
<path d="M183.204 139.086C182.685 139.086 182.266 138.665 182.266 138.147V123.107C182.266 122.588 182.686 122.168 183.204 122.168H218.561C219.079 122.168 219.5 122.589 219.5 123.107V138.147C219.5 138.665 219.079 139.086 218.561 139.086H183.204Z" fill="#79CAE5"/>
<path d="M218.561 123.108V138.148H183.204V123.108H218.561ZM218.561 121.23H183.204C182.167 121.23 181.326 122.071 181.326 123.108V138.148C181.326 139.186 182.168 140.026 183.204 140.026H218.561C219.598 140.026 220.438 139.185 220.438 138.148V123.108C220.438 122.071 219.598 121.23 218.561 121.23Z" fill="#45241F"/>
<path d="M183.203 127.186L194.163 138.147H197.115L183.203 124.234V127.186Z" fill="#81D8F5"/>
<path d="M208.803 123.109H205.851L218.559 135.818V132.867L208.803 123.109Z" fill="#81D8F5"/>
<path d="M194.05 123.109L209.089 138.15H215.102L200.062 123.109H194.05Z" fill="#81D8F5"/>
<path d="M53.2191 98.875L116.495 98.875V96.0161L53.2191 96.0161V98.875Z" fill="#253C8E"/>
<path d="M113.637 96.017V159.293H116.496V96.017H113.637Z" fill="#253C8E"/>
<path d="M119.633 161.825H51.607C50.9553 161.825 50.4258 161.297 50.4258 160.644V153.431C50.4258 152.779 50.9542 152.25 51.607 152.25H119.633C120.286 152.25 120.814 152.778 120.814 153.431V160.644C120.813 161.296 120.285 161.825 119.633 161.825Z" fill="#253C8E"/>
<path d="M134.35 173.682L139.709 179.041V159.531H151.787V117.941L134.35 74.7773V173.682Z" fill="#253C8E"/>
<path d="M171.797 132.234H151.787V159.533H171.797V132.234Z" fill="#E0AD63"/>
<path d="M33.4443 173.68H134.35L139.709 179.039H39.447L33.4443 173.68Z" fill="#3551B6"/>
<path d="M227.823 230.281H171.796V233.503H227.823V230.281Z" fill="#F3E9D6"/>
<path d="M227.823 233.5H171.796V236.722H227.823V233.5Z" fill="#F3E5CA"/>
<path d="M227.823 236.723H171.796V239.944H227.823V236.723Z" fill="#F3E1BE"/>
<path d="M228.643 242.362H172.405C171.537 242.362 170.833 241.659 170.833 240.79V240.713C170.833 239.844 171.537 239.141 172.405 239.141H228.643C229.511 239.141 230.215 239.844 230.215 240.713V240.79C230.215 241.659 229.511 242.362 228.643 242.362Z" fill="#F3D9A8"/>
<path d="M235.475 244.776H173.368C172.499 244.776 171.796 244.073 171.796 243.204V243.127C171.796 242.258 172.499 241.555 173.368 241.555H235.475C236.343 241.555 237.047 242.258 237.047 243.127V243.204C237.047 244.073 236.343 244.776 235.475 244.776Z" fill="#F3D08D"/>
<path d="M232.541 247.413H170.434C169.566 247.413 168.862 246.709 168.862 245.841V245.763C168.862 244.895 169.566 244.191 170.434 244.191H232.541C233.41 244.191 234.113 244.895 234.113 245.763V245.841C234.113 246.709 233.41 247.413 232.541 247.413Z" fill="#F3CB7E"/>
<path d="M227.435 250.635H178.739C177.969 250.635 177.344 250.01 177.344 249.239V248.81C177.344 248.039 177.969 247.414 178.739 247.414H227.435C228.206 247.414 228.832 248.039 228.832 248.81V249.239C228.831 250.009 228.206 250.635 227.435 250.635Z" fill="#F3CB7E"/>
<path d="M386.186 239.714V237.922L384.395 239.714H386.186Z" fill="#79CAE5"/>
<path d="M384.312 239.796L384.396 239.711H384.227L384.312 239.796Z" fill="#4B9C96"/>
<path d="M173.942 159.531H171.796V230.279H173.942V159.531Z" fill="#E6B46D"/>
<path d="M227.823 117.941H225.677V230.281H227.823V117.941Z" fill="#E6B46D"/>
<path d="M257.61 132.234H252.956V222.994H257.61V132.234Z" fill="#81D8F5"/>
<path d="M199.811 128.301V46.3281" stroke="#7BCCC5" stroke-width="1.87799" stroke-miterlimit="10"/>
<path d="M202.138 128.3C202.138 127.015 201.097 125.973 199.811 125.973C198.526 125.973 197.483 127.014 197.483 128.3C197.483 129.585 198.525 130.627 199.811 130.627C201.097 130.627 202.138 129.585 202.138 128.3Z" fill="#CC3131" stroke="#7BCCC5" stroke-width="0.938995" stroke-miterlimit="10"/>
<path d="M217.346 34.6684C221.41 24.9852 216.855 13.841 207.172 9.77705C197.489 5.71309 186.344 10.2683 182.28 19.9515C178.216 29.6346 182.772 40.7789 192.455 44.8428C202.138 48.9068 213.282 44.3515 217.346 34.6684Z" fill="#3551B6"/>
<path d="M203.152 31.9288C202.33 31.013 201.138 30.4375 199.811 30.4375C198.464 30.4375 197.256 31.0308 196.434 31.971" stroke="#32F0CD" stroke-width="2.34367" stroke-miterlimit="10" stroke-linecap="round"/>
<path d="M206.853 27.878C205.051 26.0755 202.56 24.9609 199.81 24.9609C197.06 24.9609 194.569 26.0755 192.767 27.878" stroke="#32F0CD" stroke-width="3.51555" stroke-miterlimit="10" stroke-linecap="round"/>
<path d="M211.411 23.3205C208.443 20.3519 204.341 18.5156 199.811 18.5156C195.28 18.5156 191.179 20.3519 188.21 23.3205" stroke="#32F0CD" stroke-width="3.39772" stroke-miterlimit="10" stroke-linecap="round"/>
<path d="M202.282 37.4124C202.282 36.0373 201.167 34.9219 199.791 34.9219C198.416 34.9219 197.301 36.0364 197.301 37.4124C197.301 38.7875 198.415 39.903 199.791 39.903C201.167 39.903 202.282 38.7885 202.282 37.4124Z" fill="#32F0CD"/>
<path d="M96.4229 113.223V31.25" stroke="#7BCCC5" stroke-width="1.87799" stroke-miterlimit="10"/>
<path d="M98.7503 113.222C98.7503 111.937 97.7079 110.895 96.423 110.895C95.1381 110.895 94.0957 111.936 94.0957 113.222C94.0957 114.507 95.1371 115.549 96.423 115.549C97.7089 115.549 98.7503 114.507 98.7503 113.222Z" fill="#CC3131" stroke="#7BCCC5" stroke-width="0.938995" stroke-miterlimit="10"/>
<path d="M96.4233 43.3719C106.924 43.3719 115.437 34.859 115.437 24.3578C115.437 13.8566 106.924 5.34375 96.4233 5.34375C85.9221 5.34375 77.4092 13.8566 77.4092 24.3578C77.4092 34.859 85.9221 43.3719 96.4233 43.3719Z" fill="#3551B6"/>
<path d="M99.2683 29.3015V14.5248C99.2683 12.954 97.9948 11.6797 96.4232 11.6797C94.8516 11.6797 93.5781 12.9532 93.5781 14.5248V29.3015C92.3529 30.186 91.5527 31.6225 91.5527 33.2489C91.5527 35.9384 93.7328 38.1193 96.4232 38.1193C99.1127 38.1193 101.294 35.9392 101.294 33.2489C101.294 31.6225 100.493 30.186 99.2683 29.3015Z" stroke="#32F0CD" stroke-width="0.818971" stroke-miterlimit="10"/>
<path d="M97.6903 30.3716V19.4883H95.0926V30.406C94.0181 30.9088 93.2695 31.9915 93.2695 33.256C93.2695 34.998 94.6814 36.4099 96.4234 36.4099C98.1654 36.4099 99.5773 34.998 99.5773 33.256C99.5781 31.9653 98.8009 30.8597 97.6903 30.3716Z" fill="#32F0CD"/>
<path d="M163.301 170.407V88.4336" stroke="#7BCCC5" stroke-width="1.87799" stroke-miterlimit="10"/>
<path d="M165.628 170.405C165.628 169.121 164.587 168.078 163.301 168.078C162.015 168.078 160.974 169.119 160.974 170.405C160.974 171.69 162.016 172.733 163.301 172.733C164.586 172.733 165.628 171.69 165.628 170.405Z" fill="#CC3131" stroke="#7BCCC5" stroke-width="0.938995" stroke-miterlimit="10"/>
<path d="M161.792 94.1376C172.294 94.1376 180.806 85.6247 180.806 75.1235C180.806 64.6223 172.294 56.1094 161.792 56.1094C151.291 56.1094 142.778 64.6223 142.778 75.1235C142.778 85.6247 151.291 94.1376 161.792 94.1376Z" fill="#3551B6"/>
<path d="M160.934 64.7422H167.115C167.498 64.7422 167.747 65.1462 167.574 65.4887L162.83 74.854C162.657 75.1956 162.905 75.6004 163.288 75.6004H166.754C167.206 75.6004 167.438 76.1414 167.127 76.4681L156.974 87.1533C156.591 87.5564 155.93 87.149 156.118 86.6255L159.833 76.2881C159.954 75.9535 159.706 75.6004 159.349 75.6004H156.469C156.095 75.6004 155.846 75.214 156.001 74.8741L160.465 65.0443C160.549 64.8599 160.732 64.7422 160.934 64.7422Z" fill="#32F0CD"/>
<path d="M348.872 205.739V87.3164" stroke="#7BCCC5" stroke-width="1.87799" stroke-miterlimit="10"/>
<path d="M351.199 205.737C351.199 204.453 350.157 203.41 348.871 203.41C347.586 203.41 346.544 204.452 346.544 205.737C346.544 207.022 347.585 208.065 348.871 208.065C350.157 208.064 351.199 207.022 351.199 205.737Z" fill="#CC3131" stroke="#7BCCC5" stroke-width="0.938995" stroke-miterlimit="10"/>
<path d="M348.872 91.2469C359.374 91.2469 367.887 82.734 367.887 72.2328C367.887 61.7317 359.374 53.2188 348.872 53.2188C338.371 53.2188 329.858 61.7317 329.858 72.2328C329.858 82.734 338.371 91.2469 348.872 91.2469Z" fill="#3551B6"/>
<path d="M356.336 68.4943C356.336 64.0918 352.523 60.5789 348.019 61.0787C344.71 61.4453 341.978 64.0668 341.493 67.3606C341.065 70.262 342.311 72.8969 344.405 74.4633C345.167 75.0328 345.627 75.9153 345.627 76.8666V78.4563C345.627 79.455 346.244 80.0675 347.006 80.0675H350.738C351.5 80.0675 352.117 79.4506 352.117 78.6888V76.9364C352.117 75.9564 352.578 75.0355 353.361 74.4463C355.166 73.0864 356.336 70.929 356.336 68.4943Z" stroke="#32F0CD" stroke-width="0.964638" stroke-miterlimit="10"/>
<path d="M348.873 79.7666V67.9297" stroke="#32F0CD" stroke-width="0.964638" stroke-miterlimit="10"/>
<path d="M352.268 69.6743C352.268 70.3377 350.748 70.876 348.873 70.876C346.999 70.876 345.479 70.3377 345.479 69.6743C345.479 69.0109 346.999 68.4727 348.873 68.4727C350.748 68.4727 352.268 69.01 352.268 69.6743Z" stroke="#32F0CD" stroke-width="0.964638" stroke-miterlimit="10"/>
<path d="M351.696 80.5417H346.048C345.501 80.5417 345.057 80.0982 345.057 79.5502C345.057 79.003 345.501 78.5586 346.048 78.5586H351.696C352.243 78.5586 352.688 79.003 352.688 79.5502C352.688 80.0982 352.244 80.5417 351.696 80.5417Z" fill="#32F0CD" stroke="#32F0CD" stroke-width="0.964638" stroke-miterlimit="10"/>
<path d="M351.28 82.4948H346.464C345.952 82.4948 345.537 82.08 345.537 81.5676V81.4389C345.537 80.9275 345.952 80.5117 346.464 80.5117H351.28C351.792 80.5117 352.207 80.9266 352.207 81.4389V81.5676C352.206 82.08 351.791 82.4948 351.28 82.4948Z" fill="#32F0CD"/>
<path d="M342.096 269.677H335.547C333.469 269.677 331.784 267.992 331.784 265.915V251.423C331.784 249.345 333.469 247.66 335.547 247.66H342.096C344.174 247.66 345.859 249.345 345.859 251.423V265.915C345.859 267.992 344.174 269.677 342.096 269.677Z" fill="#1F1D28"/>
<path opacity="0.35" d="M305.556 277.32C335.698 277.32 360.134 272.556 360.134 266.68C360.134 260.803 335.698 256.039 305.556 256.039C275.413 256.039 250.978 260.803 250.978 266.68C250.978 272.556 275.413 277.32 305.556 277.32Z" fill="#134755"/>
<path d="M272.698 269.677H266.148C264.071 269.677 262.386 267.992 262.386 265.915V251.423C262.386 249.345 264.071 247.66 266.148 247.66H272.698C274.775 247.66 276.46 249.345 276.46 251.423V265.915C276.46 267.992 274.776 269.677 272.698 269.677Z" fill="#1F1D28"/>
<path d="M336.816 238.106H271.172L277.21 223.375C278.011 221.421 279.622 220.191 281.382 220.191H326.605C328.365 220.191 329.978 221.421 330.778 223.375L336.816 238.106Z" fill="#FFA84A"/>
<path d="M333.896 236.095H274.092L279.592 225.323C280.321 223.894 281.79 222.996 283.394 222.996H324.593C326.197 222.996 327.665 223.896 328.394 225.323L333.896 236.095Z" fill="#CFDBFF"/>
<path d="M338.856 264.662H269.251C266.768 264.662 264.756 262.649 264.756 260.167V251.042C264.756 241.909 271.408 234.214 280.411 232.678C296.172 229.988 311.934 229.988 327.695 232.678C336.698 234.214 343.35 241.909 343.35 251.042V260.167C343.35 262.649 341.338 264.662 338.856 264.662Z" fill="#D05E00"/>
<path d="M329.555 262.85H277.438V259.83C277.438 255.957 280.578 252.816 284.451 252.816H322.541C326.414 252.816 329.555 255.957 329.555 259.83V262.85Z" fill="#24211A"/>
<path d="M280.78 246.195C280.78 248.312 278.004 250.027 274.579 250.027C271.153 250.027 268.377 248.311 268.377 246.195C268.377 244.078 271.153 242.363 274.579 242.363C278.004 242.363 280.78 244.079 280.78 246.195Z" fill="#F3FFFF"/>
<path d="M339.61 246.195C339.61 248.312 336.834 250.027 333.409 250.027C329.984 250.027 327.207 248.311 327.207 246.195C327.207 244.078 329.983 242.363 333.409 242.363C336.834 242.363 339.61 244.079 339.61 246.195Z" fill="#F3FFFF"/>
<path d="M275.021 254.162H268.611C267.815 254.162 267.171 253.517 267.171 252.722C267.171 251.927 267.815 251.281 268.611 251.281H275.021C275.817 251.281 276.461 251.926 276.461 252.722C276.46 253.516 275.816 254.162 275.021 254.162Z" fill="#BECFBC"/>
<path d="M338.751 254.162H332.341C331.546 254.162 330.9 253.517 330.9 252.722C330.9 251.927 331.545 251.281 332.341 251.281H338.751C339.545 251.281 340.191 251.926 340.191 252.722C340.191 253.516 339.546 254.162 338.751 254.162Z" fill="#BECFBC"/>
<path d="M285.008 239.764C288.102 238.441 291.368 237.52 294.692 236.915C298.017 236.296 301.408 236.037 304.793 236.043C308.178 236.082 311.559 236.389 314.877 237.016C318.195 237.631 321.457 238.523 324.584 239.764C321.256 239.279 317.966 238.8 314.669 238.467C311.373 238.146 308.077 237.927 304.779 237.921C301.482 237.878 298.187 238.05 294.895 238.361C291.602 238.682 288.321 239.187 285.008 239.764Z" fill="#FFA84A"/>
<path d="M313.958 242.548L294.758 242.181C293.116 242.15 291.502 242.617 290.132 243.522L284.454 247.267C283.384 247.973 283.866 249.639 285.149 249.663L323.274 250.393C324.557 250.418 325.102 248.771 324.06 248.025L318.53 244.066C317.194 243.109 315.6 242.579 313.958 242.548Z" fill="#FFA84A"/>
<path d="M254.248 116.747L254.248 40.3555" stroke="#7BCCC5" stroke-width="1.87799" stroke-miterlimit="10"/>
<path d="M256.575 116.745C256.575 115.46 255.534 114.418 254.248 114.418C252.962 114.418 251.921 115.459 251.921 116.745C251.921 118.03 252.962 119.073 254.248 119.073C255.534 119.073 256.575 118.03 256.575 116.745Z" fill="#CC3131" stroke="#7BCCC5" stroke-width="0.938995" stroke-miterlimit="10"/>
<path d="M254.247 73.3954C264.749 73.3954 273.262 64.8825 273.262 54.3813C273.262 43.8801 264.749 35.3672 254.247 35.3672C243.746 35.3672 235.233 43.8801 235.233 54.3813C235.233 64.8825 243.746 73.3954 254.247 73.3954Z" fill="#3551B6"/>
<path d="M262.468 51.3398H246.026V63.9697H262.468V51.3398Z" fill="#32F0CD"/>
<path d="M258.689 53.0369H249.732V49.271C249.732 46.7975 251.737 44.793 254.21 44.793C256.684 44.793 258.689 46.7975 258.689 49.271V53.0369Z" stroke="#32F0CD" stroke-width="1.75609" stroke-miterlimit="10"/>
<path d="M254.283 58.3566C255.616 58.3566 256.697 57.2755 256.697 55.942C256.697 54.6084 255.616 53.5273 254.283 53.5273C252.949 53.5273 251.868 54.6084 251.868 55.942C251.868 57.2755 252.949 58.3566 254.283 58.3566Z" fill="#3551B6"/>
<path d="M254.93 61.7872H253.705C253.367 61.7872 253.092 61.5133 253.092 61.1744V57.0273H255.542V61.1744C255.542 61.5124 255.268 61.7872 254.93 61.7872Z" fill="#3551B6"/>
<path d="M301.042 139.022V25.9688" stroke="#7BCCC5" stroke-width="1.87799" stroke-miterlimit="10"/>
<path d="M303.369 139.023C303.369 137.738 302.328 136.695 301.042 136.695C299.756 136.695 298.715 137.737 298.715 139.023C298.715 140.307 299.756 141.35 301.042 141.35C302.328 141.35 303.369 140.307 303.369 139.023Z" fill="#CC3131" stroke="#7BCCC5" stroke-width="0.938995" stroke-miterlimit="10"/>
<path d="M299.685 38.9032C310.186 38.9032 318.699 30.3903 318.699 19.8891C318.699 9.3879 310.186 0.875 299.685 0.875C289.184 0.875 280.671 9.3879 280.671 19.8891C280.671 30.3903 289.184 38.9032 299.685 38.9032Z" fill="#3551B6"/>
<path d="M308.094 23.7098C306.04 26.6847 303.239 29.0377 299.684 30.7673C296.059 29.1515 293.275 26.7815 291.274 23.7098V9.94866C296.881 8.6942 302.488 8.6942 308.095 9.94866V23.7098H308.094Z" fill="#32F0CD"/>
<path d="M305.98 22.7503C304.443 24.977 302.345 26.7395 299.683 28.0344C296.97 26.8246 294.886 25.0503 293.387 22.7503V12.4467C297.584 11.5073 301.782 11.5073 305.979 12.4467L305.98 22.7503Z" stroke="#3551B6" stroke-width="0.842487" stroke-miterlimit="10" stroke-linecap="round" stroke-linejoin="round"/>
<mask id="mask0_2535_30876" style="mask-type:luminance" maskUnits="userSpaceOnUse" x="63" y="241" width="287" height="185">
<path d="M349.458 241.555H63.5625V425.126H349.458V241.555Z" fill="white"/>
</mask>
<g mask="url(#mask0_2535_30876)">
<path d="M139.289 344.977V320.844C139.289 316.756 136.3 313.105 132.231 312.716C127.562 312.271 123.634 315.931 123.634 320.508V346.522C123.634 354.15 121.844 361.607 118.977 368.674C117.853 371.444 117.212 374.639 117.212 378.045C117.212 379.04 117.284 380.01 117.389 380.964L117.212 380.92C117.212 380.92 118.55 393.632 115.071 398.448L147.185 417.448L166.775 384.63C173.926 372.652 169.732 357.099 157.496 350.4C151.052 346.874 144.337 344.284 139.289 344.977Z" fill="#F3E5CB"/>
<path d="M144.382 429.451L136.065 447.904H76.5508L108.777 401.059L144.382 429.451Z" fill="#4B9C96"/>
<path d="M142.55 430.547L104.805 408.755C103.155 407.801 102.589 405.691 103.542 404.039L107.825 396.621C108.778 394.97 110.889 394.404 112.54 395.358L150.285 417.15C151.935 418.103 152.501 420.214 151.548 421.865L147.265 429.284C146.311 430.934 144.2 431.5 142.55 430.547Z" fill="#12130E"/>
<path d="M117.951 405.09C117.951 402.864 116.146 401.059 113.92 401.059C111.693 401.059 109.888 402.864 109.888 405.09C109.888 407.317 111.693 409.122 113.92 409.122C116.146 409.122 117.951 407.317 117.951 405.09Z" fill="#68D9D0"/>
<path d="M286.001 381.542H147.201C138.891 381.542 132.154 374.806 132.154 366.496V276.214C132.154 267.904 138.891 261.168 147.201 261.168H286.001C294.311 261.168 301.047 267.904 301.047 276.214V366.496C301.047 374.806 294.311 381.542 286.001 381.542Z" fill="#12130E"/>
<path d="M283.538 376.017H149.664C146.947 376.017 144.744 373.814 144.744 371.097V273.459C144.744 270.742 146.947 268.539 149.664 268.539H283.537C286.254 268.539 288.456 270.742 288.456 273.459V371.097C288.458 373.814 286.255 376.017 283.538 376.017Z" fill="#3551B6"/>
<path d="M191.747 289.985C191.641 289.085 191.209 288.387 190.451 287.89C189.694 287.392 188.764 287.144 187.664 287.144C186.859 287.144 186.154 287.274 185.551 287.534C184.953 287.795 184.485 288.153 184.148 288.609C183.817 289.064 183.651 289.582 183.651 290.162C183.651 290.648 183.766 291.065 183.997 291.414C184.234 291.757 184.536 292.044 184.903 292.275C185.27 292.5 185.654 292.687 186.057 292.835C186.459 292.977 186.829 293.092 187.166 293.181L189.013 293.678C189.487 293.802 190.013 293.974 190.593 294.193C191.179 294.412 191.739 294.711 192.271 295.089C192.81 295.462 193.254 295.942 193.603 296.528C193.952 297.114 194.127 297.833 194.127 298.685C194.127 299.667 193.869 300.555 193.354 301.348C192.845 302.141 192.1 302.772 191.117 303.239C190.141 303.707 188.954 303.941 187.557 303.941C186.255 303.941 185.128 303.731 184.175 303.31C183.228 302.89 182.482 302.304 181.937 301.553C181.399 300.801 181.094 299.928 181.023 298.934H183.296C183.355 299.62 183.586 300.188 183.988 300.638C184.397 301.082 184.911 301.413 185.533 301.632C186.16 301.846 186.835 301.952 187.557 301.952C188.398 301.952 189.152 301.816 189.821 301.544C190.49 301.266 191.019 300.881 191.41 300.39C191.801 299.892 191.996 299.312 191.996 298.65C191.996 298.046 191.827 297.555 191.49 297.176C191.153 296.797 190.709 296.489 190.158 296.252C189.608 296.016 189.013 295.809 188.374 295.631L186.137 294.992C184.716 294.583 183.592 294 182.763 293.243C181.934 292.485 181.52 291.494 181.52 290.269C181.52 289.251 181.795 288.363 182.346 287.605C182.902 286.842 183.648 286.25 184.583 285.83C185.524 285.404 186.575 285.191 187.735 285.191C188.907 285.191 189.948 285.401 190.86 285.821C191.771 286.235 192.493 286.804 193.026 287.526C193.564 288.248 193.849 289.067 193.878 289.985H191.747ZM197.463 303.621V289.985H199.487V292.115H199.664C199.948 291.387 200.407 290.822 201.04 290.42C201.674 290.011 202.434 289.807 203.322 289.807C204.222 289.807 204.97 290.011 205.568 290.42C206.172 290.822 206.642 291.387 206.98 292.115H207.122C207.471 291.411 207.995 290.852 208.693 290.438C209.391 290.017 210.229 289.807 211.205 289.807C212.425 289.807 213.422 290.189 214.197 290.952C214.973 291.71 215.36 292.891 215.36 294.495V303.621H213.265V294.495C213.265 293.489 212.99 292.769 212.439 292.337C211.889 291.905 211.241 291.689 210.495 291.689C209.536 291.689 208.794 291.979 208.267 292.559C207.74 293.133 207.477 293.861 207.477 294.743V303.621H205.346V294.282C205.346 293.506 205.095 292.882 204.591 292.408C204.088 291.929 203.44 291.689 202.647 291.689C202.103 291.689 201.594 291.834 201.12 292.124C200.653 292.414 200.274 292.817 199.984 293.332C199.7 293.841 199.558 294.43 199.558 295.098V303.621H197.463ZM223.204 303.941C222.34 303.941 221.556 303.778 220.851 303.452C220.147 303.121 219.588 302.645 219.173 302.023C218.759 301.396 218.552 300.638 218.552 299.75C218.552 298.969 218.706 298.336 219.013 297.85C219.321 297.359 219.733 296.975 220.248 296.696C220.762 296.418 221.331 296.211 221.952 296.075C222.579 295.933 223.21 295.82 223.843 295.738C224.672 295.631 225.343 295.551 225.858 295.498C226.379 295.439 226.758 295.341 226.995 295.205C227.237 295.069 227.359 294.832 227.359 294.495V294.424C227.359 293.548 227.119 292.867 226.64 292.382C226.166 291.896 225.447 291.654 224.482 291.654C223.482 291.654 222.698 291.873 222.13 292.311C221.561 292.749 221.162 293.216 220.931 293.713L218.942 293.003C219.298 292.175 219.771 291.529 220.363 291.068C220.961 290.6 221.612 290.275 222.316 290.091C223.026 289.902 223.725 289.807 224.411 289.807C224.849 289.807 225.352 289.86 225.92 289.967C226.495 290.068 227.048 290.278 227.581 290.597C228.119 290.917 228.566 291.399 228.921 292.044C229.276 292.69 229.454 293.554 229.454 294.637V303.621H227.359V301.775H227.252C227.11 302.07 226.873 302.387 226.542 302.724C226.21 303.062 225.77 303.349 225.219 303.586C224.669 303.822 223.997 303.941 223.204 303.941ZM223.523 302.059C224.352 302.059 225.05 301.896 225.619 301.57C226.193 301.245 226.625 300.825 226.915 300.31C227.211 299.795 227.359 299.253 227.359 298.685V296.767C227.27 296.874 227.075 296.972 226.773 297.06C226.477 297.143 226.134 297.217 225.743 297.282C225.358 297.342 224.982 297.395 224.615 297.442C224.254 297.484 223.961 297.519 223.737 297.549C223.192 297.62 222.683 297.735 222.21 297.895C221.742 298.049 221.363 298.283 221.073 298.596C220.789 298.904 220.647 299.324 220.647 299.857C220.647 300.585 220.916 301.135 221.455 301.508C221.999 301.875 222.689 302.059 223.523 302.059ZM233.278 303.621V289.985H235.302V292.044H235.444C235.693 291.37 236.143 290.822 236.794 290.402C237.445 289.982 238.179 289.772 238.995 289.772C239.149 289.772 239.342 289.775 239.572 289.781C239.803 289.786 239.978 289.795 240.096 289.807V291.938C240.025 291.92 239.862 291.893 239.608 291.858C239.359 291.817 239.096 291.796 238.818 291.796C238.155 291.796 237.563 291.935 237.042 292.213C236.527 292.485 236.119 292.864 235.817 293.349C235.521 293.829 235.373 294.376 235.373 294.992V303.621H233.278ZM249.365 289.985V291.76H242.298V289.985H249.365ZM244.358 286.718H246.453V299.715C246.453 300.307 246.539 300.751 246.71 301.047C246.888 301.337 247.113 301.532 247.385 301.632C247.663 301.727 247.956 301.775 248.264 301.775C248.495 301.775 248.684 301.763 248.832 301.739C248.98 301.709 249.098 301.686 249.187 301.668L249.613 303.55C249.471 303.603 249.273 303.657 249.018 303.71C248.764 303.769 248.441 303.799 248.051 303.799C247.459 303.799 246.879 303.671 246.311 303.417C245.748 303.162 245.281 302.775 244.908 302.254C244.541 301.733 244.358 301.076 244.358 300.283V286.718Z" fill="white"/>
<path d="M185.436 331.265C185.436 333.275 185.062 334.956 184.313 336.307C183.564 337.649 182.478 338.663 181.054 339.346C179.63 340.022 177.912 340.359 175.902 340.359H170.946V322.513H176.439C178.287 322.513 179.882 322.846 181.225 323.514C182.567 324.173 183.605 325.153 184.337 326.456C185.07 327.75 185.436 329.353 185.436 331.265ZM182.384 331.351C182.384 329.886 182.152 328.681 181.688 327.737C181.233 326.793 180.557 326.093 179.662 325.638C178.775 325.174 177.681 324.942 176.378 324.942H173.876V337.906H175.951C178.108 337.906 179.719 337.356 180.785 336.258C181.851 335.159 182.384 333.523 182.384 331.351ZM194.372 326.59C195.576 326.59 196.61 326.838 197.472 327.334C198.335 327.831 198.998 328.535 199.462 329.446C199.926 330.358 200.158 331.448 200.158 332.718V334.256H191.137C191.169 335.566 191.519 336.575 192.187 337.283C192.862 337.991 193.806 338.345 195.019 338.345C195.881 338.345 196.654 338.264 197.338 338.101C198.03 337.93 198.742 337.682 199.474 337.356V339.688C198.799 340.005 198.111 340.237 197.411 340.384C196.711 340.53 195.873 340.604 194.896 340.604C193.57 340.604 192.402 340.347 191.393 339.834C190.392 339.314 189.607 338.541 189.037 337.515C188.476 336.49 188.195 335.216 188.195 333.694C188.195 332.181 188.451 330.895 188.964 329.837C189.477 328.779 190.197 327.973 191.125 327.42C192.052 326.867 193.135 326.59 194.372 326.59ZM194.372 328.75C193.468 328.75 192.736 329.043 192.174 329.629C191.621 330.215 191.295 331.074 191.198 332.205H197.35C197.342 331.53 197.228 330.931 197.008 330.411C196.797 329.89 196.471 329.483 196.032 329.19C195.6 328.897 195.047 328.75 194.372 328.75ZM206.481 340.359L201.342 326.846H204.381L207.165 334.781C207.344 335.285 207.506 335.831 207.653 336.417C207.799 337.002 207.901 337.495 207.958 337.894H208.056C208.113 337.479 208.222 336.982 208.385 336.404C208.548 335.818 208.715 335.277 208.886 334.781L211.669 326.846H214.696L209.557 340.359H206.481ZM219.616 326.846V340.359H216.747V326.846H219.616ZM218.2 321.67C218.639 321.67 219.018 321.788 219.335 322.024C219.66 322.26 219.823 322.667 219.823 323.245C219.823 323.815 219.66 324.222 219.335 324.466C219.018 324.702 218.639 324.82 218.2 324.82C217.744 324.82 217.357 324.702 217.04 324.466C216.731 324.222 216.576 323.815 216.576 323.245C216.576 322.667 216.731 322.26 217.04 322.024C217.357 321.788 217.744 321.67 218.2 321.67ZM229.174 340.604C227.896 340.604 226.789 340.355 225.854 339.859C224.918 339.362 224.197 338.602 223.693 337.576C223.188 336.551 222.936 335.249 222.936 333.67C222.936 332.026 223.213 330.683 223.766 329.642C224.319 328.6 225.084 327.831 226.061 327.334C227.046 326.838 228.173 326.59 229.442 326.59C230.248 326.59 230.976 326.671 231.627 326.834C232.287 326.989 232.844 327.18 233.3 327.408L232.445 329.703C231.949 329.499 231.44 329.328 230.919 329.19C230.399 329.052 229.898 328.982 229.418 328.982C228.629 328.982 227.969 329.157 227.44 329.507C226.92 329.857 226.529 330.378 226.269 331.07C226.016 331.762 225.89 332.62 225.89 333.646C225.89 334.638 226.02 335.477 226.281 336.16C226.541 336.836 226.928 337.348 227.44 337.698C227.953 338.04 228.584 338.211 229.333 338.211C230.073 338.211 230.736 338.121 231.322 337.942C231.908 337.763 232.462 337.531 232.982 337.247V339.737C232.47 340.03 231.92 340.245 231.334 340.384C230.749 340.53 230.028 340.604 229.174 340.604ZM241.54 326.59C242.744 326.59 243.778 326.838 244.64 327.334C245.503 327.831 246.166 328.535 246.63 329.446C247.094 330.358 247.326 331.448 247.326 332.718V334.256H238.305C238.337 335.566 238.687 336.575 239.354 337.283C240.03 337.991 240.974 338.345 242.187 338.345C243.049 338.345 243.822 338.264 244.506 338.101C245.198 337.93 245.91 337.682 246.642 337.356V339.688C245.967 340.005 245.279 340.237 244.579 340.384C243.879 340.53 243.041 340.604 242.064 340.604C240.738 340.604 239.57 340.347 238.561 339.834C237.56 339.314 236.775 338.541 236.205 337.515C235.644 336.49 235.363 335.216 235.363 333.694C235.363 332.181 235.619 330.895 236.132 329.837C236.645 328.779 237.365 327.973 238.292 327.42C239.22 326.867 240.303 326.59 241.54 326.59ZM241.54 328.75C240.636 328.75 239.904 329.043 239.342 329.629C238.789 330.215 238.463 331.074 238.366 332.205H244.518C244.51 331.53 244.396 330.931 244.176 330.411C243.965 329.89 243.639 329.483 243.2 329.19C242.768 328.897 242.215 328.75 241.54 328.75ZM259.643 336.502C259.643 337.389 259.427 338.138 258.996 338.748C258.564 339.358 257.934 339.822 257.104 340.14C256.282 340.449 255.272 340.604 254.076 340.604C253.132 340.604 252.318 340.534 251.635 340.396C250.959 340.266 250.32 340.062 249.718 339.786V337.308C250.361 337.609 251.081 337.869 251.879 338.089C252.685 338.309 253.445 338.418 254.162 338.418C255.106 338.418 255.785 338.272 256.2 337.979C256.615 337.678 256.823 337.279 256.823 336.783C256.823 336.49 256.737 336.229 256.566 336.001C256.404 335.765 256.094 335.525 255.639 335.281C255.191 335.029 254.532 334.728 253.661 334.378C252.807 334.036 252.086 333.694 251.5 333.353C250.915 333.011 250.471 332.6 250.17 332.12C249.869 331.631 249.718 331.009 249.718 330.252C249.718 329.056 250.19 328.148 251.134 327.53C252.086 326.903 253.344 326.59 254.906 326.59C255.736 326.59 256.518 326.675 257.25 326.846C257.991 327.009 258.715 327.249 259.423 327.566L258.52 329.727C257.909 329.458 257.295 329.239 256.676 329.068C256.066 328.889 255.443 328.799 254.809 328.799C254.068 328.799 253.502 328.913 253.112 329.141C252.729 329.369 252.538 329.694 252.538 330.118C252.538 330.435 252.632 330.704 252.819 330.923C253.006 331.143 253.327 331.363 253.783 331.583C254.247 331.802 254.89 332.075 255.712 332.4C256.518 332.71 257.213 333.035 257.799 333.377C258.393 333.711 258.849 334.122 259.167 334.61C259.484 335.098 259.643 335.729 259.643 336.502Z" fill="#32F0CD"/>
<path d="M176.137 366.452H162.132C160.619 366.452 159.394 365.226 159.394 363.713V359.047C159.394 357.534 160.619 356.309 162.132 356.309H176.137C177.65 356.309 178.876 357.534 178.876 359.047V363.713C178.876 365.226 177.649 366.452 176.137 366.452Z" fill="#32F0CD"/>
<path d="M199.872 366.452H185.867C184.354 366.452 183.128 365.226 183.128 363.713V359.047C183.128 357.534 184.354 356.309 185.867 356.309H199.872C201.385 356.309 202.61 357.534 202.61 359.047V363.713C202.609 365.226 201.384 366.452 199.872 366.452Z" fill="#32F0CD"/>
<path d="M223.604 366.452H209.599C208.086 366.452 206.86 365.226 206.86 363.713V359.047C206.86 357.534 208.086 356.309 209.599 356.309H223.604C225.117 356.309 226.343 357.534 226.343 359.047V363.713C226.343 365.226 225.117 366.452 223.604 366.452Z" fill="#32F0CD"/>
<path d="M247.338 366.452H233.332C231.82 366.452 230.594 365.226 230.594 363.713V359.047C230.594 357.534 231.82 356.309 233.332 356.309H247.338C248.85 356.309 250.076 357.534 250.076 359.047V363.713C250.076 365.226 248.849 366.452 247.338 366.452Z" fill="#32F0CD"/>
<path d="M271.073 366.452H257.068C255.555 366.452 254.329 365.226 254.329 363.713V359.047C254.329 357.534 255.555 356.309 257.068 356.309H271.073C272.586 356.309 273.812 357.534 273.812 359.047V363.713C273.811 365.226 272.585 366.452 271.073 366.452Z" fill="#32F0CD"/>
<path d="M309.414 399.543L303.327 376.201C302.613 373.464 299.816 371.823 297.079 372.537C294.343 373.251 292.701 376.048 293.415 378.786L292.123 373.83C291.409 371.093 288.611 369.453 285.875 370.166C283.137 370.879 281.497 373.677 282.211 376.414L285.639 389.558L281.544 373.856C280.83 371.119 278.032 369.48 275.295 370.192C272.559 370.906 270.918 373.704 271.631 376.441L277.301 398.184L266.128 355.339C265.23 351.895 261.711 349.831 258.268 350.73C254.824 351.628 252.76 355.147 253.659 358.59L266.668 408.479L255.556 396.244C252.688 393.087 247.804 392.852 244.647 395.72C241.387 398.682 241.259 403.765 244.366 406.886L262.901 425.504C264.672 427.71 266.909 430.793 267.461 432.908C268.406 436.531 307.777 425.127 307.777 425.127C307.777 425.127 313.903 412.828 309.414 399.543Z" fill="#F3E5CB"/>
</g>
</svg>
