<svg width="614" height="416" viewBox="0 0 614 416" fill="none" xmlns="http://www.w3.org/2000/svg">
<path opacity="0.2" fill-rule="evenodd" clip-rule="evenodd" d="M519.801 396.371C676.356 272.427 493.514 137.744 416.239 220.36C494.14 -45.9928 8.39863 -66.3318 118.504 216.447C118.504 216.447 -67.9064 222.706 46.0096 386.984L519.801 396.371ZM76.5826 148.393C85.4696 192.171 51.2256 214.315 26.3916 214.978C10.7526 215.395 2.48563 206.747 1.52163 196.39C-0.31837 176.61 16.0846 169.02 31.5796 164.731C39.5606 162.522 47.4336 159.437 50.5596 150.25C57.4646 129.97 71.6366 124.032 76.5826 148.393ZM536.621 390.409C536.621 390.409 594.441 358.625 589.707 286.263C589.707 286.263 589.539 284.405 590.808 284.32C592.075 284.235 612.195 342.647 569.589 385.927L536.621 390.409Z" fill="#32F0CD"/>
<path d="M246.464 204.184H228.966V376.077H246.464V204.184Z" fill="#253C8E"/>
<path fill-rule="evenodd" clip-rule="evenodd" d="M257.205 382.621H218.226C214.626 382.621 211.68 379.676 211.68 376.074C211.68 372.473 214.627 369.527 218.226 369.527H257.205C260.805 369.527 263.751 372.473 263.751 376.074C263.752 379.675 260.805 382.621 257.205 382.621Z" fill="#253C8E"/>
<path fill-rule="evenodd" clip-rule="evenodd" d="M267.518 392.211H207.913C203.477 392.211 199.845 388.58 199.845 384.143C199.845 379.704 203.477 376.074 207.913 376.074H267.518C271.955 376.074 275.586 379.705 275.586 384.143C275.587 388.58 271.955 392.211 267.518 392.211Z" fill="#253C8E"/>
<path fill-rule="evenodd" clip-rule="evenodd" d="M314.807 127.681V64.1133H159.943C133.907 64.1133 112.604 85.4153 112.604 111.451V138.501V185.164V201.394C112.604 207.345 117.473 212.213 123.424 212.213H351.324C357.275 212.213 362.144 207.344 362.144 201.394V138.501C362.144 132.55 357.275 127.681 351.324 127.681H314.807Z" fill="#3551B6"/>
<path fill-rule="evenodd" clip-rule="evenodd" d="M207.774 64.1133H159.943C133.907 64.1133 112.604 85.4153 112.604 111.451V138.501V146.895H200.876C204.668 146.895 207.773 143.791 207.773 139.997V64.1133H207.774Z" fill="#6354A1"/>
<path fill-rule="evenodd" clip-rule="evenodd" d="M241.639 219.061H245.964C246.132 219.061 246.3 219.067 246.464 219.081V212.215H228.965V369.529H235.051V225.648C235.052 222.025 238.017 219.061 241.639 219.061Z" fill="#242B5C"/>
<path fill-rule="evenodd" clip-rule="evenodd" d="M238.857 188.29H125.426H112.604V201.394C112.604 207.345 117.473 212.213 123.424 212.213H133.121H228.965H246.464H260.497H333.533C339.484 212.213 344.353 207.344 344.353 201.394V127.681H314.806V67.6063C309.306 65.3563 303.299 64.1133 297.014 64.1133C270.979 64.1133 249.676 85.4153 249.676 111.451V177.471C249.677 183.421 244.809 188.29 238.857 188.29Z" fill="#253C8E"/>
<path fill-rule="evenodd" clip-rule="evenodd" d="M362.145 111.451C362.145 85.4153 340.842 64.1133 314.807 64.1133C288.771 64.1133 267.468 85.4153 267.468 111.451C267.468 141.432 267.468 171.413 267.468 201.394C267.468 207.345 272.337 212.213 278.288 212.213H351.324C357.275 212.213 362.144 207.344 362.144 201.394C362.145 171.412 362.145 141.432 362.145 111.451Z" fill="#203377"/>
<path fill-rule="evenodd" clip-rule="evenodd" d="M270.927 93.7439C268.699 99.2209 267.468 105.199 267.468 111.452C267.468 141.433 267.468 171.414 267.468 201.395C267.468 207.346 272.337 212.214 278.288 212.214H340.187C345.683 212.214 350.181 207.717 350.181 202.221C350.181 174.53 350.181 146.838 350.181 119.146C350.181 95.0979 330.505 75.4219 306.456 75.4219C291.863 75.4229 278.88 82.6709 270.927 93.7439Z" fill="#132255"/>
<path fill-rule="evenodd" clip-rule="evenodd" d="M29.0542 21.6914H195.162C198.955 21.6914 202.059 24.7944 202.059 28.5884V134.543C202.059 138.337 198.955 141.44 195.162 141.44H29.0542C25.2592 141.44 22.1562 138.337 22.1562 134.543V28.5894C22.1562 24.7944 25.2592 21.6914 29.0542 21.6914Z" fill="#32F0CD"/>
<path fill-rule="evenodd" clip-rule="evenodd" d="M54.9222 141.443H29.0542C25.2592 141.443 22.1562 138.34 22.1562 134.546V31.418H54.9222V141.443Z" fill="#32F0CD"/>
<path fill-rule="evenodd" clip-rule="evenodd" d="M29.0542 21.6914H195.162C198.955 21.6914 202.059 24.7944 202.059 28.5884V36.3144H22.1562V28.5884C22.1562 24.7944 25.2592 21.6914 29.0542 21.6914Z" fill="#3551B6"/>
<path d="M29.8808 31.2109C31.0997 31.2109 32.0878 30.2228 32.0878 29.0039C32.0878 27.785 31.0997 26.7969 29.8808 26.7969C28.6619 26.7969 27.6738 27.785 27.6738 29.0039C27.6738 30.2228 28.6619 31.2109 29.8808 31.2109Z" fill="white"/>
<path fill-rule="evenodd" clip-rule="evenodd" d="M37.9521 31.2119C39.1671 31.2119 40.1591 30.2199 40.1591 29.0039C40.1591 27.7879 39.1671 26.7969 37.9521 26.7969C36.7351 26.7969 35.7441 27.7889 35.7441 29.0039C35.7441 30.2199 36.7361 31.2119 37.9521 31.2119Z" fill="white"/>
<path d="M46.0234 31.2129C47.2429 31.2129 48.2314 30.2243 48.2314 29.0049C48.2314 27.7854 47.2429 26.7969 46.0234 26.7969C44.804 26.7969 43.8154 27.7854 43.8154 29.0049C43.8154 30.2243 44.804 31.2129 46.0234 31.2129Z" fill="white"/>
<path fill-rule="evenodd" clip-rule="evenodd" d="M28.951 64.6641H48.128C48.697 64.6641 49.163 65.1301 49.163 65.6981C49.163 66.2671 48.698 66.7321 48.128 66.7321H28.951C28.382 66.7321 27.916 66.2671 27.916 65.6981C27.916 65.1301 28.382 64.6641 28.951 64.6641Z" fill="white"/>
<path fill-rule="evenodd" clip-rule="evenodd" d="M28.951 69.2188H39.815C40.383 69.2188 40.849 69.6837 40.849 70.2527C40.849 70.8217 40.383 71.2877 39.815 71.2877H28.951C28.382 71.2877 27.916 70.8227 27.916 70.2537C27.916 69.6857 28.382 69.2188 28.951 69.2188Z" fill="white"/>
<path fill-rule="evenodd" clip-rule="evenodd" d="M28.951 78.3906H48.128C48.697 78.3906 49.163 78.8566 49.163 79.4246V79.4256C49.163 79.9946 48.698 80.4596 48.128 80.4596H28.951C28.382 80.4596 27.916 79.9946 27.916 79.4256V79.4246C27.916 78.8566 28.382 78.3906 28.951 78.3906Z" fill="white"/>
<path fill-rule="evenodd" clip-rule="evenodd" d="M28.951 82.9453H39.815C40.383 82.9453 40.849 83.4113 40.849 83.9793C40.849 84.5483 40.383 85.0153 39.815 85.0153H28.951C28.382 85.0153 27.916 84.5493 27.916 83.9803C27.916 83.4123 28.382 82.9453 28.951 82.9453Z" fill="white"/>
<path fill-rule="evenodd" clip-rule="evenodd" d="M43.5067 82.9453H45.0937C45.6617 82.9453 46.1277 83.4113 46.1277 83.9793C46.1277 84.5483 45.6617 85.0153 45.0937 85.0153H43.5067C42.9377 85.0153 42.4717 84.5493 42.4717 83.9803C42.4707 83.4123 42.9377 82.9453 43.5067 82.9453Z" fill="white"/>
<path fill-rule="evenodd" clip-rule="evenodd" d="M28.951 95.4987H38.712C39.281 95.4987 39.746 95.0327 39.746 94.4647V94.4637C39.746 93.8947 39.281 93.4297 38.712 93.4297H28.951C28.382 93.4297 27.916 93.8947 27.916 94.4637V94.4647C27.916 95.0337 28.382 95.4987 28.951 95.4987Z" fill="white"/>
<path fill-rule="evenodd" clip-rule="evenodd" d="M28.951 90.9479H42.436C43.006 90.9479 43.471 90.4829 43.471 89.9139V89.9129C43.471 89.3439 43.007 88.8789 42.436 88.8789H28.951C28.382 88.8789 27.916 89.3439 27.916 89.9129V89.9139C27.916 90.4819 28.382 90.9479 28.951 90.9479Z" fill="white"/>
<path fill-rule="evenodd" clip-rule="evenodd" d="M46.4549 90.9479H48.7829C49.3519 90.9479 49.8169 90.4829 49.8169 89.9139V89.9129C49.8169 89.3439 49.3519 88.8789 48.7829 88.8789H46.4549C45.8859 88.8789 45.4199 89.3439 45.4199 89.9129V89.9139C45.4199 90.4819 45.8859 90.9479 46.4549 90.9479Z" fill="white"/>
<path fill-rule="evenodd" clip-rule="evenodd" d="M28.951 100.259H35.4C35.969 100.259 36.434 99.7934 36.434 99.2254C36.434 98.6564 35.969 98.1914 35.4 98.1914H28.951C28.382 98.1914 27.916 98.6564 27.916 99.2254C27.916 99.7934 28.382 100.259 28.951 100.259Z" fill="white"/>
<path fill-rule="evenodd" clip-rule="evenodd" d="M28.951 104.811H43.264C43.832 104.811 44.298 104.345 44.298 103.777V103.776C44.298 103.207 43.832 102.742 43.264 102.742H28.951C28.382 102.742 27.916 103.207 27.916 103.776V103.777C27.916 104.346 28.382 104.811 28.951 104.811Z" fill="white"/>
<path fill-rule="evenodd" clip-rule="evenodd" d="M75.7205 58.1797H183.78C184.348 58.1797 184.815 58.6457 184.815 59.2137C184.815 59.7827 184.348 60.2487 183.78 60.2487H75.7205C75.1525 60.2487 74.6865 59.7827 74.6865 59.2137C74.6855 58.6457 75.1525 58.1797 75.7205 58.1797Z" fill="white"/>
<path fill-rule="evenodd" clip-rule="evenodd" d="M66.2338 60.9402C67.1828 60.9402 67.9578 60.1662 67.9578 59.2162C67.9578 58.2672 67.1828 57.4922 66.2338 57.4922C65.2838 57.4922 64.5078 58.2672 64.5078 59.2162C64.5078 60.1662 65.2838 60.9402 66.2338 60.9402Z" fill="white"/>
<path fill-rule="evenodd" clip-rule="evenodd" d="M75.7205 67.0117H183.78C184.348 67.0117 184.815 67.4767 184.815 68.0457C184.815 68.6147 184.348 69.0797 183.78 69.0797H75.7205C75.1525 69.0797 74.6865 68.6147 74.6865 68.0457C74.6855 67.4767 75.1525 67.0117 75.7205 67.0117Z" fill="white"/>
<path fill-rule="evenodd" clip-rule="evenodd" d="M66.2338 69.7703C67.1828 69.7703 67.9578 68.9963 67.9578 68.0453C67.9578 67.0953 67.1828 66.3203 66.2338 66.3203C65.2838 66.3203 64.5078 67.0953 64.5078 68.0453C64.5078 68.9963 65.2838 69.7703 66.2338 69.7703Z" fill="white"/>
<path fill-rule="evenodd" clip-rule="evenodd" d="M75.7205 75.8398H183.78C184.348 75.8398 184.815 76.3058 184.815 76.8748C184.815 77.4428 184.348 77.9098 183.78 77.9098H75.7205C75.1525 77.9098 74.6865 77.4438 74.6865 76.8758C74.6855 76.3068 75.1525 75.8398 75.7205 75.8398Z" fill="white"/>
<path fill-rule="evenodd" clip-rule="evenodd" d="M66.2338 78.5984C67.1828 78.5984 67.9578 77.8234 67.9578 76.8734C67.9578 75.9234 67.1828 75.1484 66.2338 75.1484C65.2838 75.1484 64.5078 75.9234 64.5078 76.8734C64.5078 77.8234 65.2838 78.5984 66.2338 78.5984Z" fill="white"/>
<path fill-rule="evenodd" clip-rule="evenodd" d="M75.7205 84.668H183.78C184.348 84.668 184.815 85.134 184.815 85.702V85.703C184.815 86.272 184.348 86.738 183.78 86.738H75.7205C75.1525 86.738 74.6865 86.273 74.6865 85.703V85.702C74.6855 85.134 75.1525 84.668 75.7205 84.668Z" fill="white"/>
<path fill-rule="evenodd" clip-rule="evenodd" d="M66.2338 87.4305C67.1828 87.4305 67.9578 86.6565 67.9578 85.7055C67.9578 84.7565 67.1828 83.9805 66.2338 83.9805C65.2838 83.9805 64.5078 84.7555 64.5078 85.7055C64.5078 86.6555 65.2838 87.4305 66.2338 87.4305Z" fill="white"/>
<path fill-rule="evenodd" clip-rule="evenodd" d="M75.7205 93.5H183.78C184.348 93.5 184.815 93.965 184.815 94.534C184.815 95.103 184.348 95.57 183.78 95.57H75.7205C75.1525 95.57 74.6865 95.105 74.6865 94.535C74.6855 93.966 75.1525 93.5 75.7205 93.5Z" fill="white"/>
<path fill-rule="evenodd" clip-rule="evenodd" d="M66.2338 96.2576C67.1828 96.2576 67.9578 95.4836 67.9578 94.5326C67.9578 93.5826 67.1828 92.8086 66.2338 92.8086C65.2838 92.8086 64.5078 93.5826 64.5078 94.5326C64.5078 95.4836 65.2838 96.2576 66.2338 96.2576Z" fill="white"/>
<path fill-rule="evenodd" clip-rule="evenodd" d="M75.7205 102.328H183.78C184.348 102.328 184.815 102.794 184.815 103.363V103.364C184.815 103.932 184.348 104.398 183.78 104.398H75.7205C75.1525 104.398 74.6865 103.933 74.6865 103.364V103.363C74.6855 102.794 75.1525 102.328 75.7205 102.328Z" fill="white"/>
<path fill-rule="evenodd" clip-rule="evenodd" d="M66.2338 105.09C67.1828 105.09 67.9578 104.315 67.9578 103.365C67.9578 102.415 67.1828 101.641 66.2338 101.641C65.2838 101.641 64.5078 102.415 64.5078 103.365C64.5078 104.314 65.2838 105.09 66.2338 105.09Z" fill="white"/>
<path fill-rule="evenodd" clip-rule="evenodd" d="M75.7205 111.16H183.78C184.348 111.16 184.815 111.626 184.815 112.194C184.815 112.763 184.348 113.229 183.78 113.229H75.7205C75.1525 113.229 74.6865 112.764 74.6865 112.195C74.6855 111.626 75.1525 111.16 75.7205 111.16Z" fill="white"/>
<path fill-rule="evenodd" clip-rule="evenodd" d="M66.2338 113.918C67.1828 113.918 67.9578 113.144 67.9578 112.194C67.9578 111.244 67.1828 110.469 66.2338 110.469C65.2838 110.469 64.5078 111.244 64.5078 112.194C64.5078 113.144 65.2838 113.918 66.2338 113.918Z" fill="white"/>
<path fill-rule="evenodd" clip-rule="evenodd" d="M75.7205 119.988H183.78C184.348 119.988 184.815 120.453 184.815 121.022V121.023C184.815 121.592 184.348 122.057 183.78 122.057H75.7205C75.1525 122.057 74.6865 121.592 74.6865 121.023V121.022C74.6855 120.454 75.1525 119.988 75.7205 119.988Z" fill="white"/>
<path fill-rule="evenodd" clip-rule="evenodd" d="M66.2338 122.746C67.1828 122.746 67.9578 121.972 67.9578 121.021C67.9578 120.071 67.1828 119.297 66.2338 119.297C65.2838 119.297 64.5078 120.072 64.5078 121.021C64.5078 121.971 65.2838 122.746 66.2338 122.746Z" fill="white"/>
<path fill-rule="evenodd" clip-rule="evenodd" d="M66.5768 43.0039H146.737C147.875 43.0039 148.805 43.9349 148.805 45.0719C148.805 46.2099 147.875 47.1419 146.737 47.1419H66.5768C65.4388 47.1419 64.5088 46.2099 64.5088 45.0729C64.5088 43.9359 65.4388 43.0039 66.5768 43.0039Z" fill="white"/>
<path fill-rule="evenodd" clip-rule="evenodd" d="M155.84 43.0039H182.744C183.882 43.0039 184.814 43.9349 184.814 45.0719C184.814 46.2099 183.882 47.1419 182.744 47.1419H155.84C154.703 47.1419 153.772 46.2099 153.772 45.0729C153.771 43.9359 154.702 43.0039 155.84 43.0039Z" fill="white"/>
<path d="M38.6014 58.5486C43.2693 58.5173 47.028 54.7074 46.9968 50.039C46.9655 45.3705 43.156 41.6113 38.4881 41.6426C33.8202 41.6739 30.0615 45.4838 30.0928 50.1522C30.124 54.8207 33.9335 58.5799 38.6014 58.5486Z" fill="white"/>
<path fill-rule="evenodd" clip-rule="evenodd" d="M42.911 55.6351C41.708 56.5851 40.19 57.1521 38.539 57.1521C36.887 57.1521 35.369 56.5861 34.166 55.6351C34.243 53.2951 36.18 51.4041 38.539 51.4041C40.898 51.4031 42.836 53.2941 42.911 55.6351ZM38.539 44.0781C40.274 44.0781 41.679 45.4841 41.679 47.2191C41.679 48.9531 40.274 50.3601 38.539 50.3601C36.804 50.3601 35.398 48.9541 35.398 47.2191C35.398 45.4841 36.804 44.0781 38.539 44.0781Z" fill="#3551B6"/>
<path fill-rule="evenodd" clip-rule="evenodd" d="M513.009 141.299C511.754 140.045 510.021 139.269 508.108 139.269C506.194 139.269 504.461 140.045 503.208 141.299C501.952 142.553 501.178 144.286 501.178 146.2C501.178 148.115 501.952 149.847 503.208 151.101C504.462 152.355 506.194 153.131 508.108 153.131C510.021 153.131 511.754 152.355 513.009 151.101C514.263 149.847 515.039 148.114 515.039 146.2C515.039 144.287 514.263 142.554 513.009 141.299ZM511.511 134.429C512.472 134.706 513.383 135.097 514.228 135.586C515.095 136.087 515.896 136.692 516.612 137.383C516.752 137.517 516.961 137.537 517.12 137.444L520.341 135.584L520.359 135.574C520.543 135.474 520.753 135.456 520.946 135.507C521.144 135.56 521.322 135.688 521.431 135.878L521.446 135.899L523.711 139.824C523.82 140.013 523.842 140.232 523.789 140.43C523.735 140.628 523.608 140.806 523.418 140.915L523.396 140.928L520.202 142.773C520.034 142.87 519.957 143.064 520.001 143.242C520.119 143.717 520.209 144.206 520.27 144.707C520.329 145.195 520.36 145.692 520.36 146.2C520.36 146.707 520.329 147.206 520.27 147.694C520.209 148.194 520.12 148.683 520.001 149.158C519.952 149.355 520.05 149.554 520.226 149.641L523.419 151.485C523.609 151.594 523.735 151.772 523.789 151.97C523.842 152.17 523.82 152.387 523.711 152.577L521.433 156.524L521.432 156.523C521.323 156.713 521.145 156.84 520.948 156.894C520.749 156.947 520.531 156.925 520.343 156.816L520.319 156.803L517.122 154.956C516.954 154.86 516.748 154.89 516.615 155.017C515.899 155.708 515.098 156.312 514.231 156.813C513.38 157.305 512.463 157.697 511.497 157.975C511.309 158.028 511.188 158.199 511.188 158.384V162.099C511.188 162.318 511.098 162.518 510.953 162.662C510.809 162.807 510.608 162.896 510.39 162.896H505.83C505.611 162.896 505.413 162.806 505.268 162.662C505.123 162.518 505.033 162.318 505.033 162.099V158.384C505.033 158.183 504.894 158.014 504.706 157.969C503.745 157.692 502.835 157.301 501.989 156.813C501.122 156.312 500.322 155.707 499.606 155.016C499.459 154.875 499.239 154.86 499.077 154.968L495.879 156.815C495.69 156.924 495.471 156.945 495.273 156.893C495.075 156.839 494.897 156.712 494.787 156.522L494.774 156.5L492.506 152.575L492.507 152.574C492.398 152.385 492.377 152.167 492.43 151.969C492.484 151.771 492.611 151.593 492.798 151.484L496.017 149.626C496.184 149.53 496.262 149.336 496.217 149.157H496.218C496.101 148.682 496.01 148.193 495.949 147.693C495.889 147.205 495.859 146.707 495.859 146.199C495.859 145.692 495.888 145.194 495.949 144.705C496.009 144.205 496.1 143.716 496.218 143.242C496.268 143.044 496.168 142.845 495.994 142.759L492.798 140.914C492.61 140.806 492.484 140.628 492.43 140.429C492.377 140.231 492.398 140.014 492.507 139.824L492.521 139.8L494.787 135.875C494.897 135.686 495.075 135.558 495.273 135.505C495.47 135.452 495.689 135.473 495.877 135.582L499.098 137.442C499.27 137.542 499.483 137.507 499.615 137.372C500.328 136.684 501.126 136.083 501.99 135.584C502.841 135.092 503.757 134.7 504.723 134.422C504.911 134.369 505.033 134.198 505.033 134.012V130.297C505.033 130.078 505.124 129.879 505.268 129.734C505.413 129.589 505.611 129.5 505.83 129.5H510.39C510.608 129.5 510.809 129.59 510.953 129.734C511.099 129.879 511.188 130.078 511.188 130.297V134.012C511.185 134.216 511.325 134.385 511.511 134.429Z" fill="#DCD7EB"/>
<path fill-rule="evenodd" clip-rule="evenodd" d="M591.198 136.756C589.818 135.376 588.165 134.262 586.325 133.499C584.554 132.766 582.617 132.361 580.59 132.361C578.562 132.361 576.625 132.766 574.855 133.499C573.014 134.262 571.361 135.376 569.982 136.756C568.601 138.136 567.487 139.79 566.724 141.63C565.992 143.4 565.587 145.337 565.587 147.365C565.587 149.392 565.992 151.33 566.724 153.099C567.487 154.94 568.601 156.593 569.982 157.973C571.361 159.352 573.013 160.467 574.853 161.229C576.622 161.963 578.561 162.368 580.59 162.368C582.617 162.368 584.555 161.963 586.325 161.23C588.164 160.467 589.819 159.353 591.198 157.973C592.578 156.593 593.692 154.94 594.455 153.099C595.187 151.329 595.593 149.392 595.593 147.364C595.593 145.336 595.188 143.399 594.455 141.629C593.692 139.79 592.577 138.136 591.198 136.756ZM585.797 134.781C587.458 135.469 588.957 136.481 590.215 137.739C591.473 138.997 592.485 140.496 593.173 142.156C593.835 143.757 594.202 145.516 594.202 147.365C594.202 149.213 593.835 150.972 593.173 152.573C592.485 154.234 591.472 155.733 590.215 156.99C588.957 158.247 587.457 159.26 585.797 159.948C584.196 160.611 582.437 160.977 580.589 160.977C578.742 160.977 576.985 160.611 575.383 159.948C573.72 159.26 572.221 158.247 570.963 156.99C569.705 155.732 568.693 154.233 568.004 152.573C567.342 150.971 566.976 149.212 566.976 147.365C566.976 145.517 567.342 143.758 568.004 142.156C568.693 140.495 569.705 138.996 570.963 137.739C572.221 136.481 573.72 135.468 575.38 134.781C576.982 134.117 578.74 133.752 580.589 133.752C582.437 133.751 584.196 134.117 585.797 134.781ZM587.455 123.741C588.395 124.012 589.318 124.343 590.221 124.726C591.137 125.117 592.024 125.56 592.875 126.053C593.742 126.554 594.578 127.109 595.378 127.712C596.181 128.317 596.945 128.969 597.663 129.662C597.918 129.907 598.234 130.05 598.561 130.09C598.894 130.13 599.24 130.062 599.54 129.889C601.743 128.616 604.059 127.357 606.218 126.033C606.324 125.978 606.434 125.945 606.542 125.932C606.666 125.919 606.791 125.929 606.91 125.96C607.033 125.993 607.148 126.049 607.247 126.124C607.343 126.197 607.427 126.291 607.491 126.401C609.096 128.831 610.709 131.971 612.197 134.548C612.261 134.658 612.299 134.776 612.314 134.894C612.33 135.017 612.319 135.148 612.286 135.274C612.253 135.396 612.198 135.511 612.121 135.611C612.05 135.707 611.955 135.791 611.846 135.854C609.863 137.165 607.31 138.477 605.209 139.689C604.9 139.866 604.675 140.131 604.546 140.432C604.501 140.537 604.468 140.647 604.447 140.759L604.31 140.805L604.463 141.424C604.583 141.911 604.69 142.398 604.778 142.882C604.864 143.353 604.94 143.847 605.002 144.362C605.063 144.864 605.109 145.363 605.139 145.855C605.168 146.335 605.183 146.839 605.183 147.364C605.183 147.888 605.168 148.391 605.139 148.87C605.11 149.363 605.064 149.862 605.002 150.365C604.94 150.879 604.864 151.372 604.778 151.844C604.689 152.329 604.584 152.816 604.463 153.303C604.373 153.664 604.417 154.027 604.563 154.339C604.706 154.651 604.953 154.912 605.272 155.076L611.149 158.469L611.147 158.472L611.845 158.874C611.955 158.938 612.049 159.022 612.121 159.117C612.196 159.216 612.252 159.332 612.285 159.454C612.318 159.58 612.329 159.71 612.313 159.834C612.297 159.951 612.259 160.069 612.196 160.18L607.845 167.72L607.841 167.719L607.489 168.328C607.427 168.438 607.342 168.532 607.245 168.605C607.146 168.681 607.031 168.736 606.908 168.769C606.784 168.803 606.654 168.812 606.531 168.797C606.414 168.782 606.297 168.743 606.186 168.68C604.082 167.357 601.706 166.095 599.535 164.842C599.223 164.665 598.885 164.604 598.564 164.642C598.229 164.683 597.913 164.83 597.665 165.067L597.662 165.069C596.944 165.762 596.179 166.414 595.375 167.02C594.577 167.622 593.741 168.177 592.875 168.677C592.018 169.173 591.124 169.619 590.201 170.012C589.296 170.397 588.354 170.731 587.386 171.008C587.045 171.105 586.762 171.309 586.563 171.572C586.362 171.84 586.247 172.173 586.247 172.521L586.244 180.191C586.244 180.319 586.218 180.442 586.172 180.551C586.125 180.665 586.054 180.77 585.964 180.86C585.876 180.949 585.77 181.021 585.653 181.069C585.544 181.114 585.423 181.14 585.293 181.14H575.882C575.753 181.14 575.631 181.114 575.523 181.069C575.405 181.02 575.3 180.949 575.211 180.861C575.122 180.77 575.051 180.665 575.003 180.551C574.957 180.442 574.932 180.319 574.932 180.191V172.521C574.932 172.157 574.804 171.818 574.59 171.548C574.374 171.273 574.068 171.071 573.721 170.989C572.782 170.719 571.859 170.388 570.956 170.005C570.04 169.615 569.153 169.172 568.3 168.678C567.435 168.178 566.599 167.624 565.8 167.021C564.996 166.415 564.233 165.763 563.513 165.07C563.247 164.814 562.912 164.671 562.568 164.639C562.218 164.607 561.861 164.692 561.559 164.892L554.993 168.682C554.885 168.745 554.765 168.784 554.646 168.799C554.522 168.815 554.393 168.804 554.268 168.771C554.144 168.738 554.029 168.683 553.93 168.607C553.834 168.533 553.75 168.441 553.686 168.33C552.126 165.61 550.542 162.902 548.981 160.182C548.918 160.073 548.879 159.954 548.863 159.835C548.848 159.712 548.858 159.583 548.891 159.457C548.925 159.333 548.98 159.218 549.056 159.119C549.127 159.022 549.219 158.939 549.327 158.877L555.969 155.042C556.278 154.866 556.502 154.601 556.632 154.3C556.666 154.218 556.694 154.134 556.714 154.047L556.888 154.012L556.714 153.307C556.594 152.82 556.487 152.333 556.399 151.849C556.313 151.377 556.237 150.883 556.175 150.368C556.113 149.865 556.068 149.367 556.038 148.874C556.009 148.394 555.994 147.891 555.994 147.367C555.994 146.843 556.009 146.34 556.038 145.86C556.067 145.368 556.113 144.87 556.175 144.368C556.238 143.847 556.314 143.351 556.399 142.883C556.488 142.4 556.593 141.913 556.714 141.427C556.803 141.064 556.759 140.7 556.614 140.389C556.469 140.079 556.221 139.817 555.907 139.655L549.329 135.857C549.22 135.797 549.129 135.713 549.056 135.615C548.98 135.518 548.925 135.402 548.891 135.277C548.858 135.152 548.848 135.023 548.863 134.9C548.88 134.781 548.918 134.662 548.981 134.553C550.587 132.164 552.195 128.973 553.686 126.405C553.75 126.295 553.834 126.201 553.93 126.128C554.029 126.052 554.144 125.996 554.268 125.964C554.392 125.931 554.522 125.92 554.646 125.936C554.761 125.951 554.879 125.99 554.992 126.055L561.64 129.891C561.953 130.074 562.303 130.135 562.635 130.089C562.97 130.044 563.287 129.891 563.533 129.646C564.256 128.951 565.015 128.302 565.809 127.706C566.598 127.111 567.432 126.56 568.301 126.057C569.158 125.561 570.051 125.115 570.974 124.723C571.88 124.338 572.821 124.004 573.787 123.727C574.13 123.629 574.412 123.425 574.611 123.162C574.812 122.895 574.928 122.562 574.928 122.214L574.931 114.544C574.931 114.415 574.956 114.293 575.002 114.184C575.05 114.07 575.121 113.965 575.211 113.875C575.299 113.786 575.403 113.714 575.522 113.665C575.63 113.62 575.752 113.595 575.881 113.595H585.292C585.422 113.595 585.543 113.62 585.652 113.665C585.768 113.714 585.875 113.786 585.963 113.873C586.136 114.047 586.243 114.284 586.243 114.544V122.214C586.243 122.581 586.369 122.919 586.58 123.187C586.803 123.458 587.108 123.659 587.455 123.741ZM590.764 123.451C591.732 123.863 592.668 124.332 593.571 124.853C594.491 125.385 595.375 125.971 596.215 126.604C597.057 127.239 597.863 127.927 598.625 128.662C598.654 128.69 598.69 128.706 598.73 128.711C598.771 128.716 598.813 128.709 598.846 128.689C601.079 127.399 603.319 126.114 605.549 124.817C605.814 124.674 606.099 124.587 606.389 124.553C606.685 124.519 606.985 124.543 607.269 124.619C607.563 124.698 607.843 124.834 608.09 125.022C608.327 125.204 608.533 125.434 608.691 125.707C610.311 128.329 611.848 131.171 613.398 133.854C613.555 134.126 613.65 134.421 613.688 134.721C613.727 135.03 613.707 135.341 613.628 135.633C613.549 135.927 613.412 136.206 613.223 136.453C613.042 136.691 612.813 136.897 612.54 137.054C610.402 138.374 608.084 139.627 605.896 140.889C605.863 140.909 605.836 140.94 605.822 140.975C605.805 141.012 605.803 141.054 605.811 141.092L605.963 141.712L605.955 141.715C606.02 142.016 606.083 142.322 606.141 142.633C606.238 143.164 606.319 143.687 606.38 144.2C606.443 144.709 606.49 145.234 606.523 145.774C606.554 146.316 606.572 146.847 606.572 147.364C606.572 147.881 606.554 148.411 606.523 148.952C606.491 149.492 606.443 150.019 606.38 150.528C606.319 151.04 606.237 151.563 606.141 152.094C606.043 152.623 605.933 153.137 605.809 153.636C605.799 153.677 605.803 153.719 605.823 153.757C605.841 153.797 605.87 153.829 605.904 153.846C608.345 155.15 610.823 156.683 613.236 158.078L613.15 158.185L613.222 158.277C613.411 158.524 613.548 158.804 613.627 159.097C613.705 159.389 613.726 159.7 613.687 160.009C613.649 160.308 613.554 160.604 613.395 160.875L608.338 169.632L608.244 169.576C608.193 169.622 608.143 169.666 608.089 169.707C607.842 169.895 607.562 170.032 607.268 170.11C606.977 170.188 606.666 170.21 606.358 170.171C606.068 170.134 605.782 170.042 605.515 169.893C603.302 168.719 601.026 167.302 598.841 166.04C598.81 166.022 598.77 166.016 598.73 166.02C598.69 166.025 598.651 166.043 598.622 166.07C597.859 166.805 597.055 167.492 596.214 168.127C595.374 168.759 594.491 169.345 593.572 169.876C592.664 170.4 591.719 170.873 590.747 171.287C589.779 171.697 588.785 172.051 587.77 172.342C587.73 172.353 587.697 172.378 587.674 172.407C587.648 172.441 587.633 172.481 587.636 172.519V180.189C587.636 180.502 587.571 180.804 587.456 181.082C587.337 181.37 587.162 181.628 586.945 181.841C586.73 182.056 586.471 182.231 586.187 182.349C585.91 182.465 585.608 182.528 585.294 182.528H575.883C575.57 182.528 575.267 182.465 574.99 182.349C574.706 182.231 574.449 182.056 574.23 181.841C574.017 181.628 573.842 181.369 573.723 181.082C573.607 180.805 573.543 180.503 573.543 180.189V172.519C573.543 172.473 573.528 172.433 573.505 172.404C573.482 172.374 573.445 172.35 573.401 172.34L573.372 172.329C572.349 172.035 571.362 171.683 570.414 171.279C569.447 170.868 568.51 170.399 567.606 169.877C566.687 169.345 565.803 168.76 564.964 168.127C564.121 167.492 563.315 166.803 562.552 166.068C562.521 166.037 562.482 166.02 562.443 166.017C562.404 166.014 562.361 166.024 562.325 166.047L555.683 169.88C555.41 170.038 555.116 170.133 554.82 170.171C554.512 170.21 554.201 170.188 553.909 170.11C553.615 170.031 553.336 169.895 553.089 169.707C552.857 169.53 552.654 169.306 552.498 169.042C550.754 166.236 549.105 163.162 547.439 160.281L547.529 160.228C547.513 160.154 547.5 160.08 547.491 160.006C547.451 159.698 547.473 159.388 547.552 159.096C547.63 158.803 547.767 158.522 547.956 158.276C548.136 158.037 548.365 157.831 548.638 157.674L555.282 153.84C555.316 153.82 555.342 153.789 555.356 153.753C555.374 153.715 555.377 153.673 555.368 153.633L555.195 152.93L555.205 152.928C555.146 152.655 555.09 152.377 555.038 152.095C554.94 151.564 554.859 151.041 554.798 150.527C554.735 150.018 554.689 149.492 554.655 148.951C554.624 148.41 554.607 147.88 554.607 147.363C554.607 146.846 554.624 146.316 554.655 145.774C554.689 145.234 554.736 144.708 554.798 144.195C554.859 143.687 554.94 143.164 555.038 142.629C555.136 142.102 555.245 141.589 555.369 141.091C555.379 141.051 555.374 141.008 555.355 140.968C555.338 140.932 555.308 140.9 555.271 140.882L548.636 137.052C548.363 136.893 548.133 136.688 547.954 136.45C547.765 136.201 547.629 135.922 547.552 135.631C547.473 135.34 547.451 135.029 547.491 134.721C547.527 134.43 547.62 134.143 547.77 133.874C549.352 130.945 551.164 127.992 552.837 125.095L552.931 125.152C552.982 125.106 553.034 125.063 553.088 125.021C553.335 124.833 553.614 124.696 553.908 124.618C554.2 124.54 554.511 124.518 554.818 124.557C555.118 124.595 555.412 124.69 555.681 124.844L556.171 125.127L556.17 125.132L562.332 128.688C562.368 128.709 562.409 128.716 562.449 128.711C562.488 128.706 562.526 128.688 562.554 128.659L562.57 128.643C563.325 127.916 564.128 127.232 564.976 126.594C565.818 125.959 566.696 125.377 567.604 124.852C568.513 124.328 569.456 123.856 570.429 123.442C571.397 123.031 572.391 122.678 573.406 122.386C573.446 122.375 573.479 122.351 573.503 122.321C573.529 122.287 573.543 122.247 573.541 122.209V114.539C573.541 114.226 573.604 113.923 573.721 113.646C573.84 113.358 574.015 113.1 574.232 112.886C574.447 112.671 574.704 112.496 574.988 112.378C575.265 112.263 575.569 112.199 575.881 112.199H585.292C585.605 112.199 585.907 112.263 586.185 112.378C586.469 112.497 586.728 112.671 586.946 112.886C587.37 113.31 587.634 113.895 587.634 114.538V122.208C587.634 122.252 587.65 122.293 587.672 122.325C587.696 122.355 587.732 122.378 587.774 122.388L587.804 122.399C588.828 122.695 589.816 123.047 590.764 123.451Z" fill="#DCD7EB"/>
<path fill-rule="evenodd" clip-rule="evenodd" d="M523.16 238.668C538.806 238.668 551.488 251.349 551.488 266.994C551.488 282.639 538.805 295.32 523.16 295.32H465.527C455.436 295.32 447.257 287.14 447.257 277.049C447.257 266.958 455.436 258.778 465.527 258.778C467.548 258.778 469.491 259.107 471.308 259.713C473.916 253.132 480.335 248.479 487.844 248.479C492.029 248.479 495.875 249.924 498.913 252.343C503.877 244.147 512.88 238.668 523.16 238.668Z" fill="#32F0CD"/>
<path fill-rule="evenodd" clip-rule="evenodd" d="M468.448 302.25H472.931C473.75 302.25 474.422 302.922 474.422 303.744V308.227C474.422 309.048 473.75 309.72 472.931 309.72H468.448C467.626 309.72 466.955 309.048 466.955 308.227V303.744C466.954 302.922 467.625 302.25 468.448 302.25Z" fill="#DCD7EB"/>
<path fill-rule="evenodd" clip-rule="evenodd" d="M483.759 302.25H488.241C489.062 302.25 489.735 302.922 489.735 303.744V308.227C489.735 309.048 489.062 309.72 488.241 309.72H483.759C482.938 309.72 482.267 309.048 482.267 308.227V303.744C482.267 302.922 482.938 302.25 483.759 302.25Z" fill="#DCD7EB"/>
<path fill-rule="evenodd" clip-rule="evenodd" d="M499.071 302.25H503.554C504.375 302.25 505.047 302.922 505.047 303.744V308.227C505.047 309.048 504.375 309.72 503.554 309.72H499.071C498.25 309.72 497.578 309.048 497.578 308.227V303.744C497.578 302.922 498.25 302.25 499.071 302.25Z" fill="#DCD7EB"/>
<path fill-rule="evenodd" clip-rule="evenodd" d="M514.383 302.25H518.867C519.688 302.25 520.36 302.922 520.36 303.744V308.227C520.36 309.048 519.688 309.72 518.867 309.72H514.383C513.563 309.72 512.89 309.048 512.89 308.227V303.744C512.89 302.922 513.563 302.25 514.383 302.25Z" fill="#DCD7EB"/>
<path fill-rule="evenodd" clip-rule="evenodd" d="M154.874 227.883H159.358C160.178 227.883 160.851 228.554 160.851 229.376V233.858C160.851 234.679 160.178 235.352 159.358 235.352H154.874C154.053 235.352 153.381 234.679 153.381 233.858V229.376C153.381 228.554 154.053 227.883 154.874 227.883Z" fill="#DCD7EB"/>
<path fill-rule="evenodd" clip-rule="evenodd" d="M170.188 227.883H174.671C175.491 227.883 176.164 228.554 176.164 229.376V233.858C176.164 234.679 175.491 235.352 174.671 235.352H170.188C169.364 235.352 168.694 234.679 168.694 233.858V229.376C168.694 228.554 169.364 227.883 170.188 227.883Z" fill="#DCD7EB"/>
<path fill-rule="evenodd" clip-rule="evenodd" d="M185.499 227.883H189.981C190.803 227.883 191.475 228.554 191.475 229.376V233.858C191.475 234.679 190.803 235.352 189.981 235.352H185.499C184.677 235.352 184.005 234.679 184.005 233.858V229.376C184.005 228.554 184.677 227.883 185.499 227.883Z" fill="#DCD7EB"/>
<path fill-rule="evenodd" clip-rule="evenodd" d="M200.811 227.883H205.296C206.116 227.883 206.788 228.554 206.788 229.376V233.858C206.788 234.679 206.116 235.352 205.296 235.352H200.811C199.989 235.352 199.318 234.679 199.318 233.858V229.376C199.319 228.554 199.989 227.883 200.811 227.883Z" fill="#DCD7EB"/>
<path fill-rule="evenodd" clip-rule="evenodd" d="M94.3856 212.798C73.8756 191.915 58.6176 218.442 60.7486 245.07C62.7686 270.316 84.5306 356.941 80.4966 393.385H88.8286C109.213 346.654 120.644 239.533 94.3856 212.798Z" fill="#132255"/>
<path fill-rule="evenodd" clip-rule="evenodd" d="M85.7654 393.386C105.605 319.729 80.4894 217.914 80.4044 217.569C80.2514 216.936 79.6134 216.548 78.9824 216.701C78.3494 216.855 77.9604 217.492 78.1134 218.124C78.1984 218.471 103.346 320.401 83.3534 393.387H85.7654V393.386Z" fill="#3551B6"/>
<path fill-rule="evenodd" clip-rule="evenodd" d="M43.7856 258.82C22.1736 247.369 16.7226 272.354 25.1486 293.024C32.1306 310.156 62.9806 360.828 74.6456 393.383H85.6316C86.5656 348.391 69.2996 272.335 43.7856 258.82Z" fill="#3551B6"/>
<path fill-rule="evenodd" clip-rule="evenodd" d="M81.6173 393.382C74.4683 332.531 34.0003 266.39 33.8543 266.15C33.5723 265.684 32.9663 265.537 32.5013 265.818C32.0363 266.1 31.8883 266.706 32.1703 267.171C32.3143 267.41 72.5233 333.124 79.6633 393.382H81.6173Z" fill="#253C8E"/>
<path fill-rule="evenodd" clip-rule="evenodd" d="M135.136 287.702C156.084 278.552 159.405 302.22 150.098 320.89C143.801 333.523 121.109 365.87 105.826 393.386H88.3857C94.3497 351.757 113.482 297.161 135.136 287.702Z" fill="#3551B6"/>
<path fill-rule="evenodd" clip-rule="evenodd" d="M94.6133 393.385C109.486 342.952 143.737 295.425 143.875 295.233C144.17 294.82 144.745 294.724 145.158 295.02C145.572 295.315 145.667 295.891 145.372 296.303C145.236 296.493 111.345 343.526 96.5073 393.385H94.6133Z" fill="#253C8E"/>
<path fill-rule="evenodd" clip-rule="evenodd" d="M322.918 266.314C340.849 252.106 353.007 271.119 350.458 289.796C348.042 307.505 327.208 367.92 329.597 393.645L322.55 393.451C306.624 360.109 299.965 284.504 322.918 266.314Z" fill="#132255"/>
<path fill-rule="evenodd" clip-rule="evenodd" d="M325.141 393.521C310.431 341.254 334.528 270.234 334.609 269.993C334.756 269.553 335.306 269.294 335.837 269.417C336.367 269.539 336.678 269.996 336.529 270.437C336.449 270.678 312.322 341.78 327.18 393.577L325.141 393.521Z" fill="#3551B6"/>
<path fill-rule="evenodd" clip-rule="evenodd" d="M364.416 299.862C383.015 292.313 386.922 310.012 379.217 324.354C372.831 336.239 345.321 371.157 334.544 393.781L325.254 393.524C325.728 361.86 342.461 308.773 364.416 299.862Z" fill="#3551B6"/>
<path fill-rule="evenodd" clip-rule="evenodd" d="M328.647 393.619C336.401 350.99 372.479 305.417 372.608 305.252C372.86 304.932 373.376 304.841 373.761 305.051C374.147 305.26 374.255 305.69 374.003 306.01C373.874 306.174 338.028 351.452 330.299 393.664L328.647 393.619Z" fill="#253C8E"/>
<path fill-rule="evenodd" clip-rule="evenodd" d="M286.358 318.043C268.9 311.119 265.428 327.686 272.773 341.035C277.743 350.066 296.025 373.346 308.177 393.055L322.926 393.461C319.051 364.046 304.403 325.202 286.358 318.043Z" fill="#3551B6"/>
<path fill-rule="evenodd" clip-rule="evenodd" d="M317.658 393.317C306.498 357.501 278.866 323.275 278.755 323.137C278.517 322.839 278.033 322.758 277.676 322.956C277.318 323.154 277.221 323.556 277.459 323.854C277.57 323.991 304.909 357.859 316.057 393.272L317.658 393.317Z" fill="#253C8E"/>
<path fill-rule="evenodd" clip-rule="evenodd" d="M7.24792 384.145H600.775C604.667 384.145 607.853 387.331 607.853 391.223C607.853 395.115 604.668 398.302 600.775 398.302H576.891C574.728 398.302 572.958 400.072 572.958 402.234V402.235C572.958 404.397 574.728 406.168 576.891 406.168H585.629C588.331 406.168 590.545 408.381 590.545 411.084C590.545 413.787 588.332 416 585.629 416H23.1749C20.4709 416 18.2589 413.788 18.2589 411.084C18.2589 408.381 20.4719 406.168 23.1749 406.168H30.0569C32.2209 406.168 33.9899 404.398 33.9899 402.235V402.234C33.9899 400.072 32.2209 398.302 30.0569 398.302H7.24792C3.35492 398.302 0.169922 395.116 0.169922 391.224C0.169922 387.331 3.35792 384.145 7.24792 384.145ZM10.9339 415.999C13.5309 415.999 15.6529 413.875 15.6529 411.279V410.885C15.6529 408.289 13.5289 406.166 10.9339 406.166C8.33892 406.166 6.21592 408.289 6.21592 410.885V411.279C6.21592 413.876 8.33992 415.999 10.9339 415.999Z" fill="#0C1332"/>
<path fill-rule="evenodd" clip-rule="evenodd" d="M545.37 17.9023H487.191C482.966 17.9023 479.508 21.3603 479.508 25.5863V62.2873V64.6303V84.8003C479.508 85.1543 479.71 85.4573 480.036 85.5933C480.364 85.7283 480.721 85.6573 480.972 85.4063L494.064 72.3133H545.37C549.595 72.3133 553.053 68.8553 553.053 64.6293V25.5863C553.054 21.3603 549.596 17.9023 545.37 17.9023Z" fill="#DCD7EB"/>
<path fill-rule="evenodd" clip-rule="evenodd" d="M542.073 15.4375H483.892C479.667 15.4375 476.209 18.8965 476.209 23.1215V59.8225V62.1665V82.3355C476.209 82.6895 476.41 82.9925 476.738 83.1285C477.065 83.2635 477.422 83.1925 477.674 82.9415L490.766 69.8485H542.073C546.298 69.8485 549.756 66.3905 549.756 62.1655V23.1215C549.755 18.8955 546.296 15.4375 542.073 15.4375Z" fill="#32F0CD"/>
<path fill-rule="evenodd" clip-rule="evenodd" d="M506.691 31.1894C507.058 31.1894 507.356 30.8914 507.356 30.5244C507.356 30.1574 507.058 29.8594 506.691 29.8594H489.92C489.553 29.8594 489.256 30.1574 489.256 30.5244C489.256 30.8914 489.553 31.1894 489.92 31.1894H506.691Z" fill="white"/>
<path fill-rule="evenodd" clip-rule="evenodd" d="M506.691 38.58C507.058 38.58 507.356 38.282 507.356 37.915C507.356 37.548 507.058 37.25 506.691 37.25H497.777C497.41 37.25 497.112 37.548 497.112 37.915C497.112 38.282 497.41 38.58 497.777 38.58H506.691Z" fill="white"/>
<path fill-rule="evenodd" clip-rule="evenodd" d="M506.692 44.3261C507.059 44.3261 507.357 44.0281 507.357 43.6611C507.357 43.2941 507.059 42.9961 506.692 42.9961H487.34C486.973 42.9961 486.675 43.2941 486.675 43.6611C486.675 44.0281 486.973 44.3261 487.34 44.3261H506.692Z" fill="white"/>
<path fill-rule="evenodd" clip-rule="evenodd" d="M506.691 51.9472C507.058 51.9472 507.356 51.6492 507.356 51.2822C507.356 50.9152 507.058 50.6172 506.691 50.6172H488.864C488.497 50.6172 488.199 50.9152 488.199 51.2822C488.199 51.6492 488.497 51.9472 488.864 51.9472H506.691Z" fill="white"/>
<path fill-rule="evenodd" clip-rule="evenodd" d="M484.231 50.6172C483.865 50.6172 483.567 50.9152 483.567 51.2822C483.567 51.6492 483.865 51.9472 484.231 51.9472H486.46C486.826 51.9472 487.124 51.6492 487.124 51.2822C487.124 50.9152 486.826 50.6172 486.46 50.6172H484.231Z" fill="white"/>
<path fill-rule="evenodd" clip-rule="evenodd" d="M527.741 56.2641C535.813 56.2641 542.397 49.6801 542.397 41.6091C542.397 33.5371 535.813 26.9531 527.741 26.9531C519.669 26.9531 513.086 33.5371 513.086 41.6091C513.086 49.6811 519.669 56.2641 527.741 56.2641Z" fill="white"/>
<path fill-rule="evenodd" clip-rule="evenodd" d="M535.323 51.2157C533.238 52.8627 530.605 53.8457 527.742 53.8457C524.88 53.8457 522.248 52.8627 520.163 51.2157C520.296 47.1577 523.655 43.8797 527.742 43.8797C531.83 43.8797 535.191 47.1577 535.323 51.2157ZM527.741 31.1797C530.75 31.1797 533.187 33.6177 533.187 36.6247C533.187 39.6317 530.749 42.0697 527.741 42.0697C524.734 42.0697 522.297 39.6317 522.297 36.6247C522.297 33.6177 524.735 31.1797 527.741 31.1797Z" fill="#7A72B3"/>
<path fill-rule="evenodd" clip-rule="evenodd" d="M248.564 33.4774C248.564 33.1364 248.84 32.8594 249.182 32.8594C249.524 32.8594 249.801 33.1364 249.801 33.4774V36.2614C249.801 36.6024 249.524 36.8804 249.182 36.8804C248.84 36.8804 248.564 36.6034 248.564 36.2614V33.4774ZM244.345 35.7374C244.104 35.4964 244.104 35.1034 244.345 34.8624C244.587 34.6204 244.979 34.6204 245.221 34.8624L247.188 36.8304C247.43 37.0714 247.43 37.4634 247.188 37.7054C246.947 37.9474 246.555 37.9474 246.313 37.7054L244.345 35.7374ZM242.961 40.3174C242.619 40.3174 242.342 40.0404 242.342 39.6984C242.342 39.3574 242.619 39.0794 242.961 39.0794H245.745C246.086 39.0794 246.363 39.3564 246.363 39.6984C246.363 40.0404 246.086 40.3174 245.745 40.3174H242.961ZM245.221 44.5354C244.979 44.7774 244.587 44.7774 244.345 44.5354C244.104 44.2944 244.104 43.9014 244.345 43.6604L246.313 41.6924C246.555 41.4504 246.947 41.4504 247.188 41.6924C247.43 41.9344 247.43 42.3264 247.188 42.5674L245.221 44.5354ZM249.8 45.9194C249.8 46.2614 249.523 46.5384 249.181 46.5384C248.839 46.5384 248.563 46.2614 248.563 45.9194V43.1364C248.563 42.7944 248.839 42.5174 249.181 42.5174C249.523 42.5174 249.8 42.7944 249.8 43.1364V45.9194ZM254.018 43.6604C254.26 43.9014 254.26 44.2944 254.018 44.5354C253.776 44.7774 253.384 44.7774 253.143 44.5354L251.174 42.5674C250.934 42.3264 250.934 41.9344 251.174 41.6924C251.417 41.4504 251.808 41.4504 252.05 41.6924L254.018 43.6604ZM255.403 39.0794C255.746 39.0794 256.022 39.3564 256.022 39.6984C256.022 40.0404 255.746 40.3174 255.403 40.3174H252.62C252.278 40.3174 252.001 40.0404 252.001 39.6984C252.001 39.3574 252.278 39.0794 252.62 39.0794H255.403ZM253.143 34.8624C253.384 34.6204 253.776 34.6204 254.018 34.8624C254.26 35.1034 254.26 35.4964 254.018 35.7374L252.051 37.7054C251.808 37.9474 251.417 37.9474 251.175 37.7054C250.935 37.4634 250.935 37.0714 251.175 36.8304L253.143 34.8624Z" fill="#7A72B3"/>
<path fill-rule="evenodd" clip-rule="evenodd" d="M515.37 96.8713C514.804 96.8713 514.345 96.2163 514.345 95.4083C514.345 94.6013 514.804 93.9453 515.37 93.9453H563.351C563.916 93.9453 564.374 94.6013 564.374 95.4083C564.374 96.2163 563.916 96.8713 563.351 96.8713H515.37ZM508.866 93.9453C509.431 93.9453 509.889 94.6013 509.889 95.4083C509.889 96.2163 509.431 96.8713 508.866 96.8713H504.869C504.304 96.8713 503.845 96.2163 503.845 95.4083C503.845 94.6013 504.304 93.9453 504.869 93.9453H508.866Z" fill="#3551B6"/>
<path fill-rule="evenodd" clip-rule="evenodd" d="M38.441 11.3489C37.876 11.3489 37.416 10.6929 37.416 9.88587C37.416 9.07787 37.876 8.42287 38.441 8.42287H86.421C86.986 8.42287 87.446 9.07787 87.446 9.88587C87.446 10.6939 86.987 11.3489 86.421 11.3489H38.441ZM31.937 8.42188C32.502 8.42188 32.961 9.07687 32.961 9.88487C32.961 10.6929 32.503 11.3479 31.937 11.3479H27.94C27.375 11.3479 26.916 10.6919 26.916 9.88487C26.916 9.07687 27.375 8.42188 27.94 8.42188H31.937Z" fill="#3551B6"/>
<path fill-rule="evenodd" clip-rule="evenodd" d="M324.397 237.814C324.397 237.472 324.673 237.195 325.016 237.195C325.357 237.195 325.634 237.472 325.634 237.814V240.597C325.634 240.939 325.357 241.216 325.016 241.216C324.673 241.216 324.397 240.939 324.397 240.597V237.814ZM320.179 240.074C319.937 239.832 319.937 239.44 320.179 239.199C320.42 238.957 320.813 238.957 321.055 239.199L323.023 241.167C323.264 241.408 323.264 241.801 323.023 242.042C322.781 242.283 322.388 242.283 322.147 242.042L320.179 240.074ZM318.794 244.654C318.452 244.654 318.176 244.378 318.176 244.035C318.176 243.694 318.452 243.416 318.794 243.416H321.578C321.919 243.416 322.196 243.694 322.196 244.035C322.196 244.378 321.919 244.654 321.578 244.654H318.794ZM321.055 248.872C320.813 249.113 320.42 249.113 320.179 248.872C319.937 248.631 319.937 248.238 320.179 247.997L322.147 246.028C322.388 245.787 322.781 245.787 323.023 246.028C323.264 246.27 323.264 246.662 323.023 246.903L321.055 248.872ZM325.634 250.256C325.634 250.598 325.357 250.874 325.016 250.874C324.673 250.874 324.397 250.598 324.397 250.256V247.472C324.397 247.13 324.673 246.854 325.016 246.854C325.357 246.854 325.634 247.13 325.634 247.472V250.256ZM329.852 247.997C330.093 248.238 330.093 248.631 329.852 248.872C329.61 249.113 329.219 249.113 328.976 248.872L327.008 246.903C326.766 246.662 326.766 246.27 327.008 246.028C327.25 245.787 327.643 245.787 327.884 246.028L329.852 247.997ZM331.237 243.415C331.578 243.415 331.856 243.693 331.856 244.034C331.856 244.377 331.578 244.653 331.237 244.653H328.454C328.112 244.653 327.834 244.377 327.834 244.034C327.834 243.693 328.112 243.415 328.454 243.415H331.237ZM328.976 239.199C329.219 238.957 329.61 238.957 329.852 239.199C330.093 239.44 330.093 239.832 329.852 240.074L327.884 242.042C327.643 242.283 327.25 242.283 327.008 242.042C326.766 241.801 326.766 241.408 327.008 241.167L328.976 239.199Z" fill="#7A72B3"/>
<path fill-rule="evenodd" clip-rule="evenodd" d="M45.7777 172.895C45.7777 172.554 46.0537 172.277 46.3967 172.277C46.7387 172.277 47.0147 172.554 47.0147 172.895V175.679C47.0147 176.021 46.7387 176.298 46.3967 176.298C46.0537 176.298 45.7777 176.021 45.7777 175.679V172.895ZM41.5587 175.156C41.3177 174.914 41.3177 174.522 41.5587 174.28C41.8017 174.039 42.1937 174.039 42.4347 174.28L44.4027 176.248C44.6447 176.489 44.6447 176.882 44.4027 177.123C44.1607 177.365 43.7687 177.365 43.5277 177.123L41.5587 175.156ZM40.1747 179.736C39.8317 179.736 39.5547 179.459 39.5547 179.117C39.5547 178.776 39.8317 178.498 40.1747 178.498H42.9577C43.2997 178.498 43.5767 178.775 43.5767 179.117C43.5767 179.459 43.2997 179.736 42.9577 179.736H40.1747ZM42.4347 183.954C42.1937 184.195 41.8017 184.195 41.5587 183.954C41.3177 183.712 41.3177 183.32 41.5587 183.079L43.5267 181.11C43.7687 180.869 44.1607 180.869 44.4017 181.11C44.6437 181.352 44.6437 181.744 44.4017 181.985L42.4347 183.954ZM47.0137 185.338C47.0137 185.68 46.7377 185.957 46.3957 185.957C46.0527 185.957 45.7767 185.68 45.7767 185.338V182.555C45.7767 182.213 46.0527 181.936 46.3957 181.936C46.7377 181.936 47.0137 182.213 47.0137 182.555V185.338ZM51.2337 183.079C51.4737 183.32 51.4737 183.712 51.2337 183.954C50.9907 184.195 50.5987 184.195 50.3577 183.954L48.3887 181.986C48.1477 181.744 48.1477 181.352 48.3887 181.111C48.6317 180.87 49.0227 180.87 49.2637 181.111L51.2337 183.079ZM52.6167 178.498C52.9587 178.498 53.2367 178.775 53.2367 179.117C53.2367 179.459 52.9587 179.736 52.6167 179.736H49.8327C49.4917 179.736 49.2137 179.459 49.2137 179.117C49.2137 178.776 49.4917 178.498 49.8327 178.498H52.6167ZM50.3577 174.28C50.5987 174.039 50.9907 174.039 51.2337 174.28C51.4737 174.522 51.4737 174.914 51.2337 175.156L49.2637 177.124C49.0227 177.366 48.6317 177.366 48.3887 177.124C48.1477 176.883 48.1477 176.49 48.3887 176.249L50.3577 174.28Z" fill="#7A72B3"/>
<path fill-rule="evenodd" clip-rule="evenodd" d="M196.108 284.252C196.108 283.91 196.386 283.633 196.728 283.633C197.069 283.633 197.347 283.91 197.347 284.252V287.035C197.347 287.377 197.069 287.654 196.728 287.654C196.386 287.654 196.108 287.377 196.108 287.035V284.252ZM191.891 286.512C191.648 286.27 191.648 285.878 191.891 285.636C192.131 285.395 192.525 285.395 192.766 285.636L194.734 287.605C194.975 287.846 194.975 288.239 194.734 288.48C194.492 288.721 194.101 288.721 193.86 288.48L191.891 286.512ZM190.506 291.092C190.164 291.092 189.887 290.815 189.887 290.474C189.887 290.131 190.164 289.854 190.506 289.854H193.29C193.631 289.854 193.909 290.131 193.909 290.474C193.909 290.815 193.632 291.092 193.29 291.092H190.506ZM192.766 295.309C192.525 295.551 192.131 295.551 191.891 295.309C191.648 295.068 191.648 294.676 191.891 294.435L193.859 292.466C194.101 292.225 194.492 292.225 194.733 292.466C194.974 292.708 194.974 293.1 194.733 293.342L192.766 295.309ZM197.346 296.695C197.346 297.037 197.068 297.313 196.727 297.313C196.385 297.313 196.107 297.037 196.107 296.695V293.911C196.107 293.569 196.385 293.293 196.727 293.293C197.068 293.293 197.346 293.569 197.346 293.911V296.695ZM201.564 294.435C201.804 294.676 201.804 295.068 201.564 295.309C201.322 295.551 200.93 295.551 200.689 295.309L198.721 293.342C198.479 293.1 198.479 292.708 198.721 292.466C198.963 292.225 199.355 292.225 199.596 292.466L201.564 294.435ZM202.949 289.854C203.291 289.854 203.568 290.131 203.568 290.474C203.568 290.815 203.291 291.092 202.949 291.092H200.165C199.823 291.092 199.546 290.815 199.546 290.474C199.546 290.131 199.823 289.854 200.165 289.854H202.949ZM200.689 285.636C200.931 285.395 201.323 285.395 201.564 285.636C201.804 285.878 201.804 286.27 201.564 286.512L199.595 288.48C199.354 288.721 198.962 288.721 198.72 288.48C198.478 288.239 198.478 287.846 198.72 287.605L200.689 285.636Z" fill="#7A72B3"/>
<path fill-rule="evenodd" clip-rule="evenodd" d="M452.172 208.979L452.793 210.129C452.793 210.129 452.769 211.088 450.083 211.621C447.398 212.154 396.678 215.16 392.5 214.307C388.324 213.453 385.952 211.274 385.174 209.738C384.398 208.201 386.533 205.655 386.533 205.655C386.533 205.655 433.248 194.531 452.172 208.979Z" fill="#DD4586"/>
<path fill-rule="evenodd" clip-rule="evenodd" d="M391.224 193.589L388.458 199.304C388.458 199.304 396.083 261.018 398.128 273.554C400.174 286.091 417.563 302.069 448.081 344.783L454.176 351.858C454.176 351.858 455.114 352.38 455.923 351.81C456.733 351.241 461.762 345.447 461.762 345.447C461.762 345.447 462.765 344.141 461.635 342.527C460.505 340.912 426.535 277.471 421.421 266.455C421.421 266.455 429.191 197.638 426.669 189.689C424.149 181.742 391.224 193.589 391.224 193.589Z" fill="#0C1332"/>
<path fill-rule="evenodd" clip-rule="evenodd" d="M447.826 194.537L451.405 202.343C451.405 202.343 450.043 221.508 441.178 238.983C432.313 256.458 424.47 274.122 422.766 277.351C421.061 280.58 422.766 288.178 419.697 306.982C416.628 325.787 411.429 360.071 411.173 362.255C410.917 364.441 409.98 364.154 408.573 364.154C407.167 364.154 403.629 364.154 401.881 364.154C400.134 364.154 398.941 362.967 398.941 361.637C398.941 360.308 401.795 278.869 402.221 272.222C402.648 265.574 408.103 244.396 410.15 232.24C412.196 220.083 415.434 202.038 408.445 191.972C401.452 181.905 447.826 194.537 447.826 194.537Z" fill="#242B5C"/>
<path fill-rule="evenodd" clip-rule="evenodd" d="M407.232 77.8327C407.232 77.8327 409.024 74.9127 412.369 74.4207C415.716 73.9287 428.115 74.0267 431.705 76.2897C435.298 78.5537 433.329 82.9817 433.329 82.9817L407.232 77.8327Z" fill="#DD4586"/>
<path fill-rule="evenodd" clip-rule="evenodd" d="M402.9 79.2188C402.9 79.2188 392.375 83.5698 388.38 86.8378C384.387 90.1048 365.888 135.951 362.613 144.447C362.613 144.447 361.324 147.8 364.079 149.988C366.835 152.176 371.455 152.095 374.129 150.312C376.804 148.53 385.637 134.266 385.637 134.266L402.9 79.2188Z" fill="#DD4586"/>
<path fill-rule="evenodd" clip-rule="evenodd" d="M427.785 56.3516L427.539 62.1136C427.539 62.1136 427.539 74.3796 427.539 75.7086C427.539 77.0386 428.662 79.1366 430.659 79.1686C435.709 85.5276 430.134 91.8596 426.389 92.4386C422.645 93.0176 404.569 88.6606 403.358 87.6226C402.512 86.8966 407.926 80.3376 407.429 78.2336C407.821 78.1266 407.373 78.2396 407.769 78.1106C408.796 77.7726 409.767 77.2866 410.397 76.5996C412.367 74.4486 412.278 64.8596 410.307 62.3506C408.336 59.8426 427.785 56.3516 427.785 56.3516Z" fill="#EF92A3"/>
<path fill-rule="evenodd" clip-rule="evenodd" d="M404.973 78.3664C406.172 78.0654 408.519 77.4214 409.517 77.3164C410.912 84.6154 418.482 91.9244 429.648 78.4624C435.994 79.5544 455.475 85.0824 456.622 92.2444C456.622 115.487 448.151 131.08 448.151 159.236C448.151 172.11 452.925 192.319 452.794 210.129C441.761 208.787 393.221 199.965 385.175 209.738C384.567 209.182 383.574 206.77 384.415 203.092C394.448 159.275 373.591 89.6434 404.973 78.3664Z" fill="#E85D96"/>
<path fill-rule="evenodd" clip-rule="evenodd" d="M450.26 180.877C451.52 190.315 452.864 200.568 452.793 210.129C450.131 209.806 445.283 209.046 439.35 208.217C439.807 202.365 436.947 189.39 434.146 189.39C430.844 189.39 394.109 189.39 390.474 189.39C388.691 189.39 387.334 190.103 386.414 190.83C386.777 187.5 387.026 184.083 387.188 180.604C395.859 179.371 423.791 177.181 435.053 176.96C443.942 176.788 447.837 178.693 450.26 180.877Z" fill="#DD4586"/>
<path fill-rule="evenodd" clip-rule="evenodd" d="M407.205 77.8404C408.107 77.5974 408.995 77.3764 409.517 77.3164C410.486 84.3094 418.403 90.5654 429.648 78.4624C430.894 78.6964 432.29 78.8254 433.793 79.3714C424.94 94.1824 406.302 95.3714 407.157 78.1084C407.157 78.0824 407.177 77.9784 407.205 77.8404Z" fill="#DD4586"/>
<path fill-rule="evenodd" clip-rule="evenodd" d="M419.353 88.1841C419.498 87.9741 419.787 87.9212 419.998 88.0662C420.209 88.2112 420.262 88.5002 420.116 88.7112C416.074 94.5822 418.266 98.2932 420.611 102.261C422.455 105.381 424.387 108.653 423.736 113.212C423.701 113.466 423.465 113.642 423.212 113.606C422.958 113.569 422.782 113.335 422.818 113.081C423.423 108.844 421.574 105.715 419.812 102.733C417.311 98.5012 414.974 94.5441 419.353 88.1841Z" fill="white"/>
<path fill-rule="evenodd" clip-rule="evenodd" d="M413.563 88.2063C413.561 87.9513 413.765 87.7413 414.021 87.7383C414.277 87.7353 414.486 87.9403 414.49 88.1953C414.491 88.2443 414.898 105.477 403.565 104.704C403.31 104.687 403.117 104.465 403.132 104.21C403.149 103.954 403.371 103.761 403.626 103.778C413.943 104.481 413.564 88.2533 413.563 88.2063Z" fill="white"/>
<path fill-rule="evenodd" clip-rule="evenodd" d="M403.132 105.346C403.759 105.346 404.27 104.834 404.27 104.208C404.27 103.58 403.759 103.07 403.132 103.07C402.506 103.07 401.994 103.58 401.994 104.208C401.994 104.834 402.506 105.346 403.132 105.346Z" fill="white"/>
<path fill-rule="evenodd" clip-rule="evenodd" d="M423.211 114.741C423.838 114.741 424.35 114.23 424.35 113.603C424.35 112.976 423.838 112.465 423.211 112.465C422.584 112.465 422.073 112.976 422.073 113.603C422.073 114.23 422.584 114.741 423.211 114.741Z" fill="white"/>
<path fill-rule="evenodd" clip-rule="evenodd" d="M439.667 45.2009C439.815 45.2209 439.962 45.2459 440.106 45.2749L440.111 45.2759L440.11 45.2749C442.783 45.8349 444.812 48.1799 444.867 51.0269C444.93 54.3349 442.298 57.0689 438.989 57.1309C435.68 57.1939 432.947 54.5619 432.884 51.2539C432.848 49.3309 433.721 47.6029 435.108 46.4799C434.957 48.2489 435.238 50.4379 437.496 50.6579L437.431 47.2029C437.404 45.8049 438.708 45.1619 439.667 45.2009Z" fill="#ED859C"/>
<path fill-rule="evenodd" clip-rule="evenodd" d="M396.418 45.2009C396.27 45.2209 396.123 45.2459 395.979 45.2749L395.974 45.2759L395.975 45.2749C393.302 45.8349 391.273 48.1799 391.218 51.0269C391.155 54.3349 393.787 57.0689 397.096 57.1309C400.405 57.1939 403.138 54.5619 403.202 51.2539C403.238 49.3309 402.365 47.6029 400.977 46.4799C401.129 48.2489 400.848 50.4379 398.59 50.6579L398.655 47.2029C398.682 45.8049 397.377 45.1619 396.418 45.2009Z" fill="#ED859C"/>
<path fill-rule="evenodd" clip-rule="evenodd" d="M418.041 15.2695C429.325 15.2695 438.558 24.5015 438.558 35.7855V54.4455C438.558 65.7295 429.326 74.9605 418.041 74.9605C406.76 74.9605 397.527 65.7295 397.527 54.4455V35.7855C397.528 24.5015 406.76 15.2695 418.041 15.2695Z" fill="#F3C4D2"/>
<path fill-rule="evenodd" clip-rule="evenodd" d="M434.182 23.1556C436.92 26.6436 438.558 31.0326 438.558 35.7846V54.4446C438.558 65.4466 429.779 74.4976 418.878 74.9416C431.817 71.4716 434.358 61.4086 434.358 58.0276C434.358 54.6466 434.358 47.2056 434.358 47.2056C431.474 46.4326 430.839 42.0936 430.839 38.2476C430.839 34.4016 426.697 34.5896 422.935 34.5896C419.173 34.5896 403.769 34.5896 403.769 34.5896C398.114 25.8136 413.891 19.0586 413.891 19.0586C413.891 19.0586 424.653 20.8326 434.182 23.1556Z" fill="#EBA1BD"/>
<path fill-rule="evenodd" clip-rule="evenodd" d="M423.326 60.0243C423.441 62.9543 421.159 65.4233 418.229 65.5383C415.299 65.6533 412.831 63.3723 412.716 60.4423H412.724C412.704 59.9383 413.1 59.5093 413.605 59.4903L422.365 59.1453C422.868 59.1243 423.297 59.5203 423.316 60.0243H423.326Z" fill="white"/>
<path fill-rule="evenodd" clip-rule="evenodd" d="M421.513 64.2297C420.632 65.0007 419.491 65.4857 418.23 65.5357C417.201 65.5767 416.228 65.3207 415.395 64.8457C415.76 63.7407 416.917 62.8787 418.352 62.7697C419.717 62.6637 420.944 63.2737 421.513 64.2297Z" fill="white"/>
<path fill-rule="evenodd" clip-rule="evenodd" d="M413.488 59.5037L421.72 59.1797C421.887 60.0847 421.502 61.0207 420.898 61.2457C420.162 61.5187 414.198 61.5977 413.757 61.1447C413.546 60.9277 413.489 60.1987 413.488 59.5037Z" fill="white"/>
<path fill-rule="evenodd" clip-rule="evenodd" d="M406.41 55.4614C407.9 55.4334 409.132 56.6184 409.16 58.1074C409.187 59.5974 408.003 60.8274 406.514 60.8564C405.025 60.8844 403.793 59.6994 403.765 58.2104C403.737 56.7204 404.922 55.4894 406.41 55.4614Z" fill="#ED859C"/>
<path fill-rule="evenodd" clip-rule="evenodd" d="M429.617 55.02C431.105 54.992 432.337 56.177 432.365 57.666C432.393 59.156 431.208 60.387 429.719 60.415C428.23 60.444 426.998 59.259 426.97 57.769C426.943 56.279 428.127 55.048 429.617 55.02Z" fill="#ED859C"/>
<path fill-rule="evenodd" clip-rule="evenodd" d="M430.75 45.456C431.108 45.635 431.545 45.49 431.725 45.131C431.906 44.772 431.76 44.334 431.402 44.154C429.471 43.159 426.89 43.043 424.996 44.18C424.653 44.386 424.54 44.835 424.745 45.179C424.951 45.522 425.401 45.636 425.745 45.429C427.278 44.511 429.198 44.715 430.75 45.456Z" fill="#0C1332"/>
<path fill-rule="evenodd" clip-rule="evenodd" d="M404.556 45.461C406.112 44.718 408.032 44.514 409.565 45.433C409.907 45.639 410.358 45.526 410.564 45.183C410.768 44.839 410.656 44.3899 410.313 44.1839C408.418 43.0469 405.837 43.1629 403.908 44.1579C403.549 44.3379 403.403 44.7759 403.583 45.1349C403.762 45.4929 404.2 45.639 404.556 45.461Z" fill="#0C1332"/>
<path fill-rule="evenodd" clip-rule="evenodd" d="M406.786 47.9141C405.812 47.9141 405.014 48.7111 405.014 49.6851V51.9951C405.014 52.9691 405.812 53.7661 406.786 53.7661C407.761 53.7661 408.557 52.9691 408.557 51.9951V49.6851C408.558 48.7111 407.761 47.9141 406.786 47.9141Z" fill="#0C1332"/>
<path fill-rule="evenodd" clip-rule="evenodd" d="M428.523 47.9141C429.496 47.9141 430.294 48.7111 430.294 49.6851V51.9951C430.294 52.9691 429.496 53.7661 428.523 53.7661C427.548 53.7661 426.751 52.9691 426.751 51.9951V49.6851C426.751 48.7111 427.548 47.9141 428.523 47.9141Z" fill="#0C1332"/>
<path fill-rule="evenodd" clip-rule="evenodd" d="M426.413 32.1729C430.308 32.1729 432.892 33.2189 432.892 37.6309C432.892 42.0429 433.729 43.6479 436.543 43.6479C436.543 43.6479 436.543 45.1739 436.543 47.1089C436.543 49.0439 436.731 51.0009 438.557 51.0009C438.557 46.8389 439.827 45.2029 439.827 45.2029C439.827 45.2029 439.827 39.6349 439.827 34.7669C439.827 29.8989 438.458 23.3579 432.068 18.8709C423.8 13.0639 412.281 13.0639 404.013 18.8709C397.623 23.3579 396.255 29.8989 396.255 34.7669C396.255 39.6349 396.255 45.2029 396.255 45.2029C396.255 45.2029 397.523 46.8389 397.523 51.0009C399.349 51.0009 399.537 49.0439 399.537 47.1089C399.537 45.1739 399.537 43.6479 399.537 43.6479C402.352 43.6479 403.188 42.0429 403.188 37.6309C403.188 33.2189 407.459 32.1729 409.667 32.1729C415.25 32.1729 422.519 32.1729 426.413 32.1729Z" fill="#242B5C"/>
<path fill-rule="evenodd" clip-rule="evenodd" d="M432.352 34.7445C432.352 34.7445 438.291 30.3325 439.447 26.7605C440.603 23.1895 437.294 18.6195 436.086 17.6745C434.878 16.7285 433.723 18.6195 433.723 18.6195C433.723 18.6195 427.893 13.1045 427.21 9.79553C426.527 6.48653 423.692 8.21953 423.692 8.21953C423.692 8.21953 424.426 1.81153 420.645 0.972533C416.863 0.132533 405.676 4.22853 401.474 16.4125C401.474 16.4125 400.897 14.4165 399.689 14.1545C398.481 13.8915 389.551 25.0795 402.682 33.9025C403.121 34.1975 403.566 34.4735 404.011 34.7315C405.361 32.7265 408.062 32.1715 409.67 32.1715C415.251 32.1715 422.52 32.1715 426.414 32.1715C429.256 32.1715 431.4 32.7295 432.352 34.7445Z" fill="#0C1332"/>
<path fill-rule="evenodd" clip-rule="evenodd" d="M439.378 23.097C439.231 22.579 439.037 22.072 438.819 21.586C431.753 24.972 406.628 24.431 410.436 4.33203C408.122 5.95903 405.834 8.20303 403.981 11.151C405.894 26.331 429.186 29.298 439.378 23.097Z" fill="#1A274C"/>
<path fill-rule="evenodd" clip-rule="evenodd" d="M453.998 88.1797C453.998 88.1797 459.329 91.7297 464.444 97.1857C469.558 102.641 475.184 129.067 475.526 131.454C475.866 133.841 464.955 138.785 461.205 138.785C454.501 138.785 431.602 93.3737 453.998 88.1797Z" fill="#DD4586"/>
<path fill-rule="evenodd" clip-rule="evenodd" d="M477.929 100.848H349.039C347.071 100.848 345.459 102.459 345.459 104.428V183.876C345.459 185.845 347.071 187.456 349.039 187.456H477.929C479.899 187.456 481.509 185.845 481.509 183.876V104.428C481.509 102.459 479.899 100.848 477.929 100.848Z" fill="#253C8E"/>
<path fill-rule="evenodd" clip-rule="evenodd" d="M473.395 100.848H349.039C347.071 100.848 345.459 102.459 345.459 104.428V176.298H469.814C471.784 176.298 473.395 174.687 473.395 172.718V100.848Z" fill="#3551B6"/>
<path fill-rule="evenodd" clip-rule="evenodd" d="M477.929 100.848H349.04C347.071 100.848 345.459 102.459 345.459 104.428V107.48L404.88 162.364C414.481 171.231 411.642 172.013 421.003 163.367L481.509 107.48V104.428C481.509 102.459 479.899 100.848 477.929 100.848Z" fill="#3C2C86"/>
<path fill-rule="evenodd" clip-rule="evenodd" d="M345.459 180.444V183.877C345.459 185.846 347.071 187.457 349.04 187.457H477.929C479.899 187.457 481.509 185.846 481.509 183.877V180.444L420.536 128.812C411.756 121.378 414.417 122.05 405.414 129.675L345.459 180.444Z" fill="#3C2C86"/>
<path fill-rule="evenodd" clip-rule="evenodd" d="M345.544 184.648C345.9 186.249 347.336 187.456 349.04 187.456H477.929C479.633 187.456 481.069 186.249 481.425 184.648L419.857 132.512C411.923 125.794 414.328 126.401 406.192 133.291L345.544 184.648Z" fill="#253C8E"/>
<path fill-rule="evenodd" clip-rule="evenodd" d="M471.221 176.008L419.857 132.512C411.923 125.794 414.328 126.401 406.192 133.291L355.406 176.297H469.814C470.313 176.298 470.789 176.194 471.221 176.008Z" fill="#3551B6"/>
<path fill-rule="evenodd" clip-rule="evenodd" d="M437.882 147.776L419.857 132.512C411.923 125.794 414.328 126.401 406.192 133.291L389.087 147.775L404.881 162.363C414.482 171.23 411.643 172.012 421.004 163.366L437.882 147.776Z" fill="#3C2C86"/>
<path fill-rule="evenodd" clip-rule="evenodd" d="M477.929 100.848H349.04C347.856 100.848 346.802 101.431 346.148 102.324L406.191 157.784C414.327 165.299 411.923 165.962 419.856 158.634L480.821 102.323C480.168 101.431 479.114 100.848 477.929 100.848Z" fill="#3551B6"/>
<path fill-rule="evenodd" clip-rule="evenodd" d="M400.874 19.0378C400.887 19.2368 401.06 19.3878 401.259 19.3748C401.458 19.3608 401.609 19.1888 401.596 18.9898C401.594 18.9608 400.762 8.73278 411.211 2.96478C411.388 2.86778 411.451 2.64878 411.356 2.47278C411.258 2.29778 411.04 2.23378 410.864 2.32978C400.004 8.32478 400.872 19.0068 400.874 19.0378Z" fill="#0C1332"/>
<path fill-rule="evenodd" clip-rule="evenodd" d="M434.807 20.108C434.94 20.257 435.168 20.271 435.318 20.138C435.467 20.005 435.481 19.776 435.348 19.627C435.332 19.608 429.712 13.318 429.256 9.34096C429.234 9.14196 429.054 8.99896 428.857 9.02196C428.658 9.04396 428.515 9.22396 428.538 9.42296C429.02 13.63 434.79 20.09 434.807 20.108Z" fill="#0C1332"/>
<path fill-rule="evenodd" clip-rule="evenodd" d="M465.575 360.788C465.575 360.788 453.366 378.125 451.467 377.732C451.467 377.732 450.34 376.891 449.589 376.331C448.838 375.77 448.338 374.189 449.21 371.553C450.082 368.915 452.083 363.395 452.624 361.643C453.165 359.891 451.104 352.178 450.914 351.16C450.724 350.142 454.657 348.984 455.406 348.667C456.155 348.35 456.672 349.319 457.4 350.302C458.128 351.282 465.575 360.788 465.575 360.788Z" fill="#E85D96"/>
<path fill-rule="evenodd" clip-rule="evenodd" d="M454.328 379.868L474.611 352.695C474.85 352.373 474.785 351.913 474.464 351.673L472.772 350.41C472.45 350.17 471.99 350.236 471.75 350.557L451.467 377.731C451.227 378.053 451.293 378.512 451.615 378.753L453.306 380.016C453.628 380.256 454.088 380.19 454.328 379.868Z" fill="#DDB1CD"/>
<path fill-rule="evenodd" clip-rule="evenodd" d="M454.329 379.866L461.221 370.632C461.462 370.31 461.395 369.851 461.074 369.61L459.383 368.347C459.06 368.107 458.601 368.173 458.36 368.496L451.468 377.729C451.228 378.051 451.295 378.511 451.616 378.752L453.307 380.014C453.628 380.254 454.088 380.188 454.329 379.866Z" fill="#DDB1CD"/>
<path fill-rule="evenodd" clip-rule="evenodd" d="M454.075 360.97C454.473 361.12 456.747 361.502 456.708 362.386C456.669 363.271 456.699 366.216 455.911 367.272C455.123 368.328 453.459 370.556 451.375 373.348C449.29 376.141 448.798 374.768 448.798 374.768C448.914 375.536 449.221 376.054 449.589 376.329C450.34 376.89 451.467 377.73 451.467 377.73L471.748 350.557C471.748 350.557 471.269 348.41 468.125 346.063C464.982 343.716 463.287 342.214 462.441 342.296C461.596 342.376 461.617 342.887 461.617 342.887C461.871 346.364 458.648 347.941 456.923 348.736C456.739 348.82 456.561 348.897 456.387 348.968C454.929 349.57 453.854 349.802 453.679 351.173C453.483 352.708 453.344 358.523 453.311 359.448C453.278 360.373 453.677 360.818 454.075 360.97Z" fill="#E14F8C"/>
<path fill-rule="evenodd" clip-rule="evenodd" d="M450.053 376.675L451.467 377.73L471.749 350.557C471.749 350.557 471.268 348.41 468.125 346.063C464.982 343.716 463.287 342.214 462.441 342.296C463.495 342.985 464.224 344.362 463.523 345.302C462.822 346.24 460.963 348.73 459.481 350.716C457.999 352.702 458.762 353.897 458.762 353.897C458.762 353.897 459.999 356.384 460.866 358.154C461.73 359.925 461.792 361.845 461.133 362.729C460.474 363.611 452.458 374.349 451.38 375.794C450.919 376.411 450.445 376.628 450.053 376.675Z" fill="#DD4586"/>
<path fill-rule="evenodd" clip-rule="evenodd" d="M454.198 352.02C454.363 351.971 454.449 351.817 454.391 351.677C454.332 351.536 454.151 351.462 453.985 351.512L451.435 352.267L451.147 352.175L451.313 352.874L451.43 352.838L453.964 353.643C454.129 353.695 454.313 353.623 454.374 353.486C454.434 353.346 454.351 353.192 454.186 353.139L452.366 352.562L454.198 352.02ZM452.471 358.412C452.44 358.214 452.405 358.011 452.369 357.805L454.138 358.367C454.303 358.419 454.386 358.574 454.326 358.713C454.264 358.853 454.082 358.922 453.917 358.87L452.471 358.412ZM452.364 357.776C452.331 357.597 452.299 357.417 452.264 357.235L453.936 356.74C454.102 356.691 454.284 356.765 454.341 356.906C454.4 357.046 454.314 357.199 454.149 357.249L452.364 357.776ZM451.938 355.623C451.878 355.337 451.816 355.056 451.753 354.779L453.961 354.126C454.126 354.077 454.309 354.151 454.366 354.292C454.426 354.432 454.337 354.585 454.173 354.635L452.342 355.177L454.161 355.754C454.326 355.806 454.41 355.961 454.349 356.101C454.288 356.239 454.106 356.309 453.941 356.258L451.938 355.623Z" fill="white"/>
<path fill-rule="evenodd" clip-rule="evenodd" d="M402.831 380.056H409.716C410.457 380.056 411.065 379.449 411.065 378.706V365.482C411.065 364.74 410.458 364.133 409.716 364.133H402.831C402.089 364.133 401.482 364.739 401.482 365.482V378.707C401.483 379.449 402.089 380.056 402.831 380.056Z" fill="#DD4586"/>
<path fill-rule="evenodd" clip-rule="evenodd" d="M408.069 363.943C408.069 363.943 408.732 361.917 408.846 361.564C408.961 361.212 409.321 359.906 407.545 359.906C405.77 359.906 404.395 359.906 403.239 359.906C402.083 359.906 400.247 360.311 399.53 362.504C398.812 364.697 397.532 368.617 397.095 369.958C396.656 371.298 390.39 374.615 389.458 375.621C388.526 376.626 388.221 377.764 388.278 378C388.336 378.235 400.81 379.642 402.548 378.838C404.284 378.033 406.2 370.427 406.2 370.427L408.069 363.943Z" fill="#E85D96"/>
<path fill-rule="evenodd" clip-rule="evenodd" d="M402.438 380.526L403.698 380.058C403.698 380.058 404.308 379.62 404.587 378.766C404.867 377.912 405.283 376.639 405.506 375.959C405.728 375.277 406.491 375.163 406.885 373.957C407.28 372.751 409.114 367.138 409.619 365.588C410.127 364.038 408.531 363.101 407.579 362.185C406.628 361.268 404.607 362.119 404.017 363.927C403.424 365.737 402.76 367.769 402.264 369.288C401.767 370.806 401.816 371.477 402.625 372.214C403.434 372.951 404.004 373.532 404.251 373.732C404.498 373.933 404.028 374.894 403.399 375.654C402.772 376.414 400.898 378.044 397.726 378.044C394.553 378.044 393.146 378.044 391.56 378.044C389.975 378.044 389.677 377.039 390.145 375.609C390.612 374.18 397.038 373.113 398.099 369.867C399.161 366.621 399.878 364.421 400.119 363.689C400.359 362.955 399.856 362.721 399.643 362.553C399.43 362.386 398.934 362.571 397.64 363.86C396.348 365.15 396.287 366.156 395.554 368.4C394.821 370.645 392.824 372.656 390.51 374.198C388.195 375.739 386.105 376.971 385.096 380.057C384.088 383.145 400.256 383.648 402.438 380.526Z" fill="#E14F8C"/>
<path fill-rule="evenodd" clip-rule="evenodd" d="M407.198 372.998L409.618 365.588C410.126 364.038 408.53 363.101 407.578 362.185C407.507 362.117 407.428 362.057 407.345 362.008C407.372 362.033 407.959 362.633 407.52 363.978C407.07 365.353 406.612 366.757 406.087 368.362C405.594 369.873 405.489 371.283 407.198 372.998ZM398.565 363.009C398.314 363.215 398.01 363.492 397.641 363.86C396.349 365.15 396.288 366.156 395.555 368.4C395.18 369.549 394.473 370.636 393.562 371.631C393.562 371.631 396.286 369.129 396.802 368.205C397.104 367.664 397.931 365.07 398.565 363.009ZM388.285 375.729C386.913 376.776 385.766 378.008 385.096 380.057C384.208 382.772 396.613 383.488 401.095 381.496L397.58 382.116L399.832 380.396C399.832 380.396 399.741 378.877 398.653 378.877C397.563 378.877 390.9 378.877 389.714 378.877C388.53 378.877 387.428 378.353 388.285 375.729Z" fill="#DD4586"/>
<path fill-rule="evenodd" clip-rule="evenodd" d="M402.362 384.144H383.76C383.302 384.144 383.048 383.767 383.198 383.308L383.987 380.891C384.137 380.431 384.637 380.055 385.096 380.055H403.697C404.157 380.055 404.41 380.431 404.26 380.891L403.47 383.308C403.32 383.767 402.821 384.144 402.362 384.144Z" fill="#DDB1CD"/>
<path fill-rule="evenodd" clip-rule="evenodd" d="M409.522 384.148H396.655C396.196 384.148 395.942 383.77 396.093 383.311L396.882 380.895C397.032 380.435 397.532 380.059 397.991 380.059H410.857C411.318 380.059 411.571 380.435 411.42 380.895L410.63 383.311C410.482 383.77 409.982 384.148 409.522 384.148Z" fill="#DDB1CD"/>
<path fill-rule="evenodd" clip-rule="evenodd" d="M399.138 363.803C398.984 363.75 398.948 363.59 399.057 363.446C399.166 363.3 399.38 363.226 399.533 363.278L401.907 364.087L404.808 363.278C404.997 363.226 405.162 363.3 405.176 363.446C405.191 363.591 405.05 363.751 404.861 363.803L402.777 364.383L404.482 364.964C404.635 365.017 404.672 365.177 404.562 365.322C404.453 365.466 404.239 365.541 404.085 365.488L401.711 364.68L398.81 365.488C398.621 365.541 398.456 365.466 398.442 365.322C398.428 365.176 398.568 365.016 398.756 364.964L400.84 364.383L399.138 363.803ZM403.036 368.704C403.225 368.651 403.389 368.725 403.405 368.87C403.419 369.016 403.277 369.176 403.091 369.227L401.006 369.809L402.711 370.389C402.864 370.441 402.9 370.601 402.791 370.746C402.682 370.892 402.468 370.966 402.313 370.913L399.94 370.104L397.038 370.913C396.852 370.966 396.685 370.892 396.671 370.746C396.655 370.6 396.797 370.44 396.986 370.389L399.069 369.809L397.364 369.227C397.211 369.175 397.174 369.015 397.283 368.87C397.393 368.725 397.606 368.651 397.761 368.704L400.135 369.513L403.036 368.704ZM403.923 365.991C404.111 365.938 404.276 366.013 404.291 366.158C404.306 366.303 404.165 366.464 403.976 366.516L401.893 367.096L403.596 367.676C403.75 367.729 403.787 367.89 403.678 368.033C403.569 368.179 403.355 368.253 403.201 368.201L400.827 367.392L397.926 368.201C397.737 368.253 397.573 368.179 397.557 368.033C397.543 367.89 397.684 367.728 397.871 367.676L399.955 367.096L398.25 366.516C398.097 366.463 398.062 366.302 398.17 366.158C398.279 366.013 398.494 365.938 398.648 365.991L401.022 366.8L403.923 365.991Z" fill="white"/>
<path fill-rule="evenodd" clip-rule="evenodd" d="M416.231 54.2744C416.231 54.2744 415.035 55.6814 414.795 56.4884C414.555 57.2964 415.214 58.0144 416.051 57.7754C416.89 57.5364 417.188 55.0224 417.098 54.2444C417.008 53.4664 416.231 54.2744 416.231 54.2744Z" fill="#F7DDE5"/>
<path fill-rule="evenodd" clip-rule="evenodd" d="M454.145 115.176L448.469 120.419L430.369 137.137L427.954 139.367L412.587 153.561C409.629 156.293 408.108 157.915 406.942 158.484C414.184 165.333 412.177 165.726 419.856 158.633L434.611 145.005L437.025 142.775L451.233 129.651L452.343 128.627L470.687 111.683L473.394 109.183L480.821 102.324C480.168 101.431 479.113 100.848 477.928 100.848H469.656L467.589 102.759L454.145 115.176Z" fill="#253C8E"/>
<path fill-rule="evenodd" clip-rule="evenodd" d="M377.881 187.413C377.676 184.078 377.47 180.793 376.804 180.075C376.136 179.357 374.495 179.357 373.879 180.331C373.263 181.307 373.263 181.255 373.263 181.255C373.263 181.255 372.797 179.616 371.208 179.461C369.617 179.308 369.179 181.563 369.179 181.563C369.179 181.563 368.157 179.048 366.772 179.716C365.386 180.383 365.233 181.871 365.233 181.871C365.233 181.871 363.796 179.433 362.847 181.409C361.897 183.384 361.359 186.899 363.205 189.978C363.573 190.591 364.057 190.88 364.619 190.763C364.862 190.711 365.397 190.366 365.721 190.264C366.208 190.91 366.732 191.666 367.643 191.517C368.555 191.369 368.849 190.85 368.849 190.85C370.346 192.579 371.786 192.879 372.928 191.414C376.754 193.542 379.325 191.341 380.856 187.462L377.881 187.413Z" fill="#F1ABBB"/>
<path fill-rule="evenodd" clip-rule="evenodd" d="M377.881 187.414C378.015 188.615 378.034 190.303 377.982 191.484C380.137 190.232 380.883 187.414 380.883 187.414H377.881Z" fill="#ED859C"/>
<path fill-rule="evenodd" clip-rule="evenodd" d="M456.598 187.413C456.393 184.078 456.187 180.793 455.521 180.075C454.854 179.357 453.211 179.357 452.595 180.331C451.98 181.307 451.98 181.255 451.98 181.255C451.98 181.255 451.515 179.616 449.923 179.461C448.334 179.308 447.896 181.563 447.896 181.563C447.896 181.563 446.875 179.048 445.489 179.716C444.103 180.383 443.95 181.871 443.95 181.871C443.95 181.871 442.513 179.433 441.563 181.409C440.614 183.384 440.076 186.899 441.922 189.978C442.29 190.591 442.774 190.88 443.336 190.763C443.579 190.711 444.113 190.366 444.44 190.264C444.926 190.91 445.449 191.666 446.361 191.517C447.273 191.369 447.567 190.85 447.567 190.85C449.062 192.579 450.504 192.879 451.646 191.414C455.47 193.542 458.042 191.341 459.574 187.462L456.598 187.413Z" fill="#F1ABBB"/>
<path fill-rule="evenodd" clip-rule="evenodd" d="M456.598 187.414C456.732 188.615 456.751 190.303 456.699 191.484C458.854 190.232 459.6 187.414 459.6 187.414H456.598Z" fill="#ED859C"/>
</svg>
