<svg width="23" height="22" viewBox="0 0 23 22" fill="none" xmlns="http://www.w3.org/2000/svg">
<path d="M18.2083 0H8.625C5.98 0 3.83333 2.14667 3.83333 4.79167V12.4583C3.83333 15.1033 5.98 17.25 8.625 17.25H18.2083C20.8533 17.25 23 15.1033 23 12.4583V4.79167C23 2.14667 20.8533 0 18.2083 0ZM8.625 1.91667H18.2083C19.0612 1.91667 19.8279 2.29042 20.355 2.875L15.4483 7.78167C14.3271 8.90292 12.5062 8.90292 11.385 7.78167L6.47833 2.875C7.00542 2.28083 7.77208 1.91667 8.625 1.91667ZM18.2083 15.3333H8.625C7.04375 15.3333 5.75 14.0396 5.75 12.4583V4.85875L10.0242 9.13292C10.9537 10.0625 12.19 10.5321 13.4167 10.5321C14.6433 10.5321 15.87 10.0625 16.8092 9.13292L21.0833 4.85875V12.4583C21.0833 14.0396 19.7896 15.3333 18.2083 15.3333ZM18.2083 20.125C18.2083 20.6521 17.7771 21.0833 17.25 21.0833H4.79167C2.14667 21.0833 0 18.9367 0 16.2917V5.75C0 5.22292 0.43125 4.79167 0.958333 4.79167C1.48542 4.79167 1.91667 5.22292 1.91667 5.75V16.2917C1.91667 17.8729 3.21042 19.1667 4.79167 19.1667H17.25C17.7771 19.1667 18.2083 19.5979 18.2083 20.125Z" fill="white"/>
</svg>
