<svg width="26" height="26" viewBox="0 0 26 26" fill="none" xmlns="http://www.w3.org/2000/svg">
<path d="M1.98193 1.96834L3.11907 0.982818C4.42949 -0.327606 6.55217 -0.327606 7.86259 0.982818C7.89508 1.01531 9.89862 3.62533 9.89862 3.62533C11.1332 4.92492 11.1332 6.97178 9.89862 8.26054L8.64235 9.84172C10.2235 13.4264 12.6819 15.8957 16.1475 17.3685L17.7287 16.1014C19.0174 14.856 21.0751 14.856 22.3639 16.1014C22.3639 16.1014 24.9739 18.105 25.0064 18.1375C26.3168 19.4479 26.3168 21.5706 25.0605 22.8268L23.9776 24.0723C22.7321 25.3177 21.0535 26 19.234 26C10.96 26 4.76837e-05 15.0293 4.76837e-05 6.76601C4.76837e-05 4.95741 0.682333 3.26794 1.98193 1.97917V1.96834ZM19.234 23.8232C20.4687 23.8232 21.6058 23.3683 22.3856 22.5777L23.4685 21.3323C23.9126 20.8883 23.9342 20.1627 23.5119 19.697C23.5119 19.697 20.9235 17.7043 20.891 17.6718C20.447 17.2277 19.6672 17.2277 19.2124 17.6718C19.1799 17.7043 17.0031 19.4479 17.0031 19.4479C16.6998 19.6861 16.2991 19.7511 15.9417 19.6103C11.4581 17.8992 8.24164 14.6935 6.38972 10.0691C6.24893 9.71176 6.30308 9.30022 6.55217 8.98615C6.55217 8.98615 8.29579 6.7985 8.31745 6.77684C8.78314 6.31115 8.78314 5.56389 8.31745 5.0982C8.28496 5.06571 6.29225 2.47735 6.29225 2.47735C5.82656 2.05498 5.10095 2.06581 4.60278 2.56399L3.46563 3.54952C2.63173 4.38342 2.16604 5.52057 2.16604 6.75518C2.16604 14.2928 12.7469 23.8232 19.234 23.8232Z" fill="white"/>
</svg>
