<svg width="49" height="46" viewBox="0 0 49 46" fill="none" xmlns="http://www.w3.org/2000/svg">
<path d="M34.1579 34.4047C35.3544 35.6026 35.3544 37.5445 34.1579 38.7403C32.9614 39.9381 31.0216 39.9381 29.8272 38.7403L20.3653 29.2678C19.5669 28.4685 18.2744 28.4685 17.4781 29.2678C16.6798 30.0671 16.6798 31.361 17.4781 32.1582L26.0763 40.766C27.2728 41.9639 27.2728 43.9058 26.0763 45.1016C24.8798 46.2995 22.94 46.2995 21.7456 45.1016L12.2041 35.5494C6.16839 29.6541 0 21.7945 0 14.3089C0 6.41856 5.954 0 13.2719 0C16.8921 0 19.6649 1.35321 21.7762 2.85564L14.3459 10.2309C12.9943 11.582 12.251 13.3809 12.251 15.2921C12.251 17.2034 12.9943 19.0002 14.3419 20.3493C15.6915 21.7025 17.4863 22.4466 19.3975 22.4466C20.2673 22.4466 21.1065 22.2728 21.8987 21.9784L34.1599 34.4067L34.1579 34.4047ZM29.4453 15.3821L25.1738 19.6297L37.6494 31.9313C38.8459 33.1292 40.7857 33.1292 41.9802 31.9313C43.8097 30.0998 42.2436 28.072 42.2436 28.072L29.4453 15.3821ZM35.6443 0.118559C32.308 0.139001 29.1391 1.59033 26.697 3.86749L17.229 13.2827C16.0325 14.4806 16.0325 16.4225 17.229 17.6183C18.4255 18.8162 20.3653 18.8162 21.5598 17.6183L26.6582 12.5489C28.2509 10.9647 30.8195 10.9647 32.4142 12.5489L45.3267 25.3819C47.7586 21.4531 49 17.7737 49 14.4274C49 6.53712 42.9602 0.118559 35.6423 0.118559H35.6443Z" fill="#3551B6"/>
</svg>
