<svg width="40" height="40" viewBox="0 0 40 40" fill="none" xmlns="http://www.w3.org/2000/svg">
<path d="M39.0214 26.8155C39.0214 26.8155 24.4655 20.1992 24.4138 20.1825C23.2005 19.7692 21.8839 20.0742 20.9773 20.9808C20.0707 21.8874 19.7657 23.204 20.2407 24.5656L26.8137 39.0234C27.0787 39.6084 27.657 39.9883 28.3003 40H28.332C28.9619 40 29.5402 39.6433 29.8236 39.0784L32.9084 32.9086L39.0781 29.8238C39.6531 29.5354 40.0114 28.9455 39.9997 28.3022C39.9881 27.6605 39.6081 27.0822 39.0231 26.8155H39.0214ZM30.9202 30.1754C30.5985 30.3371 30.3352 30.5987 30.1752 30.9204L28.402 34.4669L23.3289 23.3407L34.4633 28.4038L30.9218 30.1737L30.9202 30.1754ZM21.519 36.5985C21.2323 36.6235 20.944 36.6418 20.6523 36.6535C19.5391 35.5519 16.6359 32.457 14.6126 28.3338H15.8326C16.7525 28.3338 17.4991 27.5889 17.4991 26.6672C17.4991 25.7456 16.7525 25.0006 15.8326 25.0006H13.2827C12.7977 23.414 12.4994 21.7341 12.4994 20.0008C12.4994 18.2676 12.7994 16.5893 13.286 15.001H26.7137C26.9104 15.646 27.077 16.306 27.2053 16.9793C27.3787 17.8843 28.2536 18.4809 29.1536 18.3042C30.0569 18.1326 30.6502 17.2593 30.4785 16.356C30.3919 15.8977 30.2885 15.446 30.1735 15.001H35.8283C35.8499 15.001 35.8733 15.001 35.8949 15.001C36.3932 16.581 36.6616 18.2609 36.6616 20.0025C36.6616 20.5141 36.6382 21.0191 36.5932 21.5191C36.5116 22.4357 37.1865 23.2457 38.1031 23.329C39.0231 23.419 39.8314 22.7357 39.9131 21.8191C39.9664 21.2208 39.9947 20.6141 39.9947 20.0025C39.9981 8.97129 31.0268 0 19.999 0C8.97123 0 0 8.97129 0 19.9992C0 31.027 8.97123 39.9983 19.9974 39.9983C20.609 39.9983 21.214 39.97 21.8106 39.9167C22.7272 39.835 23.4055 39.0267 23.3239 38.1084C23.2422 37.1935 22.4356 36.5168 21.5173 36.5968L21.519 36.5985ZM9.81952 25.0006H4.16646C4.1448 25.0006 4.12313 25.0006 4.0998 25.0006C3.60149 23.4207 3.33317 21.7408 3.33317 19.9992C3.33317 18.2576 3.60149 16.5776 4.0998 14.9977C4.12147 14.9977 4.14313 14.9977 4.16646 14.9977H9.81952C9.41121 16.5893 9.16622 18.2626 9.16622 19.9975C9.16622 21.7324 9.40954 23.4057 9.81952 24.9973V25.0006ZM14.621 11.6678C16.3225 8.20632 18.6458 5.46144 20.0024 4.0215C21.3606 5.45977 23.6838 8.19966 25.3854 11.6678H14.621ZM34.4283 11.6678H29.0486C27.7303 8.52464 25.9021 5.85476 24.3288 3.9065C28.6269 5.06479 32.2434 7.90134 34.4283 11.6678ZM15.6659 3.9065C14.0926 5.85476 12.2627 8.52464 10.9461 11.6662H5.56973C7.75296 7.89967 11.3678 5.06312 15.6659 3.9065ZM5.56973 28.3322H10.9461C12.2627 31.4754 14.0926 34.1436 15.6659 36.0918C11.3694 34.9335 7.75462 32.097 5.56973 28.3322Z" fill="#3551B6"/>
</svg>
