<svg width="38" height="47" viewBox="0 0 38 47" fill="none" xmlns="http://www.w3.org/2000/svg">
<path d="M34.105 10.8263L27.493 4.15352C24.985 1.62247 21.641 0.22272 18.088 0.22272H9.5C4.256 0.203546 0 4.49866 0 9.79086V36.6353C0 41.9275 4.256 46.2227 9.5 46.2227H28.5C33.744 46.2227 38 41.9275 38 36.6353V20.3177C38 16.7321 36.613 13.3573 34.105 10.8263ZM31.426 13.5299C32.034 14.1435 32.547 14.8146 32.965 15.5432H24.719C23.674 15.5432 22.819 14.6804 22.819 13.6258V5.304C23.541 5.72584 24.206 6.24355 24.814 6.85714L31.426 13.5299ZM34.2 36.6353C34.2 39.7992 31.635 42.3877 28.5 42.3877H9.5C6.365 42.3877 3.8 39.7992 3.8 36.6353V9.79086C3.8 6.62705 6.365 4.03847 9.5 4.03847H18.069C18.373 4.03847 18.696 4.03847 19 4.07682V13.6258C19 16.7896 21.565 19.3782 24.7 19.3782H34.162C34.2 19.685 34.2 19.9918 34.2 20.3177V36.6353ZM25.65 23.2131H12.35C9.728 23.2131 7.6 25.3607 7.6 28.0068V33.7591C7.6 36.4052 9.728 38.5528 12.35 38.5528H25.65C28.272 38.5528 30.4 36.4052 30.4 33.7591V28.0068C30.4 25.3607 28.272 23.2131 25.65 23.2131ZM26.6 33.7591C26.6 34.296 26.182 34.7179 25.65 34.7179H12.35C11.818 34.7179 11.4 34.296 11.4 33.7591V28.0068C11.4 27.4699 11.818 27.048 12.35 27.048H25.65C26.182 27.048 26.6 27.4699 26.6 28.0068V33.7591ZM7.6 17.4607C7.6 16.4061 8.455 15.5432 9.5 15.5432H13.3C14.345 15.5432 15.2 16.4061 15.2 17.4607C15.2 18.5153 14.345 19.3782 13.3 19.3782H9.5C8.455 19.3782 7.6 18.5153 7.6 17.4607Z" fill="white"/>
</svg>
