<svg width="396" height="106" viewBox="0 0 396 106" fill="none" xmlns="http://www.w3.org/2000/svg">
<circle cx="12" cy="53" r="7" fill="#D9D9D9"/>
<g filter="url(#filter0_d_2006_32601)">
<circle cx="12" cy="53" r="3.5" fill="white"/>
</g>
<circle cx="384" cy="53" r="7" fill="#D9D9D9"/>
<g filter="url(#filter1_d_2006_32601)">
<circle cx="384" cy="53" r="3.5" fill="white"/>
</g>
<circle cx="96" cy="53" r="9" fill="#D9D9D9"/>
<g filter="url(#filter2_d_2006_32601)">
<circle cx="96" cy="53" r="4.5" fill="white"/>
</g>
<circle cx="300" cy="53" r="9" fill="#D9D9D9"/>
<g filter="url(#filter3_d_2006_32601)">
<circle cx="300" cy="53" r="4.5" fill="white"/>
</g>
<circle cx="198.74" cy="53.1108" r="23.228" fill="#D9D9D9"/>
<g filter="url(#filter4_d_2006_32601)">
<circle cx="198.111" cy="53.1113" r="25.1113" fill="white"/>
<circle cx="198.111" cy="53.1113" r="24.1113" stroke="#E2E2E2" stroke-width="2"/>
</g>
<line x1="29" y1="52" x2="77" y2="52" stroke="#D5D5D5" stroke-width="2" stroke-linecap="round"/>
<line x1="319" y1="52" x2="367" y2="52" stroke="#D5D5D5" stroke-width="2" stroke-linecap="round"/>
<line x1="115" y1="52" x2="163" y2="52" stroke="#D5D5D5" stroke-width="2" stroke-linecap="round"/>
<line x1="233" y1="52" x2="281" y2="52" stroke="#D5D5D5" stroke-width="2" stroke-linecap="round"/>
<path d="M206.25 53H203.5C202.489 53 201.667 53.8223 201.667 54.8333C201.667 55.8444 200.844 56.6667 199.833 56.6667H196.167C195.156 56.6667 194.333 55.8444 194.333 54.8333C194.333 53.8223 193.511 53 192.5 53H189.75C188.234 53 187 54.2338 187 55.75V59.4167C187 61.9439 189.056 64 191.583 64H204.417C206.944 64 209 61.9439 209 59.4167V55.75C209 54.2338 207.766 53 206.25 53ZM207.167 59.4167C207.167 60.9328 205.933 62.1667 204.417 62.1667H191.583C190.067 62.1667 188.833 60.9328 188.833 59.4167V55.75C188.833 55.244 189.244 54.8333 189.75 54.8333L192.5 54.8315V54.8333C192.5 56.8555 194.145 58.5 196.167 58.5H199.833C201.856 58.5 203.5 56.8555 203.5 54.8333H206.25C206.756 54.8333 207.167 55.244 207.167 55.75V59.4167ZM193.685 48.5276C193.327 48.1692 193.327 47.5898 193.685 47.2314C194.044 46.873 194.623 46.873 194.981 47.2314L197.083 49.3333V42.9167C197.083 42.4098 197.493 42 198 42C198.507 42 198.917 42.4098 198.917 42.9167V49.3333L201.019 47.2314C201.377 46.873 201.956 46.873 202.315 47.2314C202.673 47.5898 202.673 48.1692 202.315 48.5276L199.296 51.5462C198.941 51.9009 198.475 52.0797 198.008 52.0815L198 52.0833L197.992 52.0815C197.525 52.0797 197.059 51.9009 196.704 51.5462L193.685 48.5276Z" fill="#3551B6"/>
<defs>
<filter id="filter0_d_2006_32601" x="0.333333" y="41.3333" width="23.3333" height="23.3333" filterUnits="userSpaceOnUse" color-interpolation-filters="sRGB">
<feFlood flood-opacity="0" result="BackgroundImageFix"/>
<feColorMatrix in="SourceAlpha" type="matrix" values="0 0 0 0 0 0 0 0 0 0 0 0 0 0 0 0 0 0 127 0" result="hardAlpha"/>
<feOffset/>
<feGaussianBlur stdDeviation="4.08333"/>
<feComposite in2="hardAlpha" operator="out"/>
<feColorMatrix type="matrix" values="0 0 0 0 0 0 0 0 0 0 0 0 0 0 0 0 0 0 0.15 0"/>
<feBlend mode="normal" in2="BackgroundImageFix" result="effect1_dropShadow_2006_32601"/>
<feBlend mode="normal" in="SourceGraphic" in2="effect1_dropShadow_2006_32601" result="shape"/>
</filter>
<filter id="filter1_d_2006_32601" x="372.333" y="41.3333" width="23.3333" height="23.3333" filterUnits="userSpaceOnUse" color-interpolation-filters="sRGB">
<feFlood flood-opacity="0" result="BackgroundImageFix"/>
<feColorMatrix in="SourceAlpha" type="matrix" values="0 0 0 0 0 0 0 0 0 0 0 0 0 0 0 0 0 0 127 0" result="hardAlpha"/>
<feOffset/>
<feGaussianBlur stdDeviation="4.08333"/>
<feComposite in2="hardAlpha" operator="out"/>
<feColorMatrix type="matrix" values="0 0 0 0 0 0 0 0 0 0 0 0 0 0 0 0 0 0 0.15 0"/>
<feBlend mode="normal" in2="BackgroundImageFix" result="effect1_dropShadow_2006_32601"/>
<feBlend mode="normal" in="SourceGraphic" in2="effect1_dropShadow_2006_32601" result="shape"/>
</filter>
<filter id="filter2_d_2006_32601" x="81" y="38" width="30" height="30" filterUnits="userSpaceOnUse" color-interpolation-filters="sRGB">
<feFlood flood-opacity="0" result="BackgroundImageFix"/>
<feColorMatrix in="SourceAlpha" type="matrix" values="0 0 0 0 0 0 0 0 0 0 0 0 0 0 0 0 0 0 127 0" result="hardAlpha"/>
<feOffset/>
<feGaussianBlur stdDeviation="5.25"/>
<feComposite in2="hardAlpha" operator="out"/>
<feColorMatrix type="matrix" values="0 0 0 0 0 0 0 0 0 0 0 0 0 0 0 0 0 0 0.15 0"/>
<feBlend mode="normal" in2="BackgroundImageFix" result="effect1_dropShadow_2006_32601"/>
<feBlend mode="normal" in="SourceGraphic" in2="effect1_dropShadow_2006_32601" result="shape"/>
</filter>
<filter id="filter3_d_2006_32601" x="285" y="38" width="30" height="30" filterUnits="userSpaceOnUse" color-interpolation-filters="sRGB">
<feFlood flood-opacity="0" result="BackgroundImageFix"/>
<feColorMatrix in="SourceAlpha" type="matrix" values="0 0 0 0 0 0 0 0 0 0 0 0 0 0 0 0 0 0 127 0" result="hardAlpha"/>
<feOffset/>
<feGaussianBlur stdDeviation="5.25"/>
<feComposite in2="hardAlpha" operator="out"/>
<feColorMatrix type="matrix" values="0 0 0 0 0 0 0 0 0 0 0 0 0 0 0 0 0 0 0.15 0"/>
<feBlend mode="normal" in2="BackgroundImageFix" result="effect1_dropShadow_2006_32601"/>
<feBlend mode="normal" in="SourceGraphic" in2="effect1_dropShadow_2006_32601" result="shape"/>
</filter>
<filter id="filter4_d_2006_32601" x="145.901" y="0.900692" width="104.421" height="104.421" filterUnits="userSpaceOnUse" color-interpolation-filters="sRGB">
<feFlood flood-opacity="0" result="BackgroundImageFix"/>
<feColorMatrix in="SourceAlpha" type="matrix" values="0 0 0 0 0 0 0 0 0 0 0 0 0 0 0 0 0 0 127 0" result="hardAlpha"/>
<feOffset/>
<feGaussianBlur stdDeviation="13.5497"/>
<feComposite in2="hardAlpha" operator="out"/>
<feColorMatrix type="matrix" values="0 0 0 0 0 0 0 0 0 0 0 0 0 0 0 0 0 0 0.15 0"/>
<feBlend mode="normal" in2="BackgroundImageFix" result="effect1_dropShadow_2006_32601"/>
<feBlend mode="normal" in="SourceGraphic" in2="effect1_dropShadow_2006_32601" result="shape"/>
</filter>
</defs>
</svg>
