<svg width="49" height="48" viewBox="0 0 49 48" fill="none" xmlns="http://www.w3.org/2000/svg">
<path fill-rule="evenodd" clip-rule="evenodd" d="M2.78503 20C2.78503 12.5442 8.88963 6.5 16.42 6.5H32.58C40.1104 6.5 46.215 12.5442 46.215 20V28C46.215 35.4558 40.1104 41.5 32.58 41.5H16.42C8.88963 41.5 2.78503 35.4558 2.78503 28V20ZM16.42 9.5C10.5631 9.5 5.81503 14.201 5.81503 20V28C5.81503 33.799 10.5631 38.5 16.42 38.5H32.58C38.437 38.5 43.185 33.799 43.185 28V20C43.185 14.201 38.437 9.5 32.58 9.5H16.42Z" fill="white"/>
<path fill-rule="evenodd" clip-rule="evenodd" d="M13.217 17.063C13.7397 16.4161 14.6931 16.3112 15.3465 16.8288L20.3989 20.8307C22.7966 22.7298 26.2035 22.7298 28.6012 20.8307L33.6537 16.8288C34.307 16.3112 35.2604 16.4161 35.7831 17.063C36.3058 17.7099 36.1998 18.6538 35.5465 19.1714L30.494 23.1733C26.9897 25.949 22.0104 25.949 18.5061 23.1733L13.4537 19.1714C12.8003 18.6538 12.6944 17.7099 13.217 17.063Z" fill="white"/>
</svg>
