<svg width="22" height="22" viewBox="0 0 22 22" fill="none" xmlns="http://www.w3.org/2000/svg">
<path fill-rule="evenodd" clip-rule="evenodd" d="M14.7372 13.5025L19.3866 18.1519C19.55 18.3154 19.6418 18.5372 19.6417 18.7684C19.6416 18.9996 19.5497 19.2213 19.3862 19.3847C19.2226 19.5481 19.0009 19.6399 18.7697 19.6398C18.5385 19.6397 18.3168 19.5478 18.1534 19.3843L13.504 14.7349C12.1141 15.8114 10.3663 16.318 8.6162 16.1516C6.86607 15.9852 5.24506 15.1584 4.08293 13.8392C2.9208 12.5201 2.30485 10.8078 2.36039 9.05066C2.41592 7.29351 3.13877 5.62352 4.38188 4.38041C5.62499 3.1373 7.29498 2.41446 9.05212 2.35892C10.8093 2.30339 12.5216 2.91934 13.8407 4.08147C15.1598 5.2436 15.9867 6.86461 16.1531 8.61474C16.3194 10.3649 15.8129 12.1127 14.7363 13.5025H14.7372ZM9.27116 14.454C10.6464 14.454 11.9652 13.9077 12.9376 12.9353C13.91 11.9629 14.4563 10.644 14.4563 9.26883C14.4563 7.89363 13.91 6.57476 12.9376 5.60235C11.9652 4.62994 10.6464 4.08364 9.27116 4.08364C7.89596 4.08364 6.57709 4.62994 5.60468 5.60235C4.63227 6.57476 4.08597 7.89363 4.08597 9.26883C4.08597 10.644 4.63227 11.9629 5.60468 12.9353C6.57709 13.9077 7.89596 14.454 9.27116 14.454Z" fill="white"/>
</svg>
