<svg width="40" height="40" viewBox="0 0 40 40" fill="none" xmlns="http://www.w3.org/2000/svg">
<path d="M35 20H30C28.1617 20 26.6667 21.495 26.6667 23.3333C26.6667 25.1717 25.1717 26.6667 23.3333 26.6667H16.6667C14.8283 26.6667 13.3333 25.1717 13.3333 23.3333C13.3333 21.495 11.8383 20 10 20H5C2.24333 20 0 22.2433 0 25V31.6667C0 36.2617 3.73833 40 8.33333 40H31.6667C36.2617 40 40 36.2617 40 31.6667V25C40 22.2433 37.7567 20 35 20ZM36.6667 31.6667C36.6667 34.4233 34.4233 36.6667 31.6667 36.6667H8.33333C5.57667 36.6667 3.33333 34.4233 3.33333 31.6667V25C3.33333 24.08 4.08 23.3333 5 23.3333L10 23.33V23.3333C10 27.01 12.99 30 16.6667 30H23.3333C27.01 30 30 27.01 30 23.3333H35C35.92 23.3333 36.6667 24.08 36.6667 25V31.6667ZM12.155 11.8683C11.5033 11.2167 11.5033 10.1633 12.155 9.51167C12.8067 8.86 13.86 8.86 14.5117 9.51167L18.3333 13.3333V1.66667C18.3333 0.745 19.0783 0 20 0C20.9217 0 21.6667 0.745 21.6667 1.66667V13.3333L25.4883 9.51167C26.14 8.86 27.1933 8.86 27.845 9.51167C28.4967 10.1633 28.4967 11.2167 27.845 11.8683L22.3567 17.3567C21.7117 18.0017 20.8633 18.3267 20.015 18.33L20 18.3333L19.985 18.33C19.1367 18.3267 18.2883 18.0017 17.6433 17.3567L12.155 11.8683Z" fill="#3551B6"/>
</svg>
