<svg width="38" height="42" viewBox="0 0 38 42" fill="none" xmlns="http://www.w3.org/2000/svg">
<path d="M22.4575 41.2227C22.0836 41.2227 21.7199 41.1028 21.4208 40.881L14.5095 35.756C14.2949 35.5969 14.1207 35.3905 14.0008 35.1533C13.8808 34.9161 13.8183 34.6545 13.8183 34.3893V24.7885L1.69593 11.3046C0.834988 10.3443 0.272856 9.15863 0.077094 7.89006C-0.118668 6.62148 0.0602722 5.324 0.592406 4.15355C1.12454 2.98311 1.98722 1.98951 3.07677 1.29219C4.16632 0.594856 5.43637 0.223467 6.73427 0.222656L31.2694 0.222656C32.5672 0.224161 33.8369 0.596165 34.926 1.29396C36.0151 1.99176 36.8773 2.98567 37.4088 4.15624C37.9404 5.32681 38.1188 6.62425 37.9225 7.89264C37.7263 9.16103 37.1637 10.3464 36.3025 11.3063L24.1853 24.7885V39.5143C24.1853 39.9674 24.0033 40.4019 23.6792 40.7223C23.3552 41.0427 22.9157 41.2227 22.4575 41.2227ZM17.274 33.5352L20.7297 36.0977V24.1393C20.73 23.7211 20.8855 23.3174 21.1668 23.005L33.7246 9.03595C34.1434 8.56801 34.4166 7.99051 34.5115 7.3728C34.6065 6.75509 34.5191 6.12342 34.2598 5.55361C34.0006 4.9838 33.5805 4.50008 33.0501 4.16052C32.5196 3.82095 31.9013 3.63998 31.2694 3.63932H6.73427C6.10266 3.64027 5.48474 3.82134 4.95461 4.16082C4.42449 4.5003 4.00466 4.98377 3.74549 5.55326C3.48631 6.12274 3.3988 6.75405 3.49343 7.37149C3.58807 7.98892 3.86084 8.56625 4.27903 9.03424L16.8386 23.005C17.1192 23.3177 17.2741 23.7213 17.274 24.1393V33.5352Z" fill="white"/>
</svg>
