<svg width="26" height="26" viewBox="0 0 26 26" fill="none" xmlns="http://www.w3.org/2000/svg">
<path d="M24.9167 23.8333H21.6667V6.49948C21.6667 4.10958 19.7232 2.16603 17.3333 2.16603H16.7537C16.4959 1.72077 16.1579 1.31884 15.7473 0.982999C14.7398 0.157477 13.429 -0.170782 12.1507 0.0848919L8.68725 0.77716C6.16417 1.28201 4.33333 3.5159 4.33333 6.08889V23.8333H1.08333C0.485333 23.8333 0 24.3175 0 24.9166C0 25.5157 0.485333 26 1.08333 26H24.9167C25.5147 26 26 25.5157 26 24.9166C26 24.3175 25.5147 23.8333 24.9167 23.8333ZM17.3333 4.33276C18.5283 4.33276 19.5 5.30453 19.5 6.49948V23.8333H17.3333V4.33276ZM6.5 6.08889C6.5 4.54401 7.5985 3.20389 9.11192 2.90163L12.5743 2.20937C13.2134 2.08045 13.8688 2.24512 14.3737 2.65896C14.8774 3.07172 15.1656 3.68165 15.1656 4.33384V23.8333H6.5V6.08889ZM13 13.5413C13 14.4384 12.272 15.1664 11.375 15.1664C10.478 15.1664 9.75 14.4384 9.75 13.5413C9.75 12.6443 10.478 11.9163 11.375 11.9163C12.272 11.9163 13 12.6443 13 13.5413Z" fill="#3551B6"/>
</svg>
