<svg width="15" height="12" viewBox="0 0 15 12" fill="none" xmlns="http://www.w3.org/2000/svg">
<path d="M1.07143 5.0044H11.7857L8.26071 1.71203C8.16029 1.619 8.08058 1.50832 8.02619 1.38637C7.97179 1.26442 7.94379 1.13362 7.94379 1.00151C7.94379 0.869407 7.97179 0.738607 8.02619 0.61666C8.08058 0.494713 8.16029 0.384032 8.26071 0.291002C8.46146 0.104617 8.73302 0 9.01607 0C9.29913 0 9.57068 0.104617 9.77143 0.291002L14.3679 4.5941C14.7703 4.96772 14.9976 5.47516 15 6.00512C14.9948 6.5316 14.7677 7.03496 14.3679 7.40613L9.77143 11.7092C9.67153 11.8019 9.55307 11.8752 9.42282 11.9251C9.29256 11.975 9.15306 12.0005 9.01228 12C8.8715 11.9995 8.7322 11.9732 8.60233 11.9224C8.47245 11.8717 8.35455 11.7975 8.25536 11.7042C8.15616 11.6109 8.07762 11.5003 8.0242 11.3786C7.97079 11.257 7.94355 11.1267 7.94405 10.9952C7.94454 10.8637 7.97277 10.7336 8.0271 10.6123C8.08143 10.491 8.16082 10.3809 8.26071 10.2882L11.7857 7.00584H1.07143C0.787269 7.00584 0.514746 6.90041 0.313814 6.71273C0.112882 6.52506 0 6.27053 0 6.00512C0 5.73971 0.112882 5.48517 0.313814 5.2975C0.514746 5.10983 0.787269 5.0044 1.07143 5.0044Z" fill="#303C6C"/>
</svg>
