<svg width="28" height="25" viewBox="0 0 28 25" fill="none" xmlns="http://www.w3.org/2000/svg">
<path d="M24.1494 3.85655C23.5629 3.26797 22.8667 2.80107 22.1003 2.48251C21.334 2.16396 20.5126 2 19.6831 2C18.8535 2 18.0321 2.16396 17.2658 2.48251C16.4994 2.80107 15.8032 3.26797 15.2167 3.85655L13.9997 5.07749L12.7826 3.85655C11.5981 2.66822 9.99152 2.00062 8.31633 2.00062C6.64114 2.00062 5.03455 2.66822 3.85001 3.85655C2.66547 5.04489 2 6.65662 2 8.33718C2 10.0177 2.66547 11.6295 3.85001 12.8178L5.06705 14.0387L13.9997 23L22.9323 14.0387L24.1494 12.8178C24.7361 12.2295 25.2015 11.531 25.519 10.7622C25.8366 9.99339 26 9.16936 26 8.33718C26 7.50499 25.8366 6.68096 25.519 5.91216C25.2015 5.14336 24.7361 4.44486 24.1494 3.85655V3.85655Z" stroke="#484848" stroke-width="3" stroke-linecap="round" stroke-linejoin="round"/>
</svg>
