<svg width="15" height="12" viewBox="0 0 15 12" fill="none" xmlns="http://www.w3.org/2000/svg">
<path d="M13.9286 5.0044H3.21429L6.73929 1.71203C6.83971 1.619 6.91942 1.50832 6.97381 1.38637C7.02821 1.26442 7.05621 1.13362 7.05621 1.00151C7.05621 0.869407 7.02821 0.738607 6.97381 0.61666C6.91942 0.494713 6.83971 0.384032 6.73929 0.291002C6.53854 0.104617 6.26698 0 5.98393 0C5.70087 0 5.42932 0.104617 5.22857 0.291002L0.632143 4.5941C0.229728 4.96772 0.00239227 5.47516 0 6.00512C0.0052142 6.5316 0.232333 7.03496 0.632143 7.40613L5.22857 11.7092C5.32847 11.8019 5.44693 11.8752 5.57718 11.9251C5.70744 11.975 5.84694 12.0005 5.98772 12C6.1285 11.9995 6.2678 11.9732 6.39767 11.9224C6.52755 11.8717 6.64545 11.7975 6.74464 11.7042C6.84384 11.6109 6.92238 11.5003 6.9758 11.3786C7.02921 11.257 7.05645 11.1267 7.05595 10.9952C7.05546 10.8637 7.02723 10.7336 6.9729 10.6123C6.91857 10.491 6.83918 10.3809 6.73929 10.2882L3.21429 7.00584H13.9286C14.2127 7.00584 14.4853 6.90041 14.6862 6.71273C14.8871 6.52506 15 6.27053 15 6.00512C15 5.73971 14.8871 5.48517 14.6862 5.2975C14.4853 5.10983 14.2127 5.0044 13.9286 5.0044Z" fill="#303C6C"/>
</svg>
