<svg width="19" height="23" viewBox="0 0 19 23" fill="none" xmlns="http://www.w3.org/2000/svg">
<path d="M9.23475 5.51172C8.50816 5.51172 7.79788 5.72718 7.19375 6.13085C6.58961 6.53452 6.11874 7.10828 5.84068 7.77956C5.56263 8.45085 5.48988 9.18951 5.63163 9.90214C5.77338 10.6148 6.12326 11.2694 6.63704 11.7831C7.15082 12.2969 7.80541 12.6468 8.51805 12.7886C9.23068 12.9303 9.96934 12.8576 10.6406 12.5795C11.3119 12.3014 11.8857 11.8306 12.2893 11.2264C12.693 10.6223 12.9085 9.91203 12.9085 9.18543C12.9085 8.2111 12.5214 7.27668 11.8325 6.58772C11.1435 5.89877 10.2091 5.51172 9.23475 5.51172ZM9.23475 11.0223C8.87146 11.0223 8.51632 10.9146 8.21425 10.7127C7.91218 10.5109 7.67674 10.224 7.53772 9.88837C7.39869 9.55273 7.36231 9.1834 7.43319 8.82708C7.50406 8.47076 7.67901 8.14347 7.9359 7.88658C8.19279 7.62969 8.52008 7.45475 8.8764 7.38387C9.23271 7.313 9.60204 7.34937 9.93769 7.4884C10.2733 7.62743 10.5602 7.86286 10.762 8.16493C10.9639 8.467 11.0716 8.82214 11.0716 9.18543C11.0716 9.6726 10.8781 10.1398 10.5336 10.4843C10.1891 10.8288 9.72192 11.0223 9.23475 11.0223Z" fill="#3551B6"/>
<path d="M9.2348 22.0441C8.46143 22.0481 7.69837 21.8667 7.00951 21.5152C6.32064 21.1636 5.72603 20.6521 5.27545 20.0236C1.77532 15.1954 0 11.5658 0 9.2348C0 6.78558 0.972949 4.43667 2.70481 2.70481C4.43667 0.97295 6.78558 0 9.2348 0C11.684 0 14.0329 0.97295 15.7648 2.70481C17.4967 4.43667 18.4696 6.78558 18.4696 9.2348C18.4696 11.5658 16.6943 15.1954 13.1941 20.0236C12.7436 20.6521 12.149 21.1636 11.4601 21.5152C10.7712 21.8667 10.0082 22.0481 9.2348 22.0441ZM9.2348 2.00493C7.3175 2.00712 5.47936 2.76973 4.12363 4.12546C2.76789 5.4812 2.00528 7.31934 2.00309 9.23664C2.00309 11.0827 3.74168 14.4965 6.8974 18.8489C7.1653 19.2179 7.51676 19.5182 7.92302 19.7253C8.32928 19.9324 8.7788 20.0404 9.2348 20.0404C9.6908 20.0404 10.1403 19.9324 10.5466 19.7253C10.9528 19.5182 11.3043 19.2179 11.5722 18.8489C14.7279 14.4965 16.4665 11.0827 16.4665 9.23664C16.4643 7.31934 15.7017 5.4812 14.346 4.12546C12.9902 2.76973 11.1521 2.00712 9.2348 2.00493Z" fill="#3551B6"/>
</svg>
