<svg width="25" height="20" viewBox="0 0 25 20" fill="none" xmlns="http://www.w3.org/2000/svg">
<path d="M3.2998 2.725C3.2998 2.2675 3.48155 1.82874 3.80505 1.50524C4.12855 1.18174 4.56731 1 5.0248 1H19.9748C20.4323 1 20.8711 1.18174 21.1946 1.50524C21.5181 1.82874 21.6998 2.2675 21.6998 2.725V9.05H3.2998V2.725Z" stroke="black" stroke-width="2" stroke-linecap="round" stroke-linejoin="round"/>
<path d="M2.1499 15.9492V18.2492" stroke="black" stroke-width="2" stroke-linecap="round" stroke-linejoin="round"/>
<path d="M22.8501 15.9492V18.2492" stroke="black" stroke-width="2" stroke-linecap="round" stroke-linejoin="round"/>
<path d="M15.3749 6.17578H9.6249C9.1674 6.17578 8.72864 6.35752 8.40514 6.68102C8.08164 7.00452 7.8999 7.44328 7.8999 7.90078V9.05078H17.0999V7.90078C17.0999 7.44328 16.9182 7.00452 16.5947 6.68102C16.2712 6.35752 15.8324 6.17578 15.3749 6.17578Z" stroke="black" stroke-width="2" stroke-linecap="round" stroke-linejoin="round"/>
<path d="M1 10.7758C1 10.3183 1.18174 9.87952 1.50524 9.55602C1.82874 9.23252 2.2675 9.05078 2.725 9.05078H22.275C22.7325 9.05078 23.1713 9.23252 23.4948 9.55602C23.8183 9.87952 24 10.3183 24 10.7758V15.9508H1V10.7758Z" stroke="black" stroke-width="2" stroke-linecap="round" stroke-linejoin="round"/>
</svg>
