<svg width="12" height="11" viewBox="0 0 12 11" fill="none" xmlns="http://www.w3.org/2000/svg">
<path d="M6.32282 0.322058C6.22048 0.424209 6.13929 0.545501 6.0839 0.679003C6.02851 0.812504 6 0.955598 6 1.10011C6 1.24462 6.02851 1.38771 6.0839 1.52121C6.13929 1.65472 6.22048 1.77601 6.32282 1.87816L9.68922 5.24116C9.75805 5.30992 9.79671 5.40316 9.79671 5.50039C9.79671 5.59761 9.75805 5.69085 9.68922 5.75961L6.32282 9.12188C6.11622 9.32813 6.00011 9.60791 6.00004 9.89967C5.99997 10.1914 6.11595 10.4713 6.32245 10.6776C6.52896 10.884 6.80909 10.9999 7.1012 11C7.39332 11.0001 7.6735 10.8842 7.8801 10.678L11.2472 7.31498C11.4859 7.07665 11.6752 6.79369 11.8044 6.48228C11.9335 6.17087 12 5.83709 12 5.50002C12 5.16294 11.9335 4.82917 11.8044 4.51776C11.6752 4.20634 11.4859 3.92339 11.2472 3.68506L7.8801 0.322058C7.67357 0.115844 7.3935 -6.09117e-08 7.10146 -4.81465e-08C6.80943 -3.53813e-08 6.52935 0.115844 6.32282 0.322058Z" fill="white"/>
<path d="M2.21521 2.20495C2.14699 2.26995 2.09286 2.34714 2.05593 2.43209C2.01901 2.51705 2 2.60811 2 2.70007C2 2.79203 2.01901 2.88309 2.05593 2.96805C2.09286 3.053 2.14699 3.13019 2.21521 3.19519L4.45948 5.33528C4.50536 5.37904 4.53114 5.43838 4.53114 5.50025C4.53114 5.56212 4.50536 5.62145 4.45948 5.66521L2.21521 7.80483C2.07748 7.93608 2.00007 8.11413 2.00003 8.29979C1.99998 8.48545 2.0773 8.66353 2.21497 8.79485C2.35264 8.92616 2.53939 8.99996 2.73414 9C2.92888 9.00004 3.11567 8.92633 3.2534 8.79508L5.49816 6.65499C5.65726 6.50332 5.78347 6.32326 5.86958 6.12509C5.95568 5.92692 6 5.71451 6 5.50001C6 5.28551 5.95568 5.07311 5.86958 4.87494C5.78347 4.67676 5.65726 4.4967 5.49816 4.34504L3.2534 2.20495C3.11572 2.07372 2.929 2 2.73431 2C2.53962 2 2.3529 2.07372 2.21521 2.20495Z" fill="white"/>
<path d="M0.107607 4.08783C0.0734929 4.11569 0.0464307 4.14877 0.027967 4.18518C0.00950324 4.22159 -1.19742e-07 4.26062 -1.18019e-07 4.30003C-1.16297e-07 4.33944 0.00950325 4.37847 0.027967 4.41488C0.0464307 4.45129 0.0734929 4.48437 0.107607 4.51223L1.22974 5.42941C1.25268 5.44816 1.26557 5.47359 1.26557 5.50011C1.26557 5.52662 1.25268 5.55205 1.22974 5.5708L0.107607 6.48779C0.0387387 6.54404 3.57687e-05 6.62034 1.2824e-05 6.69991C-1.01206e-05 6.77948 0.0386487 6.8558 0.107485 6.91208C0.176321 6.96835 0.269696 6.99998 0.367068 7C0.46444 7.00002 0.557833 6.96843 0.626701 6.91218L1.74908 5.995C1.82863 5.92999 1.89173 5.85283 1.93479 5.76789C1.97784 5.68296 2 5.59193 2 5.50001C2 5.40808 1.97784 5.31705 1.93479 5.23212C1.89173 5.14718 1.82863 5.07002 1.74908 5.00502L0.626701 4.08783C0.557858 4.03159 0.464499 4 0.367154 4C0.26981 4 0.17645 4.03159 0.107607 4.08783Z" fill="white"/>
</svg>
