<svg width="86" height="86" viewBox="0 0 86 86" fill="none" xmlns="http://www.w3.org/2000/svg">
<path d="M42.9335 83.8694C65.4759 83.8694 83.8672 65.4775 83.8672 42.9348C83.8672 20.3867 65.4759 2 42.9335 2C20.3862 2.00018 2 20.3867 2 42.9348C2 65.4775 20.3862 83.8694 42.9335 83.8694Z" stroke="#3551B6" stroke-width="4" stroke-miterlimit="10" stroke-linecap="round" stroke-linejoin="round"/>
<path d="M71.5604 13.681C79.1512 21.1099 83.8666 31.4716 83.8666 42.9365C83.8666 43.1088 83.8613 43.2815 83.856 43.4591C83.8039 45.7648 83.4117 49.6228 82.7165 52.5871C82.6799 52.7492 82.638 52.9164 82.5963 53.0784L67.8487 50.0568C70.9486 58.5051 69.689 63.1631 63.6979 63.7017C57.3672 63.1527 51.0414 59.8956 44.7107 53.021C41.6471 60.3871 35.9122 59.1533 35.5148 67.1103L37.444 83.5052L37.4387 83.5001C36.6964 83.4008 35.9593 83.2806 35.2274 83.1447L35.1019 83.1183C34.1348 82.9303 33.1834 82.7106 32.2475 82.4596L32.1273 82.423C31.1863 82.1669 30.2608 81.8793 29.346 81.5605L29.2466 81.5239C28.3318 81.1997 27.4274 80.839 26.544 80.4523L26.4602 80.4157C25.5715 80.0288 24.6986 79.6053 23.8463 79.1556L23.7782 79.1191C22.9208 78.6643 22.0792 78.178 21.2585 77.6658L21.2115 77.6344C20.3907 77.1169 19.5856 76.573 18.8016 75.998L18.765 75.9719C17.9756 75.3967 17.2071 74.7903 16.4648 74.1577L16.4492 74.1473C10.2542 68.888 5.64855 61.8146 3.44769 53.7478H3.44238L16.5328 42.3405C25.2318 40.1186 27.4067 45.0642 32.8488 40.5629C35.8913 34.0593 32.7182 23.5826 25.7285 23.9539L15.0482 26.9182L8.67022 20.5349C9.39153 19.4372 10.1602 18.3705 10.9808 17.3512L10.9915 17.3355C11.2318 17.0375 11.4724 16.7448 11.7181 16.4572L11.7442 16.4259C11.9063 16.2377 12.0684 16.0494 12.2358 15.8614L12.3038 15.7829C12.5233 15.5372 12.7428 15.2914 12.9677 15.051C13.0043 15.0144 13.0357 14.9778 13.0721 14.9412C13.2289 14.7738 13.391 14.6066 13.5479 14.4393C13.6003 14.3869 13.6473 14.3399 13.6943 14.2929C13.8825 14.1047 14.0655 13.9164 14.2537 13.7284C14.3269 13.6603 14.4 13.5925 14.4681 13.5193C14.6197 13.373 14.7714 13.2317 14.9229 13.0907C15.0065 13.0122 15.0849 12.9339 15.1685 12.8607C15.3096 12.7299 15.4508 12.5993 15.5918 12.4738C15.7069 12.3694 15.8271 12.2647 15.9422 12.1654C16.0781 12.0399 16.2193 11.925 16.355 11.8047C16.4752 11.7053 16.5903 11.606 16.7053 11.5067C16.8202 11.4125 16.9406 11.3131 17.0557 11.2191C17.1916 11.104 17.3328 10.9943 17.4738 10.8845C17.5993 10.7852 17.7248 10.6859 17.8503 10.5865C18.002 10.4662 18.1587 10.346 18.3155 10.2311C18.4044 10.163 18.4985 10.0952 18.5874 10.0271C18.7494 9.90693 18.9115 9.78674 19.0736 9.67168C19.1835 9.5932 19.288 9.52003 19.3977 9.44174C19.5756 9.31624 19.7532 9.19606 19.931 9.07056C20.0146 9.01825 20.0984 8.96081 20.1767 8.90849C20.3596 8.783 20.5425 8.66281 20.7255 8.54774C20.8195 8.485 20.9137 8.42756 21.0077 8.36481C21.2013 8.23932 21.3999 8.11383 21.6037 7.99364C21.6769 7.94663 21.7554 7.89961 21.8286 7.85772C22.0272 7.73754 22.2312 7.61717 22.4299 7.50228C22.5083 7.45527 22.5866 7.40807 22.6651 7.36637C22.8846 7.24087 23.1094 7.11538 23.329 6.98989C23.3968 6.95861 23.4649 6.92184 23.5276 6.88525C23.7471 6.77037 23.9667 6.65 24.1864 6.54024C24.2544 6.50366 24.317 6.47238 24.3797 6.44091C24.6203 6.31542 24.8607 6.19523 25.1012 6.08017C25.164 6.04889 25.2267 6.02273 25.2895 5.99126C25.5194 5.8815 25.7546 5.77174 25.9901 5.66198C26.0424 5.64113 26.0945 5.61497 26.1522 5.58881C26.4031 5.47393 26.6592 5.36399 26.9207 5.25423C26.9781 5.22807 27.0355 5.20191 27.0985 5.17575C27.3388 5.07642 27.5847 4.97709 27.8251 4.88306C27.8774 4.8622 27.9244 4.84117 27.9767 4.82031C32.6713 8.08255 36.54 12.8348 38.1867 21.5811C43.5243 20.9851 47.419 13.6503 53.253 17.6759C59.4947 21.1569 65.8414 17.5027 71.5604 13.681Z" stroke="#3551B6" stroke-width="4" stroke-miterlimit="10" stroke-linecap="round" stroke-linejoin="round"/>
</svg>
