<svg width="29" height="28" viewBox="0 0 29 28" fill="none" xmlns="http://www.w3.org/2000/svg">
<g clip-path="url(#clip0_4356_3510)">
<path d="M28.227 14.3213C28.227 13.3696 28.1499 12.4128 27.9853 11.4766H14.78V16.8677H22.342C22.0283 18.6065 21.02 20.1446 19.5436 21.122V24.6201H24.0551C26.7044 22.1817 28.227 18.5807 28.227 14.3213Z" fill="#4285F4"/>
<path d="M14.78 28.0009C18.5559 28.0009 21.7402 26.7611 24.0602 24.6211L19.5487 21.1231C18.2935 21.977 16.6731 22.4606 14.7852 22.4606C11.1328 22.4606 8.03596 19.9965 6.92481 16.6836H2.26929V20.2897C4.64592 25.0172 9.48663 28.0009 14.78 28.0009Z" fill="#34A853"/>
<path d="M6.91966 16.6851C6.33322 14.9464 6.33322 13.0636 6.91966 11.3248V7.71875H2.26928C0.283612 11.6747 0.283612 16.3353 2.26928 20.2912L6.91966 16.6851Z" fill="#FBBC04"/>
<path d="M14.78 5.54127C16.776 5.51041 18.7051 6.26146 20.1506 7.64012L24.1477 3.64305C21.6167 1.26642 18.2575 -0.0402103 14.78 0.000943444C9.48663 0.000943444 4.64592 2.98459 2.26929 7.71728L6.91966 11.3234C8.02567 8.00536 11.1276 5.54127 14.78 5.54127Z" fill="#EA4335"/>
</g>
<defs>
<clipPath id="clip0_4356_3510">
<rect width="28" height="28" fill="white" transform="translate(0.5)"/>
</clipPath>
</defs>
</svg>
