<svg width="44" height="44" viewBox="0 0 44 44" fill="none" xmlns="http://www.w3.org/2000/svg">
<path d="M28.5982 12.3145C29.062 11.363 29.3333 10.2997 29.3333 9.16667H32.0833C33.6013 9.16667 34.8333 10.3987 34.8333 11.9167V19.1015C33.6527 18.5918 32.3803 18.3388 31.1043 18.3498V16.8062C30.9283 14.9728 29.9933 13.3705 28.5982 12.3145ZM12.8902 18.3388V16.8447C13.057 14.9948 13.9957 13.3778 15.4 12.3145C14.9362 11.363 14.6648 10.2997 14.6648 9.16667H11.9148C10.3968 9.16667 9.16483 10.3987 9.16483 11.9167V19.0887C9.174 19.0887 9.18317 19.0868 9.19417 19.085C10.3675 18.5808 11.6288 18.3315 12.8902 18.3388ZM18.9383 20.6708L22 23.4868L25.0067 20.7185C25.7693 20.0365 26.6127 19.503 27.5 19.1162V17.4148C27.5 15.8968 26.268 14.6648 24.75 14.6648H19.25C17.732 14.6648 16.5 15.8968 16.5 17.4148V19.0997C17.369 19.4792 18.194 20.0017 18.9383 20.6672V20.6708ZM14.6667 7.33333C16.6925 7.33333 18.3333 5.6925 18.3333 3.66667C18.3333 1.64083 16.6925 0 14.6667 0C12.6408 0 11 1.64083 11 3.66667C11 5.6925 12.6408 7.33333 14.6667 7.33333ZM22 12.8333C24.0258 12.8333 25.6667 11.1925 25.6667 9.16667C25.6667 7.14083 24.0258 5.5 22 5.5C19.9742 5.5 18.3333 7.14083 18.3333 9.16667C18.3333 11.1925 19.9742 12.8333 22 12.8333ZM29.3333 7.33333C31.3592 7.33333 33 5.6925 33 3.66667C33 1.64083 31.3592 0 29.3333 0C27.3075 0 25.6667 1.64083 25.6667 3.66667C25.6667 5.6925 27.3075 7.33333 29.3333 7.33333ZM34.2962 24.0185C32.9413 21.7195 29.9145 21.3473 28.05 23.0413L24.7262 26.059L26.3285 27.5147C28.0115 29.0437 29.0143 31.1575 29.238 33.4033L33.7975 28.7613C34.903 27.4267 35.1762 25.5127 34.2962 24.0203V24.0185ZM44 11.9167V34.6317C44 36.4613 43.3162 38.2268 42.0805 39.578L38.0417 44H29.3333V38.4652L36.7272 30.9705C37.9903 29.4452 38.5697 27.5403 38.4798 25.6667H38.5V11.9167C38.5 10.3987 39.732 9.16667 41.25 9.16667C42.768 9.16667 44 10.3987 44 11.9167ZM25.6667 34.298V44H5.95833L1.9195 39.578C0.685667 38.2268 0 36.4632 0 34.6317V11.9167C0 10.3987 1.232 9.16667 2.75 9.16667C4.268 9.16667 5.5 10.3987 5.5 11.9167V25.6667H5.52017C5.4285 27.5403 6.00967 29.4452 7.27283 30.9705L13.574 37.3358L16.148 34.7618L10.2025 28.7577C9.097 27.423 8.82383 25.509 9.70383 24.0167C11.0587 21.7177 14.0855 21.3455 15.95 23.0395L23.8645 30.2262C25.0122 31.2693 25.6667 32.747 25.6667 34.298Z" fill="#3551B6"/>
</svg>
