<svg width="76" height="76" viewBox="0 0 76 76" fill="none" xmlns="http://www.w3.org/2000/svg">
<path d="M37.9997 17.4169L36.2884 19.0639C36.7362 19.5291 37.354 19.7919 37.9997 19.7919C38.6454 19.7919 39.2632 19.5291 39.7109 19.0639L37.9997 17.4169ZM22.1683 51.9978C21.1555 51.1643 19.6588 51.3097 18.8252 52.3223C17.9917 53.335 18.137 54.8319 19.1498 55.6654L22.1683 51.9978ZM7.41598 42.468C8.04535 43.6188 9.4885 44.0415 10.6393 43.412C11.7901 42.7825 12.2128 41.3394 11.5834 40.1886L7.41598 42.468ZM8.70801 28.9324C8.70801 22.1213 12.5567 16.4096 17.8101 14.0082C22.9139 11.6753 29.7716 12.2931 36.2884 19.0639L39.7109 15.7699C31.9783 7.73607 23.0026 6.41199 15.8354 9.68813C8.81792 12.8958 3.95801 20.3442 3.95801 28.9324H8.70801ZM26.9082 61.7479C28.5302 63.0266 30.2716 64.3902 32.0362 65.4213C33.8004 66.452 35.8134 67.2899 37.9997 67.2899V62.5399C37.0193 62.5399 35.8657 62.1577 34.4327 61.3201C33.0005 60.4832 31.5146 59.3308 29.8488 58.0176L26.9082 61.7479ZM49.0912 61.7479C53.6088 58.1864 59.3835 54.1058 63.9135 49.005C68.5248 43.8126 72.0413 37.3732 72.0413 28.9324H67.2913C67.2913 35.8908 64.4439 41.2542 60.3617 45.851C56.1982 50.5392 50.9501 54.2341 46.1507 58.0176L49.0912 61.7479ZM72.0413 28.9324C72.0413 20.3442 67.1815 12.8958 60.1638 9.68813C52.9967 6.41199 44.0211 7.73607 36.2884 15.7699L39.7109 19.0639C46.2276 12.2931 53.0854 11.6753 58.1891 14.0082C63.4426 16.4096 67.2913 22.1213 67.2913 28.9324H72.0413ZM46.1507 58.0176C44.4847 59.3308 42.9989 60.4832 41.5666 61.3201C40.1337 62.1577 38.9801 62.5399 37.9997 62.5399V67.2899C40.1859 67.2899 42.199 66.452 43.9631 65.4213C45.7279 64.3902 47.469 63.0266 49.0912 61.7479L46.1507 58.0176ZM29.8488 58.0176C27.3285 56.0308 24.7671 54.1365 22.1683 51.9978L19.1498 55.6654C21.779 57.8292 24.5563 59.8939 26.9082 61.7479L29.8488 58.0176ZM11.5834 40.1886C9.80621 36.9393 8.70801 33.2587 8.70801 28.9324H3.95801C3.95801 34.1178 5.28785 38.5768 7.41598 42.468L11.5834 40.1886Z" fill="#FE5D26"/>
</svg>
