<svg width="25" height="24" viewBox="0 0 25 24" fill="none" xmlns="http://www.w3.org/2000/svg">
<path d="M14.4109 24C14.0718 23.9986 13.7409 23.8966 13.4598 23.7071C13.1787 23.5176 12.9601 23.249 12.8316 22.9352C12.7032 22.6215 12.6707 22.2767 12.7382 21.9444C12.8057 21.6122 12.9702 21.3075 13.2109 21.0687L21.0962 13.2177C21.2569 13.0584 21.3844 12.8688 21.4714 12.6599C21.5584 12.451 21.6032 12.227 21.6032 12.0007C21.6032 11.7744 21.5584 11.5503 21.4714 11.3414C21.3844 11.1325 21.2569 10.9429 21.0962 10.7836L13.2109 2.93262C13.0503 2.77326 12.9227 2.58367 12.8357 2.37478C12.7487 2.16589 12.7039 1.94184 12.7039 1.71555C12.7039 1.48925 12.7487 1.2652 12.8357 1.05631C12.9227 0.847419 13.0503 0.657829 13.2109 0.498473C13.5321 0.179204 13.9666 0 14.4194 0C14.8723 0 15.3068 0.179204 15.6279 0.498473L23.496 8.36659C24.4591 9.33082 25 10.6379 25 12.0007C25 13.3634 24.4591 14.6705 23.496 15.6347L15.6279 23.5029C15.4678 23.6617 15.2778 23.7874 15.0689 23.8727C14.8601 23.958 14.6365 24.0013 14.4109 24Z" fill="#303C6C"/>
<path d="M2.41159 24C2.07257 23.9985 1.74159 23.8966 1.46049 23.7071C1.17939 23.5176 0.960801 23.249 0.832364 22.9352C0.703928 22.6215 0.671411 22.2767 0.738925 21.9444C0.806438 21.6122 0.97095 21.3074 1.21166 21.0687L10.2797 12.0007L1.21166 2.93262C1.05099 2.77326 0.923465 2.58367 0.836438 2.37478C0.749411 2.16589 0.704606 1.94184 0.704606 1.71555C0.704606 1.48925 0.749411 1.2652 0.836438 1.05631C0.923465 0.847419 1.05099 0.657828 1.21166 0.498473C1.53283 0.179204 1.9673 0 2.42016 0C2.87302 0 3.30749 0.179204 3.62866 0.498473L13.9138 10.7836C14.0744 10.9429 14.202 11.1325 14.289 11.3414C14.376 11.5503 14.4208 11.7744 14.4208 12.0007C14.4208 12.227 14.376 12.451 14.289 12.6599C14.202 12.8688 14.0744 13.0584 13.9138 13.2177L3.62866 23.5029C3.46849 23.6617 3.27853 23.7874 3.06968 23.8727C2.86083 23.958 2.63719 24.0013 2.41159 24Z" fill="#303C6C"/>
</svg>
