<svg width="25" height="24" viewBox="0 0 25 24" fill="none" xmlns="http://www.w3.org/2000/svg">
<path d="M10.5891 24C10.9282 23.9986 11.2591 23.8966 11.5402 23.7071C11.8213 23.5176 12.0399 23.249 12.1684 22.9352C12.2968 22.6215 12.3293 22.2767 12.2618 21.9444C12.1943 21.6122 12.0298 21.3075 11.7891 21.0687L3.90382 13.2177C3.74315 13.0584 3.61562 12.8688 3.52859 12.6599C3.44157 12.451 3.39676 12.227 3.39676 12.0007C3.39676 11.7744 3.44157 11.5503 3.52859 11.3414C3.61562 11.1325 3.74315 10.9429 3.90382 10.7836L11.7891 2.93262C11.9497 2.77326 12.0773 2.58367 12.1643 2.37478C12.2513 2.16589 12.2961 1.94184 12.2961 1.71555C12.2961 1.48925 12.2513 1.2652 12.1643 1.05631C12.0773 0.847419 11.9497 0.657829 11.7891 0.498473C11.4679 0.179204 11.0334 0 10.5806 0C10.1277 0 9.69324 0.179204 9.37207 0.498473L1.50395 8.36659C0.540922 9.33082 -5.72205e-06 10.6379 -5.72205e-06 12.0007C-5.72205e-06 13.3634 0.540922 14.6705 1.50395 15.6347L9.37207 23.5029C9.53224 23.6617 9.7222 23.7874 9.93105 23.8727C10.1399 23.958 10.3635 24.0013 10.5891 24Z" fill="#303C6C"/>
<path d="M22.5884 24C22.9274 23.9985 23.2584 23.8966 23.5395 23.7071C23.8206 23.5176 24.0392 23.249 24.1676 22.9352C24.2961 22.6215 24.3286 22.2767 24.2611 21.9444C24.1936 21.6122 24.029 21.3074 23.7883 21.0687L14.7203 12.0007L23.7883 2.93262C23.949 2.77326 24.0765 2.58367 24.1636 2.37478C24.2506 2.16589 24.2954 1.94184 24.2954 1.71555C24.2954 1.48925 24.2506 1.2652 24.1636 1.05631C24.0765 0.847419 23.949 0.657828 23.7883 0.498473C23.4672 0.179204 23.0327 0 22.5798 0C22.127 0 21.6925 0.179204 21.3713 0.498473L11.0862 10.7836C10.9256 10.9429 10.798 11.1325 10.711 11.3414C10.624 11.5503 10.5792 11.7744 10.5792 12.0007C10.5792 12.227 10.624 12.451 10.711 12.6599C10.798 12.8688 10.9256 13.0584 11.0862 13.2177L21.3713 23.5029C21.5315 23.6617 21.7215 23.7874 21.9303 23.8727C22.1392 23.958 22.3628 24.0013 22.5884 24Z" fill="#303C6C"/>
</svg>
