<svg width="40" height="40" viewBox="0 0 40 40" fill="none" xmlns="http://www.w3.org/2000/svg">
<path d="M3.33333 4.16667C3.33333 1.865 5.19833 0 7.5 0C9.80167 0 11.6667 1.865 11.6667 4.16667C11.6667 6.46833 9.80167 8.33333 7.5 8.33333C5.19833 8.33333 3.33333 6.46833 3.33333 4.16667ZM11.6667 16.6667C10.7467 16.6667 10 17.4117 10 18.3333V25H6.66667C4.82833 25 3.33333 23.505 3.33333 21.6667V16.6667C3.33333 14.8283 4.82833 13.3333 6.66667 13.3333H23.3333C24.2533 13.3333 25 12.5883 25 11.6667C25 10.745 24.2533 10 23.3333 10H6.66667C2.99 10 0 12.99 0 16.6667V21.6667C0 24.1233 1.35 26.25 3.33333 27.4067V38.3333C3.33333 39.255 4.08 40 5 40C5.92 40 6.66667 39.255 6.66667 38.3333V28.3333H10V38.3333C10 39.255 10.7467 40 11.6667 40C12.5867 40 13.3333 39.255 13.3333 38.3333V18.3333C13.3333 17.4117 12.5867 16.6667 11.6667 16.6667ZM40 31.6667V35C40 37.7567 37.7567 40 35 40H31.6667C30.3817 40 29.22 39.4983 28.3333 38.7C27.4467 39.5 26.285 40 25 40H21.6667C18.91 40 16.6667 37.7567 16.6667 35V31.6667C16.6667 28.91 18.91 26.6667 21.6667 26.6667H21.9733C21.7867 26.1433 21.6667 25.5867 21.6667 25V21.6667C21.6667 18.91 23.91 16.6667 26.6667 16.6667H30C32.7567 16.6667 35 18.91 35 21.6667V25C35 25.5867 34.88 26.1433 34.6933 26.6667H35C37.7567 26.6667 40 28.91 40 31.6667ZM25 25C25 25.92 25.7483 26.6667 26.6667 26.6667H30C30.9183 26.6667 31.6667 25.92 31.6667 25V21.6667C31.6667 20.7467 30.9183 20 30 20H26.6667C25.7483 20 25 20.7467 25 21.6667V25ZM26.6667 35V31.6667C26.6667 30.7467 25.9183 30 25 30H21.6667C20.7483 30 20 30.7467 20 31.6667V35C20 35.92 20.7483 36.6667 21.6667 36.6667H25C25.9183 36.6667 26.6667 35.92 26.6667 35ZM36.6667 31.6667C36.6667 30.7467 35.9183 30 35 30H31.6667C30.7483 30 30 30.7467 30 31.6667V35C30 35.92 30.7483 36.6667 31.6667 36.6667H35C35.9183 36.6667 36.6667 35.92 36.6667 35V31.6667Z" fill="#3551B6"/>
</svg>
