<svg width="20" height="11" viewBox="0 0 20 11" fill="none" xmlns="http://www.w3.org/2000/svg">
<path d="M19.4144 0.586228C19.2287 0.400378 19.0082 0.252948 18.7654 0.15236C18.5227 0.0517728 18.2626 0 17.9998 0C17.7371 0 17.4769 0.0517728 17.2342 0.15236C16.9914 0.252948 16.7709 0.400378 16.5852 0.586228L10.4706 6.69944C10.3456 6.82441 10.1761 6.89462 9.9993 6.89462C9.82253 6.89462 9.65299 6.82441 9.52798 6.69944L3.41477 0.586228C3.03976 0.211042 2.53107 0.000194952 2.0006 6.99347e-05C1.47013 -5.50831e-05 0.961342 0.210552 0.586157 0.585561C0.210972 0.960569 0.000125081 1.46926 5.56337e-08 1.99973C-0.00012497 2.53019 0.210482 3.03899 0.585491 3.41417L6.70003 9.52871C7.13337 9.96209 7.64783 10.3059 8.21404 10.5404C8.78024 10.775 9.3871 10.8957 9.99997 10.8957C10.6128 10.8957 11.2197 10.775 11.7859 10.5404C12.3521 10.3059 12.8666 9.96209 13.2999 9.52871L19.4144 3.41417C19.7894 3.03912 20 2.53052 20 2.0002C20 1.46988 19.7894 0.961275 19.4144 0.586228Z" fill="black"/>
</svg>
