<svg width="16" height="28" viewBox="0 0 16 28" fill="none" xmlns="http://www.w3.org/2000/svg">
<path fill-rule="evenodd" clip-rule="evenodd" d="M15.1865 1.30416C15.1865 0.976531 14.9209 0.710938 14.5933 0.710938H1.30513C0.977508 0.710938 0.711914 0.976531 0.711914 1.30416V11.5791C0.711914 11.7589 0.793457 11.929 0.933629 12.0416L7.57769 17.3786C7.79469 17.5529 8.10371 17.5529 8.32071 17.3786L14.9648 12.0416C15.1049 11.929 15.1865 11.7589 15.1865 11.5791V1.30416Z" fill="white"/>
<path fill-rule="evenodd" clip-rule="evenodd" d="M1.30508 0H14.5932C15.314 0 15.8983 0.584306 15.8983 1.30508V11.58C15.8983 11.9756 15.7189 12.3498 15.4105 12.5975L8.76646 17.9345C8.28906 18.318 7.60924 18.318 7.13184 17.9345L0.487773 12.5975C0.179394 12.3498 0 11.9756 0 11.58V1.30508C0 0.584306 0.584306 0 1.30508 0ZM14.5932 0.711864C14.9208 0.711864 15.1864 0.977458 15.1864 1.30508V11.58C15.1864 11.7598 15.1049 11.9299 14.9647 12.0425L8.32066 17.3795C8.10366 17.5539 7.79465 17.5539 7.57765 17.3795L0.93358 12.0425C0.793407 11.9299 0.711864 11.7598 0.711864 11.58V1.30508C0.711864 0.977458 0.977458 0.711864 1.30508 0.711864H14.5932Z" fill="black"/>
<path fill-rule="evenodd" clip-rule="evenodd" d="M1.42411 11.5257L14.3804 1.54297V11.5257L14.3802 11.5257L7.90204 16.7294L1.42391 11.5257H1.42411Z" fill="#F5BF41"/>
<path fill-rule="evenodd" clip-rule="evenodd" d="M14.3801 11.5257L1.42383 1.54297V11.5257L1.42391 11.5257L7.90204 16.7294L14.3802 11.5257H14.3801Z" fill="#DE3151"/>
<path d="M11.5083 23.7273C11.5083 25.693 9.91473 27.2866 7.94897 27.2866C5.98321 27.2866 4.38965 25.693 4.38965 23.7273C4.38965 21.7615 5.98321 20.168 7.94897 20.168C9.91473 20.168 11.5083 21.7615 11.5083 23.7273Z" fill="white"/>
<path fill-rule="evenodd" clip-rule="evenodd" d="M12.2201 23.7282C12.2201 26.0871 10.3078 27.9994 7.94892 27.9994C5.59001 27.9994 3.67773 26.0871 3.67773 23.7282C3.67773 21.3693 5.59001 19.457 7.94892 19.457C10.3078 19.457 12.2201 21.3693 12.2201 23.7282ZM7.94892 27.2875C9.91468 27.2875 11.5082 25.694 11.5082 23.7282C11.5082 21.7625 9.91468 20.1689 7.94892 20.1689C5.98316 20.1689 4.3896 21.7625 4.3896 23.7282C4.3896 25.694 5.98316 27.2875 7.94892 27.2875Z" fill="black"/>
<path fill-rule="evenodd" clip-rule="evenodd" d="M6.31511 21.2539C5.51241 21.7847 4.98291 22.6954 4.98291 23.7298C4.98291 25.3679 6.31088 26.6959 7.94901 26.6959C9.24124 26.6959 10.3404 25.8696 10.7471 24.7165L6.31511 21.2539Z" fill="#F5BF41"/>
</svg>
