<svg width="33" height="28" viewBox="0 0 33 28" fill="none" xmlns="http://www.w3.org/2000/svg">
<path d="M29.6271 2.4754C28.8427 1.69063 27.9114 1.06809 26.8863 0.643351C25.8612 0.218613 24.7625 0 23.6529 0C22.5434 0 21.4446 0.218613 20.4196 0.643351C19.3945 1.06809 18.4632 1.69063 17.6788 2.4754L16.0508 4.10333L14.4229 2.4754C12.8385 0.890955 10.6895 0.000821275 8.44875 0.000821291C6.208 0.000821308 4.05903 0.890955 2.47458 2.4754C0.890134 4.05985 1.66949e-08 6.20882 0 8.44957C-1.66949e-08 10.6903 0.890134 12.8393 2.47458 14.4237L4.1025 16.0517L16.0508 28L27.9992 16.0517L29.6271 14.4237C30.4119 13.6393 31.0344 12.708 31.4592 11.6829C31.8839 10.6579 32.1025 9.55915 32.1025 8.44957C32.1025 7.33999 31.8839 6.24129 31.4592 5.21622C31.0344 4.19115 30.4119 3.25981 29.6271 2.4754Z" fill="#FF0000"/>
</svg>
