<svg width="108" height="34" viewBox="0 0 108 34" fill="none" xmlns="http://www.w3.org/2000/svg">
<path d="M56.9419 8.49535C56.9419 9.07929 56.7099 9.63933 56.297 10.0522C55.8841 10.4651 55.3241 10.6971 54.7401 10.6971C54.1562 10.6971 53.5962 10.4651 53.1833 10.0522C52.7704 9.63933 52.5384 9.07929 52.5384 8.49535C52.5345 8.20514 52.5888 7.91711 52.6981 7.64823C52.8074 7.37936 52.9694 7.1351 53.1747 6.92987C53.3799 6.72464 53.6242 6.56261 53.893 6.45333C54.1619 6.34404 54.4499 6.28973 54.7401 6.29359C55.3236 6.29527 55.8826 6.52778 56.2952 6.94033C56.7077 7.35287 56.9402 7.91192 56.9419 8.49535ZM47.9148 12.8989V13.4496C47.4992 13.0009 46.991 12.6479 46.4254 12.4151C45.8598 12.1823 45.2503 12.0753 44.6393 12.1015C42.8875 12.1237 41.215 12.8351 39.984 14.0817C38.7531 15.3283 38.0628 17.0096 38.0628 18.7616C38.0628 20.5135 38.7531 22.1949 39.984 23.4415C41.215 24.6881 42.8875 25.3995 44.6393 25.4216C45.2533 25.4511 45.8661 25.3428 46.4328 25.1048C46.9996 24.8667 47.506 24.5049 47.9148 24.0459V24.6243C47.9119 24.6864 47.922 24.7486 47.9445 24.8066C47.967 24.8647 48.0014 24.9174 48.0454 24.9614C48.0894 25.0054 48.1422 25.0398 48.2002 25.0623C48.2583 25.0848 48.3204 25.0949 48.3826 25.092H51.1074V12.4311H48.3794C48.2564 12.4346 48.1395 12.485 48.0525 12.572C47.9655 12.6589 47.9151 12.7759 47.9116 12.8989H47.9148ZM47.9148 21.0181C47.6038 21.4487 47.194 21.7984 46.7199 22.0377C46.2458 22.2771 45.7211 22.3992 45.19 22.3938C44.7001 22.4143 44.2111 22.3356 43.7525 22.1623C43.2938 21.9889 42.875 21.7247 42.5211 21.3853C42.1672 21.0459 41.8857 20.6385 41.6933 20.1875C41.5009 19.7366 41.4018 19.2513 41.4018 18.761C41.4018 18.2707 41.5009 17.7855 41.6933 17.3345C41.8857 16.8835 42.1672 16.4761 42.5211 16.1368C42.875 15.7974 43.2938 15.5331 43.7525 15.3598C44.2111 15.1865 44.7001 15.1078 45.19 15.1283C45.72 15.1289 46.2426 15.2536 46.7158 15.4925C47.189 15.7314 47.5996 16.0778 47.9148 16.504V21.0181ZM53.1433 12.4311H56.3912V25.091H53.1401L53.1433 12.4311ZM101.443 12.1005C100.832 12.0743 100.222 12.1813 99.6567 12.4141C99.0911 12.6468 98.5829 12.9998 98.1673 13.4485V6.34675H94.9173V25.1165H97.6421C97.7651 25.113 97.882 25.0626 97.969 24.9756C98.056 24.8886 98.1064 24.7717 98.1099 24.6487V24.0704C98.5216 24.5257 99.0285 24.885 99.5945 25.1228C100.161 25.3605 100.772 25.4709 101.385 25.4461C103.131 25.4158 104.795 24.7031 106.021 23.4607C107.247 22.2182 107.938 20.5449 107.945 18.7992C107.952 17.0536 107.276 15.3746 106.06 14.1221C104.844 12.8695 103.186 12.143 101.441 12.0983L101.443 12.1005ZM100.92 22.3661C100.388 22.3749 99.8622 22.2543 99.3875 22.0146C98.9129 21.7749 98.5036 21.4235 98.1949 20.9904V16.4774C98.5251 16.0675 98.939 15.7327 99.4089 15.4955C99.8787 15.2582 100.394 15.124 100.92 15.1017C101.41 15.0812 101.899 15.1599 102.357 15.3332C102.816 15.5065 103.235 15.7708 103.589 16.1102C103.942 16.4495 104.224 16.857 104.416 17.3079C104.609 17.7589 104.708 18.2442 104.708 18.7345C104.708 19.2248 104.609 19.71 104.416 20.161C104.224 20.612 103.942 21.0194 103.589 21.3587C103.235 21.6981 102.816 21.9624 102.357 22.1357C101.899 22.309 101.41 22.3867 100.92 22.3661ZM93.2652 17.582V25.1229H90.0194V17.9669C90.0194 15.8757 89.3592 15.022 87.5146 15.022C87.0162 15.0325 86.5256 15.1483 86.0751 15.3618C85.6245 15.5752 85.2242 15.8815 84.9004 16.2605V25.0952H81.6525V12.4311H84.2114C84.3344 12.4346 84.4514 12.485 84.5384 12.572C84.6254 12.6589 84.6758 12.7759 84.6792 12.8989V13.4496C85.1283 12.9992 85.6659 12.6469 86.2581 12.4149C86.8502 12.1828 87.4841 12.0761 88.1196 12.1015C89.4097 12.0671 90.6693 12.4968 91.6694 13.3124C92.8261 14.248 93.2662 15.4589 93.2662 17.5778L93.2652 17.582ZM73.8097 12.1058C73.1986 12.0796 72.5892 12.1866 72.0236 12.4194C71.458 12.6521 70.9498 13.0051 70.5342 13.4538V6.34675H67.2863V25.1165H70.0111C70.134 25.113 70.251 25.0626 70.338 24.9756C70.425 24.8886 70.4754 24.7717 70.4789 24.6487V24.0704C70.8906 24.5257 71.3975 24.885 71.9635 25.1228C72.5296 25.3605 73.141 25.4709 73.7544 25.4461C74.6265 25.4551 75.4914 25.2882 76.2974 24.9552C77.1035 24.6223 77.8341 24.1302 78.4455 23.5084C79.057 22.8866 79.5368 22.1479 79.8562 21.3363C80.1756 20.5248 80.328 19.6573 80.3044 18.7855C80.3432 17.9133 80.2032 17.0423 79.893 16.2262C79.5827 15.4101 79.1088 14.6661 78.5004 14.04C77.892 13.4138 77.1619 12.9187 76.355 12.5852C75.5481 12.2516 74.6816 12.0867 73.8086 12.1005L73.8097 12.1058ZM73.2866 22.3715C72.7549 22.3802 72.2291 22.2596 71.7544 22.0199C71.2797 21.7803 70.8704 21.4288 70.5618 20.9958V16.4827C70.892 16.0728 71.3058 15.738 71.7757 15.5008C72.2456 15.2635 72.7607 15.1293 73.2866 15.107C73.7765 15.0865 74.2654 15.1652 74.7241 15.3386C75.1827 15.5119 75.6016 15.7761 75.9555 16.1155C76.3093 16.4548 76.5909 16.8623 76.7833 17.3133C76.9757 17.7642 77.0748 18.2495 77.0748 18.7398C77.0748 19.2301 76.9757 19.7153 76.7833 20.1663C76.5909 20.6173 76.3093 21.0247 75.9555 21.364C75.6016 21.7034 75.1827 21.9677 74.7241 22.141C74.2654 22.3143 73.7765 22.392 73.2866 22.3715ZM64.5072 12.1058C65.0087 12.0884 65.5101 12.1439 65.9956 12.2706V15.2707C65.9956 15.2707 63.2984 14.3628 61.6197 16.2892V25.1516H58.3697V12.4364H61.0945C61.2175 12.4399 61.3345 12.4903 61.4215 12.5773C61.5084 12.6643 61.5588 12.7812 61.5623 12.9042V13.4549C62.3429 12.6551 63.392 12.1727 64.5072 12.1005V12.1058ZM30.9311 23.963C30.7663 23.5505 30.6005 23.1125 30.4357 22.7521C30.1604 22.1461 29.885 21.5688 29.6649 21.051L29.6373 21.0234C27.326 15.9597 24.8213 10.8406 22.1794 5.80454L22.073 5.61212C21.7977 5.11669 21.5223 4.56599 21.2746 4.0174C20.9496 3.35473 20.5428 2.73541 20.0637 2.17392C19.5596 1.5222 18.9133 0.994258 18.1741 0.630365C17.4349 0.266473 16.6223 0.0762524 15.7984 0.0742188C14.9763 0.0802731 14.1652 0.262806 13.4198 0.609463C12.6744 0.95612 12.0121 1.45881 11.4778 2.08355C11.0173 2.65878 10.6119 3.27599 10.2669 3.92704C9.99152 4.47775 9.71617 5.00081 9.46846 5.52175L9.36214 5.71418C6.77552 10.7779 4.24312 15.8969 1.90422 20.933L1.87657 20.9883C1.62886 21.539 1.38115 22.0887 1.1058 22.6893C0.941011 23.0476 0.775161 23.4601 0.610375 23.9003C0.177517 25.0591 0.03587 26.3066 0.197876 27.533C0.457656 29.2336 1.31534 30.7858 2.61684 31.9107C3.91833 33.0357 5.57833 33.6596 7.29859 33.6705C7.57394 33.6705 7.90458 33.6429 8.17887 33.6152C9.36631 33.4682 10.5099 33.0746 11.5363 32.4596C13.1041 31.5191 14.5155 30.3397 15.7197 28.964C16.9225 30.3411 18.3342 31.5207 19.9032 32.4596C20.935 33.0627 22.0761 33.4555 23.2606 33.6152C23.5359 33.6429 23.8666 33.6705 24.1409 33.6705C25.0782 33.6849 26.0075 33.4971 26.8657 33.1198C28.0208 32.6538 29.0331 31.8924 29.8011 30.9118C30.5691 29.9313 31.0659 28.7661 31.2416 27.533C31.4909 26.3383 31.3829 25.0967 30.9311 23.963ZM15.7389 25.6959C14.1655 23.8733 13.0018 21.7343 12.3262 19.4234C12.1715 18.7469 12.1355 18.0486 12.2199 17.3598C12.2766 16.8517 12.4666 16.3676 12.7706 15.9565C13.108 15.4847 13.5556 15.1026 14.0744 14.8432C14.5932 14.5838 15.1675 14.455 15.7474 14.4681C16.588 14.4286 17.4135 14.7022 18.0642 15.2359C18.715 15.7696 19.1448 16.5256 19.2706 17.3577C19.3694 18.0459 19.3333 18.7468 19.1643 19.4212C18.4793 21.7316 17.3117 23.8702 15.7389 25.6959ZM29.1695 27.2906C29.0512 28.1569 28.7065 28.9768 28.1703 29.6674C27.634 30.358 26.9251 30.895 26.1151 31.2242C25.3052 31.5543 24.4234 31.6682 23.5561 31.5549C22.6506 31.4453 21.7785 31.1453 20.9971 30.6746C19.5414 29.8021 18.2397 28.6954 17.1443 27.399C19.0553 25.2586 20.4498 22.7083 21.2204 19.9443C21.4471 19.0087 21.5015 18.0396 21.3809 17.0845C21.2581 16.2632 20.9474 15.4813 20.473 14.7998C19.9342 14.0435 19.2189 13.4301 18.3893 13.0129C17.5596 12.5957 16.6407 12.3872 15.7123 12.4056C14.7848 12.3933 13.8681 12.6044 13.0394 13.0211C12.2108 13.4378 11.4947 14.0479 10.9515 14.7998C10.4813 15.4837 10.1707 16.2645 10.0426 17.0845C9.89478 18.0394 9.95094 19.0148 10.2073 19.9464C10.9984 22.7106 12.389 25.2664 14.2802 27.432C13.1883 28.7315 11.886 29.8384 10.4274 30.7065C9.64058 31.1653 8.771 31.4644 7.86843 31.5868C7.00122 31.6901 6.12193 31.5765 5.30945 31.2561C4.49876 30.9279 3.78924 30.3912 3.25284 29.7004C2.71643 29.0096 2.37221 28.1892 2.25505 27.3225C2.14174 26.4394 2.24575 25.542 2.55805 24.7082C2.66436 24.3776 2.8334 24.048 2.99819 23.6345C3.2459 23.0838 3.49361 22.5341 3.76896 21.9558L3.79661 21.9005C6.10787 16.892 8.61263 11.7454 11.2003 6.7635L11.3066 6.57107C11.582 6.07564 11.8573 5.52494 12.105 5.02952C12.3614 4.5006 12.6751 4.00147 13.0406 3.54112C13.3745 3.15261 13.7883 2.8408 14.2538 2.62705C14.7193 2.41329 15.2255 2.30263 15.7378 2.30263C16.25 2.30263 16.7562 2.41329 17.2218 2.62705C17.6873 2.8408 18.1011 3.15261 18.435 3.54112C18.8004 4.00147 19.1142 4.5006 19.3705 5.02952C19.6459 5.52494 19.9212 6.07564 20.169 6.57107L20.2753 6.7635C22.8343 11.7719 25.339 16.9186 27.6513 21.9281V21.9558C27.9267 22.5065 28.1468 23.1114 28.4221 23.6345C28.5869 24.047 28.7528 24.3787 28.8623 24.7082C29.1944 25.5259 29.3005 26.4178 29.1695 27.2906Z" fill="#FF5A5F"/>
</svg>
