<svg width="85" height="29" viewBox="0 0 85 29" fill="none" xmlns="http://www.w3.org/2000/svg">
<mask id="mask0_1232_20329" style="mask-type:luminance" maskUnits="userSpaceOnUse" x="0" y="0" width="85" height="29">
<path d="M84.3213 0.492188H0.521484V28.0719H84.3213V0.492188Z" fill="white"/>
</mask>
<g mask="url(#mask0_1232_20329)">
<path d="M2.13656 4.95504H0.477539V4.99641C1.99866 5.59786 2.74438 6.75196 3.34158 9.44098L7.4308 28.3373H8.35684L4.24429 9.28929C3.53252 6.02853 2.78575 5.42495 2.13656 4.95504ZM5.2467 4.95504H3.69163V4.99641C4.38961 5.83335 4.59009 6.86971 5.14275 9.13336L9.29667 28.3373H10.2227L6.06242 9.06759C5.71157 7.71383 5.44061 6.34061 5.25094 4.95504M10.8592 27.0103L11.4744 25.731L8.01846 9.43355C7.40958 6.90365 7.54854 5.74212 7.79676 4.95398H6.45596C6.44016 6.32262 6.61873 7.68657 6.98634 9.00501L10.8592 27.0103ZM12.0971 24.4252L12.7187 23.1247L9.93949 9.71784C9.42078 7.11156 9.64248 5.75697 10.5059 4.99004V4.94867H9.02724C8.57111 5.91608 8.43322 6.89092 8.95829 9.46113L12.0971 24.4252ZM13.3403 21.8338L13.9619 20.528L11.8542 9.79315C11.2729 6.77318 11.9719 5.4536 14.3427 4.99641V4.95504H12.1459C11.5094 5.26584 10.1686 6.22795 10.9228 9.80694L13.3403 21.8338ZM17.4666 13.2777L17.5281 13.3191C19.0005 8.4322 19.4704 6.26932 18.171 4.94867H16.3327V4.99004C18.3852 5.72197 18.8488 7.81696 17.4666 13.2767M17.5907 13.3594L17.6533 13.4008C19.9689 7.91985 20.5693 6.41994 21.524 4.98898V4.94867H19.6433V5.00383C19.8364 7.19536 19.0832 9.20655 17.5907 13.3605M23.2934 4.9561C21.3373 6.09641 20.1758 8.21793 17.7148 13.4422L17.7774 13.4835C20.5969 8.19565 22.2071 6.08793 25.8498 4.99747V4.95504L23.2934 4.9561ZM23.8948 13.6437C23.9028 13.5295 23.8861 13.4149 23.8457 13.3077C23.8053 13.2005 23.7423 13.1033 23.6609 13.0228C23.5796 12.9422 23.4817 12.8802 23.3742 12.8409C23.2666 12.8016 23.1519 12.786 23.0377 12.7951C21.821 12.7951 20.5014 14.7235 19.7059 16.7273H19.7547C20.5566 14.9442 21.7871 13.1685 22.4988 13.1685C22.7959 13.1685 22.99 13.3138 23.0101 13.6872C23.0441 14.469 21.7584 17.3998 21.227 18.6632L17.3224 28.3468H18.2898L22.1594 18.7364C22.7121 17.3468 23.9425 14.5687 23.8948 13.6448M25.6291 13.527C25.6314 13.3266 25.5917 13.1279 25.5124 12.9438C25.4332 12.7597 25.3162 12.5942 25.1691 12.4581C25.022 12.3219 24.8479 12.2182 24.6582 12.1534C24.4685 12.0887 24.2674 12.0645 24.0677 12.0823C21.9664 12.0823 20.3487 14.3353 19.5606 16.7199H19.6019C20.424 14.592 21.8295 12.4556 23.5204 12.4556C23.6756 12.4394 23.8325 12.4565 23.9805 12.5059C24.1286 12.5552 24.2644 12.6355 24.3789 12.7416C24.4934 12.8477 24.5839 12.9769 24.6444 13.1208C24.7049 13.2647 24.7339 13.4198 24.7296 13.5758C24.7911 14.7235 23.6307 17.3224 23.078 18.7661L19.2423 28.3299H20.2076L23.9818 18.8329C24.6108 17.3129 25.7023 14.8243 25.6334 13.5291M27.3688 13.4231C27.3696 13.1333 27.3103 12.8465 27.1944 12.5808C27.0786 12.3152 26.9088 12.0765 26.6959 11.88C26.483 11.6834 26.2315 11.5332 25.9575 11.4389C25.6835 11.3447 25.3929 11.3084 25.1041 11.3323C22.0767 11.3323 20.231 13.945 19.4301 16.7093H19.4715C20.3148 14.1316 22.0565 11.7046 24.5631 11.7046C24.808 11.6857 25.0542 11.7178 25.286 11.799C25.5178 11.8802 25.7303 12.0087 25.9098 12.1764C26.0893 12.3441 26.2321 12.5472 26.3289 12.773C26.4258 12.9987 26.4746 13.2421 26.4724 13.4878C26.5488 14.9325 25.5602 17.2683 24.9036 18.9072L21.1718 28.3267H22.1743L25.8371 18.9411C26.4862 17.2344 27.4473 15.0842 27.3582 13.4114M29.0999 13.3424C29.0959 12.9653 29.0143 12.5931 28.8602 12.2489C28.7061 11.9047 28.4828 11.5959 28.2042 11.3418C27.9256 11.0876 27.5976 10.8936 27.2407 10.7717C26.8839 10.6498 26.5057 10.6027 26.1298 10.6333C22.2803 10.6333 20.0612 13.4973 19.2869 16.7156H19.3357C20.1928 13.7233 22.1562 11.0067 25.5941 11.0067C25.9243 10.977 26.2571 11.0162 26.5714 11.1216C26.8857 11.2271 27.1747 11.3965 27.4202 11.6193C27.6657 11.8421 27.8623 12.1133 27.9977 12.4159C28.1331 12.7186 28.2043 13.0459 28.2068 13.3774C28.3033 15.1956 27.4462 17.1962 26.7631 19.0175L23.1342 28.3267H24.1017L27.6605 19.0981C28.5455 17.3058 29.038 15.3455 29.1052 13.3477M38.5258 12.4143C38.554 12.0945 38.5146 11.7723 38.4101 11.4687C38.3057 11.1651 38.1385 10.8869 37.9196 10.6521C37.7006 10.4173 37.4347 10.2312 37.1391 10.1059C36.8435 9.98057 36.5248 9.91883 36.2038 9.92468C33.9762 9.92468 32.0361 11.6802 30.8544 14.0712C30.8619 13.8017 30.8619 13.5185 30.8481 13.2226C30.8405 12.7599 30.7377 12.3037 30.5462 11.8824C30.3547 11.4611 30.0784 11.0838 29.7347 10.7739C29.391 10.4641 28.9872 10.2283 28.5484 10.0812C28.1096 9.93423 27.6452 9.87913 27.1842 9.91938C22.3599 9.91938 19.9711 13.1017 19.1808 16.7082H19.2222C20.058 13.3287 22.3122 10.2938 26.6475 10.2938C27.0632 10.2562 27.4822 10.3046 27.8783 10.436C28.2745 10.5674 28.6393 10.7791 28.95 11.0578C29.2608 11.3365 29.5108 11.6762 29.6844 12.0558C29.858 12.4353 29.9515 12.8466 29.9592 13.2639C29.9493 15.2951 29.4839 17.2983 28.5971 19.1257L25.0871 28.3235H26.0545L29.5444 19.201C29.7788 18.572 30.0005 17.9917 30.201 17.4179C30.9053 15.9731 31.7561 14.487 32.1984 14.487C32.5304 14.487 32.6344 14.7702 32.6545 15.0259C32.6615 16.3986 32.3038 17.7486 31.6182 18.9379L31.6595 18.9719C32.7273 17.7658 33.3632 16.2387 33.4671 14.6313C33.4395 14.1476 33.239 13.8155 32.7553 13.8155C32.0022 13.8155 31.0486 15.3642 30.3431 16.9978C30.4259 16.7422 30.4948 16.4791 30.5648 16.216C31.318 14.5856 32.3618 13.1886 33.3568 13.1886C33.9508 13.1886 34.304 13.596 34.338 14.2674C34.2666 15.2035 33.9975 16.1139 33.5484 16.9383C33.0993 17.7628 32.4805 18.4827 31.7327 19.0504L31.7741 19.0854C32.7395 18.5855 33.5596 17.8451 34.1553 16.9357C34.7511 16.0263 35.1022 14.9787 35.1749 13.894C35.1261 13.003 34.6562 12.5151 33.9168 12.5151C32.6938 12.5151 31.4973 13.9386 30.6826 15.7079C30.7102 15.569 30.7314 15.4247 30.7579 15.2836C31.6712 13.3828 33.0247 11.8765 34.5183 11.8765C34.7266 11.8767 34.9326 11.9202 35.1231 12.0043C35.3137 12.0884 35.4847 12.2112 35.6252 12.3649C35.7658 12.5187 35.8728 12.7 35.9396 12.8973C36.0063 13.0946 36.0313 13.3036 36.0129 13.5111C36.137 15.8819 33.8977 18.4044 31.859 19.1511L31.9003 19.1851C34.3889 18.5561 36.992 15.8819 36.8488 13.1388C36.7788 11.8393 36.0394 11.2103 35.0794 11.2103C33.3578 11.2103 31.824 12.7654 30.829 14.8254C30.8428 14.7193 30.8428 14.5973 30.8491 14.4796C31.9459 12.2679 33.6792 10.5898 35.6713 10.5898C35.9531 10.5875 36.2324 10.6437 36.4913 10.755C36.7502 10.8663 36.9832 11.0301 37.1755 11.2361C37.3677 11.4422 37.5151 11.6859 37.6082 11.9519C37.7014 12.2179 37.7382 12.5003 37.7165 12.7813C37.8819 15.9328 34.9447 18.608 31.9735 19.271L32.0149 19.305C35.4846 18.8011 38.7125 15.9392 38.5258 12.41M45.2648 28.1761L45.2372 28.2312C50.0403 26.9318 54.5464 18.555 54.9272 14.4499C55.0238 13.3891 54.5613 12.7707 53.7795 12.6667C52.6328 12.5076 51.1669 13.3785 50.1029 14.7405L50.1369 14.7819C50.4681 14.2985 50.9031 13.8952 51.4102 13.6016C51.9173 13.3079 52.4836 13.1313 53.0677 13.0847C53.6204 13.1611 53.9874 13.6448 53.9163 14.4329C53.5843 18.0342 49.4304 26.3897 45.2627 28.1803M45.1874 28.3394L45.1662 28.3808C51.7047 27.6064 56.5354 19.672 57.0201 14.5506C57.1782 12.864 56.3975 11.9656 55.2508 11.8075C53.509 11.5657 51.3387 12.7336 50.0053 14.6132L50.0393 14.6546C51.3186 13.003 53.0943 12.0218 54.504 12.2149C55.5064 12.3528 56.1079 13.107 55.9763 14.4817C55.5404 19.1405 51.1032 27.1047 45.1874 28.3394ZM59.0833 14.5931C59.2954 12.3188 58.2814 11.1509 56.6849 10.9292C54.3894 10.611 51.5933 12.0144 49.9046 14.4817L49.9385 14.5231C51.4872 12.3941 53.9747 11.0745 55.9732 11.3408C57.3415 11.5275 58.2601 12.5638 58.0745 14.5613C57.5441 20.2352 52.1343 28.0244 45.1333 28.4572L45.1121 28.4985C52.9086 28.4572 58.5073 20.7646 59.0875 14.5856M58.1551 10.0594C55.2656 9.66586 51.7757 11.3663 49.8059 14.3449L49.8399 14.3862C51.6994 11.7046 54.8509 10.1146 57.4434 10.4742C59.1851 10.716 60.3732 12.0292 60.1324 14.6111C59.5161 21.1973 53.9673 28.6067 45.0792 28.5792L45.058 28.6269C49.0213 28.7782 52.8938 27.4161 55.8896 24.8169C58.8855 22.2178 60.7805 18.5763 61.19 14.6313C61.4382 11.7768 60.1122 10.3246 58.1551 10.0552M44.1733 28.5717C39.8878 28.3925 37.725 26.2975 37.9392 23.8715C38.0709 22.8878 38.3458 21.9286 38.7549 21.0244L43.7172 8.20414C44.3388 6.613 45.4939 4.18811 44.5806 3.00006L43.4541 3.23449V3.30344C44.4151 4.38117 43.523 6.14415 42.8739 7.93471L37.9318 20.6638C37.5321 21.5421 37.2713 22.4772 37.1585 23.4355C36.9304 26.0874 39.28 28.4741 44.1595 28.6195L44.1733 28.5717ZM44.7747 7.93789L39.5696 21.3565C39.14 22.307 38.8513 23.315 38.7125 24.3489C38.5195 26.5531 40.4405 28.3575 44.2072 28.4953L44.2285 28.454C41.0462 28.2747 39.314 26.7674 39.4869 24.7912C39.6459 23.7314 39.9507 22.6987 40.3928 21.7224L45.7719 7.91349C46.2566 6.64801 47.6812 3.55272 46.9122 2.5153L45.6891 2.76458V2.83353C46.5144 4.01309 45.3412 6.53769 44.7747 7.93789ZM46.8209 7.64724L41.2106 22.0682C40.7615 23.0852 40.4408 24.1542 40.2559 25.2505C40.1042 27.0135 41.5416 28.2206 44.2444 28.4158L44.2582 28.3819C43.7007 28.3191 43.1529 28.1891 42.6267 27.9947C42.1363 27.8716 41.7074 27.5745 41.4199 27.1586C41.1325 26.7427 41.006 26.2364 41.0642 25.7342C41.247 24.6025 41.5698 23.4979 42.0253 22.4459L47.7693 7.70134C48.0599 6.92062 49.6977 3.19524 49.3042 2.05493L48.1225 2.27557V2.34452C48.7441 3.23661 47.1965 6.69362 46.8167 7.65997M42.8558 22.7758C42.3902 23.8636 42.0517 25.0015 41.8471 26.167C41.741 27.4113 42.8283 28.088 44.2942 28.3161L44.3144 28.2747C43.313 28.0944 42.5387 27.6181 42.6278 26.6157C42.8565 25.4236 43.2088 24.2586 43.679 23.1396L49.6606 7.79575C49.8027 7.38842 52.0728 1.89157 51.7482 1.54046L50.524 1.7855V1.85869C50.5728 3.19949 49.0178 6.86228 48.6995 7.7268L42.8558 22.7758ZM44.5011 23.4875C43.9859 24.6145 43.6211 25.8042 43.4159 27.0262C43.4247 27.26 43.4961 27.4872 43.6226 27.684C43.7491 27.8809 43.9261 28.0401 44.1351 28.1453C44.2032 28.1792 44.2742 28.2069 44.3473 28.228L44.3748 28.1665C44.2805 28.0698 44.2105 27.952 44.1709 27.8229C44.1312 27.6937 44.1229 27.557 44.1468 27.424C44.4087 26.1929 44.8046 24.9942 45.3274 23.8492L54.2632 1.04297L53.0327 1.29225C53.1027 1.58289 50.6832 7.53374 50.5792 7.83075L44.5011 23.4875ZM70.2955 28.2418L70.2743 28.2832C74.4208 27.6881 78.6924 18.9867 78.789 13.1876C78.8125 12.4697 78.5573 11.7705 78.0768 11.2366C77.5962 10.7027 76.9277 10.3755 76.2113 10.3235L76.1912 10.3723C76.6957 10.4584 77.1491 10.7319 77.4605 11.1381C77.7719 11.5443 77.9183 12.0532 77.8704 12.5628C77.7738 18.2378 73.6273 27.6255 70.2955 28.245M70.2202 28.4041C75.8878 27.8165 80.4427 20.5248 80.553 14.4912C80.5806 12.8534 79.5092 10.5664 76.275 10.2058L76.2538 10.2472C77.1786 10.2949 78.0495 10.6972 78.6855 11.3705C79.3214 12.0437 79.6734 12.9361 79.6683 13.8622C79.5623 19.7717 75.1209 27.7061 70.2414 28.3617L70.2202 28.4041ZM70.165 28.5219C73.4177 28.3037 76.4711 26.8765 78.7247 24.5209C80.9784 22.1654 82.2693 19.0519 82.3436 15.7928C82.3786 13.7774 80.954 10.471 76.3301 10.0976L76.3089 10.139C80.1383 10.5399 81.4992 13.3393 81.4653 15.1701C81.3592 21.3151 76.5921 27.825 70.1852 28.4826L70.165 28.5219ZM76.3885 9.96605L76.3673 10.0074C81.6965 10.4561 83.2314 14.2441 83.189 16.4494C83.0829 22.8224 78.1366 27.9777 70.1332 28.5792L70.112 28.6205C78.8622 28.0901 83.9909 23.5692 84.1012 17.0784C84.15 14.6938 82.404 10.3182 76.3874 9.97136L76.3885 9.96605ZM62.4194 22.0894C62.5254 15.7514 67.9905 10.5611 75.4826 9.95969L75.5038 9.91832C67.1132 10.437 61.6185 14.9643 61.5082 21.419C61.4668 23.8047 63.2054 28.2206 69.2358 28.5654L69.257 28.524C63.9532 28.158 62.378 24.2873 62.4194 22.0894ZM64.1834 23.3889C64.2895 17.3553 69.2082 10.7266 75.4359 10.07L75.4571 10.0286C72.2281 10.2937 69.2073 11.7301 66.9635 14.0673C64.7197 16.4045 63.4076 19.4813 63.2743 22.7185C63.2404 24.7339 64.6639 28.1506 69.2952 28.455L69.3164 28.4137C65.3004 28.0541 64.1537 25.2208 64.1877 23.3889M65.9432 24.6883C66.0493 18.9241 70.6774 10.838 75.3839 10.1878L75.4052 10.1464C69.8829 10.734 65.1689 18.136 65.0649 24.0179C65.0646 25.1571 65.5136 26.2505 66.3146 27.0606C67.1156 27.8707 68.2038 28.3322 69.3429 28.3447L69.3642 28.3034C68.4343 28.268 67.5553 27.8697 66.9156 27.1939C66.276 26.5182 65.9276 25.6187 65.9432 24.6883ZM67.7051 25.9877C67.8017 20.5344 72.1009 10.9547 75.3288 10.3055L75.3489 10.2641C71.3478 10.8518 66.9244 19.7049 66.8268 25.3269C66.7987 25.6885 66.8437 26.0521 66.9591 26.396C67.0744 26.7399 67.2579 27.057 67.4984 27.3285C67.7389 27.6 68.0316 27.8203 68.3591 27.9763C68.6866 28.1323 69.0421 28.2208 69.4044 28.2365L69.4257 28.1952C69.1655 28.1695 68.9131 28.0913 68.6841 27.9652C68.455 27.8392 68.2539 27.6679 68.093 27.4618C67.9321 27.2556 67.8148 27.019 67.7481 26.7661C67.6814 26.5133 67.6668 26.2496 67.7051 25.9909" fill="#15326F"/>
</g>
</svg>
