<svg width="148" height="29" viewBox="0 0 148 29" fill="none" xmlns="http://www.w3.org/2000/svg">
<mask id="mask0_1232_20337" style="mask-type:luminance" maskUnits="userSpaceOnUse" x="0" y="0" width="148" height="29">
<path d="M147.217 0.492188H0.788086V28.0719H147.217V0.492188Z" fill="white"/>
</mask>
<g mask="url(#mask0_1232_20337)">
<path fill-rule="evenodd" clip-rule="evenodd" d="M5.70497 0.492371H23.606C24.2489 0.48679 24.8865 0.608433 25.4822 0.850296C26.0779 1.09216 26.6198 1.44946 27.0768 1.90164C27.5338 2.35381 27.8969 2.89192 28.145 3.48499C28.3932 4.07805 28.5216 4.71435 28.5229 5.35725V23.1199C28.5239 24.4276 28.0073 25.6825 27.086 26.6105C26.1648 27.5386 24.9137 28.0643 23.606 28.0729H0.788086V5.35725C0.789341 4.71435 0.917757 4.07805 1.16594 3.48499C1.41412 2.89192 1.77717 2.35381 2.23418 1.90164C2.69119 1.44946 3.23313 1.09216 3.8288 0.850296C4.42447 0.608433 5.06209 0.48679 5.70497 0.492371Z" fill="#0C3678"/>
<path fill-rule="evenodd" clip-rule="evenodd" d="M15.704 13.881C16.1288 14.054 16.5104 14.3182 16.8217 14.655C17.1331 14.9918 17.3666 15.3929 17.5057 15.8299C17.6883 16.3369 17.7601 16.8771 17.7162 17.4141C17.6724 17.9511 17.5139 18.4725 17.2516 18.9432C16.9892 19.4138 16.629 19.8227 16.1952 20.1423C15.7615 20.462 15.2642 20.6849 14.737 20.7962C14.2376 20.9339 13.7221 21.0045 13.2041 21.006C11.6703 21.0113 10.1366 21.006 8.60192 21.0121C8.38331 21.0121 8.31456 20.9619 8.31544 20.7327C8.32308 16.7955 8.32544 12.8611 8.3225 8.92974C8.31174 8.56661 8.44447 8.21385 8.69195 7.94789C8.93943 7.68193 9.28175 7.52418 9.64472 7.5088C10.9669 7.50087 12.2953 7.44445 13.6167 7.53612C14.1411 7.54942 14.6573 7.66919 15.134 7.88815C15.6108 8.10712 16.038 8.4207 16.3898 8.80986C16.9528 9.49212 17.2335 10.3639 17.1743 11.2465C17.1152 12.1291 16.7206 12.9556 16.0716 13.5566L15.7022 13.8819M20.6746 17.86C21.0024 17.86 21.3228 17.9572 21.5953 18.1393C21.8678 18.3214 22.0803 18.5802 22.2057 18.883C22.3311 19.1858 22.3639 19.519 22.3 19.8405C22.236 20.1619 22.0782 20.4572 21.8464 20.689C21.6147 20.9207 21.3194 21.0786 20.9979 21.1425C20.6765 21.2064 20.3433 21.1736 20.0405 21.0482C19.7377 20.9228 19.4788 20.7104 19.2967 20.4378C19.1147 20.1653 19.0175 19.8449 19.0175 19.5172C19.0175 19.0776 19.1921 18.6561 19.5028 18.3454C19.8136 18.0346 20.2351 17.86 20.6746 17.86ZM10.9396 17.1724C10.9396 17.6132 10.9502 18.0477 10.9343 18.485C10.9273 18.6745 10.989 18.715 11.1679 18.7133C11.8837 18.7027 12.5994 18.7177 13.3152 18.7071C13.7752 18.6717 14.2048 18.4634 14.5176 18.1242C14.8304 17.785 15.0032 17.34 15.0013 16.8786C14.9994 16.4171 14.823 15.9736 14.5074 15.6369C14.1918 15.3003 13.7605 15.0956 13.3002 15.0639C12.803 15.0578 12.3059 15.0639 11.8087 15.0639C11.6918 15.0476 11.5726 15.0584 11.4605 15.0955C11.3484 15.1326 11.2463 15.1951 11.1623 15.2781C11.0782 15.361 11.0144 15.4622 10.9758 15.5738C10.9372 15.6854 10.9248 15.8044 10.9396 15.9216C10.9343 16.3394 10.9396 16.7564 10.9396 17.1742M10.9396 11.6262C10.9396 12.0043 10.9396 12.3825 10.9396 12.7606C10.9396 12.8832 10.9449 12.9669 11.1088 12.9643C11.7559 12.9554 12.4037 12.9854 13.0481 12.9528C13.2608 12.9483 13.4703 12.8991 13.6628 12.8085C13.8554 12.7179 14.0268 12.5879 14.1659 12.4269C14.305 12.2658 14.4087 12.0774 14.4703 11.8737C14.532 11.67 14.5501 11.4556 14.5237 11.2445C14.5338 11.0368 14.499 10.8294 14.4218 10.6363C14.3446 10.4433 14.2267 10.2691 14.0762 10.1257C13.9256 9.98227 13.746 9.87295 13.5494 9.80514C13.3528 9.73734 13.144 9.71265 12.937 9.73277C12.5792 9.73277 12.2204 9.73277 11.8625 9.73277C11.2199 9.73277 10.944 10.0184 10.9414 10.6698C10.9414 10.988 10.9414 11.3071 10.9414 11.6253" fill="#02000D"/>
<path fill-rule="evenodd" clip-rule="evenodd" d="M15.704 13.7912C16.1288 13.9641 16.5104 14.2283 16.8217 14.5651C17.1331 14.9019 17.3666 15.3031 17.5057 15.7401C17.6883 16.2471 17.7601 16.7872 17.7162 17.3243C17.6724 17.8613 17.5139 18.3827 17.2516 18.8533C16.9892 19.3239 16.629 19.7328 16.1952 20.0525C15.7615 20.3721 15.2642 20.5951 14.737 20.7064C14.2376 20.8441 13.7221 20.9147 13.2041 20.9161C11.6703 20.9214 10.1366 20.9161 8.60192 20.9223C8.38331 20.9223 8.31456 20.8721 8.31544 20.6429C8.32308 16.7056 8.32544 12.7713 8.3225 8.83989C8.31174 8.47676 8.44447 8.124 8.69195 7.85804C8.93943 7.59207 9.28175 7.43432 9.64472 7.41895C10.9669 7.41102 12.2953 7.35461 13.6167 7.44628C14.1411 7.45958 14.6573 7.57935 15.134 7.79832C15.6108 8.01728 16.038 8.33085 16.3898 8.72001C16.9528 9.40227 17.2335 10.2741 17.1743 11.1566C17.1152 12.0392 16.7206 12.8658 16.0716 13.4668L15.7022 13.792M10.9423 17.0826C10.9423 17.5233 10.9528 17.9579 10.9378 18.3951C10.9308 18.5846 10.9925 18.6252 11.1714 18.6234C11.8872 18.6128 12.603 18.6278 13.3187 18.6172C13.7788 18.5818 14.2084 18.3736 14.5211 18.0343C14.8339 17.6951 15.0067 17.2501 15.0048 16.7887C15.0029 16.3273 14.8265 15.8837 14.5109 15.5471C14.1953 15.2105 13.7641 15.0057 13.3037 14.9741C12.8066 14.9679 12.3094 14.9741 11.8123 14.9741C11.6953 14.9577 11.5761 14.9685 11.464 15.0057C11.3519 15.0428 11.2499 15.1053 11.1658 15.1882C11.0817 15.2712 11.0179 15.3724 10.9793 15.484C10.9407 15.5956 10.9283 15.7146 10.9431 15.8318C10.9378 16.2496 10.9431 16.6665 10.9431 17.0844M10.9431 11.5363C10.9431 11.9145 10.9431 12.2926 10.9431 12.6708C10.9431 12.7933 10.9484 12.8771 11.1124 12.8744C11.7594 12.8656 12.4073 12.8956 13.0516 12.863C13.2644 12.8584 13.4738 12.8093 13.6664 12.7187C13.8589 12.6281 14.0303 12.498 14.1694 12.337C14.3085 12.176 14.4122 11.9875 14.4739 11.7838C14.5355 11.5802 14.5537 11.3658 14.5272 11.1547C14.5373 10.947 14.5025 10.7396 14.4253 10.5465C14.3481 10.3535 14.2302 10.1793 14.0797 10.0359C13.9291 9.89242 13.7495 9.78309 13.5529 9.71529C13.3564 9.64749 13.1475 9.6228 12.9406 9.64291C12.5827 9.64291 12.2239 9.64291 11.866 9.64291C11.2234 9.64291 10.9475 9.92852 10.9449 10.5799C10.9449 10.8981 10.9449 11.2172 10.9449 11.5355" fill="white"/>
<path fill-rule="evenodd" clip-rule="evenodd" d="M20.6757 21.08C21.0035 21.08 21.3239 20.9828 21.5964 20.8007C21.8689 20.6186 22.0813 20.3598 22.2068 20.057C22.3322 19.7542 22.365 19.421 22.3011 19.0995C22.2371 18.778 22.0793 18.4828 21.8475 18.251C21.6158 18.0192 21.3205 17.8614 20.999 17.7975C20.6776 17.7335 20.3444 17.7664 20.0416 17.8918C19.7387 18.0172 19.4799 18.2296 19.2978 18.5021C19.1157 18.7746 19.0186 19.095 19.0186 19.4228C19.0193 19.8621 19.1941 20.2832 19.5047 20.5938C19.8153 20.9045 20.2364 21.0793 20.6757 21.08Z" fill="#20A8E0"/>
<path fill-rule="evenodd" clip-rule="evenodd" d="M102.888 20.1621C102.296 20.57 101.612 20.8249 100.897 20.9039C100.182 20.9829 99.4593 20.8835 98.7925 20.6148C98.1256 20.346 97.5357 19.9162 97.0756 19.3637C96.6155 18.8112 96.2994 18.1533 96.1557 17.4489C95.7481 15.9666 95.9192 14.3847 96.6344 13.0239C97.034 12.2942 97.6407 11.6991 98.3779 11.3137C99.1152 10.9283 99.9501 10.7697 100.777 10.8581C101.62 10.8815 102.431 11.1866 103.08 11.7246C103.175 11.8074 103.214 11.8021 103.278 11.6875C103.391 11.4858 103.559 11.3208 103.763 11.2124C103.967 11.104 104.198 11.0569 104.428 11.0767C104.785 11.0767 105.144 11.0961 105.499 11.0705C105.757 11.0529 105.793 11.1586 105.792 11.3799C105.78 14.4198 105.771 17.46 105.767 20.5005C105.767 20.6739 105.755 20.8471 105.732 21.0189C105.64 21.9205 105.265 22.7699 104.66 23.4449C104.055 24.1199 103.252 24.5858 102.366 24.7757C100.576 25.2686 98.6663 25.0645 97.0213 24.2045C96.845 24.1164 96.7833 24.0388 96.8741 23.8369C97.0504 23.4385 97.1933 23.0225 97.3687 22.6214C97.3973 22.5054 97.4514 22.3973 97.5272 22.3049C97.6029 22.2126 97.6984 22.1383 97.8066 22.0876C97.9147 22.0369 98.0328 22.011 98.1523 22.0119C98.2717 22.0127 98.3895 22.0403 98.4969 22.0925C99.2086 22.3448 99.9598 22.4669 100.715 22.453C100.959 22.4397 101.202 22.4019 101.438 22.3402C101.916 22.2348 102.333 21.9482 102.603 21.5409C102.873 21.1336 102.975 20.6373 102.886 20.1568M102.951 15.8798C102.962 15.574 102.938 15.268 102.881 14.9675C102.834 14.5471 102.638 14.1574 102.328 13.8695C102.018 13.5816 101.615 13.4148 101.192 13.3994C100.742 13.2997 100.271 13.3765 99.8755 13.6139C99.4801 13.8514 99.1909 14.2314 99.0673 14.6757C98.9144 15.1153 98.8524 15.5813 98.885 16.0456C98.9175 16.5099 99.044 16.9627 99.2568 17.3766C99.432 17.7258 99.7113 18.012 100.056 18.1956C100.401 18.3792 100.794 18.4513 101.182 18.4017C101.573 18.386 101.948 18.2391 102.245 17.9845C102.543 17.7299 102.746 17.3826 102.822 16.9984C102.922 16.6344 102.966 16.2571 102.951 15.8798ZM40.3653 11.4724C40.3653 11.1463 40.3653 10.8202 40.3653 10.494C40.3653 9.82761 40.6509 9.53849 41.3084 9.53408C41.6751 9.53408 42.0427 9.53408 42.4094 9.53408C42.6214 9.51333 42.8354 9.53848 43.0369 9.60782C43.2383 9.67717 43.4224 9.78908 43.5767 9.93594C43.731 10.0828 43.8519 10.2612 43.9311 10.4589C44.0103 10.6567 44.046 10.8692 44.0357 11.082C44.0641 11.2984 44.0467 11.5183 43.9845 11.7276C43.9223 11.9368 43.8167 12.1306 43.6747 12.2964C43.5327 12.4621 43.3574 12.5962 43.1602 12.6898C42.963 12.7834 42.7484 12.8344 42.5302 12.8396C41.869 12.8731 41.208 12.8396 40.5433 12.8511C40.375 12.8511 40.367 12.7673 40.367 12.6422C40.367 12.2552 40.367 11.8674 40.367 11.4804M40.367 17.1624C40.367 16.7349 40.3626 16.3074 40.367 15.8798C40.3513 15.7596 40.3636 15.6373 40.4029 15.5226C40.4422 15.4079 40.5075 15.3038 40.5937 15.2185C40.6799 15.1331 40.7846 15.0689 40.8997 15.0307C41.0148 14.9925 41.1372 14.9814 41.2573 14.9984C41.7668 14.9984 42.2754 14.9931 42.7849 14.9984C43.2567 15.0303 43.6988 15.2397 44.0224 15.5845C44.346 15.9293 44.527 16.3838 44.529 16.8566C44.531 17.3295 44.3538 17.7855 44.0332 18.133C43.7126 18.4805 43.2722 18.6937 42.8008 18.7297C42.0683 18.7411 41.3349 18.7297 40.6015 18.7358C40.4181 18.7358 40.3547 18.697 40.3617 18.5022C40.3776 18.0544 40.367 17.6067 40.367 17.158M55.7673 16.1002C55.8047 16.5854 55.7068 17.0714 55.4846 17.5043C55.2624 17.9372 54.9245 18.3 54.5085 18.5525C54.1644 18.7451 53.7779 18.8497 53.3836 18.8571C52.9892 18.8644 52.5992 18.7743 52.248 18.5946C51.8969 18.4149 51.5956 18.1513 51.3709 17.8272C51.1461 17.5031 51.0049 17.1285 50.9597 16.7366C50.8658 16.1928 50.8959 15.6347 51.0479 15.1041C51.1801 14.5751 51.4939 14.1092 51.9345 13.7878C52.3751 13.4664 52.9145 13.3099 53.4587 13.3456C53.9813 13.3715 54.4807 13.5694 54.8792 13.9085C55.2778 14.2476 55.5531 14.7088 55.6624 15.2205C55.7333 15.5089 55.7683 15.805 55.7664 16.102M67 16.102C67.0019 16.418 66.96 16.7327 66.8757 17.0372C66.7533 17.551 66.4627 18.0091 66.0501 18.3388C65.6375 18.6685 65.1265 18.8508 64.5984 18.8568C64.0703 18.8628 63.5554 18.6921 63.1354 18.3718C62.7154 18.0516 62.4145 17.6001 62.2806 17.0892C62.123 16.6238 62.0768 16.1279 62.1457 15.6414C62.2146 15.1549 62.3966 14.6913 62.6772 14.2879C62.9241 13.9265 63.273 13.6468 63.6794 13.4845C64.0859 13.3222 64.5315 13.2846 64.9594 13.3764C65.4172 13.4454 65.8438 13.6503 66.1838 13.9647C66.5238 14.2791 66.7615 14.6883 66.866 15.1394C66.9617 15.452 67.007 15.7778 67 16.1046M45.2433 13.7943L45.6215 13.4611C46.2862 12.8456 46.6903 11.9991 46.751 11.0952C46.8116 10.1913 46.5242 9.29849 45.9477 8.59972C45.5873 8.20126 45.1497 7.88017 44.6615 7.65591C44.1733 7.43165 43.6446 7.30891 43.1076 7.29513C41.7545 7.20081 40.3952 7.25899 39.0395 7.26692C38.6675 7.2823 38.3166 7.44371 38.0628 7.71614C37.809 7.98857 37.6728 8.35008 37.6838 8.72224C37.6838 12.7518 37.6815 16.7813 37.6768 20.8108C37.6768 21.0462 37.7473 21.0991 37.9703 21.0973C39.5411 21.0885 41.1128 21.0973 42.6835 21.0903C43.214 21.0889 43.742 21.0169 44.2535 20.8761C44.7933 20.7619 45.3024 20.5335 45.7464 20.206C46.1905 19.8786 46.5593 19.4598 46.828 18.9779C47.0966 18.496 47.2588 17.9621 47.3037 17.4121C47.3486 16.8622 47.2752 16.3091 47.0883 15.7899C46.9457 15.3423 46.7064 14.9316 46.3874 14.5867C46.0685 14.2418 45.6785 13.9713 45.2433 13.7943ZM58.5783 15.998C58.5682 14.9599 58.2505 13.9482 57.6654 13.0908C57.0804 12.2333 56.2542 11.5685 55.2914 11.1806C54.3285 10.7926 53.2723 10.6988 52.2562 10.911C51.24 11.1232 50.3096 11.632 49.5826 12.3729C48.8556 13.1139 48.3646 14.0538 48.1716 15.0737C47.9787 16.0937 48.0926 17.148 48.4987 18.1033C48.9049 19.0586 49.5852 19.872 50.4537 20.4407C51.3221 21.0094 52.3396 21.3078 53.3776 21.2983C54.0757 21.3225 54.7711 21.2012 55.4197 20.9421C56.0683 20.683 56.6559 20.2917 57.145 19.7932C57.6342 19.2947 58.0142 18.6998 58.261 18.0464C58.5077 17.393 58.6158 16.6954 58.5783 15.998ZM59.317 16.0861C59.2921 16.7685 59.4062 17.4488 59.6527 18.0857C59.8991 18.7225 60.2727 19.3025 60.7505 19.7903C61.2283 20.2781 61.8005 20.6636 62.4321 20.9231C63.0637 21.1827 63.7415 21.3109 64.4243 21.3001C67.5712 21.3001 69.8119 19.1722 69.8145 16.1778C69.8262 14.7856 69.2844 13.4458 68.3083 12.4531C67.3321 11.4604 66.0016 10.8962 64.6094 10.8845C63.2173 10.8728 61.8775 11.4146 60.8848 12.3908C59.8921 13.3669 59.3279 14.6975 59.3162 16.0896M80.0996 21.1326C79.2287 21.1326 78.3719 21.1449 77.5151 21.1326C77.2376 21.1201 76.9695 21.0285 76.7424 20.8686C76.5153 20.7086 76.3387 20.487 76.2334 20.2299C75.8468 19.5018 75.4607 18.7734 75.0752 18.0447C74.9606 17.8291 74.846 17.6134 74.7314 17.3977C74.649 17.2404 74.5174 17.1144 74.3566 17.0388C74.1959 16.9632 74.0149 16.9422 73.8411 16.979C73.6543 17.0134 73.7257 17.1483 73.7248 17.2435C73.7195 18.4167 73.7071 19.5909 73.7309 20.7632C73.738 21.0973 73.6314 21.1617 73.3255 21.1528C72.5709 21.1317 71.8155 21.1396 71.061 21.1528C70.8697 21.1528 70.8221 21.0955 70.8229 20.9104C70.8276 16.4443 70.8276 11.9752 70.8229 7.50316C70.8229 7.29865 70.8838 7.23871 71.0874 7.24665C71.5766 7.26956 72.0667 7.22109 72.5551 7.27662C72.7228 7.26913 72.8901 7.29899 73.0449 7.36406C73.1997 7.42913 73.3381 7.52776 73.4501 7.65285C73.5621 7.77794 73.645 7.92635 73.6926 8.08736C73.7403 8.24836 73.7516 8.41794 73.7257 8.58385C73.7257 10.4349 73.7354 12.2772 73.7186 14.1239C73.7186 14.4298 73.8067 14.488 74.0897 14.4845C74.2765 14.4992 74.4636 14.4601 74.6288 14.3718C74.7941 14.2836 74.9307 14.1498 75.0223 13.9864C75.568 13.0908 76.1603 12.2235 76.7218 11.3358C76.7587 11.2604 76.8174 11.1977 76.8904 11.1561C76.9633 11.1144 77.0471 11.0956 77.1308 11.1022C78.1101 11.1146 79.0894 11.1075 80.0626 11.1075C80.1067 11.1675 80.0749 11.208 80.0458 11.2512C79.152 12.5781 78.2576 13.9047 77.3626 15.2311C77.2489 15.3986 77.0101 15.5431 77.0057 15.7062C77.0012 15.8693 77.2357 16.0182 77.3265 16.1945C78.1798 17.8526 79.1212 19.456 80.0961 21.0479C80.1049 21.062 80.0961 21.0858 80.1031 21.1361M80.9714 16.1117C80.9714 14.5418 80.9767 12.9718 80.9661 11.401C80.9661 11.1604 81.0252 11.0811 81.2703 11.0978C81.7471 11.1296 82.2275 11.0705 82.7044 11.1401C83.0031 11.1599 83.2839 11.2896 83.4927 11.5041C83.7015 11.7186 83.8236 12.0028 83.8353 12.3019C83.8463 12.4238 83.8507 12.5462 83.8486 12.6686C83.8486 15.3818 83.8441 18.0941 83.8565 20.8064C83.8565 21.0964 83.7684 21.159 83.5039 21.1484C82.7802 21.1308 82.0556 21.1255 81.3319 21.1484C81.0357 21.1581 80.9881 21.0541 80.9899 20.7897C81.0014 19.2295 80.9952 17.6692 80.9952 16.109L80.9714 16.1117ZM83.9684 8.50716C83.963 8.83443 83.8612 9.15284 83.6757 9.42251C83.4902 9.69218 83.2293 9.90113 82.9256 10.0232C82.6218 10.1452 82.2889 10.175 81.9683 10.1086C81.6478 10.0423 81.3539 9.88294 81.1236 9.6504C80.8932 9.41786 80.7366 9.12253 80.6733 8.80139C80.61 8.48025 80.6429 8.14758 80.7679 7.84503C80.8928 7.54249 81.1041 7.28352 81.3755 7.10056C81.6469 6.9176 81.9663 6.81878 82.2936 6.81649C82.5155 6.81432 82.7356 6.8567 82.9408 6.9411C83.146 7.02549 83.3322 7.1502 83.4884 7.30784C83.6445 7.46548 83.7674 7.65285 83.8499 7.85886C83.9324 8.06486 83.9727 8.28531 83.9684 8.50716ZM88.3291 12.2094C88.8621 11.6119 89.5648 11.1915 90.3433 11.0044C91.1888 10.7977 92.0758 10.8371 92.8996 11.1181C93.413 11.2982 93.8668 11.6163 94.2111 12.0376C94.5555 12.4589 94.7769 12.967 94.8512 13.506C94.9357 13.9158 94.9773 14.3332 94.9754 14.7515C94.9754 16.7789 94.9754 18.8125 94.9807 20.8434C94.9807 21.077 94.9323 21.1617 94.6837 21.1476C94.2976 21.1246 93.9088 21.1476 93.521 21.1405C93.3264 21.1664 93.1285 21.1469 92.9426 21.0837C92.7568 21.0205 92.588 20.9152 92.4495 20.7761C92.3111 20.6369 92.2066 20.4677 92.1443 20.2815C92.082 20.0953 92.0635 19.8973 92.0904 19.7028C92.0833 18.2228 92.0904 16.7437 92.0904 15.2637C92.0976 14.9471 92.0587 14.6312 91.9749 14.3258C91.9274 14.1258 91.8172 13.9462 91.6603 13.8133C91.5035 13.6804 91.3082 13.6011 91.1031 13.5871C90.5087 13.5161 89.9094 13.6724 89.4253 14.0247C88.9413 14.377 88.6083 14.8992 88.4931 15.4867C88.4062 15.8121 88.3629 16.1477 88.3644 16.4845C88.3644 17.9434 88.3644 19.4031 88.3714 20.8619C88.3714 21.092 88.315 21.1511 88.0858 21.1467C87.311 21.1317 86.5353 21.1343 85.7596 21.1467C85.556 21.1467 85.4828 21.1105 85.4837 20.8822C85.4913 17.7089 85.4913 14.5356 85.4837 11.3623C85.4837 11.1454 85.5419 11.0811 85.7561 11.0978C86.2039 11.1252 86.6534 11.0696 87.1012 11.1278C87.3797 11.1359 87.647 11.2388 87.859 11.4194C88.0711 11.6 88.2152 11.8476 88.2674 12.1212C88.2727 12.1485 88.3 12.1706 88.3282 12.2094" fill="#0C3678"/>
<path fill-rule="evenodd" clip-rule="evenodd" d="M134.844 12.3619C135.007 12.1856 135.128 12.0367 135.268 11.9071C135.742 11.4441 136.335 11.1222 136.981 10.9774C137.628 10.8326 138.302 10.8706 138.927 11.0873C139.245 11.1854 139.541 11.3453 139.797 11.5578C140.053 11.7704 140.264 12.0313 140.419 12.3258C140.595 12.6316 140.595 12.6299 140.808 12.3707C141.321 11.742 142.012 11.2832 142.791 11.0547C143.569 10.8262 144.399 10.8388 145.17 11.0908C145.677 11.2587 146.126 11.5672 146.465 11.9802C146.803 12.3933 147.018 12.894 147.083 13.4241C147.17 13.854 147.213 14.2918 147.21 14.7304C147.21 16.7578 147.205 18.7905 147.216 20.8206C147.216 21.078 147.151 21.152 146.896 21.137C146.52 21.1141 146.141 21.137 145.764 21.1291C145.59 21.1496 145.413 21.1307 145.246 21.0738C145.08 21.0168 144.929 20.9233 144.803 20.8C144.678 20.6768 144.582 20.527 144.522 20.3616C144.462 20.1963 144.44 20.0197 144.458 19.8448C144.437 18.2943 144.449 16.7437 144.444 15.1932C144.442 14.9692 144.427 14.7455 144.398 14.5233C144.403 14.3443 144.362 14.167 144.281 14.0076C144.199 13.8482 144.079 13.7117 143.931 13.6106C143.784 13.5095 143.613 13.4471 143.435 13.429C143.257 13.4109 143.077 13.4377 142.912 13.507C142.516 13.6152 142.156 13.8265 141.868 14.1193C141.581 14.4122 141.376 14.776 141.275 15.1738C141.104 15.6548 141.018 16.1619 141.022 16.6723C141.031 18.0695 141.022 19.4675 141.03 20.8646C141.03 21.0797 140.972 21.1379 140.758 21.1344C140.014 21.1215 139.269 21.1215 138.525 21.1344C138.305 21.1344 138.256 21.0683 138.26 20.8585C138.268 18.9921 138.268 17.1254 138.26 15.2585C138.26 15.0241 138.242 14.79 138.205 14.5586C138.19 14.3554 138.125 14.1592 138.015 13.9877C137.905 13.8162 137.754 13.675 137.576 13.5768C137.397 13.4787 137.197 13.4268 136.994 13.4258C136.79 13.4248 136.589 13.4749 136.41 13.5713C135.902 13.8018 135.501 14.216 135.287 14.7304C134.993 15.3385 134.842 16.0058 134.846 16.6812C134.846 18.0686 134.84 19.4561 134.846 20.8435C134.846 21.0639 134.803 21.1414 134.565 21.1362C133.831 21.1194 133.096 21.1256 132.361 21.1362C132.18 21.1362 132.091 21.1132 132.091 20.892C132.098 17.7187 132.098 14.5453 132.091 11.372C132.091 11.1869 132.14 11.1182 132.33 11.1279C132.605 11.142 132.881 11.1279 133.156 11.1279C134.194 11.1279 134.472 11.3253 134.84 12.3619M123.422 16.0959C123.385 15.6106 123.483 15.1245 123.705 14.6915C123.927 14.2585 124.265 13.8955 124.681 13.6427C125.022 13.4501 125.406 13.3447 125.798 13.3358C126.19 13.3269 126.578 13.4148 126.928 13.5916C127.278 13.7685 127.579 14.0288 127.804 14.3497C128.03 14.6706 128.173 15.042 128.22 15.4312C128.332 15.8941 128.334 16.3769 128.224 16.8403C128.115 17.3038 127.897 17.7349 127.59 18.0986C127.303 18.4291 126.926 18.6686 126.505 18.7876C126.084 18.9066 125.637 18.9 125.22 18.7685C124.792 18.6568 124.406 18.4262 124.105 18.1036C123.803 17.7809 123.6 17.3793 123.517 16.9456C123.448 16.6678 123.416 16.3821 123.422 16.0959ZM108.525 21.2525C108.193 21.2459 107.871 21.1409 107.599 20.9507C107.327 20.7606 107.118 20.4939 106.997 20.1846C106.877 19.8752 106.852 19.5372 106.924 19.2132C106.996 18.8893 107.163 18.5942 107.403 18.3653C107.644 18.1364 107.947 17.9841 108.274 17.9276C108.601 17.8712 108.937 17.9132 109.24 18.0483C109.543 18.1833 109.8 18.4055 109.976 18.6864C110.153 18.9673 110.242 19.2944 110.233 19.6262C110.228 19.8453 110.18 20.0614 110.092 20.2619C110.003 20.4625 109.876 20.6435 109.717 20.7947C109.559 20.9459 109.372 21.0641 109.167 21.1427C108.962 21.2213 108.744 21.2586 108.525 21.2525ZM118.915 14.57H118.487C118.232 14.614 117.969 14.5584 117.753 14.4148C117.538 14.2712 117.385 14.0504 117.328 13.7978C117.282 13.7013 117.215 13.6162 117.131 13.5488C117.048 13.4814 116.951 13.4333 116.847 13.4082C116.372 13.2628 115.866 13.2564 115.388 13.3898C114.909 13.5232 114.479 13.7908 114.148 14.161C113.893 14.4647 113.701 14.8167 113.585 15.196C113.468 15.5753 113.429 15.9741 113.469 16.3688C113.51 16.7635 113.63 17.146 113.821 17.4936C114.012 17.8412 114.272 18.1468 114.584 18.3921C115.038 18.7007 115.568 18.8801 116.116 18.9111C116.665 18.9422 117.211 18.8237 117.698 18.5684C118.186 18.3557 118.626 18.0476 118.993 17.6622C119.159 17.4807 119.225 17.5309 119.33 17.7143C119.625 18.2264 119.928 18.7332 120.245 19.2313C120.273 19.2629 120.294 19.3002 120.307 19.3405C120.32 19.3809 120.324 19.4235 120.319 19.4655C120.314 19.5075 120.3 19.548 120.279 19.5844C120.257 19.6207 120.228 19.6521 120.193 19.6764C119.591 20.2825 118.861 20.7462 118.056 21.0335C117.251 21.3209 116.393 21.4246 115.543 21.3371C114.288 21.2676 113.1 20.7459 112.2 19.8686C111.685 19.364 111.283 18.7545 111.023 18.0814C110.764 17.4084 110.652 16.6873 110.695 15.9672C110.79 12.6008 113.613 10.6333 116.708 10.9348C117.453 10.986 118.175 11.2099 118.818 11.5889C119.142 11.7671 119.409 12.0333 119.588 12.3568C119.768 12.6803 119.852 13.0478 119.831 13.417C119.822 13.7332 119.822 14.0494 119.831 14.3655C119.837 14.5304 119.775 14.5779 119.619 14.5709C119.385 14.5603 119.15 14.5709 118.913 14.5709M120.606 16.0632C120.59 17.1033 120.883 18.1248 121.448 18.998C122.013 19.8712 122.825 20.5568 123.781 20.9676C124.736 21.3785 125.792 21.4961 126.815 21.3055C127.838 21.1149 128.781 20.6248 129.524 19.8973C130.268 19.1698 130.778 18.2378 130.991 17.2196C131.204 16.2014 131.109 15.1429 130.719 14.1786C130.329 13.2142 129.662 12.3875 128.801 11.8034C127.94 11.2192 126.925 10.904 125.885 10.8978C125.192 10.8607 124.498 10.968 123.848 11.213C123.199 11.4579 122.607 11.8351 122.111 12.3208C121.614 12.8064 121.224 13.3898 120.965 14.034C120.706 14.6782 120.584 15.3692 120.606 16.0632Z" fill="#20A8E0"/>
</g>
</svg>
