<svg width="396" height="106" viewBox="0 0 396 106" fill="none" xmlns="http://www.w3.org/2000/svg">
<g filter="url(#filter0_d_1922_27573)">
<circle cx="198.111" cy="53.1113" r="25.1113" fill="white"/>
<circle cx="198.111" cy="53.1113" r="24.1113" stroke="#E2E2E2" stroke-width="2"/>
</g>
<circle cx="12" cy="53" r="7" fill="#D9D9D9"/>
<g filter="url(#filter1_d_1922_27573)">
<circle cx="12" cy="53" r="3.5" fill="white"/>
</g>
<circle cx="384" cy="53" r="7" fill="#D9D9D9"/>
<g filter="url(#filter2_d_1922_27573)">
<circle cx="384" cy="53" r="3.5" fill="white"/>
</g>
<circle cx="96" cy="53" r="9" fill="#D9D9D9"/>
<g filter="url(#filter3_d_1922_27573)">
<circle cx="96" cy="53" r="4.5" fill="white"/>
</g>
<circle cx="300" cy="53" r="9" fill="#D9D9D9"/>
<g filter="url(#filter4_d_1922_27573)">
<circle cx="300" cy="53" r="4.5" fill="white"/>
</g>
<line x1="29" y1="52" x2="77" y2="52" stroke="#D5D5D5" stroke-width="2" stroke-linecap="round"/>
<line x1="319" y1="52" x2="367" y2="52" stroke="#D5D5D5" stroke-width="2" stroke-linecap="round"/>
<line x1="115" y1="52" x2="163" y2="52" stroke="#D5D5D5" stroke-width="2" stroke-linecap="round"/>
<line x1="233" y1="52" x2="281" y2="52" stroke="#D5D5D5" stroke-width="2" stroke-linecap="round"/>
<path d="M209.021 49.7873C208.426 49.2442 207.649 48.9751 206.852 49.0051C206.048 49.0432 205.308 49.3922 204.767 49.9863L201.549 53.5208C200.998 52.6117 199.999 52.0016 198.86 52.0016H190.001C187.794 52.0016 186 53.7958 186 56.0022V61.0029C186 63.2092 187.794 65.0034 190.001 65.0034H194.966C197.816 65.0034 200.537 63.7833 202.434 61.655L209.239 54.0169C210.333 52.7897 210.235 50.8934 209.021 49.7873ZM207.746 52.6867L200.941 60.3258C199.423 62.027 197.247 63.0042 194.966 63.0042H190.001C188.897 63.0042 188 62.107 188 61.0039V56.0032C188 54.9 188.897 54.0029 190.001 54.0029H198.859C199.489 54.0029 200.002 54.5159 200.002 55.146C200.002 55.7101 199.581 56.1972 199.022 56.2762L193.86 57.0133C193.313 57.0913 192.933 57.5984 193.011 58.1455C193.089 58.6925 193.595 59.0686 194.143 58.9946L199.305 58.2575C200.48 58.0895 201.434 57.2703 201.819 56.1992L206.246 51.3335C206.428 51.1345 206.677 51.0174 206.946 51.0044C207.215 50.9844 207.474 51.0854 207.674 51.2675C208.082 51.6385 208.114 52.2766 207.746 52.6887V52.6867ZM195.002 51.0014V50.3593C195.714 50.1743 196.354 49.8083 196.855 49.2982L197.503 49.6722C197.661 49.7633 197.832 49.8063 198.002 49.8063C198.348 49.8063 198.684 49.6262 198.869 49.3062C199.145 48.8271 198.98 48.215 198.503 47.94L197.843 47.5589C197.937 47.2199 198.003 46.8698 198.003 46.5008C198.003 46.1317 197.937 45.7817 197.843 45.4426L198.503 45.0616C198.981 44.7865 199.146 44.1735 198.869 43.6954C198.592 43.2173 197.981 43.0533 197.503 43.3293L196.855 43.7034C196.354 43.1933 195.714 42.8273 195.002 42.6422V42.0001C195.002 41.4471 194.555 41 194.002 41C193.449 41 193.002 41.4471 193.002 42.0001V42.6422C192.29 42.8273 191.65 43.1933 191.15 43.7034L190.502 43.3293C190.022 43.0543 189.411 43.2183 189.135 43.6954C188.859 44.1745 189.024 44.7865 189.502 45.0616L190.162 45.4426C190.068 45.7817 190.002 46.1317 190.002 46.5008C190.002 46.8698 190.068 47.2199 190.162 47.5589L189.502 47.94C189.023 48.215 188.858 48.8281 189.135 49.3062C189.321 49.6262 189.657 49.8063 190.003 49.8063C190.173 49.8063 190.344 49.7633 190.502 49.6722L191.15 49.2982C191.65 49.8083 192.29 50.1743 193.002 50.3593V51.0014C193.002 51.5545 193.449 52.0016 194.002 52.0016C194.555 52.0016 195.002 51.5545 195.002 51.0014ZM192.002 46.5008C192.002 45.3976 192.899 44.5005 194.002 44.5005C195.105 44.5005 196.002 45.3976 196.002 46.5008C196.002 47.6039 195.105 48.5011 194.002 48.5011C192.899 48.5011 192.002 47.6039 192.002 46.5008Z" fill="#3551B6"/>
<defs>
<filter id="filter0_d_1922_27573" x="145.901" y="0.900692" width="104.421" height="104.421" filterUnits="userSpaceOnUse" color-interpolation-filters="sRGB">
<feFlood flood-opacity="0" result="BackgroundImageFix"/>
<feColorMatrix in="SourceAlpha" type="matrix" values="0 0 0 0 0 0 0 0 0 0 0 0 0 0 0 0 0 0 127 0" result="hardAlpha"/>
<feOffset/>
<feGaussianBlur stdDeviation="13.5497"/>
<feComposite in2="hardAlpha" operator="out"/>
<feColorMatrix type="matrix" values="0 0 0 0 0 0 0 0 0 0 0 0 0 0 0 0 0 0 0.15 0"/>
<feBlend mode="normal" in2="BackgroundImageFix" result="effect1_dropShadow_1922_27573"/>
<feBlend mode="normal" in="SourceGraphic" in2="effect1_dropShadow_1922_27573" result="shape"/>
</filter>
<filter id="filter1_d_1922_27573" x="0.333333" y="41.3333" width="23.3333" height="23.3333" filterUnits="userSpaceOnUse" color-interpolation-filters="sRGB">
<feFlood flood-opacity="0" result="BackgroundImageFix"/>
<feColorMatrix in="SourceAlpha" type="matrix" values="0 0 0 0 0 0 0 0 0 0 0 0 0 0 0 0 0 0 127 0" result="hardAlpha"/>
<feOffset/>
<feGaussianBlur stdDeviation="4.08333"/>
<feComposite in2="hardAlpha" operator="out"/>
<feColorMatrix type="matrix" values="0 0 0 0 0 0 0 0 0 0 0 0 0 0 0 0 0 0 0.15 0"/>
<feBlend mode="normal" in2="BackgroundImageFix" result="effect1_dropShadow_1922_27573"/>
<feBlend mode="normal" in="SourceGraphic" in2="effect1_dropShadow_1922_27573" result="shape"/>
</filter>
<filter id="filter2_d_1922_27573" x="372.333" y="41.3333" width="23.3333" height="23.3333" filterUnits="userSpaceOnUse" color-interpolation-filters="sRGB">
<feFlood flood-opacity="0" result="BackgroundImageFix"/>
<feColorMatrix in="SourceAlpha" type="matrix" values="0 0 0 0 0 0 0 0 0 0 0 0 0 0 0 0 0 0 127 0" result="hardAlpha"/>
<feOffset/>
<feGaussianBlur stdDeviation="4.08333"/>
<feComposite in2="hardAlpha" operator="out"/>
<feColorMatrix type="matrix" values="0 0 0 0 0 0 0 0 0 0 0 0 0 0 0 0 0 0 0.15 0"/>
<feBlend mode="normal" in2="BackgroundImageFix" result="effect1_dropShadow_1922_27573"/>
<feBlend mode="normal" in="SourceGraphic" in2="effect1_dropShadow_1922_27573" result="shape"/>
</filter>
<filter id="filter3_d_1922_27573" x="81" y="38" width="30" height="30" filterUnits="userSpaceOnUse" color-interpolation-filters="sRGB">
<feFlood flood-opacity="0" result="BackgroundImageFix"/>
<feColorMatrix in="SourceAlpha" type="matrix" values="0 0 0 0 0 0 0 0 0 0 0 0 0 0 0 0 0 0 127 0" result="hardAlpha"/>
<feOffset/>
<feGaussianBlur stdDeviation="5.25"/>
<feComposite in2="hardAlpha" operator="out"/>
<feColorMatrix type="matrix" values="0 0 0 0 0 0 0 0 0 0 0 0 0 0 0 0 0 0 0.15 0"/>
<feBlend mode="normal" in2="BackgroundImageFix" result="effect1_dropShadow_1922_27573"/>
<feBlend mode="normal" in="SourceGraphic" in2="effect1_dropShadow_1922_27573" result="shape"/>
</filter>
<filter id="filter4_d_1922_27573" x="285" y="38" width="30" height="30" filterUnits="userSpaceOnUse" color-interpolation-filters="sRGB">
<feFlood flood-opacity="0" result="BackgroundImageFix"/>
<feColorMatrix in="SourceAlpha" type="matrix" values="0 0 0 0 0 0 0 0 0 0 0 0 0 0 0 0 0 0 127 0" result="hardAlpha"/>
<feOffset/>
<feGaussianBlur stdDeviation="5.25"/>
<feComposite in2="hardAlpha" operator="out"/>
<feColorMatrix type="matrix" values="0 0 0 0 0 0 0 0 0 0 0 0 0 0 0 0 0 0 0.15 0"/>
<feBlend mode="normal" in2="BackgroundImageFix" result="effect1_dropShadow_1922_27573"/>
<feBlend mode="normal" in="SourceGraphic" in2="effect1_dropShadow_1922_27573" result="shape"/>
</filter>
</defs>
</svg>
