<svg width="56" height="44" viewBox="0 0 56 44" fill="none" xmlns="http://www.w3.org/2000/svg">
<path d="M55.8927 9.08398L36.2507 25.92C34.0605 27.7925 31.0934 28.8441 28 28.8441C24.9066 28.8441 21.9395 27.7925 19.7493 25.92L0.107333 9.08398C0.0746667 9.39998 0 9.68599 0 9.99999V34C0.003705 36.6512 1.23406 39.1929 3.42118 41.0676C5.6083 42.9423 8.57361 43.9968 11.6667 44H44.3333C47.4264 43.9968 50.3917 42.9423 52.5788 41.0676C54.7659 39.1929 55.9963 36.6512 56 34V9.99999C56 9.68599 55.9253 9.39998 55.8927 9.08398Z" fill="#3551B6"/>
<path d="M32.9517 23.092L54.2643 4.82201C53.2319 3.35464 51.7757 2.14008 50.0363 1.29546C48.2968 0.450847 46.3328 0.00468134 44.3337 0H11.667C9.66784 0.00468134 7.70383 0.450847 5.96439 1.29546C4.22495 2.14008 2.76878 3.35464 1.73633 4.82201L23.049 23.092C24.364 24.2147 26.1444 24.845 28.0003 24.845C29.8563 24.845 31.6367 24.2147 32.9517 23.092Z" fill="#3551B6"/>
</svg>
