<svg width="26" height="25" viewBox="0 0 26 25" fill="none" xmlns="http://www.w3.org/2000/svg">
<path d="M2.3655 1.80078L22.1031 20.5453C22.4776 20.901 22.688 21.3834 22.688 21.8864C22.688 22.3894 22.4776 22.8718 22.1031 23.2275V23.2275C21.7285 23.5831 21.2205 23.7828 20.6909 23.7828C20.1613 23.7828 19.6534 23.5831 19.2788 23.2275L14.4573 18.5697C14.1417 18.2655 13.9647 17.8556 13.9644 17.4286V17.1472C13.9644 16.9316 13.9194 16.7181 13.8318 16.5192C13.7443 16.3202 13.616 16.1397 13.4544 15.9883L12.8319 15.4424C12.6206 15.2572 12.3636 15.1254 12.0846 15.0593C11.8056 14.9932 11.5136 14.9947 11.2354 15.0638V15.0638C10.7968 15.1726 10.3358 15.1705 9.89825 15.0577C9.4607 14.945 9.0618 14.7256 8.74112 14.4213L4.16445 10.0744C1.44942 7.49592 0.450297 3.60233 2.3655 1.80078Z" stroke="black" stroke-width="1.5" stroke-linejoin="round"/>
<path d="M20.7144 1L16.576 4.93022C16.2575 5.23259 16.0049 5.59157 15.8326 5.98667C15.6602 6.38177 15.5715 6.80524 15.5715 7.2329V7.98892C15.5715 8.09589 15.5493 8.20181 15.5062 8.30063C15.4631 8.39945 15.3999 8.48924 15.3203 8.56485L14.7144 9.14026" stroke="black" stroke-width="1.5" stroke-linecap="round" stroke-linejoin="round"/>
<path d="M16.4287 10.7685L17.0346 10.1931C17.1142 10.1174 17.2088 10.0574 17.3128 10.0165C17.4169 9.97553 17.5284 9.95447 17.641 9.95449H18.4371C18.8874 9.95449 19.3334 9.87025 19.7494 9.70657C20.1654 9.54289 20.5434 9.30298 20.8618 9.00055L25.0003 5.07031" stroke="black" stroke-width="1.5" stroke-linecap="round" stroke-linejoin="round"/>
<path d="M22.8571 3.03516L18.5713 7.1053" stroke="black" stroke-width="1.5" stroke-linecap="round" stroke-linejoin="round"/>
<path d="M9.99966 18.0937L4.65745 23.1956C4.2556 23.5771 3.71064 23.7914 3.14243 23.7914C2.57421 23.7914 2.02926 23.5771 1.62741 23.1956V23.1956C1.22568 22.8139 1 22.2964 1 21.7568C1 21.2172 1.22568 20.6996 1.62741 20.318L6.14247 16.0586" stroke="black" stroke-width="1.5" stroke-linecap="round" stroke-linejoin="round"/>
</svg>
