<svg width="25" height="25" viewBox="0 0 25 25" fill="none" xmlns="http://www.w3.org/2000/svg">
<path d="M21.8749 19.8293V13.5419C21.8749 8.37217 17.6697 4.16703 12.5 4.16703C7.33034 4.16703 3.12521 8.37217 3.12521 13.5419V19.8293C1.36065 20.0824 0.000260409 21.6042 0.000260409 23.4375C0.000260409 24.299 0.70129 25 1.56273 25H23.4373C24.2988 25 24.9998 24.299 24.9998 23.4375C24.9998 21.6042 23.6394 20.0824 21.8749 19.8293ZM4.16685 13.5419C4.16685 8.94716 7.90533 5.20868 12.5 5.20868C17.0948 5.20868 20.8332 8.94716 20.8332 13.5419V19.7918H4.16685V13.5419ZM23.4373 23.9584H1.56273C1.27628 23.9584 1.04191 23.724 1.04191 23.4375C1.04191 22.0011 2.2096 20.8334 3.64603 20.8334H21.3541C22.7905 20.8334 23.9582 22.0011 23.9582 23.4375C23.9582 23.724 23.7238 23.9584 23.4373 23.9584ZM17.7635 2.37123L18.8051 0.287934C18.9353 0.0316888 19.2468 -0.0735177 19.5041 0.0546051C19.7614 0.183769 19.8655 0.496264 19.7374 0.753551L18.6958 2.83685C18.6041 3.01914 18.4197 3.12434 18.2301 3.12434C18.152 3.12434 18.0729 3.10663 17.9968 3.06914C17.7395 2.93997 17.6354 2.62852 17.7635 2.37123ZM22.028 6.09721C21.8249 5.89409 21.8249 5.56388 22.028 5.36076L24.1113 3.27747C24.3144 3.07434 24.6446 3.07434 24.8477 3.27747C25.0509 3.48059 25.0509 3.81079 24.8477 4.01391L22.7644 6.09721C22.6624 6.19929 22.529 6.24929 22.3957 6.24929C22.2624 6.24929 22.1301 6.19825 22.028 6.09721ZM5.26371 0.754593C5.13559 0.497306 5.23975 0.184811 5.49704 0.0556468C5.75433 -0.0735177 6.06682 0.0316889 6.19598 0.288976L7.23763 2.37227C7.36576 2.62956 7.26159 2.94205 7.0043 3.07122C6.92931 3.10872 6.85014 3.12643 6.77097 3.12643C6.58035 3.12643 6.39702 3.02018 6.30536 2.83893L5.26371 0.755634V0.754593ZM0.152341 4.01495C-0.0507804 3.81183 -0.0507804 3.48163 0.152341 3.27851C0.355462 3.07539 0.685665 3.07539 0.888786 3.27851L2.97208 5.3618C3.1752 5.56493 3.1752 5.89513 2.97208 6.09825C2.87 6.20033 2.73667 6.25033 2.60334 6.25033C2.47001 6.25033 2.33668 6.19929 2.2346 6.09825L0.152341 4.01495ZM12.5 9.8961C12.5 10.1836 12.2667 10.4169 11.9792 10.4169C10.5428 10.4169 9.3751 11.5846 9.3751 13.021C9.3751 13.3085 9.14177 13.5419 8.85427 13.5419C8.56678 13.5419 8.33345 13.3085 8.33345 13.021C8.33345 11.0107 9.96884 9.37527 11.9792 9.37527C12.2667 9.37527 12.5 9.6086 12.5 9.8961Z" fill="black"/>
</svg>
