<svg width="23" height="25" viewBox="0 0 23 25" fill="none" xmlns="http://www.w3.org/2000/svg">
<path d="M11.3715 24.6918C11.1561 24.6918 10.9494 24.6105 10.797 24.4658C10.6446 24.3211 10.559 24.1249 10.559 23.9202V21.9248L9.50929 22.9233C9.35673 23.068 9.14989 23.1492 8.93428 23.149C8.71867 23.1489 8.51196 23.0674 8.3596 22.9225C8.20726 22.7776 8.12175 22.5812 8.1219 22.3764C8.12206 22.1717 8.20785 21.9753 8.36042 21.8307L10.559 19.7427V13.6824L5.03404 16.7117L4.22804 19.5667C4.17202 19.7644 4.03559 19.9329 3.84878 20.035C3.66197 20.1372 3.44008 20.1647 3.23192 20.1115C3.02376 20.0583 2.84638 19.9287 2.7388 19.7513C2.63123 19.5739 2.60227 19.3632 2.65829 19.1655L3.04342 17.8043L1.22342 18.8013C1.0369 18.902 0.816012 18.9286 0.608953 18.8752C0.401893 18.8218 0.225474 18.6928 0.118194 18.5163C0.0109147 18.3399 -0.0185161 18.1303 0.0363244 17.9333C0.091165 17.7363 0.225825 17.5679 0.410918 17.4648L2.23092 16.4679L0.794418 16.1022C0.691346 16.0758 0.594748 16.0304 0.510139 15.9686C0.42553 15.9068 0.354567 15.8298 0.301301 15.742C0.248035 15.6541 0.213509 15.5572 0.199696 15.4567C0.185882 15.3562 0.193051 15.254 0.220793 15.1562C0.248534 15.0583 0.296306 14.9665 0.36138 14.8862C0.426453 14.8058 0.507555 14.7384 0.600053 14.6878C0.692552 14.6373 0.794637 14.6045 0.900478 14.5914C1.00632 14.5782 1.11385 14.585 1.21692 14.6114L4.21992 15.3753L9.74654 12.3459L4.22154 9.31653L1.21529 10.0804C1.00849 10.1294 0.789706 10.0992 0.606112 9.9964C0.422519 9.89359 0.288814 9.72638 0.233818 9.53083C0.178822 9.33527 0.206938 9.12702 0.312108 8.95097C0.417277 8.77492 0.591076 8.64516 0.796043 8.58967L2.23092 8.22392L0.410918 7.22699C0.317768 7.17669 0.236014 7.1094 0.170363 7.02897C0.104712 6.94855 0.0564594 6.85659 0.0283844 6.75838C0.000309499 6.66017 -0.00703373 6.55766 0.00677764 6.45675C0.020589 6.35584 0.0552822 6.25852 0.10886 6.17039C0.162437 6.08226 0.23384 6.00507 0.318959 5.94326C0.404078 5.88144 0.50123 5.83623 0.604824 5.81022C0.708417 5.78421 0.816404 5.77792 0.922569 5.7917C1.02873 5.80549 1.13098 5.83908 1.22342 5.89054L3.04342 6.88748L2.65829 5.5248C2.62873 5.4263 2.6201 5.32321 2.63292 5.22152C2.64574 5.11982 2.67975 5.02157 2.73296 4.93249C2.78618 4.84341 2.85753 4.76529 2.94287 4.70266C3.02821 4.64004 3.12581 4.59418 3.23001 4.56775C3.3342 4.54133 3.44288 4.53486 3.54973 4.54874C3.65658 4.56261 3.75945 4.59655 3.85235 4.64857C3.94525 4.70059 4.02631 4.76965 4.09081 4.85173C4.15531 4.93381 4.20196 5.02726 4.22804 5.12664L5.03242 7.98009L10.559 11.0095V4.94917L8.36042 2.86117C8.28487 2.78952 8.22493 2.70445 8.18401 2.61081C8.14308 2.51717 8.12198 2.41679 8.1219 2.3154C8.12183 2.21402 8.14278 2.11361 8.18357 2.01991C8.22435 1.92622 8.28417 1.84107 8.3596 1.76932C8.43504 1.69758 8.52462 1.64065 8.62322 1.60179C8.72182 1.56292 8.82752 1.54288 8.93428 1.54281C9.04104 1.54274 9.14677 1.56264 9.24543 1.60137C9.34409 1.6401 9.43375 1.69691 9.50929 1.76855L10.559 2.76703V0.77162C10.559 0.566973 10.6446 0.370709 10.797 0.226002C10.9494 0.0812954 11.1561 0 11.3715 0C11.587 0 11.7937 0.0812954 11.9461 0.226002C12.0984 0.370709 12.184 0.566973 12.184 0.77162V2.76703L13.2354 1.76855C13.388 1.62387 13.5948 1.54267 13.8104 1.54281C14.026 1.54295 14.2328 1.62443 14.3851 1.76932C14.5375 1.91421 14.623 2.11064 14.6228 2.3154C14.6227 2.52016 14.5369 2.71648 14.3843 2.86117L12.184 4.94917V11.0095L17.709 7.98009L18.515 5.1251C18.5711 4.92741 18.7075 4.75895 18.8943 4.65679C19.0811 4.55463 19.303 4.52713 19.5112 4.58033C19.7193 4.63354 19.8967 4.7631 20.0043 4.94051C20.1119 5.11792 20.1408 5.32865 20.0848 5.52634L19.7013 6.88748L21.5213 5.89054C21.7078 5.78983 21.9287 5.76328 22.1358 5.81666C22.3428 5.87005 22.5192 5.99905 22.6265 6.17551C22.7338 6.35197 22.7632 6.56156 22.7084 6.75855C22.6535 6.95554 22.5189 7.12394 22.3338 7.22699L20.5138 8.22392L21.9487 8.58967C22.1568 8.64288 22.3342 8.77244 22.4418 8.94985C22.5494 9.12726 22.5783 9.33799 22.5223 9.53567C22.4663 9.73336 22.3298 9.90182 22.143 10.004C21.9562 10.1061 21.7343 10.1336 21.5262 10.0804L18.5232 9.31653L12.9965 12.3459L18.5215 15.3753L21.5262 14.6114C21.7343 14.5584 21.9561 14.5861 22.1428 14.6884C22.3295 14.7907 22.4657 14.9592 22.5215 15.1569C22.5773 15.3546 22.5481 15.5653 22.4404 15.7425C22.3327 15.9198 22.1552 16.0492 21.947 16.1022L20.5122 16.4679L22.3322 17.4648C22.5173 17.5679 22.6519 17.7363 22.7068 17.9333C22.7616 18.1303 22.7322 18.3399 22.6249 18.5163C22.5176 18.6928 22.3412 18.8218 22.1341 18.8752C21.9271 18.9286 21.7062 18.902 21.5197 18.8013L19.6997 17.8043L20.0832 19.167C20.1127 19.2655 20.1214 19.3686 20.1085 19.4703C20.0957 19.572 20.0617 19.6703 20.0085 19.7593C19.9553 19.8484 19.8839 19.9265 19.7986 19.9892C19.7133 20.0518 19.6156 20.0976 19.5115 20.1241C19.4073 20.1505 19.2986 20.157 19.1917 20.1431C19.0849 20.1292 18.982 20.0953 18.8891 20.0433C18.7962 19.9912 18.7152 19.9222 18.6507 19.8401C18.5861 19.758 18.5395 19.6646 18.5134 19.5652L17.709 16.7117L12.184 13.6824V19.7427L14.3827 21.8307C14.5352 21.9753 14.621 22.1717 14.6212 22.3764C14.6213 22.5812 14.5358 22.7776 14.3835 22.9225C14.2311 23.0674 14.0244 23.1489 13.8088 23.149C13.5932 23.1492 13.3864 23.068 13.2338 22.9233L12.1824 21.9248V23.9202C12.1824 24.1249 12.0968 24.3211 11.9444 24.4658C11.7921 24.6105 11.5854 24.6918 11.3699 24.6918H11.3715Z" fill="black"/>
</svg>
