<svg width="28" height="28" viewBox="0 0 28 28" fill="none" xmlns="http://www.w3.org/2000/svg">
<path d="M22.9901 22.4325C23.3191 23.0054 23.4416 23.6821 23.3366 24.3389L23.1418 25.5464C22.9131 26.9675 21.7021 28 20.2623 28H14.5839C14.2619 28 14.0006 27.7387 14.0006 27.4167C14.0006 27.0946 14.2619 26.8333 14.5839 26.8333H20.2623C21.1269 26.8333 21.8526 26.2138 21.9902 25.3609L22.1851 24.1534C22.2481 23.7602 22.1758 23.3542 21.9786 23.0124C20.9565 21.232 20.9029 20.8038 20.883 20.6428C20.6964 19.1693 19.9427 18.1729 18.5111 17.5103C17.9732 17.2384 16.5755 16.5337 15.6527 16.3739C15.3726 16.3261 15.1673 16.0834 15.1673 15.7987V13.1107C15.1673 12.987 15.0938 12.9158 15.0495 12.8843C15.0063 12.854 14.9188 12.8073 14.801 12.847C13.6249 13.2518 12.8339 14.3614 12.8339 15.6062V16.7321C12.8339 16.9316 12.7312 17.1182 12.5632 17.2244C9.5484 19.1331 6.05875 22.0195 5.83358 27.44C5.82074 27.7538 5.5629 27.9988 5.25139 27.9988C5.24322 27.9988 5.23505 27.9988 5.22688 27.9988C4.90487 27.986 4.65519 27.7142 4.66803 27.391C4.9107 21.5435 8.70136 18.3339 11.6683 16.4124V15.6062C11.6683 13.8632 12.7755 12.3103 14.4229 11.7433C14.8605 11.5916 15.3493 11.664 15.7285 11.9346C16.1088 12.2053 16.3352 12.6451 16.3352 13.1107V15.3309C17.2907 15.5852 18.4983 16.1966 19.0023 16.4509C20.8084 17.2874 21.8024 18.6116 22.0404 20.4958C22.0416 20.511 22.0976 20.8738 22.9901 22.4302V22.4325ZM18.6674 20.9998C18.6674 20.3558 18.1448 19.8331 17.5007 19.8331C16.8567 19.8331 16.334 20.3558 16.334 20.9998C16.334 21.6439 16.8567 22.1665 17.5007 22.1665C18.1448 22.1665 18.6674 21.6439 18.6674 20.9998ZM25.4017 6.99952C24.2607 6.99952 23.1885 6.49667 22.4581 5.62049L22.1909 5.29848C21.2377 4.15512 19.8377 3.49944 18.3501 3.49944H17.5019V1.44489C17.5019 0.979382 17.2756 0.540705 16.8952 0.268866C16.516 -0.00180713 16.026 -0.0729754 15.5897 0.077528C13.9422 0.644541 12.835 2.19624 12.835 3.94045V5.70682L10.0303 9.52541C9.04554 10.8659 7.46348 11.6663 5.79974 11.6663H0.583358C0.261344 11.6663 0 11.9276 0 12.2496C0 12.5716 0.261344 12.833 0.583358 12.833H5.79741C7.83099 12.833 9.76424 11.8541 10.9683 10.2149L13.8862 6.24234C13.9597 6.14317 13.9994 6.02183 13.9994 5.89699V3.93928C13.9994 2.69442 14.7905 1.5849 15.9665 1.18005C16.082 1.14155 16.1718 1.18705 16.215 1.21739C16.2593 1.24889 16.3328 1.32006 16.3328 1.44373V4.08162C16.3328 4.40363 16.5942 4.66497 16.9162 4.66497H18.3478C19.4888 4.66497 20.5622 5.16781 21.2926 6.044L21.5597 6.366C22.5129 7.5082 23.913 8.16505 25.4006 8.16505C26.1904 8.16505 26.8333 8.80789 26.8333 9.59774V11.0818C26.8333 13.3335 25.0015 15.1652 22.7498 15.1652C22.4278 15.1652 22.1664 15.4265 22.1664 15.7486C22.1664 16.0706 22.4278 16.3319 22.7498 16.3319C25.6444 16.3319 28 13.9763 28 11.0818V9.59774C28 8.16505 26.8333 6.99835 25.4006 6.99835L25.4017 6.99952ZM19.8342 9.33291C20.4782 9.33291 21.0009 8.81023 21.0009 8.16621C21.0009 7.5222 20.4782 6.99952 19.8342 6.99952C19.1901 6.99952 18.6674 7.5222 18.6674 8.16621C18.6674 8.81023 19.1901 9.33291 19.8342 9.33291Z" fill="black"/>
</svg>
