<svg width="29" height="19" viewBox="0 0 29 19" fill="none" xmlns="http://www.w3.org/2000/svg">
<path d="M27.9669 5.54678C28.0612 5.45982 28.1345 5.35449 28.1818 5.23804C28.2291 5.12158 28.2492 4.99678 28.2409 4.87221C28.2325 4.74765 28.1958 4.62629 28.1333 4.5165C28.0708 4.4067 27.9839 4.31108 27.8788 4.23622C23.8813 1.4761 19.0642 -0.00724072 14.1219 2.65763e-05C8.98251 2.65763e-05 4.2275 1.57057 0.365002 4.23622C0.259711 4.31095 0.172729 4.40646 0.11005 4.51619C0.0473699 4.62591 0.0104822 4.74723 0.00192787 4.8718C-0.00662644 4.99637 0.013356 5.12121 0.0604985 5.23774C0.107641 5.35427 0.180823 5.4597 0.275002 5.54678C0.438868 5.70006 0.654696 5.79314 0.884059 5.80945C1.11342 5.82575 1.34144 5.76422 1.5275 5.63582C5.19339 3.12328 9.60102 1.77411 14.1219 1.78069C18.8225 1.78069 23.1725 3.20878 26.7144 5.63404C27.0988 5.89757 27.6331 5.86552 27.9669 5.54678Z" fill="black"/>
<path d="M23.9262 9.38765C24.0228 9.29913 24.0975 9.19127 24.1447 9.07192C24.1919 8.95257 24.2106 8.82473 24.1992 8.69769C24.1879 8.57065 24.147 8.44759 24.0793 8.33747C24.0116 8.22735 23.919 8.13293 23.8081 8.06106C20.9251 6.28252 17.5597 5.33844 14.1219 5.34377C10.55 5.34377 7.22185 6.34094 4.4356 8.06106C4.32414 8.1325 4.23094 8.22676 4.16288 8.33689C4.09481 8.44703 4.05359 8.57026 4.04226 8.69751C4.03093 8.82477 4.04977 8.95281 4.0974 9.07224C4.14502 9.19167 4.22023 9.29945 4.31748 9.38765C4.47723 9.53573 4.68524 9.62784 4.90738 9.64888C5.12951 9.66991 5.35258 9.61861 5.53998 9.5034C8.10127 7.94542 11.0802 7.11963 14.1219 7.12443C17.1628 7.11997 20.1411 7.94575 22.7019 9.5034C23.0881 9.73845 23.6019 9.69571 23.9262 9.38765ZM19.8331 13.2748C20.2569 12.8724 20.18 12.1975 19.6456 11.9393C17.9347 11.1125 16.0416 10.6829 14.1219 10.6858C12.1344 10.6858 10.2556 11.138 8.5981 11.9393C8.06373 12.1975 7.98685 12.8724 8.4106 13.2748L8.43873 13.3015C8.73873 13.5865 9.20185 13.6399 9.58435 13.4618C10.9967 12.8045 12.5491 12.4639 14.1219 12.4664C15.7494 12.4664 17.2906 12.8243 18.6594 13.4636C19.04 13.6417 19.5031 13.5882 19.8031 13.3015L19.8331 13.2748ZM16.1094 16.8112C16.4769 16.4622 16.4806 15.8853 16.0344 15.636C15.4559 15.309 14.795 15.1367 14.1219 15.1374C13.4487 15.1367 12.7878 15.309 12.2094 15.636C11.7631 15.8853 11.7669 16.4622 12.1344 16.8112L13.4581 18.0684C13.6339 18.2353 13.8723 18.3291 14.1209 18.3291C14.3695 18.3291 14.6079 18.2353 14.7837 18.0684L16.1094 16.8095V16.8112Z" fill="black"/>
</svg>
