<svg width="35" height="30" viewBox="0 0 35 30" fill="none" xmlns="http://www.w3.org/2000/svg">
<path d="M32.0438 8.73517C31.7846 8.63323 31.5085 8.58127 31.23 8.58204H31.2008C29.7301 8.60391 28.0807 9.98131 27.2152 12.0645C26.1776 14.5568 26.6552 17.1067 28.29 17.7622C28.5489 17.8642 28.8248 17.9161 29.103 17.9154C30.5811 17.9154 32.253 16.53 33.1258 14.4329C34.1562 11.9406 33.6713 9.39069 32.0438 8.73517Z" fill="#3551B6" stroke="#3551B6" stroke-width="1.875" stroke-miterlimit="10"/>
<path d="M22.5539 18.4608C20.5268 15.0971 19.6518 13.832 17.3331 13.832C15.0143 13.832 14.132 15.1052 12.105 18.4608C10.3695 21.3308 6.86225 21.5699 5.98725 24.0076C5.80973 24.454 5.72059 24.9307 5.72475 25.4112C5.72475 27.3938 7.24141 28.9987 9.10808 28.9987C11.4268 28.9987 14.5841 27.1473 17.3404 27.1473C20.0966 27.1473 23.2393 28.9987 25.5581 28.9987C27.4247 28.9987 28.9341 27.3945 28.9341 25.4112C28.9358 24.9303 28.8442 24.4536 28.6643 24.0076C27.7893 21.5612 24.2893 21.3308 22.5539 18.4608Z" fill="#3551B6" stroke="#3551B6" stroke-width="1.875" stroke-miterlimit="10"/>
<path d="M12.7038 10.625C12.8014 10.6251 12.8989 10.6178 12.9955 10.6031C14.6879 10.3574 15.7444 8.0124 15.3609 5.36406C14.9999 2.8674 13.4847 1 11.9003 1C11.8026 0.999922 11.7051 1.00723 11.6086 1.02188C9.9162 1.26761 8.85963 3.6126 9.24318 6.26094C9.60411 8.75031 11.1193 10.625 12.7038 10.625Z" fill="#3551B6" stroke="#3551B6" stroke-width="1.875" stroke-miterlimit="10"/>
<path d="M25.4212 6.26094C25.8047 3.6126 24.7482 1.26761 23.0558 1.02188C22.9592 1.00723 22.8617 0.999922 22.7641 1C21.1796 1 19.6673 2.8674 19.3057 5.36406C18.9221 8.0124 19.9787 10.3574 21.6711 10.6031C21.7676 10.6178 21.8651 10.6251 21.9628 10.625C23.5472 10.625 25.0624 8.75031 25.4212 6.26094Z" fill="#3551B6" stroke="#3551B6" stroke-width="1.875" stroke-miterlimit="10"/>
<path d="M6.37893 17.7622C8.01153 17.106 8.48841 14.5539 7.45226 12.0645C6.58018 9.96746 4.90966 8.58204 3.43383 8.58204C3.15558 8.58128 2.87971 8.63323 2.6208 8.73516C0.9882 9.39141 0.511325 11.9435 1.54747 14.4329C2.41955 16.53 4.09008 17.9154 5.56591 17.9154C5.84416 17.9161 6.12003 17.8642 6.37893 17.7622Z" fill="#3551B6" stroke="#3551B6" stroke-width="1.875" stroke-miterlimit="10"/>
</svg>
