<svg width="28" height="42" viewBox="0 0 28 42" fill="none" xmlns="http://www.w3.org/2000/svg">
<path d="M20.125 0H7.875C3.53325 0 0 3.53325 0 7.875V34.125C0 38.4668 3.53325 42 7.875 42H20.125C24.4667 42 28 38.4668 28 34.125V7.875C28 3.53325 24.4667 0 20.125 0ZM18.9123 1.75L18.3435 3.4545C17.9848 4.529 16.9837 5.25 15.8533 5.25H12.1485C11.018 5.25 10.017 4.529 9.65825 3.4545L9.0895 1.75H18.9123ZM26.25 34.125C26.25 37.5025 23.5025 40.25 20.125 40.25H7.875C4.4975 40.25 1.75 37.5025 1.75 34.125V7.875C1.75 4.7075 4.17725 2.12275 7.26425 1.81125L7.99575 4.0075C8.5925 5.796 10.2603 6.99825 12.1467 6.99825H15.8515C17.738 6.99825 19.4058 5.796 20.0025 4.0075L20.734 1.81125C23.821 2.12275 26.2483 4.70575 26.2483 7.875L26.25 34.125Z" fill="white"/>
<path d="M16.625 35H11.375C10.892 35 10.5 35.392 10.5 35.875C10.5 36.358 10.892 36.75 11.375 36.75H16.625C17.108 36.75 17.5 36.358 17.5 35.875C17.5 35.392 17.108 35 16.625 35Z" fill="white"/>
</svg>
