<svg width="23" height="23" viewBox="0 0 23 23" fill="none" xmlns="http://www.w3.org/2000/svg">
<path d="M22.0417 15.3333C22.5716 15.3333 23 14.905 23 14.375V13.0573C23 10.0941 20.9578 7.60629 18.2083 6.90958V5.86979C18.2083 2.6335 15.5748 0 12.3385 0C9.43575 0 6.99775 2.08054 6.54062 4.94788L3.97325 21.0833H0.958333C0.428375 21.0833 0 21.5117 0 22.0417C0 22.5716 0.428375 23 0.958333 23H3.97325C4.92104 23 5.71646 22.3205 5.86596 21.3842L8.43333 5.24879C8.74096 3.31775 10.3835 1.91571 12.3385 1.91571C14.5178 1.91571 16.2917 3.68958 16.2917 5.86883V6.70738H15.3333C13.7483 6.70738 12.4583 7.99729 12.4583 9.58237V20.124C12.4583 21.7091 13.7483 22.999 15.3333 22.999H19.6458C21.4954 22.999 23 21.4945 23 19.6449C23 17.7953 21.4954 16.2907 19.6458 16.2907C17.7962 16.2907 16.2917 17.7953 16.2917 19.6449C16.2917 20.1614 16.4191 20.6454 16.628 21.0824H15.3333C14.8043 21.0824 14.375 20.653 14.375 20.124V9.58237C14.375 9.05337 14.8043 8.62404 15.3333 8.62404H16.651C19.0948 8.62404 21.0833 10.6126 21.0833 13.0563V14.374C21.0833 14.904 21.5117 15.3324 22.0417 15.3324V15.3333ZM18.2083 19.6458C18.2083 18.8533 18.8533 18.2083 19.6458 18.2083C20.4384 18.2083 21.0833 18.8533 21.0833 19.6458C21.0833 20.4384 20.4384 21.0833 19.6458 21.0833C18.8533 21.0833 18.2083 20.4384 18.2083 19.6458Z" fill="black"/>
</svg>
