<svg width="22" height="27" viewBox="0 0 22 27" fill="none" xmlns="http://www.w3.org/2000/svg">
<path fill-rule="evenodd" clip-rule="evenodd" d="M6.75 0C6.20299 0 5.67839 0.217299 5.29159 0.604092C4.9048 0.990886 4.6875 1.51549 4.6875 2.0625H2.625C2.07799 2.0625 1.55339 2.2798 1.16659 2.66659C0.779798 3.05339 0.5625 3.57799 0.5625 4.125V23.375C0.5625 23.922 0.779798 24.4466 1.16659 24.8334C1.55339 25.2202 2.07799 25.4375 2.625 25.4375H10.875V24.0625H2.625C2.44266 24.0625 2.2678 23.9901 2.13886 23.8611C2.00993 23.7322 1.9375 23.5573 1.9375 23.375V4.125C1.9375 3.94266 2.00993 3.7678 2.13886 3.63886C2.2678 3.50993 2.44266 3.4375 2.625 3.4375H4.6875C4.6875 3.98451 4.9048 4.50911 5.29159 4.89591C5.67839 5.2827 6.20299 5.5 6.75 5.5H12.25C12.797 5.5 13.3216 5.2827 13.7084 4.89591C14.0952 4.50911 14.3125 3.98451 14.3125 3.4375H16.375C16.5573 3.4375 16.7322 3.50993 16.8611 3.63886C16.9901 3.7678 17.0625 3.94266 17.0625 4.125V14.4375H18.4375V4.125C18.4375 3.57799 18.2202 3.05339 17.8334 2.66659C17.4466 2.2798 16.922 2.0625 16.375 2.0625H14.3125C14.3125 1.51549 14.0952 0.990886 13.7084 0.604092C13.3216 0.217299 12.797 0 12.25 0H6.75ZM6.0625 2.0625C6.0625 1.88016 6.13493 1.7053 6.26386 1.57636C6.39279 1.44743 6.56766 1.375 6.75 1.375H12.25C12.4323 1.375 12.6072 1.44743 12.7361 1.57636C12.8651 1.7053 12.9375 1.88016 12.9375 2.0625V3.4375C12.9375 3.61984 12.8651 3.7947 12.7361 3.92364C12.6072 4.05257 12.4323 4.125 12.25 4.125H6.75C6.56766 4.125 6.39279 4.05257 6.26386 3.92364C6.13493 3.7947 6.0625 3.61984 6.0625 3.4375V2.0625ZM8.8125 10.3125V8.25H10.1875V10.3125H12.25V11.6875H10.1875V13.75H8.8125V11.6875H6.75V10.3125H8.8125ZM11.5625 16.5C11.5625 16.3177 11.6349 16.1428 11.7639 16.0139C11.8928 15.8849 12.0677 15.8125 12.25 15.8125H20.5C20.6823 15.8125 20.8572 15.8849 20.9861 16.0139C21.1151 16.1428 21.1875 16.3177 21.1875 16.5V21.1674C21.1875 21.9597 20.9919 22.7396 20.618 23.4381C20.2442 24.1366 19.7037 24.732 19.0446 25.1714L16.7566 26.6977C16.6436 26.7731 16.5108 26.8133 16.375 26.8133C16.2392 26.8133 16.1064 26.7731 15.9934 26.6977L13.7054 25.1714C13.0464 24.732 12.506 24.1368 12.1321 23.4384C11.7583 22.7401 11.5626 21.9602 11.5625 21.1681V16.5ZM12.9375 17.1875V21.1674C12.9376 21.7333 13.0773 22.2905 13.3444 22.7894C13.6115 23.2883 13.9977 23.7136 14.4686 24.0274L16.375 25.3L18.2814 24.0281C18.7523 23.7143 19.1385 23.289 19.4056 22.7901C19.6727 22.2912 19.8124 21.734 19.8125 21.1681V17.1875H12.9375ZM16.1736 22.4861L18.9236 19.7361L17.9514 18.7639L15.6875 21.0279L14.7986 20.1389L13.8264 21.1111L15.2014 22.4861C15.3304 22.6149 15.5052 22.6874 15.6875 22.6874C15.8698 22.6874 16.0446 22.6149 16.1736 22.4861Z" fill="black"/>
</svg>
