<svg width="23" height="23" viewBox="0 0 23 23" fill="none" xmlns="http://www.w3.org/2000/svg">
<path d="M4.79167 23C2.14954 23 0 20.8505 0 18.2083V4.79167C0 2.14954 2.14954 0 4.79167 0H18.2083C20.8505 0 23 2.14954 23 4.79167V11.5C23 12.029 22.5707 12.4583 22.0417 12.4583C21.5127 12.4583 21.0833 12.029 21.0833 11.5V4.79167C21.0833 3.20658 19.7934 1.91667 18.2083 1.91667H4.79167C3.20658 1.91667 1.91667 3.20658 1.91667 4.79167V18.2083C1.91667 19.7934 3.20658 21.0833 4.79167 21.0833C5.32067 21.0833 5.75 21.5117 5.75 22.0417C5.75 22.5716 5.32067 23 4.79167 23ZM4.79167 3.83333C4.26267 3.83333 3.83333 4.26267 3.83333 4.79167C3.83333 5.32067 4.26267 5.75 4.79167 5.75C5.32067 5.75 5.75 5.32067 5.75 4.79167C5.75 4.26267 5.32067 3.83333 4.79167 3.83333ZM8.625 3.83333C8.096 3.83333 7.66667 4.26267 7.66667 4.79167C7.66667 5.32067 8.096 5.75 8.625 5.75C9.154 5.75 9.58333 5.32067 9.58333 4.79167C9.58333 4.26267 9.154 3.83333 8.625 3.83333ZM18.6204 22.978C18.9328 22.9712 19.252 22.932 19.5711 22.8601C21.207 22.4863 22.5055 21.1916 22.8802 19.5596C23.4255 17.1839 22.0282 14.8302 19.7005 14.2025C19.6362 14.1852 19.5481 14.168 19.4436 14.1479C19.1274 14.0894 18.813 14.0185 18.7383 13.8393C17.8001 11.5776 15.4435 10.2465 13.0075 10.6001C10.9116 10.9049 9.16167 12.512 8.65375 14.6002C8.45921 15.3985 8.44675 16.2035 8.61542 16.9385C7.17025 17.5586 6.41412 19.1264 6.8195 20.6674C7.09837 21.7264 7.96279 22.5908 9.01983 22.8687C9.26229 22.9329 9.51433 22.9693 9.77117 22.978C10.3577 22.9942 11.9955 23 13.7233 23C15.7464 23 17.894 22.9904 18.6223 22.978H18.6204ZM16.9673 14.5743C17.4493 15.731 18.6463 15.9505 19.0977 16.0329L19.206 16.053C20.3684 16.3693 21.3622 17.6046 21.0124 19.1293C20.8045 20.0349 20.0541 20.7834 19.1465 20.9894C18.9558 21.0325 18.767 21.0555 18.585 21.0594C17.1053 21.0872 10.9969 21.091 9.82771 21.0594C9.71942 21.0555 9.61208 21.0392 9.50762 21.0124C9.11183 20.9089 8.77642 20.5725 8.67196 20.1768C8.48029 19.4475 8.90004 18.8993 9.36963 18.6971C10.2034 18.3406 10.6739 17.4522 10.488 16.5849C10.3797 16.0828 10.3883 15.5662 10.5148 15.0497C10.8397 13.7137 11.9523 12.6874 13.2825 12.4938C13.4521 12.4689 13.6217 12.4564 13.7885 12.4564C15.1675 12.4564 16.4306 13.2758 16.9673 14.5715V14.5743Z" fill="black"/>
</svg>
