<svg width="23" height="23" viewBox="0 0 23 23" fill="none" xmlns="http://www.w3.org/2000/svg">
<path d="M23 5.27157V15.8128C23 16.0773 22.7853 16.2919 22.5208 16.2919C22.2563 16.2919 22.0417 16.0773 22.0417 15.8128V5.27157C22.0417 4.84992 21.8577 4.45031 21.5357 4.17624C21.2089 3.89738 20.793 3.78334 20.3588 3.85426C19.6794 3.96446 19.1667 4.61802 19.1667 5.37411V10.063C19.1667 10.3275 18.952 10.5422 18.6875 10.5422C18.423 10.5422 18.2084 10.3275 18.2084 10.063V3.35499C18.2084 2.56248 17.5634 1.91755 16.7709 1.91755C15.9783 1.91755 15.3334 2.56248 15.3334 3.35499V10.063C15.3334 10.3275 15.1187 10.5422 14.8542 10.5422C14.5897 10.5422 14.375 10.3275 14.375 10.063V2.39669C14.375 1.60418 13.7301 0.959252 12.9375 0.959252C12.145 0.959252 11.5 1.60418 11.5 2.39669V10.063C11.5 10.3275 11.2854 10.5422 11.0209 10.5422C10.7564 10.5422 10.5417 10.3275 10.5417 10.063V4.41582C10.5417 3.65972 10.029 3.00617 9.34859 2.89596C8.9183 2.82697 8.50047 2.94004 8.17272 3.21795C7.85072 3.49202 7.66576 3.89163 7.66576 4.31328V15.8128C7.66576 16.0035 7.55268 16.176 7.37731 16.2517C7.20289 16.3274 6.99972 16.2929 6.85885 16.1626L4.33173 13.8033C3.75386 13.2637 2.84441 13.2934 2.30391 13.8713C1.76245 14.4501 1.79216 15.3634 2.37099 15.9058L6.64706 20.0283C7.99351 21.3259 9.76546 22.0417 11.6361 22.0417H15.8116C16.0761 22.0417 16.2907 22.2564 16.2907 22.5209C16.2907 22.7853 16.0761 23 15.8116 23H11.6361C9.5163 23 7.5086 22.1893 5.98198 20.7183L1.7107 16.6005C0.752372 15.7016 0.702539 14.1827 1.60433 13.2177C2.04037 12.7511 2.63262 12.4818 3.27182 12.4597C3.89186 12.4396 4.51861 12.6667 4.98627 13.1027L6.70743 14.7088V4.31328C6.70743 3.60989 7.01506 2.94388 7.55172 2.48773C8.08935 2.03158 8.80138 1.83801 9.50192 1.94917C9.89005 2.01242 10.2408 2.18299 10.5408 2.42065V2.39573C10.5408 1.07521 11.616 0 12.9366 0C13.9687 0 14.8427 0.659306 15.1791 1.57639C15.6036 1.19691 16.1575 0.958293 16.7699 0.958293C18.0914 0.958293 19.1657 2.0335 19.1657 3.35403V3.37798C19.4657 3.14033 19.8164 2.96975 20.2046 2.9065C20.9051 2.79343 21.619 2.98796 22.1548 3.44507C22.6914 3.90121 22.999 4.56627 22.999 5.27061L23 5.27157ZM16.2917 14.3322C16.2917 14.1128 16.1422 13.9202 15.9285 13.8675L14.2907 13.4583L13.8815 11.8205C13.7751 11.3941 13.0583 11.3941 12.951 11.8205L12.5437 13.4516L10.9126 13.8291C10.6979 13.879 10.5446 14.0677 10.5408 14.2882C10.5369 14.5086 10.6826 14.7021 10.8953 14.7587L12.5398 15.2014L12.951 16.8449C13.0046 17.0586 13.1963 17.2081 13.4157 17.2081C13.6352 17.2081 13.8278 17.0586 13.8805 16.8449L14.2897 15.2072L15.9275 14.798C16.1412 14.7443 16.2907 14.5526 16.2907 14.3332L16.2917 14.3322ZM23 19.1668C23 19.3633 22.8812 19.5386 22.6991 19.6115L20.494 20.4931L19.6113 22.6981C19.5395 22.8802 19.3622 22.999 19.1667 22.999C18.9712 22.999 18.7939 22.8793 18.722 22.6981L17.8375 20.4883L15.6257 19.5569C15.4455 19.4802 15.3286 19.3019 15.3324 19.1065C15.3362 18.911 15.4589 18.7366 15.6419 18.6676L17.8404 17.8358L18.7211 15.6355C18.8648 15.2714 19.4657 15.2714 19.6104 15.6355L20.493 17.8405L22.6981 18.7222C22.8802 18.795 23 18.9713 23 19.1668ZM21.23 19.1668L19.9468 18.6532C19.8251 18.6043 19.7283 18.5085 19.6803 18.3858L19.1667 17.1027L18.653 18.3858C18.6032 18.5104 18.5035 18.6081 18.378 18.6561L17.1034 19.1381L18.3952 19.6824C18.5131 19.7322 18.607 19.8271 18.654 19.9459L19.1676 21.2291L19.6813 19.9459C19.7302 19.8242 19.826 19.7274 19.9477 19.6786L21.2309 19.1649L21.23 19.1668ZM1.94166 8.29786C2.00683 8.49335 2.18987 8.6256 2.39591 8.6256C2.60195 8.6256 2.78499 8.49335 2.85016 8.29786L3.25361 7.08754L4.46398 6.6841C4.65948 6.61893 4.79173 6.4359 4.79173 6.22987C4.79173 6.02383 4.65948 5.8408 4.46398 5.77563L3.25361 5.37219L2.85016 4.16187C2.71982 3.77088 2.07199 3.77088 1.94166 4.16187L1.54012 5.36644L0.336457 5.74305C0.14 5.80438 0.00391685 5.98454 8.35354e-05 6.19153C-0.00374978 6.39853 0.124666 6.58348 0.319207 6.65151L1.53629 7.08179L1.94166 8.29786Z" fill="black"/>
</svg>
