<svg width="82" height="82" viewBox="0 0 82 82" fill="none" xmlns="http://www.w3.org/2000/svg">
<path d="M42.3472 43.2005C43.0381 43.86 43.0486 44.9432 42.3717 45.6163C41.6878 46.286 40.583 46.2929 39.8921 45.6368C39.0714 44.8543 37.9806 44.4204 36.8232 44.4204C34.4066 44.4204 32.439 46.3373 32.439 48.6916C32.439 49.1084 32.5934 50.6153 33.6245 56.0688C33.7192 56.5676 33.5824 57.0836 33.2492 57.4731C32.916 57.8592 32.4215 58.0882 31.9024 58.0882H26.3048C19.5357 58.0882 14.0292 52.7236 14.0292 46.1288V42.7187C9.68717 43.4705 8.44208 43.5661 7.89143 43.5661C3.53887 43.5661 0 40.115 0 35.878C0 31.641 3.53887 28.1898 7.89143 28.1898C8.44208 28.1898 9.68717 28.2855 14.0292 29.0372V25.6271C14.0292 19.0324 19.5357 13.6678 26.3048 13.6678H29.8051C29.037 9.4342 28.9352 8.22118 28.9352 7.68814C28.9352 3.45112 32.4741 0 36.8267 0C41.1792 0 44.7181 3.45112 44.7181 7.68814C44.7181 8.22118 44.6199 9.4342 43.8483 13.6678H47.3486C54.1177 13.6678 59.6241 19.0324 59.6241 25.6271V35.878C59.6241 36.8211 58.8385 37.5865 57.8705 37.5865C56.9025 37.5865 56.1168 36.8211 56.1168 35.878V25.6271C56.1168 20.9152 52.1817 17.0848 47.3486 17.0848H41.7509C41.2318 17.0848 40.7373 16.8592 40.4041 16.4697C40.0709 16.0802 39.9341 15.5642 40.0288 15.0653C41.06 9.61188 41.2143 8.10501 41.2143 7.68814C41.2143 5.33386 39.2467 3.41695 36.8302 3.41695C34.4137 3.41695 32.4461 5.33386 32.4461 7.68814C32.4461 8.10501 32.6004 9.61188 33.6315 15.0653C33.7262 15.5642 33.5894 16.0802 33.2562 16.4697C32.923 16.8558 32.4285 17.0848 31.9094 17.0848H26.3118C21.4787 17.0848 17.5435 20.9152 17.5435 25.6271V31.084C17.5435 31.5897 17.312 32.0715 16.9122 32.3995C16.5124 32.7241 15.9863 32.8574 15.4707 32.7617C9.67314 31.7196 8.24216 31.6068 7.89845 31.6068C5.48191 31.6068 3.51432 33.5237 3.51432 35.878C3.51432 38.2323 5.48191 40.1492 7.89845 40.1492C8.24567 40.1492 9.67314 40.0364 15.4707 38.9942C15.9898 38.902 16.5124 39.0352 16.9122 39.3564C17.312 39.6845 17.5435 40.1628 17.5435 40.672V46.1288C17.5435 50.8408 21.4787 54.6712 26.3118 54.6712H29.8121C29.044 50.4376 28.9423 49.2246 28.9423 48.6916C28.9423 44.4545 32.4811 41.0034 36.8337 41.0034C38.9135 41.0034 40.8741 41.7859 42.3577 43.2039L42.3472 43.2005ZM70.1425 61.5017C70.1425 65.2706 66.9965 68.3356 63.1279 68.3356C59.2594 68.3356 56.1133 65.2706 56.1133 61.5017C56.1133 57.7328 59.2594 54.6678 63.1279 54.6678C66.9965 54.6678 70.1425 57.7328 70.1425 61.5017ZM66.6352 61.5017C66.6352 59.6156 65.0605 58.0848 63.1279 58.0848C61.1954 58.0848 59.6206 59.6156 59.6206 61.5017C59.6206 63.3879 61.1954 64.9187 63.1279 64.9187C65.0605 64.9187 66.6352 63.3879 66.6352 61.5017ZM81.8289 68.0042C82.1831 69.3334 81.9832 70.7104 81.2677 71.8927C80.5557 73.0715 79.4159 73.9121 78.055 74.2538C76.6977 74.6091 75.2772 74.4075 74.0672 73.7105L73.2851 73.2628C71.8541 74.4246 70.1952 75.3335 68.3889 75.9486V76.8746C68.3889 79.7004 66.0285 82 63.1279 82C60.2274 82 57.867 79.7004 57.867 76.8746V75.9486C56.0607 75.3335 54.4018 74.4246 52.9708 73.2628L52.1887 73.7105C50.9786 74.4075 49.5617 74.6091 48.2009 74.2538C46.84 73.9087 45.7002 73.0681 44.9847 71.8892C44.2727 70.7104 44.0728 69.3334 44.427 68.0042C44.7812 66.6784 45.6405 65.5679 46.8505 64.8742L47.6713 64.4027C47.4468 63.381 47.3416 62.438 47.3416 61.4983C47.3416 60.5586 47.4468 59.6156 47.6713 58.5905L46.8505 58.1189C45.6405 57.4287 44.7777 56.3182 44.4235 54.989C44.0693 53.6632 44.2692 52.2862 44.9847 51.1039C45.6966 49.9251 46.8365 49.0845 48.1974 48.7428C49.5582 48.3943 50.9751 48.5925 52.1852 49.2861L52.9673 49.7337C54.3983 48.572 56.0572 47.6631 57.8635 47.048V46.122C57.8635 43.2962 60.2239 40.9966 63.1244 40.9966C66.025 40.9966 68.3854 43.2962 68.3854 46.122V47.048C70.1917 47.6631 71.8506 48.572 73.2816 49.7337L74.0637 49.2861C75.2737 48.5925 76.6942 48.3943 78.0515 48.7428C79.4123 49.0879 80.5522 49.9285 81.2677 51.1073C81.9797 52.2862 82.1796 53.6632 81.8254 54.989C81.4711 56.3182 80.6083 57.4287 79.3983 58.1223L78.5811 58.5905C78.8056 59.6156 78.9108 60.5586 78.9108 61.4983C78.9108 62.438 78.8056 63.381 78.5811 64.4027L79.3983 64.8708C80.6118 65.5679 81.4746 66.6784 81.8254 68.0042H81.8289ZM75.6736 56.2977L77.6236 55.1803C78.027 54.948 78.3146 54.5755 78.4303 54.1348C78.5496 53.694 78.4829 53.2327 78.2444 52.8431C78.0059 52.4468 77.6236 52.1666 77.1712 52.0538C76.7187 51.9377 76.2453 52.0026 75.8419 52.2349L73.9445 53.3215C73.257 53.7179 72.3802 53.612 71.8155 53.0584C70.3074 51.5823 68.3643 50.5196 66.1933 49.9729C65.4182 49.7747 64.8781 49.0948 64.8781 48.3191V46.1254C64.8781 45.1858 64.0925 44.4169 63.1244 44.4169C62.1564 44.4169 61.3708 45.1858 61.3708 46.1254V48.3191C61.3708 49.0982 60.8307 49.7781 60.0555 49.9729C57.8845 50.5196 55.9415 51.5857 54.4333 53.0584C53.8687 53.612 52.9883 53.7179 52.3044 53.3215L50.407 52.2349C50.0001 52.006 49.5371 51.9411 49.0777 52.0538C48.6252 52.1666 48.2465 52.4468 48.008 52.8397C47.7695 53.2327 47.7028 53.694 47.8221 54.1348C47.9378 54.5755 48.2254 54.9446 48.6288 55.1769L50.5823 56.2977C51.2698 56.6906 51.5994 57.4902 51.382 58.2351C51.0207 59.4686 50.8524 60.5074 50.8524 61.4983C50.8524 62.4892 51.0207 63.528 51.382 64.7615C51.5994 65.5098 51.2733 66.3094 50.5823 66.7023L48.6323 67.8162C48.2289 68.0452 47.9448 68.4176 47.8256 68.8618C47.7063 69.3026 47.773 69.7639 48.0115 70.1534C48.25 70.5498 48.6323 70.83 49.0847 70.9427C49.5406 71.0589 50.0071 70.994 50.414 70.7616L52.3114 69.6751C52.5885 69.5145 52.8971 69.4393 53.1988 69.4393C53.6512 69.4393 54.1036 69.6101 54.4403 69.9382C55.9485 71.4143 57.8915 72.477 60.0626 73.0237C60.8377 73.2218 61.3778 73.9018 61.3778 74.6775V76.8711C61.3778 77.8108 62.1634 78.5796 63.1315 78.5796C64.0995 78.5796 64.8851 77.8108 64.8851 76.8711V74.6775C64.8851 73.8984 65.4252 73.2184 66.2003 73.0237C68.3714 72.477 70.3144 71.4109 71.8225 69.9382C72.3872 69.3846 73.2676 69.2753 73.9515 69.6751L75.8489 70.7616C76.2558 70.994 76.7258 71.0589 77.1782 70.9427C77.6306 70.83 78.0094 70.5498 78.2479 70.1568C78.4864 69.7639 78.5531 69.3026 78.4338 68.8618C78.3146 68.4176 78.0305 68.0486 77.6271 67.8128L75.6771 66.7023C74.9861 66.3094 74.6564 65.5064 74.8774 64.7615C75.2387 63.528 75.407 62.4892 75.407 61.4983C75.407 60.5074 75.2387 59.4686 74.8774 58.2351C74.66 57.4868 74.9826 56.6906 75.6736 56.2977Z" fill="#32F0CD"/>
</svg>
