<svg width="32" height="35" viewBox="0 0 32 35" fill="none" xmlns="http://www.w3.org/2000/svg">
<path d="M25.3337 11.3333C27.911 11.3333 30.0003 9.244 30.0003 6.66667C30.0003 4.08934 27.911 2 25.3337 2C22.7563 2 20.667 4.08934 20.667 6.66667C20.667 9.244 22.7563 11.3333 25.3337 11.3333Z" stroke="#484848" stroke-width="3" stroke-linecap="round" stroke-linejoin="round"/>
<path d="M6.66667 22.222C9.244 22.222 11.3333 20.1327 11.3333 17.5553C11.3333 14.978 9.244 12.8887 6.66667 12.8887C4.08934 12.8887 2 14.978 2 17.5553C2 20.1327 4.08934 22.222 6.66667 22.222Z" stroke="#484848" stroke-width="3" stroke-linecap="round" stroke-linejoin="round"/>
<path d="M25.3337 33.1107C27.911 33.1107 30.0003 31.0213 30.0003 28.444C30.0003 25.8667 27.911 23.7773 25.3337 23.7773C22.7563 23.7773 20.667 25.8667 20.667 28.444C20.667 31.0213 22.7563 33.1107 25.3337 33.1107Z" stroke="#484848" stroke-width="3" stroke-linecap="round" stroke-linejoin="round"/>
<path d="M10.6953 19.9043L21.3198 26.0954" stroke="#484848" stroke-width="3" stroke-linecap="round" stroke-linejoin="round"/>
<path d="M21.3042 9.01562L10.6953 15.2067" stroke="#484848" stroke-width="3" stroke-linecap="round" stroke-linejoin="round"/>
</svg>
