<svg width="209" height="44" viewBox="0 0 209 44" fill="none" xmlns="http://www.w3.org/2000/svg">
<path d="M24.2822 28.3583H16.402V23.1167L24.2822 18.1172V28.3583ZM17.3863 27.374H23.2993V19.9952L17.3863 23.6308V27.374Z" fill="#32F0CD"/>
<path d="M24.2821 32.764H10.217V19.475L21.2824 11.6133L26.1913 15.1016V11.7252H29.6597V17.5659L32.3478 19.4765V28.3608H24.2821V32.764ZM11.2014 31.7797H23.2992V27.375H31.3649V19.9821L28.6768 18.0715V12.7066H27.177V17.005L21.2838 12.8185L11.2028 19.9821V31.7797H11.2014Z" fill="#32F0CD"/>
<path opacity="0.2" d="M25.3103 27.375H24.2821V28.3593H25.3103V27.375Z" fill="black"/>
<path opacity="0.2" d="M23.2993 28.3585V29.3867H24.2836V28.3585H23.2993Z" fill="black"/>
<path d="M21.2824 43.2836C15.5975 43.2836 10.2539 41.07 6.23305 37.0506C2.21223 33.0312 0 27.6861 0 22.0012C0 16.3162 2.21365 10.9726 6.23305 6.9518C10.2524 2.93098 15.5975 0.71875 21.2824 0.71875C26.9674 0.71875 32.311 2.9324 36.3318 6.9518C40.3526 10.9712 42.5648 16.3162 42.5648 22.0012C42.5648 27.6861 40.3512 33.0297 36.3318 37.0506C32.3124 41.0714 26.9674 43.2836 21.2824 43.2836ZM21.2824 1.90277C10.2 1.90277 1.18401 10.9188 1.18401 22.0012C1.18401 33.0836 10.2 42.0996 21.2824 42.0996C32.3648 42.0996 41.3808 33.0836 41.3808 22.0012C41.3808 10.9188 32.3648 1.90277 21.2824 1.90277Z" fill="white"/>
<path d="M52.3784 30.9492C50.9819 30.3472 49.771 29.4734 48.7442 28.329C48.6252 28.1917 48.5671 28.0571 48.5671 27.9296C48.5671 27.7809 48.6408 27.6336 48.7895 27.4849L51.0697 25.2939C51.1972 25.1665 51.3317 25.1013 51.4691 25.1013C51.6263 25.1013 51.7693 25.175 51.8982 25.3237C52.5596 26.0049 53.3088 26.5204 54.1487 26.8703C54.9871 27.2201 55.8511 27.3957 56.7391 27.3957C57.6866 27.3957 58.4145 27.2201 58.923 26.8703C59.4314 26.5204 59.6849 26.0389 59.6849 25.4271C59.6849 25.0121 59.5688 24.6594 59.3365 24.3691C59.1043 24.0788 58.7049 23.804 58.1369 23.5477C57.569 23.2913 56.7575 23.0095 55.7009 22.7036C53.9844 22.2107 52.4931 21.4601 51.2297 20.4531C49.9664 19.4461 49.3348 18.0454 49.3348 16.2496C49.3348 15.1732 49.6109 14.1875 50.1633 13.2896C50.7156 12.3916 51.5442 11.6736 52.6503 11.1354C53.755 10.5972 55.1033 10.3281 56.6923 10.3281C58.035 10.3281 59.3195 10.5675 60.5489 11.0462C61.7768 11.5249 62.8758 12.1735 63.8431 12.9921C63.9918 13.1111 64.0655 13.2485 64.0655 13.4071C64.0655 13.5459 64.006 13.6833 63.8884 13.8221L61.8009 16.1901C61.672 16.3473 61.5289 16.4266 61.3717 16.4266C61.2428 16.4266 61.1097 16.3728 60.9723 16.2637C60.4002 15.8205 59.7458 15.448 59.0108 15.1463C58.2757 14.846 57.552 14.6945 56.8425 14.6945C56.0338 14.6945 55.3993 14.8305 54.9404 15.1024C54.4815 15.3743 54.2521 15.7709 54.2521 16.2935C54.2521 16.7085 54.3852 17.0512 54.6515 17.3217C54.9177 17.5936 55.2704 17.8245 55.7094 18.0171C56.1485 18.2097 56.8071 18.4491 57.6851 18.7352C57.7248 18.7451 57.848 18.7847 58.0548 18.8541C59.4753 19.3272 60.6508 19.8356 61.5785 20.3795C62.5062 20.9219 63.2313 21.5932 63.7553 22.3934C64.2779 23.1922 64.5399 24.1694 64.5399 25.3251C64.5399 26.638 64.2184 27.788 63.5783 28.7737C62.9367 29.7609 62.0331 30.52 60.8689 31.054C59.7048 31.5865 58.3621 31.8527 56.8425 31.8527C55.2619 31.8527 53.7748 31.5511 52.3784 30.9492Z" fill="#32F0CD"/>
<path d="M67.1714 10.9054V7.82638C67.1714 7.43124 67.3683 7.23438 67.7634 7.23438H71.1837C71.5788 7.23438 71.7757 7.43124 71.7757 7.82638V10.9054C71.7757 11.3005 71.5788 11.4974 71.1837 11.4974H67.7634C67.3683 11.4974 67.1714 11.3005 67.1714 10.9054Z" fill="white"/>
<path d="M71.154 31.5123H67.7932C67.398 31.5123 67.2012 31.3154 67.2012 30.9203V14.2365C67.2012 13.8414 67.398 13.6445 67.7932 13.6445H71.154C71.5492 13.6445 71.746 13.8428 71.746 14.2365V30.9203C71.746 31.314 71.5477 31.5123 71.154 31.5123Z" fill="#32F0CD"/>
<path d="M99.7797 14.1326C100.777 14.7444 101.546 15.648 102.09 16.8419C102.632 18.0359 102.904 19.4819 102.904 21.1786V30.9197C102.904 31.3149 102.707 31.5118 102.312 31.5118H98.9653C98.5702 31.5118 98.3733 31.3149 98.3733 30.9197V21.357C98.3733 20.173 98.0872 19.2383 97.5151 18.5514C96.9429 17.8659 96.1384 17.5232 95.1017 17.5232C94.4502 17.5232 93.8611 17.6917 93.3328 18.0259C92.8045 18.3616 92.3796 18.8106 92.0596 19.3728C91.7395 19.9351 91.5582 20.5427 91.52 21.1942V30.9197C91.52 31.3149 91.3231 31.5118 90.928 31.5118H87.5671C87.172 31.5118 86.9751 31.3149 86.9751 30.9197V21.357C86.9751 20.173 86.6919 19.2383 86.1239 18.5514C85.556 17.8659 84.7544 17.5232 83.7177 17.5232C83.0364 17.5232 82.4218 17.7087 81.8751 18.0783C81.3284 18.448 80.8979 18.9366 80.5877 19.5442C80.2761 20.1518 80.1217 20.8004 80.1217 21.4902V30.9197C80.1217 31.3149 79.9249 31.5118 79.5297 31.5118H76.1689C75.7738 31.5118 75.5769 31.3149 75.5769 30.9197V14.236C75.5769 13.8408 75.7738 13.644 76.1689 13.644H78.7593C79.1049 13.644 79.3272 13.8026 79.4249 14.1184L79.7507 15.1551C80.4319 14.5334 81.2137 14.0547 82.0974 13.719C82.9812 13.3834 83.906 13.2163 84.8734 13.2163C86.0673 13.2163 87.1252 13.4599 88.0487 13.9485C88.9721 14.4371 89.7184 15.1495 90.292 16.0871C90.9931 15.1693 91.8641 14.4612 92.9051 13.9626C93.946 13.4641 95.0692 13.2148 96.273 13.2148C97.6142 13.2148 98.7826 13.5208 99.7797 14.1326Z" fill="#32F0CD"/>
<path d="M119.962 14.5866C121.358 15.4108 122.463 16.5311 123.277 17.9474C124.092 19.3637 124.498 20.9159 124.498 22.6027C124.498 24.2909 124.093 25.8474 123.284 27.2736C122.476 28.6998 121.372 29.8271 119.976 30.6557C118.58 31.4842 117.047 31.8992 115.38 31.8992C114.453 31.8992 113.606 31.7462 112.841 31.4403C112.076 31.1344 111.402 30.7095 110.82 30.167V36.1777C110.82 36.5729 110.623 36.7697 110.228 36.7697H106.867C106.472 36.7697 106.275 36.5729 106.275 36.1777V14.2396C106.275 13.8444 106.472 13.6476 106.867 13.6476H109.398C109.733 13.6476 109.956 13.8062 110.063 14.122L110.419 15.4094C111.712 14.037 113.365 13.3516 115.379 13.3516C117.039 13.3516 118.565 13.7637 119.962 14.5866ZM117.697 26.9252C118.403 26.5102 118.955 25.931 119.356 25.186C119.755 24.441 119.955 23.5998 119.955 22.6622C119.955 21.7246 119.752 20.8777 119.347 20.1228C118.942 19.3679 118.386 18.7731 117.675 18.3383C116.964 17.9035 116.165 17.6868 115.277 17.6868C114.389 17.6868 113.584 17.9035 112.863 18.3383C112.143 18.7731 111.576 19.3665 111.161 20.1228C110.746 20.8777 110.539 21.7246 110.539 22.6622C110.539 23.5998 110.746 24.4382 111.161 25.1789C111.576 25.9196 112.145 26.4989 112.871 26.9181C113.596 27.3373 114.407 27.5469 115.305 27.5469C116.195 27.5469 116.99 27.3402 117.697 26.9252Z" fill="#32F0CD"/>
<path d="M131.024 31.5128H127.709C127.314 31.5128 127.117 31.3159 127.117 30.9207V8.967C127.117 8.57186 127.314 8.375 127.709 8.375H131.024C131.419 8.375 131.616 8.57328 131.616 8.967V30.9207C131.616 31.3145 131.418 31.5128 131.024 31.5128Z" fill="#32F0CD"/>
<path d="M135.432 10.9054V7.82638C135.432 7.43124 135.629 7.23438 136.024 7.23438H139.444C139.839 7.23438 140.036 7.43124 140.036 7.82638V10.9054C140.036 11.3005 139.839 11.4974 139.444 11.4974H136.024C135.63 11.4974 135.432 11.3005 135.432 10.9054Z" fill="white"/>
<path d="M139.414 31.5123H136.053C135.658 31.5123 135.461 31.3154 135.461 30.9203V14.2365C135.461 13.8414 135.658 13.6445 136.053 13.6445H139.414C139.809 13.6445 140.006 13.8428 140.006 14.2365V30.9203C140.006 31.314 139.809 31.5123 139.414 31.5123Z" fill="#32F0CD"/>
<path d="M146.62 31.5143H145.14C144.745 31.5143 144.548 31.3175 144.548 30.9223V11.3068C144.548 10.9117 144.745 10.7148 145.14 10.7148H146.62C147.015 10.7148 147.212 10.9117 147.212 11.3068V19.3301H159.145V11.3068C159.145 10.9117 159.341 10.7148 159.737 10.7148H161.217C161.612 10.7148 161.809 10.9117 161.809 11.3068V30.9209C161.809 31.316 161.612 31.5129 161.217 31.5129H159.737C159.341 31.5129 159.145 31.316 159.145 30.9209V21.8468H147.212V30.9209C147.212 31.316 147.015 31.5143 146.62 31.5143Z" fill="white"/>
<path d="M170.104 30.6912C168.727 29.8768 167.629 28.7665 166.809 27.3601C165.989 25.9537 165.58 24.4171 165.58 22.7487C165.58 21.0605 165.989 19.5125 166.809 18.1005C167.628 16.6899 168.728 15.571 170.111 14.7481C171.493 13.9239 172.987 13.5117 174.596 13.5117C176.195 13.5117 177.685 13.9239 179.067 14.7481C180.448 15.5724 181.549 16.6899 182.369 18.1005C183.187 19.5125 183.598 21.0605 183.598 22.7487C183.598 24.4171 183.186 25.9537 182.362 27.3601C181.537 28.7665 180.433 29.8768 179.046 30.6912C177.66 31.5055 176.167 31.912 174.568 31.912C172.967 31.912 171.48 31.5041 170.104 30.6912ZM177.794 28.5809C178.781 27.9889 179.57 27.1774 180.162 26.1449C180.754 25.1139 181.05 23.9766 181.05 22.7331C181.05 21.4896 180.754 20.3481 180.162 19.3057C179.57 18.2647 178.78 17.4461 177.794 16.8485C176.807 16.2522 175.746 15.9534 174.612 15.9534C173.467 15.9534 172.397 16.2522 171.4 16.8485C170.403 17.4461 169.608 18.2647 169.016 19.3057C168.424 20.3467 168.128 21.4896 168.128 22.7331C168.128 23.9766 168.424 25.1139 169.016 26.1449C169.608 27.176 170.403 27.9875 171.4 28.5809C172.397 29.1729 173.467 29.4689 174.612 29.4689C175.746 29.4689 176.807 29.1729 177.794 28.5809Z" fill="white"/>
<path d="M188.694 31.2665C187.574 30.8374 186.579 30.2525 185.711 29.5118C185.553 29.3843 185.475 29.2398 185.475 29.0826C185.475 28.9552 185.528 28.822 185.637 28.6832L186.392 27.706C186.531 27.5375 186.674 27.4539 186.821 27.4539C186.931 27.4539 187.064 27.5077 187.221 27.6168C187.952 28.1592 188.741 28.6039 189.589 28.9495C190.437 29.2951 191.297 29.4679 192.165 29.4679C192.866 29.4679 193.489 29.3517 194.037 29.1195C194.586 28.8872 195.012 28.56 195.318 28.1351C195.624 27.7117 195.777 27.2174 195.777 26.6551C195.777 26.0929 195.617 25.6283 195.295 25.2629C194.975 24.8975 194.515 24.5944 193.918 24.3523C193.321 24.1101 192.499 23.8509 191.454 23.5747C189.796 23.1399 188.469 22.4998 187.472 21.65C186.474 20.8017 185.976 19.6856 185.976 18.3047C185.976 17.4663 186.193 16.6817 186.627 15.9509C187.062 15.2201 187.732 14.6309 188.641 14.182C189.549 13.733 190.679 13.5078 192.032 13.5078C192.94 13.5078 193.87 13.6735 194.822 14.0035C195.774 14.3349 196.591 14.7952 197.272 15.3872C197.41 15.4963 197.479 15.6237 197.479 15.7724C197.479 15.9297 197.415 16.0784 197.286 16.2157L196.488 17.1774C196.369 17.3247 196.231 17.3998 196.073 17.3998C195.954 17.3998 195.816 17.3459 195.658 17.2369C195.145 16.8516 194.564 16.5415 193.918 16.305C193.271 16.0684 192.613 15.9495 191.943 15.9495C190.769 15.9495 189.888 16.1747 189.3 16.6236C188.712 17.0726 188.419 17.6518 188.419 18.3628C188.419 18.8274 188.552 19.2282 188.818 19.5695C189.085 19.9094 189.524 20.2238 190.136 20.5099C190.747 20.796 191.592 21.0821 192.666 21.3682C194.393 21.8327 195.751 22.4629 196.737 23.2631C197.724 24.0619 198.217 25.1822 198.217 26.624C198.217 27.5715 197.97 28.4496 197.476 29.2597C196.983 30.0684 196.282 30.7128 195.374 31.1915C194.467 31.6702 193.42 31.9095 192.236 31.9095C190.995 31.9109 189.813 31.6957 188.694 31.2665Z" fill="white"/>
<path d="M203.767 31.5158H202.405C202.01 31.5158 201.813 31.3189 201.813 30.9237V16.1944H200.17C199.775 16.1944 199.578 15.9976 199.578 15.6024V14.4184C199.578 14.0233 199.775 13.8264 200.17 13.8264H201.799V10.7616C201.799 10.3962 201.976 10.1838 202.331 10.1257L203.723 9.88917C203.763 9.87925 203.813 9.875 203.872 9.875C204.029 9.875 204.151 9.92458 204.235 10.0223C204.318 10.1214 204.361 10.2546 204.361 10.4217V13.8264H207.706C208.101 13.8264 208.298 14.0233 208.298 14.4184V15.6024C208.298 15.9976 208.101 16.1944 207.706 16.1944H204.361V30.9237C204.359 31.3175 204.162 31.5158 203.767 31.5158Z" fill="white"/>
</svg>
