<svg width="40" height="40" viewBox="0 0 40 40" fill="none" xmlns="http://www.w3.org/2000/svg">
<path d="M32.5 24.9958H28.3333V19.1608C28.3333 17.7788 27.2133 16.6601 25.8333 16.6601C24.4533 16.6601 23.3333 17.7788 23.3333 19.1608V24.9958H7.5C3.365 24.9958 0 28.3617 0 32.4979C0 36.6341 3.365 40 7.5 40H32.5C36.635 40 40 36.6341 40 32.4979C40 28.3617 36.635 24.9958 32.5 24.9958ZM32.5 34.9986H7.5C6.12167 34.9986 5 33.8766 5 32.4979C5 31.1192 6.12167 29.9972 7.5 29.9972H32.5C33.8783 29.9972 35 31.1192 35 32.4979C35 33.8766 33.8783 34.9986 32.5 34.9986ZM33.6367 11.557C34.6133 12.5323 34.6133 14.1177 33.6367 15.093C33.1483 15.5815 32.5083 15.8249 31.8683 15.8249C31.2283 15.8249 30.5883 15.5815 30.1 15.093C27.7467 12.7407 23.9183 12.7407 21.565 15.093C20.5883 16.0699 19.0067 16.0699 18.03 15.093C17.0533 14.1177 17.0533 12.5323 18.03 11.557C22.3317 7.25246 29.3333 7.25246 33.6367 11.557ZM12.3433 8.80956C11.3983 7.80261 11.45 6.21883 12.4567 5.27523C19.9583 -1.75841 31.7083 -1.75841 39.2083 5.27523C40.215 6.21883 40.2683 7.80261 39.3233 8.80956C38.83 9.33471 38.165 9.59978 37.4983 9.59978C36.885 9.59978 36.2717 9.37639 35.79 8.92293C30.2033 3.68812 21.4583 3.68812 15.875 8.92293C14.8667 9.86819 13.285 9.81651 12.3433 8.80956Z" fill="#3551B6"/>
</svg>
