<svg width="28" height="28" viewBox="0 0 28 28" fill="none" xmlns="http://www.w3.org/2000/svg">
<path d="M8.74453 9.877C8.36935 9.86531 8.01417 9.70506 7.75714 9.43149C7.50011 9.15793 7.36228 8.79347 7.37397 8.41829C7.38566 8.0431 7.54591 7.68793 7.81947 7.4309C8.09303 7.17387 8.45749 7.03603 8.83268 7.04772C9.20786 7.05941 9.56304 7.21966 9.82007 7.49323C10.0771 7.76679 10.2149 8.13125 10.2032 8.50643C10.1916 8.88162 10.0313 9.23679 9.75774 9.49382C9.48418 9.75085 9.11972 9.88869 8.74453 9.877Z" fill="black"/>
<path d="M10.1756 0.290378C8.82697 0.249407 7.48549 0.501073 6.24343 1.02806C5.00137 1.55505 3.88821 2.34485 2.98054 3.34313C2.07287 4.34141 1.39223 5.52448 0.985447 6.81093C0.578664 8.09738 0.455395 9.45669 0.624119 10.7953C0.792842 12.134 1.24956 13.4202 1.96283 14.5655C2.67612 15.7107 3.62904 16.6879 4.75603 17.4297C5.88303 18.1716 7.15735 18.6604 8.49133 18.8627C9.82531 19.065 11.1873 18.976 12.4836 18.6016L14.2773 20.5108C14.455 20.7009 14.6686 20.854 14.9058 20.9611C15.143 21.0683 15.399 21.1273 15.6592 21.135L16.8882 21.1733C16.9633 21.1756 17.0343 21.2076 17.0857 21.2624C17.1371 21.3171 17.1647 21.39 17.1623 21.465L17.1113 23.1037C17.1035 23.3663 17.1998 23.6213 17.3792 23.8133L17.6138 24.0619C17.6921 24.1453 17.7863 24.212 17.891 24.2581C17.9956 24.3042 18.1085 24.3287 18.2229 24.3301L21.3181 24.4265C21.3931 24.4288 21.4642 24.4609 21.5156 24.5156C21.567 24.5703 21.5945 24.6432 21.5922 24.7182L21.5569 25.8499C21.5406 26.3752 21.7335 26.8854 22.0934 27.2684C22.4532 27.6514 22.9505 27.8758 23.4757 27.8921L25.1733 27.945C25.6986 27.9614 26.2088 27.7684 26.5918 27.4086C26.9748 27.0487 27.1991 26.5515 27.2155 26.0262L27.3155 22.8167C27.3318 22.2916 27.1381 21.7826 26.7785 21.3998L18.6802 12.7783C19.1772 11.3914 19.3391 9.90648 19.1527 8.44497C18.9663 6.98347 18.4367 5.58679 17.6074 4.36902C16.7781 3.15125 15.6725 2.14692 14.3808 1.43807C13.0892 0.72922 11.6482 0.335948 10.1756 0.290378ZM17.5237 9.86498C17.4961 10.8185 17.2889 11.7582 16.9129 12.6349C16.8479 12.7868 16.8286 12.9543 16.8573 13.1169C16.8861 13.2796 16.9616 13.4304 17.0747 13.5507L25.5415 22.5609C25.567 22.5881 25.5868 22.62 25.5999 22.6548C25.613 22.6896 25.6191 22.7266 25.6179 22.7638L25.5179 25.9733C25.5131 26.1295 25.3824 26.2523 25.2262 26.2475L23.5286 26.1946C23.4536 26.1922 23.3826 26.1602 23.3311 26.1055C23.2797 26.0508 23.2522 25.9779 23.2545 25.9028L23.2898 24.7711C23.3238 23.6779 22.4642 22.763 21.371 22.7289L18.8246 22.6496L18.8599 21.5179C18.894 20.4247 18.0343 19.5097 16.9411 19.4757L15.7121 19.4374C15.6749 19.4363 15.6383 19.4279 15.6044 19.4127C15.5704 19.3974 15.5398 19.3756 15.5143 19.3485L13.3533 17.0473C13.2402 16.9269 13.0944 16.8421 12.9338 16.8033C12.7733 16.7645 12.6049 16.7734 12.4493 16.8288C10.9108 17.3769 9.23715 17.4177 7.67375 16.9452C6.11036 16.4728 4.73943 15.5119 3.76192 14.2035C2.78442 12.8951 2.25176 11.308 2.24202 9.67483C2.23228 8.04164 2.74597 6.44828 3.7078 5.12832C4.66963 3.80836 6.02901 2.83123 7.58665 2.34017C9.1443 1.8491 10.8183 1.86993 12.3632 2.3996C13.9082 2.92927 15.2428 3.93992 16.1715 5.2834C17.1002 6.62688 17.5741 8.23253 17.5237 9.86498Z" fill="black"/>
</svg>
