<svg width="26" height="27" viewBox="0 0 26 27" fill="none" xmlns="http://www.w3.org/2000/svg">
<path d="M7.52357 12.4553C7.52357 12.7436 7.40907 13.02 7.20524 13.2239C7.00142 13.4277 6.72498 13.5422 6.43673 13.5422C6.14848 13.5422 5.87203 13.4277 5.66821 13.2239C5.46438 13.02 5.34988 12.7436 5.34988 12.4553C5.34988 10.399 6.68887 8.10794 8.61042 8.10794C10.532 8.10794 11.871 10.399 11.871 12.4553C11.871 12.7436 11.7565 13.02 11.5526 13.2239C11.3488 13.4277 11.0724 13.5422 10.7841 13.5422C10.4959 13.5422 10.2194 13.4277 10.0156 13.2239C9.81178 13.02 9.69727 12.7436 9.69727 12.4553C9.69727 11.3098 8.9593 10.2816 8.61042 10.2816C8.26154 10.2816 7.52357 11.3098 7.52357 12.4553ZM17.3052 8.10794C15.3837 8.10794 14.0447 10.399 14.0447 12.4553C14.0447 12.7436 14.1592 13.02 14.363 13.2239C14.5668 13.4277 14.8433 13.5422 15.1315 13.5422C15.4198 13.5422 15.6962 13.4277 15.9 13.2239C16.1039 13.02 16.2184 12.7436 16.2184 12.4553C16.2184 11.3098 16.9563 10.2816 17.3052 10.2816C17.6541 10.2816 18.3921 11.3098 18.3921 12.4553C18.3921 12.7436 18.5066 13.02 18.7104 13.2239C18.9142 13.4277 19.1907 13.5422 19.4789 13.5422C19.7672 13.5422 20.0436 13.4277 20.2474 13.2239C20.4513 13.02 20.5658 12.7436 20.5658 12.4553C20.5658 10.399 19.2268 8.10794 17.3052 8.10794ZM17.2943 15.7159H8.6202C8.44898 15.7143 8.27983 15.7534 8.12669 15.83C7.97356 15.9066 7.84084 16.0186 7.73946 16.1566C7.63809 16.2946 7.57097 16.4547 7.54363 16.6237C7.5163 16.7928 7.52954 16.9659 7.58226 17.1288C7.93646 18.2796 8.65044 19.2866 9.61931 20.0016C10.5882 20.7166 11.7608 21.102 12.965 21.1011C14.1691 21.1003 15.3412 20.7132 16.3091 19.9968C17.2769 19.2805 17.9895 18.2725 18.3421 17.1212C18.3936 16.9579 18.4056 16.7848 18.377 16.616C18.3485 16.4472 18.2802 16.2876 18.1779 16.1503C18.0756 16.0131 17.9421 15.9021 17.7885 15.8266C17.6349 15.7511 17.4655 15.7131 17.2943 15.7159ZM26 13.5422C25.9963 17 24.621 20.3152 22.1759 22.7603C19.7308 25.2053 16.4157 26.5806 12.9578 26.5844C-4.32308 25.9323 -4.31547 1.15211 12.9578 0.5C16.4157 0.50374 19.7308 1.87902 22.1759 4.3241C24.621 6.76917 25.9963 10.0843 26 13.5422ZM23.8263 13.5422C23.8231 10.6607 22.6771 7.89805 20.6395 5.8605C18.602 3.82295 15.8393 2.67686 12.9578 2.6737C-1.44075 3.21712 -1.43749 23.8672 12.9578 24.4107C15.8393 24.4075 18.602 23.2614 20.6395 21.2239C22.6771 19.1863 23.8231 16.4237 23.8263 13.5422Z" fill="white"/>
</svg>
