<svg width="396" height="106" viewBox="0 0 396 106" fill="none" xmlns="http://www.w3.org/2000/svg">
<g filter="url(#filter0_d_1922_27135)">
<circle cx="198.111" cy="53.1113" r="25.1113" fill="white"/>
<circle cx="198.111" cy="53.1113" r="24.1113" stroke="#E2E2E2" stroke-width="2"/>
</g>
<circle cx="12" cy="53" r="7" fill="#D9D9D9"/>
<g filter="url(#filter1_d_1922_27135)">
<circle cx="12" cy="53" r="3.5" fill="white"/>
</g>
<circle cx="384" cy="53" r="7" fill="#D9D9D9"/>
<g filter="url(#filter2_d_1922_27135)">
<circle cx="384" cy="53" r="3.5" fill="white"/>
</g>
<circle cx="96" cy="53" r="9" fill="#D9D9D9"/>
<g filter="url(#filter3_d_1922_27135)">
<circle cx="96" cy="53" r="4.5" fill="white"/>
</g>
<circle cx="300" cy="53" r="9" fill="#D9D9D9"/>
<g filter="url(#filter4_d_1922_27135)">
<circle cx="300" cy="53" r="4.5" fill="white"/>
</g>
<line x1="29" y1="52" x2="77" y2="52" stroke="#D5D5D5" stroke-width="2" stroke-linecap="round"/>
<line x1="319" y1="52" x2="367" y2="52" stroke="#D5D5D5" stroke-width="2" stroke-linecap="round"/>
<line x1="115" y1="52" x2="163" y2="52" stroke="#D5D5D5" stroke-width="2" stroke-linecap="round"/>
<line x1="233" y1="52" x2="281" y2="52" stroke="#D5D5D5" stroke-width="2" stroke-linecap="round"/>
<path d="M203.162 55.0653C202.909 54.6262 202.349 54.4759 201.91 54.7289L201.014 55.245C200.46 54.6473 199.737 54.2128 198.916 54.0248V52.9972C198.916 52.4902 198.505 52.0804 197.999 52.0804C197.493 52.0804 197.082 52.4902 197.082 52.9972V54.0248C196.261 54.2128 195.538 54.6464 194.984 55.245L194.088 54.7289C193.65 54.4768 193.089 54.6271 192.836 55.0653C192.584 55.5045 192.734 56.0646 193.173 56.3167L194.075 56.8356C193.956 57.2188 193.875 57.6176 193.875 58.0393C193.875 58.461 193.956 58.8597 194.075 59.2429L193.173 59.7618C192.734 60.0139 192.584 60.575 192.836 61.0132C193.006 61.3074 193.314 61.4725 193.632 61.4725C193.787 61.4725 193.944 61.433 194.088 61.3496L194.984 60.8335C195.539 61.4312 196.261 61.8657 197.082 62.0537V63.0813C197.082 63.5883 197.493 63.9981 197.999 63.9981C198.505 63.9981 198.916 63.5883 198.916 63.0813V62.0537C199.737 61.8657 200.461 61.4321 201.014 60.8335L201.91 61.3496C202.054 61.433 202.212 61.4725 202.366 61.4725C202.684 61.4725 202.993 61.3074 203.162 61.0132C203.414 60.574 203.264 60.0139 202.825 59.7618L201.924 59.2429C202.042 58.8597 202.124 58.461 202.124 58.0393C202.124 57.6176 202.042 57.2188 201.924 56.8356L202.825 56.3167C203.264 56.0646 203.414 55.5035 203.162 55.0653ZM197.999 60.3311C196.736 60.3311 195.707 59.3034 195.707 58.0393C195.707 56.7751 196.736 55.7474 197.999 55.7474C199.262 55.7474 200.291 56.7751 200.291 58.0393C200.291 59.3034 199.262 60.3311 197.999 60.3311ZM209 53.4555C209 55.7391 207.771 57.8687 205.791 59.0128C205.353 59.2677 204.793 59.1164 204.539 58.6791C204.286 58.24 204.436 57.6799 204.874 57.4269C206.287 56.6082 207.166 55.0873 207.166 53.4555C207.166 51.0583 205.462 48.9791 203.116 48.5106C202.238 48.3355 201.517 47.7763 201.138 46.9769C200.054 44.6906 197.639 43.4685 195.118 43.9251C192.911 44.3294 191.113 46.1619 190.744 48.3823C190.632 49.0561 190.639 49.729 190.766 50.3817C190.942 51.2884 190.604 52.2592 189.883 52.9147C189.215 53.5215 188.833 54.3869 188.833 55.289C188.833 56.545 189.681 57.6396 190.895 57.9522C191.386 58.0787 191.68 58.5792 191.554 59.0688C191.448 59.4822 191.076 59.7572 190.667 59.7572C190.591 59.7572 190.515 59.7481 190.438 59.7288C188.414 59.2072 187 57.381 187 55.289C187 53.8717 187.601 52.5122 188.651 51.5579C188.901 51.3305 189.022 51.0143 188.968 50.7319C188.8 49.8647 188.789 48.9727 188.938 48.0825C189.437 45.0673 191.788 42.6719 194.788 42.1228C198.083 41.5177 201.374 43.1926 202.795 46.1913C202.924 46.4626 203.171 46.6524 203.476 46.7129C206.677 47.3509 209 50.1864 209 53.4546V53.4555Z" fill="#3551B6"/>
<defs>
<filter id="filter0_d_1922_27135" x="145.901" y="0.900692" width="104.421" height="104.421" filterUnits="userSpaceOnUse" color-interpolation-filters="sRGB">
<feFlood flood-opacity="0" result="BackgroundImageFix"/>
<feColorMatrix in="SourceAlpha" type="matrix" values="0 0 0 0 0 0 0 0 0 0 0 0 0 0 0 0 0 0 127 0" result="hardAlpha"/>
<feOffset/>
<feGaussianBlur stdDeviation="13.5497"/>
<feComposite in2="hardAlpha" operator="out"/>
<feColorMatrix type="matrix" values="0 0 0 0 0 0 0 0 0 0 0 0 0 0 0 0 0 0 0.15 0"/>
<feBlend mode="normal" in2="BackgroundImageFix" result="effect1_dropShadow_1922_27135"/>
<feBlend mode="normal" in="SourceGraphic" in2="effect1_dropShadow_1922_27135" result="shape"/>
</filter>
<filter id="filter1_d_1922_27135" x="0.333333" y="41.3333" width="23.3333" height="23.3333" filterUnits="userSpaceOnUse" color-interpolation-filters="sRGB">
<feFlood flood-opacity="0" result="BackgroundImageFix"/>
<feColorMatrix in="SourceAlpha" type="matrix" values="0 0 0 0 0 0 0 0 0 0 0 0 0 0 0 0 0 0 127 0" result="hardAlpha"/>
<feOffset/>
<feGaussianBlur stdDeviation="4.08333"/>
<feComposite in2="hardAlpha" operator="out"/>
<feColorMatrix type="matrix" values="0 0 0 0 0 0 0 0 0 0 0 0 0 0 0 0 0 0 0.15 0"/>
<feBlend mode="normal" in2="BackgroundImageFix" result="effect1_dropShadow_1922_27135"/>
<feBlend mode="normal" in="SourceGraphic" in2="effect1_dropShadow_1922_27135" result="shape"/>
</filter>
<filter id="filter2_d_1922_27135" x="372.333" y="41.3333" width="23.3333" height="23.3333" filterUnits="userSpaceOnUse" color-interpolation-filters="sRGB">
<feFlood flood-opacity="0" result="BackgroundImageFix"/>
<feColorMatrix in="SourceAlpha" type="matrix" values="0 0 0 0 0 0 0 0 0 0 0 0 0 0 0 0 0 0 127 0" result="hardAlpha"/>
<feOffset/>
<feGaussianBlur stdDeviation="4.08333"/>
<feComposite in2="hardAlpha" operator="out"/>
<feColorMatrix type="matrix" values="0 0 0 0 0 0 0 0 0 0 0 0 0 0 0 0 0 0 0.15 0"/>
<feBlend mode="normal" in2="BackgroundImageFix" result="effect1_dropShadow_1922_27135"/>
<feBlend mode="normal" in="SourceGraphic" in2="effect1_dropShadow_1922_27135" result="shape"/>
</filter>
<filter id="filter3_d_1922_27135" x="81" y="38" width="30" height="30" filterUnits="userSpaceOnUse" color-interpolation-filters="sRGB">
<feFlood flood-opacity="0" result="BackgroundImageFix"/>
<feColorMatrix in="SourceAlpha" type="matrix" values="0 0 0 0 0 0 0 0 0 0 0 0 0 0 0 0 0 0 127 0" result="hardAlpha"/>
<feOffset/>
<feGaussianBlur stdDeviation="5.25"/>
<feComposite in2="hardAlpha" operator="out"/>
<feColorMatrix type="matrix" values="0 0 0 0 0 0 0 0 0 0 0 0 0 0 0 0 0 0 0.15 0"/>
<feBlend mode="normal" in2="BackgroundImageFix" result="effect1_dropShadow_1922_27135"/>
<feBlend mode="normal" in="SourceGraphic" in2="effect1_dropShadow_1922_27135" result="shape"/>
</filter>
<filter id="filter4_d_1922_27135" x="285" y="38" width="30" height="30" filterUnits="userSpaceOnUse" color-interpolation-filters="sRGB">
<feFlood flood-opacity="0" result="BackgroundImageFix"/>
<feColorMatrix in="SourceAlpha" type="matrix" values="0 0 0 0 0 0 0 0 0 0 0 0 0 0 0 0 0 0 127 0" result="hardAlpha"/>
<feOffset/>
<feGaussianBlur stdDeviation="5.25"/>
<feComposite in2="hardAlpha" operator="out"/>
<feColorMatrix type="matrix" values="0 0 0 0 0 0 0 0 0 0 0 0 0 0 0 0 0 0 0.15 0"/>
<feBlend mode="normal" in2="BackgroundImageFix" result="effect1_dropShadow_1922_27135"/>
<feBlend mode="normal" in="SourceGraphic" in2="effect1_dropShadow_1922_27135" result="shape"/>
</filter>
</defs>
</svg>
