<svg width="61" height="61" viewBox="0 0 61 61" fill="none" xmlns="http://www.w3.org/2000/svg">
<path d="M9.82815 48.1526C9.35542 48.965 8.50401 49.4221 7.62463 49.4221C7.19257 49.4221 6.75542 49.3129 6.35386 49.0818C2.4348 46.817 0 42.6048 0 38.0853V17.7732C0.00254154 10.7731 5.70322 5.07804 12.7103 5.07804V2.53902C12.7103 1.13748 13.8489 0 15.2518 0C16.6547 0 17.7933 1.13748 17.7933 2.53902V5.07804H35.5842V2.53902C35.5842 1.13748 36.7202 0 38.1257 0C39.5312 0 40.6672 1.13748 40.6672 2.53902V5.07804C47.6743 5.07804 53.375 10.7731 53.375 17.7732V38.0853C53.375 39.4869 52.2389 40.6244 50.8334 40.6244C49.4279 40.6244 48.2919 39.4869 48.2919 38.0853V22.8512H45.7503C44.3449 22.8512 43.2088 21.7137 43.2088 20.3122C43.2088 18.9106 44.3449 17.7732 45.7503 17.7732H48.2919C48.2919 13.5736 44.871 10.1561 40.6672 10.1561H12.7103C8.50655 10.1561 5.08563 13.5736 5.08563 17.7732H25.418C26.8209 17.7732 27.9595 18.9106 27.9595 20.3122C27.9595 21.7137 26.8209 22.8512 25.418 22.8512H5.08563V38.0853C5.08563 40.797 6.54702 43.3259 8.89795 44.6842C10.1128 45.385 10.5322 46.9389 9.82815 48.1526ZM52.7599 47.175L43.2317 43.6179V30.8085C43.2317 26.9593 40.497 23.6129 36.8702 23.0239C34.6311 22.6608 32.3767 23.2828 30.6714 24.7326C28.9634 26.1824 27.9824 28.2999 27.9824 30.5368V49.7394L25.4027 47.6879C25.3849 47.6727 25.3621 47.6727 25.3443 47.6574C22.2665 44.9839 17.5951 45.1819 14.7892 48.183C11.9173 51.2502 12.08 56.0794 15.1196 58.9231L16.5378 60.2891C17.0106 60.7461 17.6434 61 18.3017 61C20.589 61 21.7124 58.2198 20.0655 56.6329L18.6219 55.2415C17.5977 54.2817 17.5443 52.6695 18.505 51.6462C19.4581 50.6256 21.0669 50.5773 22.0886 51.5244C22.114 51.5472 28.9431 56.9858 28.9431 56.9858C29.7081 57.5952 30.7552 57.7094 31.6295 57.288C32.5089 56.8639 33.068 55.9753 33.068 55.0003V30.5292C33.068 29.7827 33.3959 29.0769 33.9652 28.5919C34.5447 28.1019 35.2817 27.8988 36.0543 28.0257C37.2311 28.2187 38.1511 29.4374 38.1511 30.8009V45.3723C38.1511 46.4311 38.8094 47.3807 39.8031 47.7514L50.9834 51.9255C53.7892 52.9716 55.7259 55.5767 55.9216 58.5575C56.0105 59.9006 57.1288 60.9314 58.4555 60.9314C58.5114 60.9314 58.5673 60.9314 58.6233 60.9264C60.0236 60.8324 61.086 59.6239 60.9945 58.2274C60.6667 53.256 57.4363 48.9168 52.7599 47.175Z" fill="#F4B942"/>
</svg>
