<svg width="32" height="32" viewBox="0 0 32 32" fill="none" xmlns="http://www.w3.org/2000/svg">
<path d="M22 24H21.3333V6C21.3333 2.692 18.6413 0 15.3333 0H6C2.692 0 0 2.692 0 6V27.3333C0 29.9067 2.092 31.9987 4.664 32H21.3333C23.5387 32 25.3333 30.2053 25.3333 28V27.3333C25.3333 25.4947 23.8387 24 22 24ZM6.66667 27.3333C6.66667 28.436 5.76933 29.3333 4.66667 29.3333C3.564 29.3333 2.66667 28.436 2.66667 27.3333V6C2.66667 4.16133 4.16133 2.66667 6 2.66667H15.3333C17.172 2.66667 18.6667 4.16133 18.6667 6V24H10C8.16133 24 6.66667 25.4947 6.66667 27.3333ZM22.6667 28C22.6667 28.736 22.0693 29.3333 21.3333 29.3333H8.88267C9.172 28.7267 9.33333 28.048 9.33333 27.3333C9.33333 26.9667 9.63333 26.6667 10 26.6667H22C22.3667 26.6667 22.6667 26.9667 22.6667 27.3333V28ZM28 0C25.7947 0 24 1.79467 24 4V17.7907C24 19.572 24.6947 21.2467 25.9533 22.5053L27.0573 23.6093C27.3173 23.8693 27.6587 24 28 24C28.3413 24 28.6827 23.8693 28.9427 23.6093L30.0467 22.5053C31.3053 21.2467 32 19.572 32 17.7907V4C32 1.79467 30.2053 0 28 0ZM29.3333 17.7907C29.3333 18.86 28.916 19.8653 28.1613 20.62L28 20.7813L27.8387 20.62C27.084 19.8653 26.6667 18.86 26.6667 17.7907V4C26.6667 3.264 27.264 2.66667 28 2.66667C28.736 2.66667 29.3333 3.264 29.3333 4V17.7907ZM4.39067 9.46267C3.86933 8.94133 3.86933 8.09733 4.39067 7.57733C4.912 7.056 5.75467 7.056 6.276 7.57733L7.99333 9.296C8.03733 9.34 8.13333 9.34 8.17867 9.296L11.084 6.39067C11.6053 5.86933 12.448 5.86933 12.9693 6.39067C13.4907 6.912 13.4907 7.75467 12.9693 8.276L10.064 11.1813C9.51867 11.7267 8.80267 11.9987 8.08667 11.9987C7.37067 11.9987 6.65467 11.7267 6.10933 11.1813L4.39067 9.46267ZM10.064 19.1813C9.51867 19.7267 8.80267 19.9987 8.08667 19.9987C7.37067 19.9987 6.65467 19.7267 6.10933 19.1813L4.392 17.4627C3.87067 16.9413 3.87067 16.0973 4.392 15.5773C4.91333 15.056 5.756 15.056 6.27733 15.5773L7.99467 17.296C8.03867 17.34 8.13467 17.34 8.18 17.296L11.0853 14.3907C11.6067 13.8693 12.4493 13.8693 12.9707 14.3907C13.492 14.912 13.492 15.7547 12.9707 16.276L10.064 19.1813Z" fill="#3551B6"/>
</svg>
