<svg width="20" height="21" viewBox="0 0 20 21" fill="none" xmlns="http://www.w3.org/2000/svg">
<path d="M19.2675 8.04421L12.9467 1.71875C12.1644 0.938275 11.1047 0.5 10 0.5C8.89528 0.5 7.83563 0.938275 7.05334 1.71875L0.732509 8.04421C0.499531 8.27583 0.314818 8.55143 0.189079 8.85501C0.0633393 9.1586 -0.000925333 9.48414 1.00662e-05 9.81277V17.9985C1.00662e-05 18.6619 0.263402 19.2982 0.732242 19.7673C1.20108 20.2365 1.83697 20.5 2.50001 20.5H17.5C18.163 20.5 18.7989 20.2365 19.2678 19.7673C19.7366 19.2982 20 18.6619 20 17.9985V9.81277C20.0009 9.48414 19.9367 9.1586 19.8109 8.85501C19.6852 8.55143 19.5005 8.27583 19.2675 8.04421ZM12.5 18.8323H7.5V15.552C7.5 14.8886 7.76339 14.2523 8.23223 13.7832C8.70108 13.3141 9.33696 13.0505 10 13.0505C10.663 13.0505 11.2989 13.3141 11.7678 13.7832C12.2366 14.2523 12.5 14.8886 12.5 15.552V18.8323ZM18.3333 17.9985C18.3333 18.2196 18.2455 18.4317 18.0892 18.5881C17.933 18.7445 17.721 18.8323 17.5 18.8323H14.1667V15.552C14.1667 14.4463 13.7277 13.3859 12.9463 12.604C12.1649 11.8221 11.1051 11.3829 10 11.3829C8.89493 11.3829 7.83513 11.8221 7.05373 12.604C6.27232 13.3859 5.83334 14.4463 5.83334 15.552V18.8323H2.50001C2.27899 18.8323 2.06703 18.7445 1.91075 18.5881C1.75447 18.4317 1.66668 18.2196 1.66668 17.9985V9.81277C1.66745 9.59178 1.75517 9.38 1.91084 9.22325L8.23167 2.90029C8.70142 2.43245 9.33722 2.16981 10 2.16981C10.6628 2.16981 11.2986 2.43245 11.7683 2.90029L18.0892 9.22575C18.2442 9.38188 18.3319 9.59265 18.3333 9.81277V17.9985Z" fill="white"/>
</svg>
